<svg width="241" height="48" viewBox="0 0 241 48" fill="none" xmlns="http://www.w3.org/2000/svg">
<line x1="133.773" y1="14.6771" x2="207.87" y2="14.6771" stroke="#374151" stroke-width="0.645816"/>
<line x1="37.6478" y1="14.6771" x2="114.748" y2="14.6771" stroke="#374151" stroke-width="0.645816"/>
<path d="M3.20254 44.4517L0.572539 37.4517H1.48254L3.69254 43.5617L5.92254 37.4517H6.81254L4.18254 44.4517H3.20254ZM9.39793 44.5717C8.9246 44.5717 8.5046 44.465 8.13793 44.2517C7.77126 44.0317 7.48126 43.7283 7.26793 43.3417C7.06126 42.955 6.95793 42.4983 6.95793 41.9717C6.95793 41.4517 7.06126 40.9983 7.26793 40.6117C7.4746 40.2183 7.76126 39.915 8.12793 39.7017C8.50126 39.4817 8.93126 39.3717 9.41793 39.3717C9.89793 39.3717 10.3113 39.4817 10.6579 39.7017C11.0113 39.915 11.2813 40.1983 11.4679 40.5517C11.6546 40.905 11.7479 41.285 11.7479 41.6917C11.7479 41.765 11.7446 41.8383 11.7379 41.9117C11.7379 41.985 11.7379 42.0683 11.7379 42.1617H7.78793C7.80793 42.5417 7.8946 42.8583 8.04793 43.1117C8.20793 43.3583 8.4046 43.545 8.63793 43.6717C8.87793 43.7983 9.13126 43.8617 9.39793 43.8617C9.7446 43.8617 10.0346 43.7817 10.2679 43.6217C10.5013 43.4617 10.6713 43.245 10.7779 42.9717H11.6079C11.4746 43.4317 11.2179 43.815 10.8379 44.1217C10.4646 44.4217 9.9846 44.5717 9.39793 44.5717ZM9.39793 40.0817C8.99793 40.0817 8.64126 40.205 8.32793 40.4517C8.02126 40.6917 7.8446 41.045 7.79793 41.5117H10.9179C10.8979 41.065 10.7446 40.715 10.4579 40.4617C10.1713 40.2083 9.81793 40.0817 9.39793 40.0817ZM12.9613 44.4517V39.4917H13.7213L13.7913 40.4417C13.9446 40.115 14.178 39.855 14.4913 39.6617C14.8046 39.4683 15.1913 39.3717 15.6513 39.3717V40.2517H15.4213C15.128 40.2517 14.858 40.305 14.6113 40.4117C14.3646 40.5117 14.168 40.685 14.0213 40.9317C13.8746 41.1783 13.8013 41.5183 13.8013 41.9517V44.4517H12.9613ZM17.2041 38.3917C17.0374 38.3917 16.8974 38.3383 16.7841 38.2317C16.6774 38.1183 16.6241 37.9783 16.6241 37.8117C16.6241 37.6517 16.6774 37.5183 16.7841 37.4117C16.8974 37.305 17.0374 37.2517 17.2041 37.2517C17.3641 37.2517 17.5008 37.305 17.6141 37.4117C17.7274 37.5183 17.7841 37.6517 17.7841 37.8117C17.7841 37.9783 17.7274 38.1183 17.6141 38.2317C17.5008 38.3383 17.3641 38.3917 17.2041 38.3917ZM16.7841 44.4517V39.4917H17.6241V44.4517H16.7841ZM19.4567 44.4517V40.2017H18.7067V39.4917H19.4567V38.6317C19.4567 38.1517 19.5767 37.8017 19.8167 37.5817C20.0567 37.3617 20.4067 37.2517 20.8667 37.2517H21.3667V37.9717H20.9967C20.7433 37.9717 20.5633 38.025 20.4567 38.1317C20.35 38.2317 20.2967 38.405 20.2967 38.6517V39.4917H23.3767V44.4517H22.5367V40.2017H20.2967V44.4517H19.4567ZM22.9667 38.5417C22.8067 38.5417 22.67 38.4883 22.5567 38.3817C22.4433 38.2683 22.3867 38.1283 22.3867 37.9617C22.3867 37.8017 22.4433 37.6683 22.5567 37.5617C22.67 37.455 22.8067 37.4017 22.9667 37.4017C23.1333 37.4017 23.27 37.455 23.3767 37.5617C23.49 37.6683 23.5467 37.8017 23.5467 37.9617C23.5467 38.1283 23.49 38.2683 23.3767 38.3817C23.27 38.4883 23.1333 38.5417 22.9667 38.5417ZM27.2405 44.5717C26.7672 44.5717 26.3405 44.465 25.9605 44.2517C25.5872 44.0317 25.2905 43.7283 25.0705 43.3417C24.8572 42.9483 24.7505 42.4917 24.7505 41.9717C24.7505 41.4517 24.8572 40.9983 25.0705 40.6117C25.2905 40.2183 25.5872 39.915 25.9605 39.7017C26.3405 39.4817 26.7672 39.3717 27.2405 39.3717C27.8272 39.3717 28.3205 39.525 28.7205 39.8317C29.1272 40.1383 29.3838 40.5483 29.4905 41.0617H28.6305C28.5638 40.755 28.4005 40.5183 28.1405 40.3517C27.8805 40.1783 27.5772 40.0917 27.2305 40.0917C26.9505 40.0917 26.6872 40.1617 26.4405 40.3017C26.1938 40.4417 25.9938 40.6517 25.8405 40.9317C25.6872 41.2117 25.6105 41.5583 25.6105 41.9717C25.6105 42.385 25.6872 42.7317 25.8405 43.0117C25.9938 43.2917 26.1938 43.505 26.4405 43.6517C26.6872 43.7917 26.9505 43.8617 27.2305 43.8617C27.5772 43.8617 27.8805 43.7783 28.1405 43.6117C28.4005 43.4383 28.5638 43.195 28.6305 42.8817H29.4905C29.3905 43.3817 29.1372 43.7883 28.7305 44.1017C28.3238 44.415 27.8272 44.5717 27.2405 44.5717ZM32.4136 44.5717C32.0003 44.5717 31.657 44.5017 31.3836 44.3617C31.1103 44.2217 30.907 44.035 30.7736 43.8017C30.6403 43.5683 30.5736 43.315 30.5736 43.0417C30.5736 42.535 30.767 42.145 31.1536 41.8717C31.5403 41.5983 32.067 41.4617 32.7336 41.4617H34.0736V41.4017C34.0736 40.9683 33.9603 40.6417 33.7336 40.4217C33.507 40.195 33.2036 40.0817 32.8236 40.0817C32.497 40.0817 32.2136 40.165 31.9736 40.3317C31.7403 40.4917 31.5936 40.7283 31.5336 41.0417H30.6736C30.707 40.6817 30.827 40.3783 31.0336 40.1317C31.247 39.885 31.5103 39.6983 31.8236 39.5717C32.137 39.4383 32.4703 39.3717 32.8236 39.3717C33.517 39.3717 34.037 39.5583 34.3836 39.9317C34.737 40.2983 34.9136 40.7883 34.9136 41.4017V44.4517H34.1636L34.1136 43.5617C33.9736 43.8417 33.767 44.0817 33.4936 44.2817C33.227 44.475 32.867 44.5717 32.4136 44.5717ZM32.5436 43.8617C32.8636 43.8617 33.137 43.7783 33.3636 43.6117C33.597 43.445 33.7736 43.2283 33.8936 42.9617C34.0136 42.695 34.0736 42.415 34.0736 42.1217V42.1117H32.8036C32.3103 42.1117 31.9603 42.1983 31.7536 42.3717C31.5536 42.5383 31.4536 42.7483 31.4536 43.0017C31.4536 43.2617 31.547 43.4717 31.7336 43.6317C31.927 43.785 32.197 43.8617 32.5436 43.8617ZM38.0971 44.4517C37.6437 44.4517 37.2871 44.3417 37.0271 44.1217C36.7671 43.9017 36.6371 43.505 36.6371 42.9317V40.2017H35.7771V39.4917H36.6371L36.7471 38.3017H37.4771V39.4917H38.9371V40.2017H37.4771V42.9317C37.4771 43.245 37.5404 43.4583 37.6671 43.5717C37.7937 43.6783 38.0171 43.7317 38.3371 43.7317H38.8571V44.4517H38.0971ZM40.6143 38.3917C40.4476 38.3917 40.3076 38.3383 40.1943 38.2317C40.0876 38.1183 40.0343 37.9783 40.0343 37.8117C40.0343 37.6517 40.0876 37.5183 40.1943 37.4117C40.3076 37.305 40.4476 37.2517 40.6143 37.2517C40.7743 37.2517 40.9109 37.305 41.0243 37.4117C41.1376 37.5183 41.1943 37.6517 41.1943 37.8117C41.1943 37.9783 41.1376 38.1183 41.0243 38.2317C40.9109 38.3383 40.7743 38.3917 40.6143 38.3917ZM40.1943 44.4517V39.4917H41.0343V44.4517H40.1943ZM44.8568 44.5717C44.3902 44.5717 43.9702 44.465 43.5968 44.2517C43.2235 44.0383 42.9268 43.7383 42.7068 43.3517C42.4935 42.9583 42.3868 42.4983 42.3868 41.9717C42.3868 41.445 42.4968 40.9883 42.7168 40.6017C42.9368 40.2083 43.2335 39.905 43.6068 39.6917C43.9868 39.4783 44.4102 39.3717 44.8768 39.3717C45.3435 39.3717 45.7635 39.4783 46.1368 39.6917C46.5102 39.905 46.8035 40.2083 47.0168 40.6017C47.2368 40.9883 47.3468 41.445 47.3468 41.9717C47.3468 42.4983 47.2368 42.9583 47.0168 43.3517C46.7968 43.7383 46.4968 44.0383 46.1168 44.2517C45.7435 44.465 45.3235 44.5717 44.8568 44.5717ZM44.8568 43.8517C45.1435 43.8517 45.4102 43.7817 45.6568 43.6417C45.9035 43.5017 46.1035 43.2917 46.2568 43.0117C46.4102 42.7317 46.4868 42.385 46.4868 41.9717C46.4868 41.5583 46.4102 41.2117 46.2568 40.9317C46.1102 40.6517 45.9135 40.4417 45.6668 40.3017C45.4202 40.1617 45.1568 40.0917 44.8768 40.0917C44.5902 40.0917 44.3235 40.1617 44.0768 40.3017C43.8302 40.4417 43.6302 40.6517 43.4768 40.9317C43.3235 41.2117 43.2468 41.5583 43.2468 41.9717C43.2468 42.385 43.3235 42.7317 43.4768 43.0117C43.6302 43.2917 43.8268 43.5017 44.0668 43.6417C44.3135 43.7817 44.5768 43.8517 44.8568 43.8517ZM48.6148 44.4517V39.4917H49.3748L49.4248 40.3817C49.5848 40.0683 49.8148 39.8217 50.1148 39.6417C50.4148 39.4617 50.7548 39.3717 51.1348 39.3717C51.7215 39.3717 52.1881 39.5517 52.5348 39.9117C52.8881 40.265 53.0648 40.8117 53.0648 41.5517V44.4517H52.2248V41.6417C52.2248 40.6083 51.7981 40.0917 50.9448 40.0917C50.5181 40.0917 50.1615 40.2483 49.8748 40.5617C49.5948 40.8683 49.4548 41.3083 49.4548 41.8817V44.4517H48.6148Z" fill="#374151"/>
<path d="M106.811 44.5717C106.298 44.5717 105.851 44.4783 105.471 44.2917C105.091 44.105 104.798 43.845 104.591 43.5117C104.385 43.1783 104.281 42.7917 104.281 42.3517H105.161C105.161 42.625 105.225 42.8783 105.351 43.1117C105.478 43.3383 105.661 43.5217 105.901 43.6617C106.148 43.795 106.451 43.8617 106.811 43.8617C107.285 43.8617 107.651 43.7483 107.911 43.5217C108.171 43.295 108.301 43.0117 108.301 42.6717C108.301 42.3917 108.241 42.1683 108.121 42.0017C108.001 41.8283 107.838 41.6883 107.631 41.5817C107.431 41.475 107.198 41.3817 106.931 41.3017C106.671 41.2217 106.398 41.1317 106.111 41.0317C105.571 40.845 105.171 40.615 104.911 40.3417C104.651 40.0617 104.521 39.6983 104.521 39.2517C104.515 38.8783 104.601 38.5483 104.781 38.2617C104.961 37.9683 105.215 37.7417 105.541 37.5817C105.875 37.415 106.268 37.3317 106.721 37.3317C107.168 37.3317 107.555 37.415 107.881 37.5817C108.215 37.7483 108.471 37.9783 108.651 38.2717C108.838 38.565 108.935 38.8983 108.941 39.2717H108.061C108.061 39.0783 108.011 38.8883 107.911 38.7017C107.811 38.5083 107.658 38.3517 107.451 38.2317C107.251 38.1117 106.998 38.0517 106.691 38.0517C106.311 38.045 105.998 38.1417 105.751 38.3417C105.511 38.5417 105.391 38.8183 105.391 39.1717C105.391 39.4717 105.475 39.7017 105.641 39.8617C105.815 40.0217 106.055 40.155 106.361 40.2617C106.668 40.3617 107.021 40.4783 107.421 40.6117C107.755 40.7317 108.055 40.8717 108.321 41.0317C108.588 41.1917 108.795 41.3983 108.941 41.6517C109.095 41.905 109.171 42.2283 109.171 42.6217C109.171 42.955 109.085 43.2717 108.911 43.5717C108.738 43.865 108.475 44.105 108.121 44.2917C107.775 44.4783 107.338 44.5717 106.811 44.5717ZM110.413 44.4517V37.2517H111.253V40.3417C111.419 40.035 111.656 39.7983 111.963 39.6317C112.269 39.4583 112.603 39.3717 112.963 39.3717C113.536 39.3717 113.996 39.5517 114.343 39.9117C114.689 40.265 114.863 40.8117 114.863 41.5517V44.4517H114.033V41.6417C114.033 40.6083 113.616 40.0917 112.783 40.0917C112.349 40.0917 111.986 40.2483 111.693 40.5617C111.399 40.8683 111.253 41.3083 111.253 41.8817V44.4517H110.413ZM116.745 38.3917C116.579 38.3917 116.439 38.3383 116.325 38.2317C116.219 38.1183 116.165 37.9783 116.165 37.8117C116.165 37.6517 116.219 37.5183 116.325 37.4117C116.439 37.305 116.579 37.2517 116.745 37.2517C116.905 37.2517 117.042 37.305 117.155 37.4117C117.269 37.5183 117.325 37.6517 117.325 37.8117C117.325 37.9783 117.269 38.1183 117.155 38.2317C117.042 38.3383 116.905 38.3917 116.745 38.3917ZM116.325 44.4517V39.4917H117.165V44.4517H116.325ZM118.728 46.6517V39.4917H119.488L119.568 40.3117C119.728 40.0717 119.954 39.855 120.248 39.6617C120.548 39.4683 120.928 39.3717 121.388 39.3717C121.881 39.3717 122.311 39.485 122.678 39.7117C123.044 39.9383 123.328 40.2483 123.528 40.6417C123.734 41.035 123.838 41.4817 123.838 41.9817C123.838 42.4817 123.734 42.9283 123.528 43.3217C123.328 43.7083 123.041 44.015 122.668 44.2417C122.301 44.4617 121.871 44.5717 121.378 44.5717C120.971 44.5717 120.608 44.4883 120.288 44.3217C119.974 44.155 119.734 43.9217 119.568 43.6217V46.6517H118.728ZM121.288 43.8417C121.621 43.8417 121.914 43.765 122.168 43.6117C122.421 43.4517 122.621 43.2317 122.768 42.9517C122.914 42.6717 122.988 42.345 122.988 41.9717C122.988 41.5983 122.914 41.2717 122.768 40.9917C122.621 40.7117 122.421 40.495 122.168 40.3417C121.914 40.1817 121.621 40.1017 121.288 40.1017C120.954 40.1017 120.661 40.1817 120.408 40.3417C120.154 40.495 119.954 40.7117 119.808 40.9917C119.661 41.2717 119.588 41.5983 119.588 41.9717C119.588 42.345 119.661 42.6717 119.808 42.9517C119.954 43.2317 120.154 43.4517 120.408 43.6117C120.661 43.765 120.954 43.8417 121.288 43.8417ZM125.107 46.6517V39.4917H125.867L125.947 40.3117C126.107 40.0717 126.334 39.855 126.627 39.6617C126.927 39.4683 127.307 39.3717 127.767 39.3717C128.26 39.3717 128.69 39.485 129.057 39.7117C129.424 39.9383 129.707 40.2483 129.907 40.6417C130.114 41.035 130.217 41.4817 130.217 41.9817C130.217 42.4817 130.114 42.9283 129.907 43.3217C129.707 43.7083 129.42 44.015 129.047 44.2417C128.68 44.4617 128.25 44.5717 127.757 44.5717C127.35 44.5717 126.987 44.4883 126.667 44.3217C126.354 44.155 126.114 43.9217 125.947 43.6217V46.6517H125.107ZM127.667 43.8417C128 43.8417 128.294 43.765 128.547 43.6117C128.8 43.4517 129 43.2317 129.147 42.9517C129.294 42.6717 129.367 42.345 129.367 41.9717C129.367 41.5983 129.294 41.2717 129.147 40.9917C129 40.7117 128.8 40.495 128.547 40.3417C128.294 40.1817 128 40.1017 127.667 40.1017C127.334 40.1017 127.04 40.1817 126.787 40.3417C126.534 40.495 126.334 40.7117 126.187 40.9917C126.04 41.2717 125.967 41.5983 125.967 41.9717C125.967 42.345 126.04 42.6717 126.187 42.9517C126.334 43.2317 126.534 43.4517 126.787 43.6117C127.04 43.765 127.334 43.8417 127.667 43.8417ZM131.996 38.3917C131.83 38.3917 131.69 38.3383 131.576 38.2317C131.47 38.1183 131.416 37.9783 131.416 37.8117C131.416 37.6517 131.47 37.5183 131.576 37.4117C131.69 37.305 131.83 37.2517 131.996 37.2517C132.156 37.2517 132.293 37.305 132.406 37.4117C132.52 37.5183 132.576 37.6517 132.576 37.8117C132.576 37.9783 132.52 38.1183 132.406 38.2317C132.293 38.3383 132.156 38.3917 131.996 38.3917ZM131.576 44.4517V39.4917H132.416V44.4517H131.576ZM133.979 44.4517V39.4917H134.739L134.789 40.3817C134.949 40.0683 135.179 39.8217 135.479 39.6417C135.779 39.4617 136.119 39.3717 136.499 39.3717C137.086 39.3717 137.552 39.5517 137.899 39.9117C138.252 40.265 138.429 40.8117 138.429 41.5517V44.4517H137.589V41.6417C137.589 40.6083 137.162 40.0917 136.309 40.0917C135.882 40.0917 135.526 40.2483 135.239 40.5617C134.959 40.8683 134.819 41.3083 134.819 41.8817V44.4517H133.979ZM141.762 42.8917C141.482 42.8917 141.225 42.855 140.992 42.7817L140.492 43.2517C140.565 43.305 140.655 43.3517 140.762 43.3917C140.875 43.425 141.035 43.4583 141.242 43.4917C141.448 43.5183 141.738 43.5483 142.112 43.5817C142.778 43.6283 143.255 43.7817 143.542 44.0417C143.828 44.3017 143.972 44.6417 143.972 45.0617C143.972 45.3483 143.892 45.6217 143.732 45.8817C143.578 46.1417 143.338 46.355 143.012 46.5217C142.692 46.6883 142.278 46.7717 141.772 46.7717C141.325 46.7717 140.928 46.7117 140.582 46.5917C140.235 46.4783 139.965 46.3017 139.772 46.0617C139.578 45.8283 139.482 45.5317 139.482 45.1717C139.482 44.985 139.532 44.7817 139.632 44.5617C139.732 44.3483 139.918 44.145 140.192 43.9517C140.045 43.8917 139.918 43.8283 139.812 43.7617C139.712 43.6883 139.618 43.6083 139.532 43.5217V43.2917L140.382 42.4517C139.988 42.1183 139.792 41.6783 139.792 41.1317C139.792 40.805 139.868 40.5083 140.022 40.2417C140.175 39.975 140.398 39.765 140.692 39.6117C140.985 39.4517 141.342 39.3717 141.762 39.3717C142.048 39.3717 142.308 39.4117 142.542 39.4917H144.372V40.1217L143.442 40.1617C143.635 40.4417 143.732 40.765 143.732 41.1317C143.732 41.4583 143.652 41.755 143.492 42.0217C143.338 42.2883 143.115 42.5017 142.822 42.6617C142.535 42.815 142.182 42.8917 141.762 42.8917ZM141.762 42.2017C142.115 42.2017 142.395 42.1117 142.602 41.9317C142.815 41.745 142.922 41.4783 142.922 41.1317C142.922 40.7917 142.815 40.5317 142.602 40.3517C142.395 40.165 142.115 40.0717 141.762 40.0717C141.402 40.0717 141.115 40.165 140.902 40.3517C140.695 40.5317 140.592 40.7917 140.592 41.1317C140.592 41.4783 140.695 41.745 140.902 41.9317C141.115 42.1117 141.402 42.2017 141.762 42.2017ZM140.302 45.0917C140.302 45.425 140.442 45.6717 140.722 45.8317C141.002 45.9983 141.352 46.0817 141.772 46.0817C142.185 46.0817 142.515 45.9917 142.762 45.8117C143.015 45.6317 143.142 45.3917 143.142 45.0917C143.142 44.8783 143.055 44.6917 142.882 44.5317C142.708 44.3783 142.388 44.2883 141.922 44.2617C141.555 44.235 141.238 44.2017 140.972 44.1617C140.698 44.3083 140.518 44.465 140.432 44.6317C140.345 44.805 140.302 44.9583 140.302 45.0917Z" fill="#374151"/>
<path d="M137.856 14.1696C137.856 21.7146 131.679 27.8392 124.049 27.8392C116.419 27.8392 110.242 21.7146 110.242 14.1696C110.242 6.62464 116.419 0.5 124.049 0.5C131.679 0.5 137.856 6.62464 137.856 14.1696Z" fill="white" stroke="#374151"/>
<path d="M199.485 44.4517V37.4517H201.785C202.332 37.4517 202.782 37.5417 203.135 37.7217C203.489 37.9017 203.749 38.145 203.915 38.4517C204.089 38.7583 204.175 39.105 204.175 39.4917C204.175 39.8717 204.092 40.215 203.925 40.5217C203.759 40.8283 203.499 41.075 203.145 41.2617C202.792 41.4417 202.339 41.5317 201.785 41.5317H200.325V44.4517H199.485ZM200.325 40.8217H201.765C202.325 40.8217 202.722 40.705 202.955 40.4717C203.195 40.2317 203.315 39.905 203.315 39.4917C203.315 39.0717 203.195 38.745 202.955 38.5117C202.722 38.2717 202.325 38.1517 201.765 38.1517H200.325V40.8217ZM206.742 44.5717C206.329 44.5717 205.985 44.5017 205.712 44.3617C205.439 44.2217 205.235 44.035 205.102 43.8017C204.969 43.5683 204.902 43.315 204.902 43.0417C204.902 42.535 205.095 42.145 205.482 41.8717C205.869 41.5983 206.395 41.4617 207.062 41.4617H208.402V41.4017C208.402 40.9683 208.289 40.6417 208.062 40.4217C207.835 40.195 207.532 40.0817 207.152 40.0817C206.825 40.0817 206.542 40.165 206.302 40.3317C206.069 40.4917 205.922 40.7283 205.862 41.0417H205.002C205.035 40.6817 205.155 40.3783 205.362 40.1317C205.575 39.885 205.839 39.6983 206.152 39.5717C206.465 39.4383 206.799 39.3717 207.152 39.3717C207.845 39.3717 208.365 39.5583 208.712 39.9317C209.065 40.2983 209.242 40.7883 209.242 41.4017V44.4517H208.492L208.442 43.5617C208.302 43.8417 208.095 44.0817 207.822 44.2817C207.555 44.475 207.195 44.5717 206.742 44.5717ZM206.872 43.8617C207.192 43.8617 207.465 43.7783 207.692 43.6117C207.925 43.445 208.102 43.2283 208.222 42.9617C208.342 42.695 208.402 42.415 208.402 42.1217V42.1117H207.132C206.639 42.1117 206.289 42.1983 206.082 42.3717C205.882 42.5383 205.782 42.7483 205.782 43.0017C205.782 43.2617 205.875 43.4717 206.062 43.6317C206.255 43.785 206.525 43.8617 206.872 43.8617ZM210.996 46.6517L212.226 43.9717H211.936L209.966 39.4917H210.876L212.516 43.3517L214.256 39.4917H215.126L211.876 46.6517H210.996ZM216.112 44.4517V39.4917H216.872L216.932 40.2117C217.092 39.945 217.306 39.7383 217.572 39.5917C217.839 39.445 218.139 39.3717 218.472 39.3717C218.866 39.3717 219.202 39.4517 219.482 39.6117C219.769 39.7717 219.989 40.015 220.142 40.3417C220.316 40.0417 220.552 39.805 220.852 39.6317C221.159 39.4583 221.489 39.3717 221.842 39.3717C222.436 39.3717 222.909 39.5517 223.262 39.9117C223.616 40.265 223.792 40.8117 223.792 41.5517V44.4517H222.962V41.6417C222.962 41.1283 222.859 40.7417 222.652 40.4817C222.446 40.2217 222.149 40.0917 221.762 40.0917C221.362 40.0917 221.029 40.2483 220.762 40.5617C220.502 40.8683 220.372 41.3083 220.372 41.8817V44.4517H219.532V41.6417C219.532 41.1283 219.429 40.7417 219.222 40.4817C219.016 40.2217 218.719 40.0917 218.332 40.0917C217.939 40.0917 217.609 40.2483 217.342 40.5617C217.082 40.8683 216.952 41.3083 216.952 41.8817V44.4517H216.112ZM227.388 44.5717C226.914 44.5717 226.494 44.465 226.128 44.2517C225.761 44.0317 225.471 43.7283 225.258 43.3417C225.051 42.955 224.948 42.4983 224.948 41.9717C224.948 41.4517 225.051 40.9983 225.258 40.6117C225.464 40.2183 225.751 39.915 226.118 39.7017C226.491 39.4817 226.921 39.3717 227.408 39.3717C227.888 39.3717 228.301 39.4817 228.648 39.7017C229.001 39.915 229.271 40.1983 229.458 40.5517C229.644 40.905 229.738 41.285 229.738 41.6917C229.738 41.765 229.734 41.8383 229.728 41.9117C229.728 41.985 229.728 42.0683 229.728 42.1617H225.778C225.798 42.5417 225.884 42.8583 226.038 43.1117C226.198 43.3583 226.394 43.545 226.628 43.6717C226.868 43.7983 227.121 43.8617 227.388 43.8617C227.734 43.8617 228.024 43.7817 228.258 43.6217C228.491 43.4617 228.661 43.245 228.768 42.9717H229.598C229.464 43.4317 229.208 43.815 228.828 44.1217C228.454 44.4217 227.974 44.5717 227.388 44.5717ZM227.388 40.0817C226.988 40.0817 226.631 40.205 226.318 40.4517C226.011 40.6917 225.834 41.045 225.788 41.5117H228.908C228.888 41.065 228.734 40.715 228.448 40.4617C228.161 40.2083 227.808 40.0817 227.388 40.0817ZM230.951 44.4517V39.4917H231.711L231.761 40.3817C231.921 40.0683 232.151 39.8217 232.451 39.6417C232.751 39.4617 233.091 39.3717 233.471 39.3717C234.058 39.3717 234.524 39.5517 234.871 39.9117C235.224 40.265 235.401 40.8117 235.401 41.5517V44.4517H234.561V41.6417C234.561 40.6083 234.134 40.0917 233.281 40.0917C232.854 40.0917 232.498 40.2483 232.211 40.5617C231.931 40.8683 231.791 41.3083 231.791 41.8817V44.4517H230.951ZM238.734 44.4517C238.28 44.4517 237.924 44.3417 237.664 44.1217C237.404 43.9017 237.274 43.505 237.274 42.9317V40.2017H236.414V39.4917H237.274L237.384 38.3017H238.114V39.4917H239.574V40.2017H238.114V42.9317C238.114 43.245 238.177 43.4583 238.304 43.5717C238.43 43.6783 238.654 43.7317 238.974 43.7317H239.494V44.4517H238.734Z" fill="#E93A7D"/>
<ellipse cx="220.414" cy="14.1696" rx="14.3073" ry="14.1696" fill="#E93A7D"/>
<path d="M220.403 19.4965C219.784 19.4965 219.224 19.3889 218.722 19.1738C218.219 18.9496 217.816 18.6089 217.511 18.1517C217.206 17.6945 217.045 17.1207 217.027 16.4303H218.722C218.73 16.8876 218.878 17.2731 219.165 17.5869C219.461 17.8917 219.874 18.0441 220.403 18.0441C220.905 18.0441 221.29 17.9052 221.559 17.6272C221.828 17.3493 221.963 16.9996 221.963 16.5783C221.963 16.0852 221.783 15.7131 221.425 15.4621C221.075 15.2021 220.622 15.0721 220.066 15.0721H219.367V13.66H220.08C220.537 13.66 220.918 13.5524 221.223 13.3373C221.528 13.1221 221.68 12.8038 221.68 12.3824C221.68 12.0328 221.564 11.7549 221.33 11.5486C221.106 11.3335 220.793 11.2259 220.389 11.2259C219.95 11.2259 219.605 11.3559 219.354 11.6159C219.112 11.8759 218.977 12.1942 218.95 12.5707H217.269C217.305 11.7011 217.605 11.0152 218.17 10.5131C218.744 10.0111 219.484 9.76004 220.389 9.76004C221.035 9.76004 221.577 9.87659 222.016 10.1097C222.465 10.3338 222.801 10.6342 223.025 11.0107C223.258 11.3873 223.375 11.8042 223.375 12.2614C223.375 12.7904 223.227 13.2386 222.931 13.6062C222.644 13.9648 222.285 14.2069 221.855 14.3324C222.384 14.44 222.814 14.7 223.146 15.1124C223.478 15.5159 223.644 16.0269 223.644 16.6455C223.644 17.1655 223.518 17.6407 223.267 18.071C223.016 18.5014 222.648 18.8465 222.164 19.1065C221.689 19.3665 221.102 19.4965 220.403 19.4965Z" fill="white"/>
<path d="M42.1459 14.1696C42.1459 21.7146 35.9687 27.8392 28.3386 27.8392C20.7084 27.8392 14.5312 21.7146 14.5312 14.1696C14.5312 6.62464 20.7084 0.5 28.3386 0.5C35.9687 0.5 42.1459 6.62464 42.1459 14.1696Z" fill="white" stroke="#374151"/>
<path d="M26.1446 17.0815L23.3851 14.3221C23.075 14.0119 22.574 14.0119 22.2639 14.3221C21.9537 14.6322 21.9537 15.1332 22.2639 15.4433L25.5879 18.7674C25.898 19.0775 26.399 19.0775 26.7092 18.7674L35.1227 10.3539C35.4328 10.0437 35.4328 9.54274 35.1227 9.2326C34.8126 8.92247 34.3116 8.92247 34.0014 9.2326L26.1446 17.0815Z" fill="#374151"/>
<path d="M121.145 17.0815L118.385 14.3221C118.075 14.0119 117.574 14.0119 117.264 14.3221C116.954 14.6322 116.954 15.1332 117.264 15.4433L120.588 18.7674C120.898 19.0775 121.399 19.0775 121.709 18.7674L130.123 10.3539C130.433 10.0437 130.433 9.54274 130.123 9.2326C129.813 8.92247 129.312 8.92247 129.001 9.2326L121.145 17.0815Z" fill="#374151"/>
</svg>
