<svg width="242" height="48" viewBox="0 0 242 48" fill="none" xmlns="http://www.w3.org/2000/svg">
<line x1="134.742" y1="14.6771" x2="208.838" y2="14.6771" stroke="#374151" stroke-width="0.645816"/>
<line x1="38.6165" y1="14.6771" x2="115.717" y2="14.6771" stroke="#374151" stroke-width="0.645816"/>
<path d="M4.17132 44.4516L1.54132 37.4516H2.45132L4.66132 43.5616L6.89132 37.4516H7.78132L5.15132 44.4516H4.17132ZM10.3667 44.5716C9.89338 44.5716 9.47338 44.465 9.10671 44.2516C8.74004 44.0316 8.45004 43.7283 8.23671 43.3416C8.03004 42.955 7.92671 42.4983 7.92671 41.9716C7.92671 41.4516 8.03004 40.9983 8.23671 40.6116C8.44338 40.2183 8.73004 39.915 9.09671 39.7016C9.47004 39.4816 9.90004 39.3716 10.3867 39.3716C10.8667 39.3716 11.28 39.4816 11.6267 39.7016C11.98 39.915 12.25 40.1983 12.4367 40.5516C12.6234 40.905 12.7167 41.285 12.7167 41.6916C12.7167 41.765 12.7134 41.8383 12.7067 41.9116C12.7067 41.985 12.7067 42.0683 12.7067 42.1616H8.75671C8.77671 42.5416 8.86338 42.8583 9.01671 43.1116C9.17671 43.3583 9.37338 43.545 9.60671 43.6716C9.84671 43.7983 10.1 43.8616 10.3667 43.8616C10.7134 43.8616 11.0034 43.7816 11.2367 43.6216C11.47 43.4616 11.64 43.245 11.7467 42.9716H12.5767C12.4434 43.4316 12.1867 43.815 11.8067 44.1216C11.4334 44.4216 10.9534 44.5716 10.3667 44.5716ZM10.3667 40.0816C9.96671 40.0816 9.61004 40.205 9.29671 40.4516C8.99004 40.6916 8.81338 41.045 8.76671 41.5116H11.8867C11.8667 41.065 11.7134 40.715 11.4267 40.4616C11.14 40.2083 10.7867 40.0816 10.3667 40.0816ZM13.9301 44.4516V39.4916H14.6901L14.7601 40.4416C14.9134 40.115 15.1467 39.855 15.4601 39.6616C15.7734 39.4683 16.1601 39.3716 16.6201 39.3716V40.2516H16.3901C16.0967 40.2516 15.8267 40.305 15.5801 40.4116C15.3334 40.5116 15.1367 40.685 14.9901 40.9316C14.8434 41.1783 14.7701 41.5183 14.7701 41.9516V44.4516H13.9301ZM18.1729 38.3916C18.0062 38.3916 17.8662 38.3383 17.7529 38.2316C17.6462 38.1183 17.5929 37.9783 17.5929 37.8116C17.5929 37.6516 17.6462 37.5183 17.7529 37.4116C17.8662 37.305 18.0062 37.2516 18.1729 37.2516C18.3329 37.2516 18.4695 37.305 18.5829 37.4116C18.6962 37.5183 18.7529 37.6516 18.7529 37.8116C18.7529 37.9783 18.6962 38.1183 18.5829 38.2316C18.4695 38.3383 18.3329 38.3916 18.1729 38.3916ZM17.7529 44.4516V39.4916H18.5929V44.4516H17.7529ZM20.4255 44.4516V40.2016H19.6755V39.4916H20.4255V38.6316C20.4255 38.1516 20.5455 37.8016 20.7855 37.5816C21.0255 37.3616 21.3755 37.2516 21.8355 37.2516H22.3355V37.9716H21.9655C21.7121 37.9716 21.5321 38.025 21.4255 38.1316C21.3188 38.2316 21.2655 38.405 21.2655 38.6516V39.4916H24.3455V44.4516H23.5055V40.2016H21.2655V44.4516H20.4255ZM23.9355 38.5416C23.7755 38.5416 23.6388 38.4883 23.5255 38.3816C23.4121 38.2683 23.3555 38.1283 23.3555 37.9616C23.3555 37.8016 23.4121 37.6683 23.5255 37.5616C23.6388 37.455 23.7755 37.4016 23.9355 37.4016C24.1021 37.4016 24.2388 37.455 24.3455 37.5616C24.4588 37.6683 24.5155 37.8016 24.5155 37.9616C24.5155 38.1283 24.4588 38.2683 24.3455 38.3816C24.2388 38.4883 24.1021 38.5416 23.9355 38.5416ZM28.2093 44.5716C27.736 44.5716 27.3093 44.465 26.9293 44.2516C26.556 44.0316 26.2593 43.7283 26.0393 43.3416C25.826 42.9483 25.7193 42.4916 25.7193 41.9716C25.7193 41.4516 25.826 40.9983 26.0393 40.6116C26.2593 40.2183 26.556 39.915 26.9293 39.7016C27.3093 39.4816 27.736 39.3716 28.2093 39.3716C28.796 39.3716 29.2893 39.525 29.6893 39.8316C30.096 40.1383 30.3526 40.5483 30.4593 41.0616H29.5993C29.5326 40.755 29.3693 40.5183 29.1093 40.3516C28.8493 40.1783 28.546 40.0916 28.1993 40.0916C27.9193 40.0916 27.656 40.1616 27.4093 40.3016C27.1626 40.4416 26.9626 40.6516 26.8093 40.9316C26.656 41.2116 26.5793 41.5583 26.5793 41.9716C26.5793 42.385 26.656 42.7316 26.8093 43.0116C26.9626 43.2916 27.1626 43.505 27.4093 43.6516C27.656 43.7916 27.9193 43.8616 28.1993 43.8616C28.546 43.8616 28.8493 43.7783 29.1093 43.6116C29.3693 43.4383 29.5326 43.195 29.5993 42.8816H30.4593C30.3593 43.3816 30.106 43.7883 29.6993 44.1016C29.2926 44.415 28.796 44.5716 28.2093 44.5716ZM33.3824 44.5716C32.9691 44.5716 32.6257 44.5016 32.3524 44.3616C32.0791 44.2216 31.8757 44.035 31.7424 43.8016C31.6091 43.5683 31.5424 43.315 31.5424 43.0416C31.5424 42.535 31.7357 42.145 32.1224 41.8716C32.5091 41.5983 33.0357 41.4616 33.7024 41.4616H35.0424V41.4016C35.0424 40.9683 34.9291 40.6416 34.7024 40.4216C34.4757 40.195 34.1724 40.0816 33.7924 40.0816C33.4657 40.0816 33.1824 40.165 32.9424 40.3316C32.7091 40.4916 32.5624 40.7283 32.5024 41.0416H31.6424C31.6757 40.6816 31.7957 40.3783 32.0024 40.1316C32.2157 39.885 32.4791 39.6983 32.7924 39.5716C33.1057 39.4383 33.4391 39.3716 33.7924 39.3716C34.4857 39.3716 35.0057 39.5583 35.3524 39.9316C35.7057 40.2983 35.8824 40.7883 35.8824 41.4016V44.4516H35.1324L35.0824 43.5616C34.9424 43.8416 34.7357 44.0816 34.4624 44.2816C34.1957 44.475 33.8357 44.5716 33.3824 44.5716ZM33.5124 43.8616C33.8324 43.8616 34.1057 43.7783 34.3324 43.6116C34.5657 43.445 34.7424 43.2283 34.8624 42.9616C34.9824 42.695 35.0424 42.415 35.0424 42.1216V42.1116H33.7724C33.2791 42.1116 32.9291 42.1983 32.7224 42.3716C32.5224 42.5383 32.4224 42.7483 32.4224 43.0016C32.4224 43.2616 32.5157 43.4716 32.7024 43.6316C32.8957 43.785 33.1657 43.8616 33.5124 43.8616ZM39.0659 44.4516C38.6125 44.4516 38.2559 44.3416 37.9959 44.1216C37.7359 43.9016 37.6059 43.505 37.6059 42.9316V40.2016H36.7459V39.4916H37.6059L37.7159 38.3016H38.4459V39.4916H39.9059V40.2016H38.4459V42.9316C38.4459 43.245 38.5092 43.4583 38.6359 43.5716C38.7625 43.6783 38.9859 43.7316 39.3059 43.7316H39.8259V44.4516H39.0659ZM41.583 38.3916C41.4164 38.3916 41.2764 38.3383 41.163 38.2316C41.0564 38.1183 41.003 37.9783 41.003 37.8116C41.003 37.6516 41.0564 37.5183 41.163 37.4116C41.2764 37.305 41.4164 37.2516 41.583 37.2516C41.743 37.2516 41.8797 37.305 41.993 37.4116C42.1064 37.5183 42.163 37.6516 42.163 37.8116C42.163 37.9783 42.1064 38.1183 41.993 38.2316C41.8797 38.3383 41.743 38.3916 41.583 38.3916ZM41.163 44.4516V39.4916H42.003V44.4516H41.163ZM45.8256 44.5716C45.359 44.5716 44.939 44.465 44.5656 44.2516C44.1923 44.0383 43.8956 43.7383 43.6756 43.3516C43.4623 42.9583 43.3556 42.4983 43.3556 41.9716C43.3556 41.445 43.4656 40.9883 43.6856 40.6016C43.9056 40.2083 44.2023 39.905 44.5756 39.6916C44.9556 39.4783 45.379 39.3716 45.8456 39.3716C46.3123 39.3716 46.7323 39.4783 47.1056 39.6916C47.479 39.905 47.7723 40.2083 47.9856 40.6016C48.2056 40.9883 48.3156 41.445 48.3156 41.9716C48.3156 42.4983 48.2056 42.9583 47.9856 43.3516C47.7656 43.7383 47.4656 44.0383 47.0856 44.2516C46.7123 44.465 46.2923 44.5716 45.8256 44.5716ZM45.8256 43.8516C46.1123 43.8516 46.379 43.7816 46.6256 43.6416C46.8723 43.5016 47.0723 43.2916 47.2256 43.0116C47.379 42.7316 47.4556 42.385 47.4556 41.9716C47.4556 41.5583 47.379 41.2116 47.2256 40.9316C47.079 40.6516 46.8823 40.4416 46.6356 40.3016C46.389 40.1616 46.1256 40.0916 45.8456 40.0916C45.559 40.0916 45.2923 40.1616 45.0456 40.3016C44.799 40.4416 44.599 40.6516 44.4456 40.9316C44.2923 41.2116 44.2156 41.5583 44.2156 41.9716C44.2156 42.385 44.2923 42.7316 44.4456 43.0116C44.599 43.2916 44.7956 43.5016 45.0356 43.6416C45.2823 43.7816 45.5456 43.8516 45.8256 43.8516ZM49.5836 44.4516V39.4916H50.3436L50.3936 40.3816C50.5536 40.0683 50.7836 39.8216 51.0836 39.6416C51.3836 39.4616 51.7236 39.3716 52.1036 39.3716C52.6903 39.3716 53.1569 39.5516 53.5036 39.9116C53.8569 40.265 54.0336 40.8116 54.0336 41.5516V44.4516H53.1936V41.6416C53.1936 40.6083 52.7669 40.0916 51.9136 40.0916C51.4869 40.0916 51.1303 40.2483 50.8436 40.5616C50.5636 40.8683 50.4236 41.3083 50.4236 41.8816V44.4516H49.5836Z" fill="#E93A7D"/>
<ellipse cx="29.3073" cy="14.1696" rx="14.3073" ry="14.1696" fill="#E93A7D"/>
<path d="M107.78 44.5717C107.267 44.5717 106.82 44.4783 106.44 44.2917C106.06 44.105 105.767 43.845 105.56 43.5117C105.353 43.1783 105.25 42.7917 105.25 42.3517H106.13C106.13 42.625 106.193 42.8783 106.32 43.1117C106.447 43.3383 106.63 43.5217 106.87 43.6617C107.117 43.795 107.42 43.8617 107.78 43.8617C108.253 43.8617 108.62 43.7483 108.88 43.5217C109.14 43.295 109.27 43.0117 109.27 42.6717C109.27 42.3917 109.21 42.1683 109.09 42.0017C108.97 41.8283 108.807 41.6883 108.6 41.5817C108.4 41.475 108.167 41.3817 107.9 41.3017C107.64 41.2217 107.367 41.1317 107.08 41.0317C106.54 40.845 106.14 40.615 105.88 40.3417C105.62 40.0617 105.49 39.6983 105.49 39.2517C105.483 38.8783 105.57 38.5483 105.75 38.2617C105.93 37.9683 106.183 37.7417 106.51 37.5817C106.843 37.415 107.237 37.3317 107.69 37.3317C108.137 37.3317 108.523 37.415 108.85 37.5817C109.183 37.7483 109.44 37.9783 109.62 38.2717C109.807 38.565 109.903 38.8983 109.91 39.2717H109.03C109.03 39.0783 108.98 38.8883 108.88 38.7017C108.78 38.5083 108.627 38.3517 108.42 38.2317C108.22 38.1117 107.967 38.0517 107.66 38.0517C107.28 38.045 106.967 38.1417 106.72 38.3417C106.48 38.5417 106.36 38.8183 106.36 39.1717C106.36 39.4717 106.443 39.7017 106.61 39.8617C106.783 40.0217 107.023 40.155 107.33 40.2617C107.637 40.3617 107.99 40.4783 108.39 40.6117C108.723 40.7317 109.023 40.8717 109.29 41.0317C109.557 41.1917 109.763 41.3983 109.91 41.6517C110.063 41.905 110.14 42.2283 110.14 42.6217C110.14 42.955 110.053 43.2717 109.88 43.5717C109.707 43.865 109.443 44.105 109.09 44.2917C108.743 44.4783 108.307 44.5717 107.78 44.5717ZM111.381 44.4517V37.2517H112.221V40.3417C112.388 40.035 112.625 39.7983 112.931 39.6317C113.238 39.4583 113.571 39.3717 113.931 39.3717C114.505 39.3717 114.965 39.5517 115.311 39.9117C115.658 40.265 115.831 40.8117 115.831 41.5517V44.4517H115.001V41.6417C115.001 40.6083 114.585 40.0917 113.751 40.0917C113.318 40.0917 112.955 40.2483 112.661 40.5617C112.368 40.8683 112.221 41.3083 112.221 41.8817V44.4517H111.381ZM117.714 38.3917C117.547 38.3917 117.407 38.3383 117.294 38.2317C117.187 38.1183 117.134 37.9783 117.134 37.8117C117.134 37.6517 117.187 37.5183 117.294 37.4117C117.407 37.305 117.547 37.2517 117.714 37.2517C117.874 37.2517 118.011 37.305 118.124 37.4117C118.237 37.5183 118.294 37.6517 118.294 37.8117C118.294 37.9783 118.237 38.1183 118.124 38.2317C118.011 38.3383 117.874 38.3917 117.714 38.3917ZM117.294 44.4517V39.4917H118.134V44.4517H117.294ZM119.697 46.6517V39.4917H120.457L120.537 40.3117C120.697 40.0717 120.923 39.855 121.217 39.6617C121.517 39.4683 121.897 39.3717 122.357 39.3717C122.85 39.3717 123.28 39.485 123.647 39.7117C124.013 39.9383 124.297 40.2483 124.497 40.6417C124.703 41.035 124.807 41.4817 124.807 41.9817C124.807 42.4817 124.703 42.9283 124.497 43.3217C124.297 43.7083 124.01 44.015 123.637 44.2417C123.27 44.4617 122.84 44.5717 122.347 44.5717C121.94 44.5717 121.577 44.4883 121.257 44.3217C120.943 44.155 120.703 43.9217 120.537 43.6217V46.6517H119.697ZM122.257 43.8417C122.59 43.8417 122.883 43.765 123.137 43.6117C123.39 43.4517 123.59 43.2317 123.737 42.9517C123.883 42.6717 123.957 42.345 123.957 41.9717C123.957 41.5983 123.883 41.2717 123.737 40.9917C123.59 40.7117 123.39 40.495 123.137 40.3417C122.883 40.1817 122.59 40.1017 122.257 40.1017C121.923 40.1017 121.63 40.1817 121.377 40.3417C121.123 40.495 120.923 40.7117 120.777 40.9917C120.63 41.2717 120.557 41.5983 120.557 41.9717C120.557 42.345 120.63 42.6717 120.777 42.9517C120.923 43.2317 121.123 43.4517 121.377 43.6117C121.63 43.765 121.923 43.8417 122.257 43.8417ZM126.076 46.6517V39.4917H126.836L126.916 40.3117C127.076 40.0717 127.303 39.855 127.596 39.6617C127.896 39.4683 128.276 39.3717 128.736 39.3717C129.229 39.3717 129.659 39.485 130.026 39.7117C130.393 39.9383 130.676 40.2483 130.876 40.6417C131.083 41.035 131.186 41.4817 131.186 41.9817C131.186 42.4817 131.083 42.9283 130.876 43.3217C130.676 43.7083 130.389 44.015 130.016 44.2417C129.649 44.4617 129.219 44.5717 128.726 44.5717C128.319 44.5717 127.956 44.4883 127.636 44.3217C127.323 44.155 127.083 43.9217 126.916 43.6217V46.6517H126.076ZM128.636 43.8417C128.969 43.8417 129.263 43.765 129.516 43.6117C129.769 43.4517 129.969 43.2317 130.116 42.9517C130.263 42.6717 130.336 42.345 130.336 41.9717C130.336 41.5983 130.263 41.2717 130.116 40.9917C129.969 40.7117 129.769 40.495 129.516 40.3417C129.263 40.1817 128.969 40.1017 128.636 40.1017C128.303 40.1017 128.009 40.1817 127.756 40.3417C127.503 40.495 127.303 40.7117 127.156 40.9917C127.009 41.2717 126.936 41.5983 126.936 41.9717C126.936 42.345 127.009 42.6717 127.156 42.9517C127.303 43.2317 127.503 43.4517 127.756 43.6117C128.009 43.765 128.303 43.8417 128.636 43.8417ZM132.965 38.3917C132.799 38.3917 132.659 38.3383 132.545 38.2317C132.439 38.1183 132.385 37.9783 132.385 37.8117C132.385 37.6517 132.439 37.5183 132.545 37.4117C132.659 37.305 132.799 37.2517 132.965 37.2517C133.125 37.2517 133.262 37.305 133.375 37.4117C133.489 37.5183 133.545 37.6517 133.545 37.8117C133.545 37.9783 133.489 38.1183 133.375 38.2317C133.262 38.3383 133.125 38.3917 132.965 38.3917ZM132.545 44.4517V39.4917H133.385V44.4517H132.545ZM134.948 44.4517V39.4917H135.708L135.758 40.3817C135.918 40.0683 136.148 39.8217 136.448 39.6417C136.748 39.4617 137.088 39.3717 137.468 39.3717C138.054 39.3717 138.521 39.5517 138.868 39.9117C139.221 40.265 139.398 40.8117 139.398 41.5517V44.4517H138.558V41.6417C138.558 40.6083 138.131 40.0917 137.278 40.0917C136.851 40.0917 136.494 40.2483 136.208 40.5617C135.928 40.8683 135.788 41.3083 135.788 41.8817V44.4517H134.948ZM142.73 42.8917C142.45 42.8917 142.194 42.855 141.96 42.7817L141.46 43.2517C141.534 43.305 141.624 43.3517 141.73 43.3917C141.844 43.425 142.004 43.4583 142.21 43.4917C142.417 43.5183 142.707 43.5483 143.08 43.5817C143.747 43.6283 144.224 43.7817 144.51 44.0417C144.797 44.3017 144.94 44.6417 144.94 45.0617C144.94 45.3483 144.86 45.6217 144.7 45.8817C144.547 46.1417 144.307 46.355 143.98 46.5217C143.66 46.6883 143.247 46.7717 142.74 46.7717C142.294 46.7717 141.897 46.7117 141.55 46.5917C141.204 46.4783 140.934 46.3017 140.74 46.0617C140.547 45.8283 140.45 45.5317 140.45 45.1717C140.45 44.985 140.5 44.7817 140.6 44.5617C140.7 44.3483 140.887 44.145 141.16 43.9517C141.014 43.8917 140.887 43.8283 140.78 43.7617C140.68 43.6883 140.587 43.6083 140.5 43.5217V43.2917L141.35 42.4517C140.957 42.1183 140.76 41.6783 140.76 41.1317C140.76 40.805 140.837 40.5083 140.99 40.2417C141.144 39.975 141.367 39.765 141.66 39.6117C141.954 39.4517 142.31 39.3717 142.73 39.3717C143.017 39.3717 143.277 39.4117 143.51 39.4917H145.34V40.1217L144.41 40.1617C144.604 40.4417 144.7 40.765 144.7 41.1317C144.7 41.4583 144.62 41.755 144.46 42.0217C144.307 42.2883 144.084 42.5017 143.79 42.6617C143.504 42.815 143.15 42.8917 142.73 42.8917ZM142.73 42.2017C143.084 42.2017 143.364 42.1117 143.57 41.9317C143.784 41.745 143.89 41.4783 143.89 41.1317C143.89 40.7917 143.784 40.5317 143.57 40.3517C143.364 40.165 143.084 40.0717 142.73 40.0717C142.37 40.0717 142.084 40.165 141.87 40.3517C141.664 40.5317 141.56 40.7917 141.56 41.1317C141.56 41.4783 141.664 41.745 141.87 41.9317C142.084 42.1117 142.37 42.2017 142.73 42.2017ZM141.27 45.0917C141.27 45.425 141.41 45.6717 141.69 45.8317C141.97 45.9983 142.32 46.0817 142.74 46.0817C143.154 46.0817 143.484 45.9917 143.73 45.8117C143.984 45.6317 144.11 45.3917 144.11 45.0917C144.11 44.8783 144.024 44.6917 143.85 44.5317C143.677 44.3783 143.357 44.2883 142.89 44.2617C142.524 44.235 142.207 44.2017 141.94 44.1617C141.667 44.3083 141.487 44.465 141.4 44.6317C141.314 44.805 141.27 44.9583 141.27 45.0917Z" fill="black"/>
<ellipse cx="125.018" cy="14.1697" rx="14.3073" ry="14.1696" fill="#374151"/>
<path d="M121.862 19.3352V18.0845C122.436 17.6093 122.992 17.1386 123.53 16.6724C124.077 16.2062 124.561 15.7445 124.982 15.2873C125.413 14.83 125.753 14.3862 126.004 13.9559C126.264 13.5166 126.394 13.0907 126.394 12.6783C126.394 12.2928 126.287 11.9521 126.072 11.6563C125.866 11.3604 125.52 11.2125 125.036 11.2125C124.543 11.2125 124.171 11.3739 123.92 11.6966C123.669 12.0194 123.543 12.4094 123.543 12.8666H121.876C121.894 12.1763 122.046 11.6025 122.333 11.1452C122.62 10.679 123.001 10.3339 123.476 10.1097C123.951 9.87662 124.485 9.76007 125.077 9.76007C126.036 9.76007 126.78 10.0246 127.309 10.5535C127.847 11.0735 128.116 11.7504 128.116 12.5842C128.116 13.1042 127.995 13.6107 127.753 14.1038C127.52 14.5969 127.21 15.0721 126.825 15.5293C126.439 15.9866 126.022 16.4169 125.574 16.8204C125.126 17.2148 124.691 17.5824 124.27 17.9231H128.344V19.3352H121.862Z" fill="white"/>
<path d="M28.1434 19.3352V11.8849L26.5968 12.248V10.9301L28.8696 9.92145H29.932V19.3352H28.1434Z" fill="white"/>
<path d="M200.454 44.4517V37.4517H202.754C203.301 37.4517 203.751 37.5417 204.104 37.7217C204.457 37.9017 204.717 38.145 204.884 38.4517C205.057 38.7583 205.144 39.105 205.144 39.4917C205.144 39.8717 205.061 40.215 204.894 40.5217C204.727 40.8283 204.467 41.075 204.114 41.2617C203.761 41.4417 203.307 41.5317 202.754 41.5317H201.294V44.4517H200.454ZM201.294 40.8217H202.734C203.294 40.8217 203.691 40.705 203.924 40.4717C204.164 40.2317 204.284 39.905 204.284 39.4917C204.284 39.0717 204.164 38.745 203.924 38.5117C203.691 38.2717 203.294 38.1517 202.734 38.1517H201.294V40.8217ZM207.711 44.5717C207.297 44.5717 206.954 44.5017 206.681 44.3617C206.407 44.2217 206.204 44.035 206.071 43.8017C205.937 43.5683 205.871 43.315 205.871 43.0417C205.871 42.535 206.064 42.145 206.451 41.8717C206.837 41.5983 207.364 41.4617 208.031 41.4617H209.371V41.4017C209.371 40.9683 209.257 40.6417 209.031 40.4217C208.804 40.195 208.501 40.0817 208.121 40.0817C207.794 40.0817 207.511 40.165 207.271 40.3317C207.037 40.4917 206.891 40.7283 206.831 41.0417H205.971C206.004 40.6817 206.124 40.3783 206.331 40.1317C206.544 39.885 206.807 39.6983 207.121 39.5717C207.434 39.4383 207.767 39.3717 208.121 39.3717C208.814 39.3717 209.334 39.5583 209.681 39.9317C210.034 40.2983 210.211 40.7883 210.211 41.4017V44.4517H209.461L209.411 43.5617C209.271 43.8417 209.064 44.0817 208.791 44.2817C208.524 44.475 208.164 44.5717 207.711 44.5717ZM207.841 43.8617C208.161 43.8617 208.434 43.7783 208.661 43.6117C208.894 43.445 209.071 43.2283 209.191 42.9617C209.311 42.695 209.371 42.415 209.371 42.1217V42.1117H208.101C207.607 42.1117 207.257 42.1983 207.051 42.3717C206.851 42.5383 206.751 42.7483 206.751 43.0017C206.751 43.2617 206.844 43.4717 207.031 43.6317C207.224 43.785 207.494 43.8617 207.841 43.8617ZM211.964 46.6517L213.194 43.9717H212.904L210.934 39.4917H211.844L213.484 43.3517L215.224 39.4917H216.094L212.844 46.6517H211.964ZM217.081 44.4517V39.4917H217.841L217.901 40.2117C218.061 39.945 218.274 39.7383 218.541 39.5917C218.808 39.445 219.108 39.3717 219.441 39.3717C219.834 39.3717 220.171 39.4517 220.451 39.6117C220.738 39.7717 220.958 40.015 221.111 40.3417C221.284 40.0417 221.521 39.805 221.821 39.6317C222.128 39.4583 222.458 39.3717 222.811 39.3717C223.404 39.3717 223.878 39.5517 224.231 39.9117C224.584 40.265 224.761 40.8117 224.761 41.5517V44.4517H223.931V41.6417C223.931 41.1283 223.828 40.7417 223.621 40.4817C223.414 40.2217 223.118 40.0917 222.731 40.0917C222.331 40.0917 221.998 40.2483 221.731 40.5617C221.471 40.8683 221.341 41.3083 221.341 41.8817V44.4517H220.501V41.6417C220.501 41.1283 220.398 40.7417 220.191 40.4817C219.984 40.2217 219.688 40.0917 219.301 40.0917C218.908 40.0917 218.578 40.2483 218.311 40.5617C218.051 40.8683 217.921 41.3083 217.921 41.8817V44.4517H217.081ZM228.356 44.5717C227.883 44.5717 227.463 44.465 227.096 44.2517C226.73 44.0317 226.44 43.7283 226.226 43.3417C226.02 42.955 225.916 42.4983 225.916 41.9717C225.916 41.4517 226.02 40.9983 226.226 40.6117C226.433 40.2183 226.72 39.915 227.086 39.7017C227.46 39.4817 227.89 39.3717 228.376 39.3717C228.856 39.3717 229.27 39.4817 229.616 39.7017C229.97 39.915 230.24 40.1983 230.426 40.5517C230.613 40.905 230.706 41.285 230.706 41.6917C230.706 41.765 230.703 41.8383 230.696 41.9117C230.696 41.985 230.696 42.0683 230.696 42.1617H226.746C226.766 42.5417 226.853 42.8583 227.006 43.1117C227.166 43.3583 227.363 43.545 227.596 43.6717C227.836 43.7983 228.09 43.8617 228.356 43.8617C228.703 43.8617 228.993 43.7817 229.226 43.6217C229.46 43.4617 229.63 43.245 229.736 42.9717H230.566C230.433 43.4317 230.176 43.815 229.796 44.1217C229.423 44.4217 228.943 44.5717 228.356 44.5717ZM228.356 40.0817C227.956 40.0817 227.6 40.205 227.286 40.4517C226.98 40.6917 226.803 41.045 226.756 41.5117H229.876C229.856 41.065 229.703 40.715 229.416 40.4617C229.13 40.2083 228.776 40.0817 228.356 40.0817ZM231.92 44.4517V39.4917H232.68L232.73 40.3817C232.89 40.0683 233.12 39.8217 233.42 39.6417C233.72 39.4617 234.06 39.3717 234.44 39.3717C235.026 39.3717 235.493 39.5517 235.84 39.9117C236.193 40.265 236.37 40.8117 236.37 41.5517V44.4517H235.53V41.6417C235.53 40.6083 235.103 40.0917 234.25 40.0917C233.823 40.0917 233.466 40.2483 233.18 40.5617C232.9 40.8683 232.76 41.3083 232.76 41.8817V44.4517H231.92ZM239.702 44.4517C239.249 44.4517 238.892 44.3417 238.632 44.1217C238.372 43.9017 238.242 43.505 238.242 42.9317V40.2017H237.382V39.4917H238.242L238.352 38.3017H239.082V39.4917H240.542V40.2017H239.082V42.9317C239.082 43.245 239.146 43.4583 239.272 43.5717C239.399 43.6783 239.622 43.7317 239.942 43.7317H240.462V44.4517H239.702Z" fill="black"/>
<ellipse cx="221.383" cy="14.1696" rx="14.3073" ry="14.1696" fill="#374151"/>
<path d="M221.371 19.4965C220.753 19.4965 220.192 19.3889 219.69 19.1738C219.188 18.9496 218.785 18.6089 218.48 18.1517C218.175 17.6945 218.014 17.1207 217.996 16.4303H219.69C219.699 16.8876 219.847 17.2731 220.134 17.5869C220.43 17.8917 220.842 18.0441 221.371 18.0441C221.873 18.0441 222.259 17.9052 222.528 17.6272C222.797 17.3493 222.931 16.9996 222.931 16.5783C222.931 16.0852 222.752 15.7131 222.393 15.4621C222.044 15.2021 221.591 15.0721 221.035 15.0721H220.336V13.66H221.049C221.506 13.66 221.887 13.5524 222.192 13.3373C222.496 13.1221 222.649 12.8038 222.649 12.3824C222.649 12.0328 222.532 11.7549 222.299 11.5486C222.075 11.3335 221.761 11.2259 221.358 11.2259C220.919 11.2259 220.573 11.3559 220.322 11.6159C220.08 11.8759 219.946 12.1942 219.919 12.5707H218.238C218.274 11.7011 218.574 11.0152 219.139 10.5131C219.713 10.0111 220.452 9.76004 221.358 9.76004C222.003 9.76004 222.546 9.87659 222.985 10.1097C223.433 10.3338 223.77 10.6342 223.994 11.0107C224.227 11.3873 224.343 11.8042 224.343 12.2614C224.343 12.7904 224.195 13.2386 223.9 13.6062C223.613 13.9648 223.254 14.2069 222.824 14.3324C223.353 14.44 223.783 14.7 224.115 15.1124C224.446 15.5159 224.612 16.0269 224.612 16.6455C224.612 17.1655 224.487 17.6407 224.236 18.071C223.985 18.5014 223.617 18.8465 223.133 19.1065C222.658 19.3665 222.071 19.4965 221.371 19.4965Z" fill="white"/>
</svg>
