<svg width="296" height="60" viewBox="0 0 296 60" fill="none" xmlns="http://www.w3.org/2000/svg">
<g clip-path="url(#clip0)">
<path d="M287.023 0.947266H9.02344C4.60516 0.947266 1.02344 4.52899 1.02344 8.94727V50.9473C1.02344 55.3655 4.60516 58.9473 9.02344 58.9473H287.023C291.442 58.9473 295.023 55.3655 295.023 50.9473V8.94727C295.023 4.52899 291.442 0.947266 287.023 0.947266Z" fill="white" stroke="white" stroke-width="2"/>
<path fill-rule="evenodd" clip-rule="evenodd" d="M49.1379 30.626C49.1379 26.49 51.8219 23.652 55.4299 23.652C58.6199 23.652 60.5779 25.522 61.0839 28.228H58.2899C57.8279 26.996 56.9919 26.16 55.4299 26.16C53.2739 26.16 51.9979 28.052 51.9979 30.626C51.9979 33.178 53.2739 35.092 55.4299 35.092C56.9919 35.092 57.8279 34.256 58.2899 33.002H61.0839C60.5779 35.73 58.6199 37.6 55.4299 37.6C51.8219 37.6 49.1379 34.762 49.1379 30.626ZM62.8659 37.38V23.08H65.5939V28.448C66.1219 27.832 67.0899 27.326 68.2339 27.326C70.4559 27.326 71.7099 28.778 71.7099 30.956V37.38H68.9819V31.528C68.9819 30.494 68.4539 29.79 67.3759 29.79C66.5399 29.79 65.8139 30.296 65.5939 31.154V37.38H62.8659ZM79.9599 34.168H82.4899C82.1379 36.258 80.5979 37.6 78.1339 37.6C75.2739 37.6 73.3599 35.51 73.3599 32.474C73.3599 29.504 75.3399 27.326 78.0899 27.326C80.9719 27.326 82.5559 29.328 82.5559 32.21V33.046H75.9999C76.0879 34.52 76.9239 35.4 78.1339 35.4C79.0579 35.4 79.7399 35.004 79.9599 34.168ZM78.1119 29.548C77.0559 29.548 76.3079 30.186 76.0659 31.396H79.8719C79.8499 30.362 79.2339 29.548 78.1119 29.548ZM83.7659 32.474C83.7659 29.416 85.7019 27.326 88.4959 27.326C90.9599 27.326 92.5219 28.778 92.8079 30.868H90.1239C89.9699 30.12 89.3759 29.658 88.4959 29.658C87.2419 29.658 86.4719 30.802 86.4719 32.474C86.4719 34.124 87.2419 35.268 88.4959 35.268C89.3759 35.268 89.9699 34.806 90.1239 34.058H92.8079C92.5219 36.17 90.9599 37.6 88.4959 37.6C85.7019 37.6 83.7659 35.51 83.7659 32.474ZM100.882 37.38L97.9999 33.42L97.2079 34.278V37.38H94.4799V23.08H97.2079V31.198L100.574 27.546H103.962L99.9799 31.726L104.116 37.38H100.882ZM119.142 32.474C119.142 35.488 117.184 37.6 114.324 37.6C111.464 37.6 109.506 35.488 109.506 32.474C109.506 29.438 111.464 27.326 114.324 27.326C117.184 27.326 119.142 29.438 119.142 32.474ZM116.436 32.474C116.436 30.824 115.688 29.636 114.324 29.636C112.96 29.636 112.212 30.824 112.212 32.474C112.212 34.102 112.96 35.29 114.324 35.29C115.688 35.29 116.436 34.102 116.436 32.474ZM129.592 27.546V37.38H126.864V36.478C126.314 37.094 125.368 37.6 124.224 37.6C122.024 37.6 120.77 36.148 120.77 33.97V27.546H123.498V33.42C123.498 34.454 124.004 35.158 125.082 35.158C125.918 35.158 126.644 34.652 126.842 33.794V27.546H129.592ZM132.54 34.41V29.746H131.044V27.546H132.54V24.884H135.246V27.546H137.402V29.746H135.246V34.058C135.246 34.828 135.664 35.18 136.368 35.18C136.786 35.18 137.248 35.048 137.556 34.85V37.27C137.182 37.468 136.522 37.578 135.796 37.578C133.794 37.578 132.54 36.588 132.54 34.41ZM151.482 27.546L153.11 33.816L154.87 27.546H157.51L154.518 37.38H152.01L150.404 31.352L148.798 37.38H146.29L143.298 27.546H146.026L147.786 33.816L149.392 27.546H151.482ZM161.712 27.546V37.38H158.984V27.546H161.712ZM161.954 24.708C161.954 25.632 161.206 26.27 160.348 26.27C159.468 26.27 158.72 25.632 158.72 24.708C158.72 23.806 159.468 23.146 160.348 23.146C161.206 23.146 161.954 23.806 161.954 24.708ZM164.682 34.41V29.746H163.186V27.546H164.682V24.884H167.388V27.546H169.544V29.746H167.388V34.058C167.388 34.828 167.806 35.18 168.51 35.18C168.928 35.18 169.39 35.048 169.698 34.85V37.27C169.324 37.468 168.664 37.578 167.938 37.578C165.936 37.578 164.682 36.588 164.682 34.41ZM171.678 37.38V23.08H174.406V28.448C174.934 27.832 175.902 27.326 177.046 27.326C179.268 27.326 180.522 28.778 180.522 30.956V37.38H177.794V31.528C177.794 30.494 177.266 29.79 176.188 29.79C175.352 29.79 174.626 30.296 174.406 31.154V37.38H171.678Z" fill="black"/>
<path fill-rule="evenodd" clip-rule="evenodd" d="M191.148 35.6416C190.396 35.6416 190.018 35.2706 190.018 34.6605C190.018 33.528 191.286 33.1412 193.598 32.8948C193.598 34.4094 192.574 35.6416 191.148 35.6416ZM192.145 27.1197C190.493 27.1197 188.591 27.8968 187.559 28.7201L188.502 30.7036C189.33 29.9468 190.668 29.2989 191.875 29.2989C193.022 29.2989 193.655 29.6828 193.655 30.4554C193.655 30.975 193.236 31.238 192.442 31.3405C189.478 31.7254 187.153 32.5441 187.153 34.8285C187.153 36.6394 188.443 37.7349 190.458 37.7349C191.895 37.7349 193.175 36.9356 193.783 35.8816V37.4396H196.463V30.9104C196.463 28.2143 194.589 27.1197 192.145 27.1197Z" fill="black"/>
<path fill-rule="evenodd" clip-rule="evenodd" d="M219.05 27.4141V37.4395H221.918V32.6086C221.918 30.3132 223.308 29.6385 224.277 29.6385C224.657 29.6385 225.166 29.7483 225.503 30.0021L226.025 27.3513C225.583 27.1612 225.12 27.1196 224.74 27.1196C223.266 27.1196 222.339 27.7722 221.728 29.0985V27.4141H219.05Z" fill="black"/>
<path fill-rule="evenodd" clip-rule="evenodd" d="M239.321 27.1193C237.805 27.1193 236.671 28.0165 236.081 28.8795C235.533 27.7626 234.372 27.1193 232.982 27.1193C231.466 27.1193 230.416 27.9611 229.932 28.9302V27.4138H227.167V37.4401H230.037V32.2797C230.037 30.4264 231.007 29.5375 231.913 29.5375C232.733 29.5375 233.486 30.0673 233.486 31.437V37.4401H236.352V32.2797C236.352 30.4052 237.299 29.5375 238.247 29.5375C239.006 29.5375 239.805 30.0895 239.805 31.4158V37.4401H242.67V30.5104C242.67 28.2564 241.153 27.1193 239.321 27.1193Z" fill="black"/>
<path fill-rule="evenodd" clip-rule="evenodd" d="M212.069 27.414H209.471V26.3951C209.471 25.0678 210.228 24.6885 210.881 24.6885C211.603 24.6885 212.165 25.0087 212.165 25.0087L213.049 22.9865C213.049 22.9865 212.153 22.4004 210.523 22.4004C208.69 22.4004 206.605 23.4332 206.605 26.6766V27.414H202.256V26.3951C202.256 25.0678 203.013 24.6885 203.666 24.6885C204.037 24.6885 204.536 24.7743 204.95 25.0087L205.834 22.9865C205.307 22.6773 204.458 22.4004 203.308 22.4004C201.475 22.4004 199.39 23.4332 199.39 26.6766V27.414H197.726V29.6255H199.39V37.4395H202.256V29.6255H206.605V37.4395H209.471V29.6255H212.069V27.414Z" fill="black"/>
<mask id="mask0" mask-type="alpha" maskUnits="userSpaceOnUse" x="187" y="13" width="62" height="25">
<path d="M187.153 37.7875H248.07V13.4807H187.153V37.7875Z" fill="white"/>
</mask>
<g mask="url(#mask0)">
<path fill-rule="evenodd" clip-rule="evenodd" d="M213.779 37.4396H216.642V27.4141H213.779V37.4396Z" fill="black"/>
<path fill-rule="evenodd" clip-rule="evenodd" d="M230.482 13.4278C222.741 13.4278 215.843 18.8005 213.885 25.709H216.69C218.326 20.5652 223.877 16.0491 230.482 16.0491C238.511 16.0491 245.448 22.1611 245.448 31.6761C245.448 33.8119 245.172 35.7391 244.648 37.4402H247.37L247.397 37.346C247.843 35.5914 248.071 33.6836 248.071 31.6761C248.071 21.0646 240.338 13.4278 230.482 13.4278Z" fill="#4A4AF4"/>
</g>
</g>
<defs>
<clipPath id="clip0">
<rect width="296" height="60" fill="white"/>
</clipPath>
</defs>
</svg>
