<svg width="17" height="14" viewBox="0 0 17 14" fill="none" xmlns="http://www.w3.org/2000/svg">
<path d="M15.3433 5.85419C15.2765 5.84335 15.2089 5.83835 15.1413 5.83923H3.62467L3.87579 5.72242C4.12126 5.60624 4.34457 5.44812 4.53572 5.25522L7.76527 2.02567C8.19061 1.61964 8.26207 0.966469 7.93463 0.478059C7.55353 -0.0423995 6.82268 -0.155404 6.30219 0.225695C6.26014 0.256502 6.22017 0.290082 6.18261 0.326217L0.342565 6.16627C-0.113835 6.62216 -0.114237 7.36169 0.341652 7.81809C0.341944 7.81838 0.342273 7.81871 0.342565 7.819L6.18261 13.6591C6.63938 14.1145 7.37891 14.1135 7.83444 13.6568C7.87028 13.6208 7.90375 13.5826 7.93463 13.5423C8.26207 13.0538 8.19061 12.4007 7.76527 11.9946L4.54156 8.75925C4.37019 8.5877 4.17316 8.44385 3.95756 8.33293L3.60715 8.17525H15.077C15.6737 8.1974 16.1972 7.7806 16.3093 7.19412C16.4125 6.55737 15.9801 5.95749 15.3433 5.85419Z" fill="#111111"/>
</svg>
