<svg width="23" height="24" viewBox="0 0 23 24" fill="none" xmlns="http://www.w3.org/2000/svg">
<path d="M2.33198 11.851V16.4792C2.33198 17.4396 3.1132 18.2148 4.08097 18.2148C5.04875 18.2148 5.82996 17.4396 5.82996 16.4792V11.851C5.82996 10.8907 5.04875 10.1155 4.08097 10.1155C3.1132 10.1155 2.33198 10.8907 2.33198 11.851ZM9.32794 11.851V16.4792C9.32794 17.4396 10.1091 18.2148 11.0769 18.2148C12.0447 18.2148 12.8259 17.4396 12.8259 16.4792V11.851C12.8259 10.8907 12.0447 10.1155 11.0769 10.1155C10.1091 10.1155 9.32794 10.8907 9.32794 11.851ZM1.74899 24H20.4049C21.3726 24 22.1538 23.2248 22.1538 22.2644C22.1538 21.3041 21.3726 20.5289 20.4049 20.5289H1.74899C0.781215 20.5289 0 21.3041 0 22.2644C0 23.2248 0.781215 24 1.74899 24ZM16.3239 11.851V16.4792C16.3239 17.4396 17.1051 18.2148 18.0729 18.2148C19.0406 18.2148 19.8219 17.4396 19.8219 16.4792V11.851C19.8219 10.8907 19.0406 10.1155 18.0729 10.1155C17.1051 10.1155 16.3239 10.8907 16.3239 11.851ZM9.99255 0.269013L0.781215 5.08232C0.303158 5.3253 0 5.82283 0 6.35507C0 7.15343 0.652955 7.80137 1.45749 7.80137H20.708C21.5009 7.80137 22.1538 7.15343 22.1538 6.35507C22.1538 5.82283 21.8507 5.3253 21.3726 5.08232L12.1613 0.269013C11.485 -0.089671 10.6688 -0.089671 9.99255 0.269013Z" fill="#E72E80"/>
</svg>
