<svg width="231" height="25" viewBox="0 0 231 25" fill="none" xmlns="http://www.w3.org/2000/svg">
<rect x="151.25" y="0.25" width="79.5" height="24.5" rx="12.25" fill="white" stroke="#111111" stroke-width="0.5"/>
<path d="M169.203 13.8184H166.982V12.6523H169.203C169.59 12.6523 169.902 12.5898 170.141 12.4648C170.379 12.3398 170.553 12.168 170.662 11.9492C170.775 11.7266 170.832 11.4727 170.832 11.1875C170.832 10.918 170.775 10.666 170.662 10.4316C170.553 10.1934 170.379 10.002 170.141 9.85742C169.902 9.71289 169.59 9.64062 169.203 9.64062H167.434V17H165.963V8.46875H169.203C169.863 8.46875 170.424 8.58594 170.885 8.82031C171.35 9.05078 171.703 9.37109 171.945 9.78125C172.188 10.1875 172.309 10.6523 172.309 11.1758C172.309 11.7266 172.188 12.1992 171.945 12.5938C171.703 12.9883 171.35 13.291 170.885 13.502C170.424 13.7129 169.863 13.8184 169.203 13.8184ZM176.059 9.60547L173.51 17H171.969L175.18 8.46875H176.164L176.059 9.60547ZM178.191 17L175.637 9.60547L175.525 8.46875H176.516L179.738 17H178.191ZM178.068 13.8359V15.002H173.428V13.8359H178.068ZM180.84 8.46875L182.82 12.541L184.801 8.46875H186.43L183.559 13.8594V17H182.076V13.8594L179.205 8.46875H180.84ZM191.82 8.46875V17H190.35V8.46875H191.82ZM195.301 12.2012V13.3672H191.445V12.2012H195.301ZM195.787 8.46875V9.64062H191.445V8.46875H195.787ZM201.746 8.46875H203.211V14.1699C203.211 14.8184 203.07 15.3613 202.789 15.7988C202.508 16.2363 202.125 16.5664 201.641 16.7891C201.16 17.0078 200.623 17.1172 200.029 17.1172C199.416 17.1172 198.869 17.0078 198.389 16.7891C197.908 16.5664 197.529 16.2363 197.252 15.7988C196.979 15.3613 196.842 14.8184 196.842 14.1699V8.46875H198.307V14.1699C198.307 14.5801 198.377 14.918 198.518 15.1836C198.658 15.4453 198.857 15.6387 199.115 15.7637C199.373 15.8887 199.678 15.9512 200.029 15.9512C200.381 15.9512 200.684 15.8887 200.938 15.7637C201.195 15.6387 201.395 15.4453 201.535 15.1836C201.676 14.918 201.746 14.5801 201.746 14.1699V8.46875ZM210.154 15.834V17H205.871V15.834H210.154ZM206.281 8.46875V17H204.811V8.46875H206.281ZM216.635 15.834V17H212.352V15.834H216.635ZM212.762 8.46875V17H211.291V8.46875H212.762Z" fill="#111111"/>
<path d="M64.0854 11.7873C64.0854 11.7873 64.4584 13.6143 64.5424 13.997H62.9028L63.6886 11.8607C63.6788 11.8757 63.8503 11.4134 63.9484 11.1288L64.0854 11.7873ZM69.2853 4.35733V21.6427C69.2851 22.2678 69.0367 22.8673 68.5946 23.3093C68.1526 23.7513 67.5531 23.9998 66.928 24H43.3573C42.7322 23.9998 42.1327 23.7513 41.6907 23.3093C41.2487 22.8673 41.0002 22.2678 41 21.6427V4.35733C41.0002 3.7322 41.2487 3.13274 41.6907 2.69071C42.1327 2.24867 42.7322 2.00023 43.3573 2H66.928C67.5531 2.00023 68.1526 2.24867 68.5946 2.69071C69.0367 3.13274 69.2851 3.7322 69.2853 4.35733ZM48.4892 16.6929L51.5925 9.072H49.5057L47.5761 14.2772L47.3649 13.2219L46.6772 9.71547C46.5641 9.22933 46.2158 9.09144 45.7836 9.072H42.6069L42.5724 9.22403C43.2999 9.4025 43.9978 9.68533 44.6443 10.0637L46.4023 16.6929H48.4892ZM53.1252 16.7026L54.3626 9.072H52.3889L51.1568 16.7026H53.1252ZM59.9948 14.2083C60.0045 13.3394 59.4742 12.6765 58.3401 12.1311C57.6481 11.782 57.2256 11.5469 57.2256 11.188C57.2353 10.8636 57.5844 10.5295 58.3596 10.5295C58.8645 10.5153 59.3661 10.6144 59.8277 10.8194L60.0045 10.9025L60.275 9.25231C59.7107 9.0363 59.1114 8.92632 58.5072 8.92792C56.5573 8.92792 55.1873 9.96914 55.1776 11.4514C55.1626 12.5466 56.1596 13.1556 56.9065 13.5233C57.6675 13.8963 57.9282 14.142 57.9282 14.4708C57.9185 14.9817 57.3095 15.2168 56.7447 15.2168C55.9589 15.2168 55.5364 15.0939 54.893 14.8093L54.6331 14.6865L54.3582 16.4003C54.8196 16.6116 55.6743 16.7981 56.5582 16.8078C58.6301 16.8122 59.9806 15.786 59.9957 14.2056L59.9948 14.2083ZM66.928 16.7026L65.337 9.072H63.8096C63.3385 9.072 62.9797 9.20988 62.7781 9.70575L59.8463 16.7035H61.9181C61.9181 16.7035 62.2567 15.7604 62.3309 15.5597H64.865C64.9242 15.8302 65.101 16.7035 65.101 16.7035L66.928 16.7026Z" fill="#0066B3"/>
<path d="M22.611 4.35278H12.986V21.6472H22.611V4.35278Z" fill="#FF5F00"/>
<path d="M13.5972 13C13.5972 9.48611 15.2472 6.36944 17.7833 4.35278C15.9194 2.88611 13.5667 2 11 2C4.91944 2 0 6.91944 0 13C0 19.0806 4.91944 24 11 24C13.5667 24 15.9194 23.1139 17.7833 21.6472C15.2472 19.6611 13.5972 16.5139 13.5972 13Z" fill="#EB001B"/>
<path d="M35.5973 13C35.5973 19.0806 30.6779 24 24.5973 24C22.0306 24 19.6779 23.1139 17.814 21.6472C20.3806 19.6306 22.0001 16.5139 22.0001 13C22.0001 9.48611 20.3501 6.36944 17.814 4.35278C19.6779 2.88611 22.0306 2 24.5973 2C30.6779 2 35.5973 6.95 35.5973 13Z" fill="#F79E1B"/>
<g clip-path="url(#clip0_201_46)">
<path d="M109.272 2H75V24H109.397V2H109.272ZM109.151 2.24888C109.151 2.49407 109.151 23.505 109.151 23.7502H75.2498C75.2498 23.505 75.2498 2.49499 75.2498 2.2498L109.151 2.24888Z" fill="#1D1D1B"/>
<path d="M109.145 14.2219C109.145 14.2219 99.8169 20.8043 82.73 23.7494H109.145V14.2219Z" fill="#EF7D00"/>
<path d="M93.0133 7.58423C91.6122 7.58423 90.4747 8.6793 90.4747 10.0306C90.4747 11.4677 91.5624 12.5415 93.0133 12.5415C94.4282 12.5415 95.5454 11.4529 95.5454 10.0592C95.5454 8.66547 94.4356 7.58423 93.0133 7.58423Z" fill="url(#paint0_radial_201_46)"/>
<path d="M78.6005 7.67358H77.2354V12.4346H78.5931C79.314 12.4346 79.8348 12.2631 80.292 11.8815C80.5605 11.658 80.777 11.3786 80.9262 11.0627C81.0754 10.7468 81.1537 10.402 81.1557 10.0527C81.1557 8.65067 80.1058 7.67358 78.6005 7.67358ZM79.6864 11.2492C79.3923 11.5137 79.0144 11.628 78.4143 11.628H78.1645V8.48014H78.4143C79.0144 8.48014 79.3776 8.58706 79.6864 8.86544C79.8494 9.01626 79.9791 9.19941 80.0674 9.4032C80.1556 9.60698 80.2004 9.82693 80.1989 10.049C80.2006 10.2735 80.156 10.496 80.0678 10.7025C79.9796 10.9091 79.8498 11.0951 79.6864 11.2492Z" fill="#05171D"/>
<path d="M82.5115 7.67358H81.5842V12.4346H82.5115V7.67358Z" fill="#05171D"/>
<path d="M84.7828 9.4996C84.2297 9.29312 84.061 9.1567 84.061 8.90044C84.061 8.60087 84.3532 8.37227 84.7533 8.37227C85.0298 8.37227 85.2603 8.48657 85.5036 8.75757L85.9885 8.12247C85.6037 7.77897 85.105 7.59072 84.5892 7.59429C83.7476 7.59429 83.1052 8.17962 83.1052 8.95667C83.1052 9.6139 83.4047 9.94942 84.2758 10.2647C84.4993 10.3336 84.7154 10.4244 84.921 10.5357C85.0059 10.5867 85.076 10.6589 85.1245 10.7452C85.1729 10.8315 85.1981 10.9289 85.1976 11.0279C85.1976 11.4132 84.8906 11.699 84.4758 11.699C84.2636 11.7023 84.0549 11.6441 83.8749 11.5314C83.695 11.4187 83.5515 11.2563 83.4619 11.0638L82.8636 11.6427C83.2904 12.2695 83.8048 12.5488 84.5127 12.5488C85.476 12.5488 86.1535 11.9036 86.1535 10.9818C86.1525 10.2287 85.8391 9.88582 84.7828 9.4996Z" fill="#05171D"/>
<path d="M86.4457 10.0563C86.4457 11.4564 87.5454 12.5451 88.9594 12.5451C89.3635 12.546 89.7621 12.4512 90.1226 12.2685V11.1707C89.7539 11.5394 89.423 11.6915 89.0018 11.6915C88.0662 11.6915 87.4025 11.0131 87.4025 10.0489C87.4025 9.13633 88.0874 8.41458 88.9594 8.41458C89.4009 8.41458 89.7373 8.5722 90.1226 8.95013V7.85783C89.7726 7.66582 89.3798 7.56532 88.9806 7.56563C88.6502 7.56149 88.3224 7.62276 88.0159 7.74591C87.7093 7.86906 87.4302 8.05166 87.1946 8.28318C86.9589 8.5147 86.7715 8.79057 86.6429 9.09488C86.5144 9.39919 86.4474 9.72593 86.4457 10.0563Z" fill="#05171D"/>
<path d="M97.6462 10.8712L96.376 7.67358H95.3621L97.3826 12.5562H97.8822L99.9387 7.67358H98.9321L97.6462 10.8712Z" fill="#05171D"/>
<path d="M100.361 12.4346H102.994V11.628H101.288V10.3421H102.929V9.53649H101.288V8.48014H102.994V7.67358H100.361V12.4346Z" fill="#05171D"/>
<path d="M106.67 9.07837C106.67 8.18701 106.057 7.67358 104.985 7.67358H103.607V12.4346H104.536V10.5209H104.658L105.942 12.4346H107.085L105.585 10.4288C106.285 10.2859 106.67 9.80749 106.67 9.07837ZM104.807 9.86464H104.536V8.42207H104.819C105.398 8.42207 105.713 8.66541 105.713 9.12907C105.713 9.59272 105.401 9.86464 104.807 9.86464Z" fill="#05171D"/>
<path d="M107.325 8.02846C107.325 7.94458 107.27 7.89941 107.167 7.89941H107.031V8.31882H107.13V8.15567L107.248 8.31882H107.372L107.233 8.14553C107.259 8.14026 107.284 8.12556 107.3 8.10408C107.317 8.0826 107.326 8.05577 107.325 8.02846ZM107.15 8.08561H107.131V7.97592H107.151C107.2 7.97592 107.225 7.99436 107.225 8.02938C107.225 8.06441 107.199 8.08561 107.15 8.08561Z" fill="#1D1D1B"/>
<path d="M107.187 7.74177C107.114 7.74031 107.042 7.76068 106.981 7.8003C106.919 7.83991 106.871 7.89697 106.842 7.9642C106.813 8.03143 106.804 8.10579 106.818 8.17779C106.831 8.24979 106.866 8.31617 106.917 8.36848C106.968 8.42078 107.034 8.45664 107.105 8.47148C107.177 8.48631 107.252 8.47945 107.319 8.45177C107.387 8.4241 107.445 8.37686 107.486 8.31607C107.527 8.25529 107.549 8.18372 107.549 8.11048C107.549 8.01396 107.511 7.92128 107.443 7.85234C107.376 7.7834 107.284 7.7437 107.187 7.74177ZM107.187 8.40914C107.128 8.41153 107.068 8.39596 107.017 8.36442C106.966 8.33289 106.926 8.28684 106.901 8.23218C106.877 8.17753 106.869 8.11677 106.879 8.05771C106.89 7.99865 106.917 7.94399 106.959 7.90076C107 7.85753 107.054 7.82769 107.112 7.8151C107.171 7.8025 107.232 7.80771 107.288 7.83005C107.343 7.8524 107.391 7.89087 107.424 7.94051C107.458 7.99016 107.476 8.04871 107.476 8.10864C107.477 8.18673 107.447 8.26207 107.393 8.31832C107.339 8.37457 107.265 8.4072 107.187 8.40914H107.187Z" fill="#1D1D1B"/>
<path d="M85.558 13.6853L86.8005 14.9868V13.7535H86.9775V15.4173L85.7377 14.1195V15.3463H85.5598L85.558 13.6853Z" fill="#1D1D1B"/>
<path d="M85.5414 13.6853V15.3611H85.7515V14.1628L86.9941 15.4615V13.7369H86.783V14.9453C86.7286 14.8873 85.5414 13.6438 85.5414 13.6438V13.6853ZM85.5746 13.7268L86.8171 15.0283V13.7692H86.9609V15.3767L85.7193 14.077V15.3297H85.5746V13.7268Z" fill="#1D1D1B"/>
<path d="M87.8385 13.7537H88.6681V13.9177H88.0229V14.3915H88.6515V14.5565H88.0229V15.1815H88.6681V15.3465H87.8385V13.7537Z" fill="#1D1D1B"/>
<path d="M88.6634 13.737H87.8209V15.3611H88.68V15.1629H88.0348V14.5702H88.6634V14.3739H88.0348V13.9333H88.68V13.7351L88.6634 13.737ZM88.6468 13.7692V13.901H88.0016V14.408H88.6312V14.5389H88.0016V15.198H88.6468V15.3298H87.8578V13.7692H88.6468Z" fill="#1D1D1B"/>
<path d="M89.9171 15.3465H89.7392V13.9177H89.3549V13.7537H90.3052V13.9177H89.9171V15.3465Z" fill="#1D1D1B"/>
<path d="M90.3051 13.7371H89.3373V13.9352H89.7226V15.3612H89.9327V13.9352H90.3217V13.7371H90.3051ZM90.2886 13.7693V13.9011H89.8996V15.3299H89.7558V13.9011H89.3714V13.7693H90.2886Z" fill="#1D1D1B"/>
<path d="M91.4924 14.9473L92.0059 13.6707L92.5211 14.9473L92.9396 13.7536H93.1323L92.5211 15.4285L92.0059 14.1454L91.4906 15.4285L90.8804 13.7536H91.073L91.4924 14.9473Z" fill="#1D1D1B"/>
<path d="M95.4284 14.5518C95.4284 14.7158 95.3797 14.8762 95.2886 15.0127C95.1974 15.1491 95.0678 15.2554 94.9162 15.3182C94.7647 15.381 94.5978 15.3974 94.4369 15.3654C94.276 15.3334 94.1282 15.2544 94.0122 15.1384C93.8961 15.0224 93.8171 14.8745 93.7851 14.7136C93.7531 14.5527 93.7695 14.3859 93.8323 14.2343C93.8951 14.0827 94.0014 13.9531 94.1379 13.862C94.2743 13.7708 94.4347 13.7222 94.5988 13.7222C94.8188 13.7222 95.0298 13.8096 95.1854 13.9651C95.341 14.1207 95.4284 14.3317 95.4284 14.5518ZM93.9452 14.5518C93.9465 14.6806 93.9859 14.8061 94.0583 14.9126C94.1308 15.019 94.2332 15.1017 94.3525 15.1501C94.4719 15.1985 94.6029 15.2105 94.7291 15.1846C94.8552 15.1587 94.9709 15.096 95.0616 15.0045C95.1522 14.913 95.2137 14.7967 95.2384 14.6703C95.263 14.5439 95.2497 14.413 95.2001 14.2941C95.1506 14.1752 95.0669 14.0737 94.9597 14.0022C94.8526 13.9308 94.7266 13.8927 94.5978 13.8927C94.4239 13.8932 94.2573 13.9625 94.1343 14.0855C94.0113 14.2084 93.942 14.3751 93.9415 14.549L93.9452 14.5518Z" fill="#1D1D1B"/>
<path d="M93.7507 14.5517C93.7498 14.7195 93.7987 14.8837 93.8913 15.0236C93.9838 15.1635 94.1158 15.2728 94.2705 15.3376C94.4252 15.4025 94.5956 15.4199 94.7603 15.3877C94.9249 15.3556 95.0763 15.2752 95.1952 15.157C95.3141 15.0387 95.3953 14.8877 95.4283 14.7233C95.4614 14.5589 95.4449 14.3883 95.3809 14.2332C95.3169 14.0782 95.2084 13.9456 95.069 13.8523C94.9296 13.759 94.7656 13.7092 94.5979 13.7092C94.4869 13.7089 94.377 13.7304 94.2743 13.7725C94.1717 13.8147 94.0783 13.8767 93.9997 13.9549C93.921 14.0331 93.8585 14.1261 93.8158 14.2285C93.7731 14.3309 93.751 14.4408 93.7507 14.5517ZM93.7839 14.5517C93.7819 14.3901 93.828 14.2315 93.9164 14.0962C94.0047 13.9609 94.1313 13.8548 94.2801 13.7916C94.4288 13.7284 94.593 13.7109 94.7518 13.7413C94.9105 13.7716 95.0567 13.8485 95.1716 13.9621C95.2865 14.0758 95.3651 14.221 95.3973 14.3794C95.4294 14.5378 95.4138 14.7022 95.3523 14.8517C95.2907 15.0011 95.1862 15.1289 95.0518 15.2188C94.9175 15.3087 94.7595 15.3566 94.5979 15.3564C94.3834 15.3569 94.1775 15.2726 94.025 15.1218C93.8725 14.9711 93.7859 14.7661 93.7839 14.5517Z" fill="#1D1D1B"/>
<path d="M93.9277 14.549C93.9288 14.6811 93.969 14.8099 94.0431 14.9192C94.1173 15.0285 94.2221 15.1134 94.3444 15.1632C94.4668 15.2131 94.6011 15.2256 94.7305 15.1992C94.8599 15.1728 94.9787 15.1088 95.0717 15.0151C95.1648 14.9213 95.2281 14.8022 95.2536 14.6726C95.279 14.543 95.2656 14.4087 95.2149 14.2868C95.1643 14.1648 95.0786 14.0605 94.9688 13.9871C94.859 13.9137 94.7299 13.8745 94.5979 13.8743C94.4196 13.875 94.2488 13.9465 94.1232 14.073C93.9975 14.1995 93.9272 14.3707 93.9277 14.549ZM93.9618 14.549C93.9637 14.4236 94.0025 14.3016 94.0735 14.1982C94.1445 14.0948 94.2444 14.0147 94.3608 13.968C94.4772 13.9213 94.6047 13.91 94.7275 13.9356C94.8503 13.9611 94.9627 14.0224 95.0508 14.1117C95.1388 14.201 95.1984 14.3144 95.2223 14.4375C95.2461 14.5606 95.2329 14.688 95.1845 14.8037C95.1361 14.9194 95.0546 15.0182 94.9502 15.0877C94.8459 15.1572 94.7233 15.1942 94.5979 15.1942C94.5137 15.1939 94.4304 15.1769 94.3528 15.1442C94.2752 15.1115 94.2048 15.0639 94.1457 15.0039C94.0866 14.9439 94.0399 14.8729 94.0083 14.7948C93.9768 14.7167 93.961 14.6332 93.9618 14.549Z" fill="#1D1D1B"/>
<path d="M96.375 15.3465H96.198V13.7537H96.4303C96.7326 13.7537 97.0128 13.8339 97.0128 14.1924C97.0161 14.2476 97.0083 14.3028 96.9899 14.3549C96.9716 14.407 96.943 14.4549 96.906 14.4958C96.8689 14.5367 96.824 14.5699 96.774 14.5933C96.724 14.6167 96.6698 14.6299 96.6146 14.6321L97.1207 15.3465H96.9004L96.4192 14.6469H96.375V15.3465ZM96.375 14.4902H96.4303C96.6312 14.4902 96.834 14.4524 96.834 14.2053C96.834 13.9445 96.6414 13.9177 96.4284 13.9177H96.3759L96.375 14.4902Z" fill="#1D1D1B"/>
<path d="M96.1981 13.737H96.1815V15.3611H96.3917V14.6615H96.4193C96.4193 14.6735 96.8876 15.3537 96.8876 15.3537L97.118 15.3611H97.1512C97.1512 15.3611 96.6645 14.6772 96.6396 14.6403C96.7497 14.6295 96.8513 14.5768 96.9234 14.493C96.9955 14.4092 97.0325 14.3009 97.0268 14.1905C97.0268 13.8835 96.8314 13.7351 96.4276 13.7351L96.1981 13.737ZM96.4276 13.7692C96.8139 13.7692 96.9936 13.9038 96.9936 14.1923C96.9966 14.2454 96.989 14.2985 96.9713 14.3485C96.9535 14.3986 96.926 14.4447 96.8904 14.4841C96.8547 14.5234 96.8115 14.5553 96.7634 14.5779C96.7153 14.6004 96.6632 14.6132 96.6101 14.6154H96.5806L97.0867 15.327H96.9023C96.9023 15.3141 96.4341 14.6348 96.4341 14.6348L96.3769 14.6274H96.3603V15.327H96.2156V13.7692H96.4276Z" fill="#1D1D1B"/>
<path d="M96.375 13.9011H96.3584V14.5067H96.4303C96.6266 14.5067 96.8506 14.4726 96.8506 14.2053C96.8506 13.9242 96.6331 13.9011 96.4285 13.9011H96.375ZM96.4275 13.9352C96.6322 13.9352 96.8165 13.9555 96.8165 14.2053C96.8165 14.4413 96.6211 14.4735 96.4294 14.4735H96.3916V13.9352H96.4275Z" fill="#1D1D1B"/>
<path d="M98.7265 13.7537H98.9653L98.2177 14.4957L98.9901 15.3465H98.7449L98.0896 14.6155L98.0453 14.6588V15.3465H97.8674V13.7537H98.0453V14.4395L98.7265 13.7537Z" fill="#1D1D1B"/>
<path d="M98.9652 13.737H98.72C98.72 13.737 98.1163 14.3426 98.0647 14.396V13.737H97.8545V15.3611H98.0647V14.6596C98.0745 14.6534 98.0834 14.646 98.0914 14.6375L98.7366 15.3556L98.9938 15.3611H99.0316C99.0316 15.3611 98.2647 14.5168 98.2426 14.4937C98.2665 14.4716 99.0085 13.7351 99.0085 13.7351L98.9652 13.737ZM98.9247 13.7692L98.1937 14.4946L98.9532 15.3298H98.7449C98.7449 15.3206 98.1043 14.6043 98.1043 14.6043L98.0932 14.5905L98.0361 14.6477C98.0361 14.6477 98.0315 15.2975 98.0315 15.3298H97.8877V13.7692H98.0315V14.4762L98.7329 13.7692H98.9247Z" fill="#1D1D1B"/>
</g>
<g clip-path="url(#clip1_201_46)">
<path d="M135.921 1.99854H114V24.0009H135.925V16.7393C136.017 16.5951 136.062 16.4259 136.054 16.255C136.054 16.0303 136.012 15.8903 135.925 15.7729" fill="url(#paint1_radial_201_46)"/>
<path d="M115.976 11.5192L115.554 10.4914L115.135 11.5192H115.976ZM125.266 11.1103C125.171 11.1555 125.066 11.1738 124.962 11.1631H124.213V10.5909H124.972C125.071 10.5831 125.171 10.5988 125.263 10.6368C125.305 10.6574 125.34 10.6901 125.363 10.7307C125.386 10.7713 125.397 10.818 125.393 10.8646C125.396 10.9132 125.386 10.9619 125.364 11.0052C125.342 11.0485 125.308 11.0849 125.266 11.1103ZM130.605 11.5192L130.179 10.4914L129.755 11.5192H130.605ZM120.654 12.6318H120.022V10.6104L119.129 12.6318H118.585L117.689 10.6104V12.6318H116.434L116.201 12.0565H114.918L114.679 12.6318H114.009L115.113 10.0537H116.028L117.074 12.4942V10.0537H118.079L118.886 11.8022L119.627 10.0537H120.652V12.6318H120.654ZM123.171 12.6318H121.111V10.0537H123.169V10.5909H121.728V11.0574H123.135V11.5861H121.728V12.1008H123.169L123.171 12.6318ZM126.075 10.748C126.079 10.8928 126.04 11.0357 125.963 11.1582C125.885 11.2807 125.773 11.3772 125.64 11.4353C125.759 11.4789 125.865 11.5538 125.945 11.6522C126.032 11.7805 126.048 11.8947 126.048 12.1249V12.6318H125.426V12.306C125.426 12.1505 125.44 11.9282 125.328 11.8046C125.238 11.7136 125.101 11.6942 124.88 11.6942H124.218V12.6318H123.602V10.0537H125.019C125.33 10.0537 125.563 10.0623 125.765 10.1773C125.968 10.2924 126.075 10.4603 126.075 10.748ZM127.061 12.6318H126.432V10.0537H127.061V12.6318ZM134.354 12.6318H133.478L132.312 10.6967V12.6318H131.055L130.815 12.0565H129.535L129.302 12.6318H128.581C128.282 12.6318 127.903 12.5649 127.688 12.3464C127.474 12.128 127.358 11.831 127.358 11.3622C127.358 10.9797 127.426 10.6306 127.69 10.3515C127.89 10.1454 128.202 10.0506 128.623 10.0506H129.22V10.6034H128.64C128.416 10.6034 128.289 10.6368 128.166 10.7589C128.061 10.8677 127.989 11.0698 127.989 11.3427C127.989 11.6156 128.044 11.8178 128.158 11.9484C128.253 12.0502 128.426 12.0813 128.588 12.0813H128.865L129.729 10.0537H130.653L131.699 12.4942V10.0537H132.637L133.72 11.8489V10.0537H134.351V12.6318H134.354ZM114.003 13.1379H115.056L115.293 12.5649H115.825L116.058 13.1379H118.13V12.7002L118.314 13.1395H119.389L119.574 12.6932V13.1379H124.722V12.198H124.822C124.892 12.198 124.912 12.2065 124.912 12.3223V13.1379H127.574V12.9187C127.881 13.071 128.22 13.1463 128.563 13.1379H129.683L129.923 12.5649H130.454L130.688 13.1379H132.846V12.5937L133.173 13.1379H134.902V9.53979H133.192V9.96429L132.948 9.53979H131.192V9.96429L130.973 9.53979H128.6C128.203 9.53979 127.854 9.595 127.571 9.74971V9.53979H125.934V9.74971C125.755 9.59033 125.51 9.53979 125.238 9.53979H119.257L118.856 10.4728L118.444 9.53979H116.56V9.96429L116.357 9.53979H114.746L114 11.2502V13.1364L114.003 13.1379Z" fill="white"/>
<path d="M135.921 15.039H134.797C134.712 15.0291 134.625 15.0453 134.548 15.0857C134.518 15.1056 134.494 15.1334 134.478 15.1661C134.462 15.1989 134.455 15.2353 134.458 15.2715C134.457 15.3138 134.469 15.3554 134.493 15.3901C134.518 15.4247 134.553 15.4505 134.593 15.4635C134.67 15.4865 134.75 15.4963 134.831 15.4923L135.164 15.5016C135.501 15.5102 135.726 15.5677 135.864 15.7092C135.886 15.7279 135.905 15.7493 135.921 15.773L135.921 15.039ZM135.921 16.7393C135.771 16.9578 135.48 17.069 135.085 17.069H133.895V16.5162H135.08C135.198 16.5162 135.28 16.5007 135.33 16.4525C135.353 16.4309 135.371 16.4047 135.384 16.3757C135.396 16.3466 135.402 16.3153 135.402 16.2838C135.403 16.2513 135.397 16.2191 135.383 16.1896C135.37 16.1601 135.349 16.134 135.324 16.1135C135.262 16.0678 135.184 16.0473 135.107 16.056C134.528 16.0365 133.807 16.0738 133.807 15.2583C133.807 14.8843 134.04 14.4909 134.691 14.4909H135.918V13.9778H134.782C134.438 13.9778 134.188 14.0602 134.011 14.1885V13.9778H132.323C132.053 13.9778 131.736 14.0446 131.586 14.1885V13.9778H128.574V14.1885C128.335 14.0151 127.931 13.9778 127.744 13.9778H125.758V14.1885C125.568 14.0042 125.146 13.9778 124.889 13.9778H122.666L122.157 14.5282L121.681 13.9778H118.359V17.5751H121.618L122.142 17.0161L122.636 17.5751H124.644V16.7308H124.842C125.108 16.7347 125.423 16.7238 125.697 16.6041V17.5751H127.354V16.6375H127.432C127.533 16.6375 127.543 16.6375 127.543 16.744V17.5751H132.582C132.902 17.5751 133.235 17.4935 133.42 17.3419V17.5751H135.016C135.348 17.5751 135.672 17.5285 135.919 17.4095V16.7393H135.921ZM133.461 15.7092C133.581 15.8328 133.645 15.9899 133.645 16.2534C133.645 16.8085 133.298 17.0674 132.677 17.0674H131.479V16.5147H132.674C132.763 16.5252 132.853 16.5025 132.926 16.4509C132.949 16.4294 132.968 16.4033 132.98 16.3742C132.993 16.3452 132.999 16.3138 132.999 16.2822C132.999 16.2499 132.992 16.2179 132.979 16.1885C132.965 16.1591 132.946 16.133 132.921 16.1119C132.858 16.0669 132.78 16.0464 132.702 16.0544C132.126 16.035 131.404 16.0723 131.404 15.2567C131.404 14.8828 131.638 14.4894 132.285 14.4894H133.52V15.0382H132.393C132.307 15.0281 132.221 15.0441 132.145 15.0841C132.113 15.1064 132.088 15.1369 132.072 15.1724C132.056 15.2079 132.05 15.2471 132.054 15.2858C132.058 15.3245 132.073 15.3613 132.097 15.3923C132.12 15.4234 132.152 15.4474 132.188 15.462C132.266 15.4855 132.347 15.4955 132.428 15.4915L132.76 15.5001C133.094 15.5102 133.323 15.5677 133.461 15.7092ZM127.901 15.5498C127.806 15.5942 127.701 15.6125 127.596 15.6027H126.852V15.0243H127.611C127.711 15.0153 127.812 15.031 127.905 15.0701C127.946 15.0928 127.98 15.1268 128.003 15.1682C128.025 15.2095 128.036 15.2564 128.033 15.3034C128.035 15.3522 128.024 15.4006 128.001 15.4439C127.978 15.4871 127.945 15.5237 127.903 15.5498H127.901ZM128.273 15.8709C128.392 15.9132 128.497 15.9881 128.575 16.0871C128.661 16.213 128.675 16.3304 128.677 16.5574V17.069H128.055V16.7463C128.055 16.5909 128.07 16.3615 127.956 16.2418C127.865 16.1493 127.729 16.1275 127.504 16.1275H126.852V17.069H126.23V14.4909H127.652C127.963 14.4909 128.192 14.5041 128.394 14.6122C128.496 14.6671 128.58 14.7502 128.636 14.8517C128.693 14.9532 128.718 15.0687 128.71 15.1844C128.715 15.3293 128.676 15.4723 128.599 15.5947C128.521 15.7172 128.408 15.8134 128.275 15.8709H128.273ZM129.05 14.4909H131.107V15.0235H129.668V15.49H131.075V16.0163H129.668V16.5294H131.11V17.0643H129.053L129.05 14.4909ZM124.897 15.682H124.101V15.0258H124.904C125.126 15.0258 125.281 15.116 125.281 15.3415C125.281 15.5669 125.133 15.682 124.897 15.682ZM123.487 16.8358L122.541 15.7854L123.487 14.7692V16.8358ZM121.044 16.5333H119.529V16.0202H120.882V15.4938H119.529V15.0274H121.074L121.747 15.7792L121.044 16.5333ZM125.942 15.3415C125.942 16.0575 125.408 16.2052 124.869 16.2052H124.101V17.0705H122.903L122.145 16.2153L121.356 17.0705H118.915V14.4909H121.394L122.152 15.336L122.935 14.4909H124.904C125.393 14.4909 125.942 14.6262 125.942 15.3399V15.3415Z" fill="white"/>
</g>
<defs>
<radialGradient id="paint0_radial_201_46" cx="0" cy="0" r="1" gradientUnits="userSpaceOnUse" gradientTransform="translate(93.0105 10.0629) scale(2.50723)">
<stop offset="0.01" stop-color="#FFF3E8"/>
<stop offset="0.1" stop-color="#FEEEDF"/>
<stop offset="0.24" stop-color="#FDE2C7"/>
<stop offset="0.43" stop-color="#FACE9F"/>
<stop offset="0.65" stop-color="#F6B268"/>
<stop offset="0.89" stop-color="#F18E22"/>
<stop offset="1" stop-color="#EF7D00"/>
</radialGradient>
<radialGradient id="paint1_radial_201_46" cx="0" cy="0" r="1" gradientUnits="userSpaceOnUse" gradientTransform="translate(117.868 5.84312) scale(20.5702)">
<stop stop-color="#9DD5F6"/>
<stop offset="0.07" stop-color="#98D3F5"/>
<stop offset="0.16" stop-color="#89CEF3"/>
<stop offset="0.25" stop-color="#70C6EF"/>
<stop offset="0.35" stop-color="#4EBBEA"/>
<stop offset="0.45" stop-color="#23ADE3"/>
<stop offset="0.5" stop-color="#0DA6E0"/>
<stop offset="1" stop-color="#2E77BC"/>
</radialGradient>
<clipPath id="clip0_201_46">
<rect width="34.396" height="22" fill="white" transform="translate(75 2)"/>
</clipPath>
<clipPath id="clip1_201_46">
<rect width="22.0505" height="22" fill="white" transform="translate(114 2)"/>
</clipPath>
</defs>
</svg>
