<svg width="272" height="23" viewBox="0 0 272 23" fill="none" xmlns="http://www.w3.org/2000/svg">
<path d="M63.0854 10.7873C63.0854 10.7873 63.4584 12.6143 63.5424 12.997H61.9028L62.6885 10.8607C62.6788 10.8757 62.8503 10.4134 62.9484 10.1288L63.0854 10.7873ZM68.2853 3.35733V20.6427C68.2851 21.2678 68.0367 21.8673 67.5946 22.3093C67.1526 22.7513 66.5531 22.9998 65.928 23H42.3573C41.7322 22.9998 41.1327 22.7513 40.6907 22.3093C40.2487 21.8673 40.0002 21.2678 40 20.6427V3.35733C40.0002 2.7322 40.2487 2.13274 40.6907 1.69071C41.1327 1.24867 41.7322 1.00023 42.3573 1H65.928C66.5531 1.00023 67.1526 1.24867 67.5946 1.69071C68.0367 2.13274 68.2851 2.7322 68.2853 3.35733ZM47.4892 15.6929L50.5925 8.072H48.5057L46.5761 13.2772L46.3649 12.2219L45.6772 8.71547C45.5641 8.22933 45.2158 8.09144 44.7836 8.072H41.6069L41.5724 8.22403C42.2999 8.4025 42.9978 8.68533 43.6443 9.06372L45.4023 15.6929H47.4892ZM52.1252 15.7026L53.3626 8.072H51.3889L50.1568 15.7026H52.1252ZM58.9948 13.2083C59.0045 12.3394 58.4742 11.6765 57.3401 11.1311C56.6481 10.782 56.2256 10.5469 56.2256 10.188C56.2353 9.86364 56.5844 9.52953 57.3596 9.52953C57.8645 9.51529 58.3661 9.61435 58.8277 9.81945L59.0045 9.90253L59.275 8.25231C58.7107 8.0363 58.1114 7.92632 57.5072 7.92792C55.5573 7.92792 54.1873 8.96914 54.1776 10.4514C54.1626 11.5466 55.1596 12.1556 55.9065 12.5233C56.6675 12.8963 56.9282 13.142 56.9282 13.4708C56.9185 13.9817 56.3095 14.2168 55.7447 14.2168C54.9589 14.2168 54.5364 14.0939 53.893 13.8093L53.6331 13.6865L53.3582 15.4003C53.8196 15.6116 54.6743 15.7981 55.5582 15.8078C57.6301 15.8122 58.9806 14.786 58.9957 13.2056L58.9948 13.2083ZM65.928 15.7026L64.337 8.072H62.8096C62.3385 8.072 61.9797 8.20988 61.7781 8.70575L58.8463 15.7035H60.9181C60.9181 15.7035 61.2566 14.7604 61.3309 14.5597H63.865C63.9242 14.8302 64.101 15.7035 64.101 15.7035L65.928 15.7026Z" fill="#0066B3"/>
<path d="M22.4782 3.39133H12.913V20.6087H22.4782V3.39133Z" fill="#FF5F00"/>
<path d="M13.5302 12C13.5302 8.48611 15.172 5.36944 17.6957 3.35278C15.841 1.88611 13.4998 1 10.9458 1C4.89519 1 0 5.91944 0 12C0 18.0806 4.89519 23 10.9458 23C13.4998 23 15.841 22.1139 17.6957 20.6472C15.172 18.6611 13.5302 15.5139 13.5302 12Z" fill="#EB001B"/>
<path d="M35.3913 12C35.3913 18.0806 30.4961 23 24.4456 23C21.8916 23 19.5504 22.1139 17.6957 20.6472C20.2497 18.6306 21.8612 15.5139 21.8612 12C21.8612 8.48611 20.2193 5.36944 17.6957 3.35278C19.5504 1.88611 21.8916 1 24.4456 1C30.4961 1 35.3913 5.95 35.3913 12Z" fill="#F79E1B"/>
<path d="M108.272 1H74V23H108.397V1H108.272ZM108.151 1.24888C108.151 1.49407 108.151 22.505 108.151 22.7502H74.2498C74.2498 22.505 74.2498 1.49499 74.2498 1.2498L108.151 1.24888Z" fill="#1D1D1B"/>
<path d="M108.145 13.2218C108.145 13.2218 98.8169 19.8042 81.73 22.7493H108.145V13.2218Z" fill="#EF7D00"/>
<path d="M92.0133 6.58411C90.6122 6.58411 89.4747 7.67918 89.4747 9.0305C89.4747 10.4675 90.5624 11.5414 92.0133 11.5414C93.4282 11.5414 94.5454 10.4528 94.5454 9.05907C94.5454 7.66535 93.4356 6.58411 92.0133 6.58411Z" fill="url(#paint0_radial_1836_7963)"/>
<path d="M77.6004 6.67352H76.2353V11.4345H77.5931C78.3139 11.4345 78.8347 11.263 79.2919 10.8814C79.5605 10.658 79.7769 10.3785 79.9261 10.0626C80.0753 9.74669 80.1536 9.40198 80.1556 9.05262C80.1556 7.6506 79.1057 6.67352 77.6004 6.67352ZM78.6863 10.2491C78.3922 10.5136 78.0143 10.6279 77.4142 10.6279H77.1644V7.48008H77.4142C78.0143 7.48008 78.3775 7.587 78.6863 7.86538C78.8493 8.0162 78.9791 8.19935 79.0673 8.40313C79.1555 8.60692 79.2003 8.82687 79.1988 9.04894C79.2006 9.27348 79.1559 9.49598 79.0678 9.70249C78.9796 9.909 78.8497 10.0951 78.6863 10.2491Z" fill="#05171D"/>
<path d="M81.5115 6.67352H80.5842V11.4345H81.5115V6.67352Z" fill="#05171D"/>
<path d="M83.7828 8.49957C83.2297 8.29309 83.061 8.15667 83.061 7.90041C83.061 7.60084 83.3532 7.37224 83.7533 7.37224C84.0298 7.37224 84.2603 7.48654 84.5036 7.75754L84.9885 7.12243C84.6037 6.77894 84.105 6.59069 83.5892 6.59426C82.7476 6.59426 82.1052 7.17958 82.1052 7.95664C82.1052 8.61387 82.4047 8.94939 83.2758 9.26464C83.4993 9.33355 83.7154 9.42432 83.921 9.53564C84.0059 9.58665 84.076 9.65885 84.1245 9.74516C84.1729 9.83146 84.1981 9.92888 84.1976 10.0279C84.1976 10.4132 83.8906 10.6989 83.4758 10.6989C83.2636 10.7022 83.0549 10.644 82.8749 10.5313C82.695 10.4186 82.5515 10.2563 82.4619 10.0638L81.8636 10.6427C82.2904 11.2695 82.8048 11.5488 83.5127 11.5488C84.476 11.5488 85.1535 10.9036 85.1535 9.98178C85.1525 9.22869 84.8391 8.88579 83.7828 8.49957Z" fill="#05171D"/>
<path d="M85.4457 9.05631C85.4457 10.4565 86.5454 11.5451 87.9594 11.5451C88.3635 11.546 88.7621 11.4513 89.1226 11.2686V10.1707C88.7539 10.5394 88.423 10.6915 88.0018 10.6915C87.0662 10.6915 86.4025 10.0131 86.4025 9.04893C86.4025 8.13638 87.0874 7.41463 87.9594 7.41463C88.4009 7.41463 88.7373 7.57225 89.1226 7.95018V6.85787C88.7726 6.66587 88.3798 6.56536 87.9806 6.56567C87.6502 6.56153 87.3224 6.6228 87.0159 6.74596C86.7093 6.86911 86.4302 7.05171 86.1946 7.28323C85.9589 7.51475 85.7715 7.79061 85.6429 8.09492C85.5144 8.39923 85.4474 8.72597 85.4457 9.05631Z" fill="#05171D"/>
<path d="M96.6462 9.87116L95.376 6.67352H94.362L96.3825 11.5562H96.8821L98.9386 6.67352H97.932L96.6462 9.87116Z" fill="#05171D"/>
<path d="M99.3608 11.4345H101.994V10.6279H100.288V9.34206H101.929V8.53643H100.288V7.48008H101.994V6.67352H99.3608V11.4345Z" fill="#05171D"/>
<path d="M105.67 8.07831C105.67 7.18695 105.057 6.67352 103.985 6.67352H102.607V11.4345H103.536V9.52089H103.658L104.942 11.4345H106.085L104.585 9.42871C105.285 9.28583 105.67 8.80743 105.67 8.07831ZM103.807 8.86458H103.536V7.422H103.819C104.398 7.422 104.713 7.66535 104.713 8.12901C104.713 8.59266 104.401 8.86458 103.807 8.86458Z" fill="#05171D"/>
<path d="M106.325 7.0284C106.325 6.94452 106.27 6.89935 106.167 6.89935H106.031V7.31876H106.13V7.15561L106.248 7.31876H106.372L106.233 7.14547C106.259 7.1402 106.284 7.1255 106.3 7.10402C106.317 7.08254 106.326 7.05571 106.325 7.0284ZM106.15 7.08555H106.131V6.97586H106.151C106.2 6.97586 106.225 6.9943 106.225 7.02932C106.225 7.06435 106.199 7.08555 106.15 7.08555Z" fill="#1D1D1B"/>
<path d="M106.187 6.74174C106.114 6.74028 106.042 6.76065 105.981 6.80026C105.919 6.83988 105.871 6.89694 105.842 6.96417C105.813 7.0314 105.804 7.10576 105.818 7.17776C105.831 7.24976 105.866 7.31614 105.917 7.36845C105.968 7.42076 106.034 7.45661 106.105 7.47145C106.177 7.48628 106.252 7.47942 106.319 7.45174C106.387 7.42407 106.445 7.37683 106.486 7.31604C106.527 7.25526 106.549 7.18369 106.549 7.11045C106.549 7.01393 106.511 6.92125 106.443 6.85231C106.376 6.78337 106.284 6.74367 106.187 6.74174ZM106.187 7.40911C106.128 7.4115 106.068 7.39593 106.017 7.36439C105.966 7.33286 105.926 7.28681 105.901 7.23215C105.877 7.1775 105.869 7.11674 105.879 7.05768C105.89 6.99862 105.917 6.94396 105.959 6.90073C106 6.8575 106.054 6.82766 106.112 6.81506C106.171 6.80247 106.232 6.80767 106.288 6.83002C106.343 6.85237 106.391 6.89084 106.424 6.94048C106.458 6.99013 106.476 7.04868 106.476 7.10861C106.477 7.1867 106.447 7.26204 106.393 7.31829C106.339 7.37454 106.265 7.40717 106.187 7.40911H106.187Z" fill="#1D1D1B"/>
<path d="M84.558 12.6853L85.8005 13.9869V12.7535H85.9775V14.4173L84.7377 13.1195V14.3464H84.5598L84.558 12.6853Z" fill="#1D1D1B"/>
<path d="M84.5414 12.6853V14.3611H84.7516V13.1628L85.9942 14.4616V12.737H85.7831V13.9454C85.7287 13.8873 84.5414 12.6439 84.5414 12.6439V12.6853ZM84.5746 12.7268L85.8172 14.0284V12.7692H85.961V14.3768L84.7193 13.0771V14.3298H84.5746V12.7268Z" fill="#1D1D1B"/>
<path d="M86.8385 12.7536H87.6681V12.9176H87.0229V13.3914H87.6515V13.5564H87.0229V14.1814H87.6681V14.3464H86.8385V12.7536Z" fill="#1D1D1B"/>
<path d="M87.6635 12.737H86.821V14.3611H87.6801V14.163H87.0348V13.5702H87.6635V13.3739H87.0348V12.9333H87.6801V12.7351L87.6635 12.737ZM87.6469 12.7692V12.901H87.0017V13.408H87.6312V13.5389H87.0017V14.198H87.6469V14.3298H86.8579V12.7692H87.6469Z" fill="#1D1D1B"/>
<path d="M88.9171 14.3464H88.7392V12.9176H88.3548V12.7536H89.3051V12.9176H88.9171V14.3464Z" fill="#1D1D1B"/>
<path d="M89.3051 12.737H88.3373V12.9351H88.7226V14.3611H88.9327V12.9351H89.3217V12.737H89.3051ZM89.2886 12.7692V12.901H88.8996V14.3298H88.7558V12.901H88.3714V12.7692H89.2886Z" fill="#1D1D1B"/>
<path d="M90.4924 13.9472L91.0058 12.6706L91.5211 13.9472L91.9396 12.7536H92.1322L91.5211 14.4284L91.0058 13.1453L90.4905 14.4284L89.8803 12.7536H90.073L90.4924 13.9472Z" fill="#1D1D1B"/>
<path d="M90.9929 12.6641C90.9929 12.6641 90.5237 13.8237 90.4933 13.9002C90.4666 13.8228 90.0859 12.737 90.0859 12.737H89.8582L90.4924 14.4754C90.4924 14.4754 90.9791 13.2633 91.0077 13.1905L91.5239 14.4754L92.158 12.737H91.9276C91.9276 12.737 91.5469 13.8228 91.5202 13.9002C91.4888 13.8237 91.0058 12.6263 91.0058 12.6263L90.9929 12.6641ZM90.5071 13.9546L91.0058 12.7158C91.0353 12.7867 91.522 13.9943 91.522 13.9943C91.522 13.9943 91.9433 12.7913 91.9516 12.7692H92.112C92.0972 12.8116 91.5524 14.3049 91.5239 14.3823L91.0058 13.1011L90.4906 14.3823C90.4638 14.3049 89.92 12.8153 89.9043 12.7692H90.0601C90.0675 12.7913 90.4896 13.9943 90.4896 13.9943L90.5071 13.9546Z" fill="#1D1D1B"/>
<path d="M94.4284 13.5518C94.4284 13.7159 94.3797 13.8763 94.2885 14.0127C94.1974 14.1491 94.0678 14.2555 93.9162 14.3183C93.7646 14.381 93.5978 14.3975 93.4369 14.3655C93.276 14.3335 93.1282 14.2544 93.0121 14.1384C92.8961 14.0224 92.8171 13.8746 92.7851 13.7137C92.7531 13.5527 92.7695 13.3859 92.8323 13.2343C92.8951 13.0827 93.0014 12.9532 93.1379 12.862C93.2743 12.7709 93.4347 12.7222 93.5988 12.7222C93.8188 12.7222 94.0298 12.8096 94.1854 12.9652C94.341 13.1208 94.4284 13.3318 94.4284 13.5518ZM92.9452 13.5518C92.9465 13.6806 92.9859 13.8061 93.0583 13.9126C93.1308 14.0191 93.2332 14.1017 93.3525 14.1501C93.4719 14.1985 93.6029 14.2105 93.7291 14.1846C93.8552 14.1587 93.9709 14.0961 94.0615 14.0046C94.1522 13.913 94.2137 13.7967 94.2384 13.6703C94.263 13.5439 94.2497 13.413 94.2001 13.2941C94.1506 13.1753 94.0669 13.0737 93.9597 13.0023C93.8526 12.9309 93.7266 12.8927 93.5978 12.8927C93.4239 12.8932 93.2573 12.9625 93.1343 13.0855C93.0113 13.2085 92.942 13.3751 92.9415 13.549L92.9452 13.5518Z" fill="#1D1D1B"/>
<path d="M92.7507 13.5518C92.7498 13.7195 92.7987 13.8838 92.8913 14.0237C92.9838 14.1636 93.1158 14.2729 93.2705 14.3377C93.4252 14.4025 93.5957 14.42 93.7603 14.3878C93.9249 14.3556 94.0763 14.2753 94.1952 14.157C94.3141 14.0388 94.3953 13.8878 94.4283 13.7234C94.4614 13.5589 94.4449 13.3884 94.3809 13.2333C94.3169 13.0783 94.2084 12.9457 94.069 12.8524C93.9296 12.7591 93.7656 12.7093 93.5979 12.7093C93.4869 12.7089 93.377 12.7305 93.2743 12.7726C93.1717 12.8148 93.0784 12.8767 92.9997 12.955C92.921 13.0332 92.8585 13.1262 92.8158 13.2286C92.7731 13.331 92.751 13.4409 92.7507 13.5518ZM92.7839 13.5518C92.7819 13.3902 92.828 13.2316 92.9164 13.0963C93.0047 12.9609 93.1313 12.8549 93.2801 12.7917C93.4288 12.7285 93.593 12.711 93.7518 12.7413C93.9105 12.7717 94.0567 12.8486 94.1716 12.9622C94.2865 13.0759 94.3651 13.2211 94.3973 13.3795C94.4294 13.5379 94.4138 13.7023 94.3523 13.8518C94.2908 14.0012 94.1862 14.129 94.0518 14.2189C93.9175 14.3088 93.7595 14.3567 93.5979 14.3565C93.3834 14.357 93.1775 14.2727 93.025 14.1219C92.8725 13.9712 92.7859 13.7662 92.7839 13.5518Z" fill="#1D1D1B"/>
<path d="M92.9277 13.549C92.9288 13.6811 92.969 13.8099 93.0431 13.9192C93.1173 14.0285 93.2221 14.1134 93.3444 14.1633C93.4668 14.2131 93.6011 14.2256 93.7305 14.1992C93.8599 14.1729 93.9787 14.1088 94.0717 14.0151C94.1648 13.9214 94.2281 13.8022 94.2536 13.6726C94.279 13.543 94.2656 13.4088 94.2149 13.2868C94.1643 13.1648 94.0786 13.0606 93.9688 12.9872C93.859 12.9138 93.7299 12.8745 93.5979 12.8743C93.4196 12.875 93.2488 12.9465 93.1232 13.073C92.9975 13.1995 92.9272 13.3707 92.9277 13.549ZM92.9618 13.549C92.9637 13.4237 93.0025 13.3016 93.0735 13.1982C93.1445 13.0949 93.2444 13.0148 93.3608 12.968C93.4772 12.9213 93.6047 12.91 93.7275 12.9356C93.8503 12.9612 93.9627 13.0225 94.0508 13.1118C94.1388 13.2011 94.1985 13.3144 94.2223 13.4375C94.2461 13.5606 94.2329 13.688 94.1845 13.8037C94.1361 13.9194 94.0546 14.0182 93.9502 14.0877C93.8459 14.1572 93.7233 14.1943 93.5979 14.1943C93.5137 14.1939 93.4304 14.1769 93.3528 14.1442C93.2752 14.1116 93.2048 14.0639 93.1457 14.0039C93.0866 13.944 93.0399 13.8729 93.0083 13.7948C92.9768 13.7168 92.961 13.6332 92.9618 13.549Z" fill="#1D1D1B"/>
<path d="M95.375 14.3464H95.1981V12.7536H95.4303C95.7327 12.7536 96.0129 12.8338 96.0129 13.1923C96.0161 13.2475 96.0083 13.3027 95.99 13.3548C95.9716 13.4068 95.9431 13.4548 95.906 13.4957C95.869 13.5366 95.8241 13.5698 95.7741 13.5932C95.7241 13.6166 95.6699 13.6298 95.6147 13.632L96.1208 14.3464H95.9005L95.4193 13.6468H95.375V14.3464ZM95.375 13.4901H95.4303C95.6313 13.4901 95.8341 13.4523 95.8341 13.2052C95.8341 12.9444 95.6414 12.9176 95.4285 12.9176H95.376L95.375 13.4901Z" fill="#1D1D1B"/>
<path d="M95.1981 12.737H95.1815V14.3611H95.3916V13.6615H95.4193C95.4193 13.6735 95.8875 14.3538 95.8875 14.3538L96.118 14.3611H96.1512C96.1512 14.3611 95.6645 13.6772 95.6396 13.6403C95.7496 13.6295 95.8512 13.5768 95.9233 13.493C95.9954 13.4092 96.0325 13.3009 96.0267 13.1905C96.0267 12.8835 95.8313 12.7351 95.4276 12.7351L95.1981 12.737ZM95.4276 12.7692C95.8138 12.7692 95.9935 12.9038 95.9935 13.1923C95.9965 13.2454 95.9889 13.2985 95.9712 13.3486C95.9535 13.3986 95.926 13.4447 95.8903 13.4841C95.8546 13.5234 95.8115 13.5553 95.7634 13.5779C95.7153 13.6004 95.6632 13.6132 95.6101 13.6154H95.5806L96.0866 14.327H95.9023C95.9023 14.3141 95.434 13.6348 95.434 13.6348L95.3769 13.6274H95.3603V14.327H95.2156V12.7692H95.4276Z" fill="#1D1D1B"/>
<path d="M95.3751 12.901H95.3585V13.5066H95.4304C95.6267 13.5066 95.8507 13.4725 95.8507 13.2052C95.8507 12.9241 95.6331 12.901 95.4285 12.901H95.3751ZM95.4276 12.9351C95.6322 12.9351 95.8166 12.9554 95.8166 13.2052C95.8166 13.4412 95.6212 13.4735 95.4294 13.4735H95.3916V12.9351H95.4276Z" fill="#1D1D1B"/>
<path d="M97.7265 12.7536H97.9652L97.2176 13.4956L97.9901 14.3464H97.7449L97.0895 13.6154L97.0453 13.6587V14.3464H96.8674V12.7536H97.0453V13.4394L97.7265 12.7536Z" fill="#1D1D1B"/>
<path d="M97.9652 12.737H97.72C97.72 12.737 97.1163 13.3426 97.0647 13.396V12.737H96.8545V14.3611H97.0647V13.6597C97.0745 13.6534 97.0834 13.646 97.0914 13.6375L97.7366 14.3556L97.9938 14.3611H98.0316C98.0316 14.3611 97.2647 13.5168 97.2426 13.4937C97.2665 13.4716 98.0085 12.7351 98.0085 12.7351L97.9652 12.737ZM97.9247 12.7692L97.1937 13.4947L97.9532 14.3298H97.7449C97.7449 14.3206 97.1043 13.6044 97.1043 13.6044L97.0932 13.5905L97.0361 13.6477C97.0361 13.6477 97.0315 14.2975 97.0315 14.3298H96.8877V12.7692H97.0315V13.4762L97.7329 12.7692H97.9247Z" fill="#1D1D1B"/>
<path d="M134.918 1H113V23H134.922V15.7392C135.014 15.595 135.06 15.4259 135.052 15.2549C135.052 15.0302 135.009 14.8903 134.922 14.7729" fill="url(#paint1_radial_1836_7963)"/>
<path d="M114.976 10.5199L114.554 9.49215L114.135 10.5199H114.976ZM124.265 10.111C124.17 10.1562 124.065 10.1745 123.96 10.1638H123.212V9.59166H123.97C124.07 9.58382 124.17 9.59953 124.262 9.63752C124.304 9.6581 124.339 9.69082 124.362 9.73144C124.385 9.77206 124.395 9.81869 124.392 9.8653C124.395 9.91393 124.385 9.96256 124.363 10.0059C124.341 10.0492 124.307 10.0856 124.265 10.111ZM129.603 10.5199L129.177 9.49215L128.754 10.5199H129.603ZM119.653 11.6323H119.022V9.61109L118.128 11.6323H117.584L116.689 9.61109V11.6323H115.434L115.201 11.057H113.918L113.679 11.6323H113.009L114.112 9.05448H115.028L116.074 11.4947V9.05448H117.079L117.885 10.8028L118.626 9.05448H119.651V11.6323H119.653ZM122.17 11.6323H120.111V9.05448H122.168V9.59166H120.727V10.0581H122.134V10.5867H120.727V11.1013H122.168L122.17 11.6323ZM125.074 9.74869C125.078 9.89354 125.039 10.0364 124.962 10.1589C124.884 10.2814 124.772 10.3779 124.639 10.4359C124.758 10.4795 124.863 10.5544 124.944 10.6528C125.031 10.7811 125.046 10.8953 125.046 11.1254V11.6323H124.424V11.3066C124.424 11.1511 124.439 10.9288 124.327 10.8052C124.237 10.7142 124.1 10.6948 123.879 10.6948H123.217V11.6323H122.601V9.05448H124.018C124.329 9.05448 124.562 9.06304 124.764 9.17809C124.966 9.29314 125.074 9.46106 125.074 9.74869ZM126.059 11.6323H125.43V9.05448H126.059V11.6323ZM133.352 11.6323H132.476L131.31 9.69738V11.6323H130.053L129.813 11.057H128.534L128.3 11.6323H127.58C127.281 11.6323 126.901 11.5654 126.687 11.347C126.472 11.1285 126.357 10.8316 126.357 10.3628C126.357 9.98035 126.425 9.6313 126.689 9.35222C126.889 9.14622 127.2 9.05138 127.622 9.05138H128.218V9.6041H127.639C127.414 9.6041 127.288 9.63752 127.165 9.75957C127.06 9.86841 126.987 10.0705 126.987 10.3434C126.987 10.6163 127.043 10.8184 127.157 10.949C127.252 11.0508 127.424 11.0819 127.587 11.0819H127.864L128.727 9.05448H129.651L130.697 11.4947V9.05448H131.635L132.718 10.8495V9.05448H133.349V11.6323H133.352ZM113.003 12.1384H114.056L114.293 11.5654H114.825L115.058 12.1384H117.129V11.7007L117.314 12.1399H118.388L118.573 11.6937V12.1384H123.721V11.1985H123.82C123.89 11.1985 123.911 11.2071 123.911 11.3229V12.1384H126.572V11.9191C126.879 12.0715 127.219 12.1467 127.561 12.1384H128.681L128.921 11.5654H129.453L129.686 12.1384H131.844V11.5942L132.171 12.1384H133.9V8.54063H132.19V8.96509L131.946 8.54063H130.19V8.96509L129.971 8.54063H127.599C127.201 8.54063 126.852 8.59583 126.57 8.75053V8.54063H124.933V8.75053C124.754 8.59117 124.509 8.54063 124.237 8.54063H118.257L117.856 9.4735L117.444 8.54063H115.56V8.96509L115.356 8.54063H113.746L113 10.2509V12.1368L113.003 12.1384Z" fill="white"/>
<path d="M134.918 14.0391H133.795C133.709 14.0291 133.623 14.0454 133.546 14.0857C133.516 14.1057 133.491 14.1335 133.476 14.1662C133.46 14.1989 133.453 14.2353 133.456 14.2715C133.455 14.3138 133.467 14.3554 133.491 14.3901C133.515 14.4247 133.55 14.4505 133.591 14.4635C133.668 14.4865 133.748 14.4963 133.828 14.4923L134.162 14.5016C134.499 14.5102 134.724 14.5677 134.862 14.7092C134.883 14.7279 134.903 14.7493 134.919 14.7729L134.918 14.0391ZM134.919 15.7392C134.769 15.9577 134.478 16.0688 134.083 16.0688H132.893V15.5161H134.078C134.195 15.5161 134.278 15.5006 134.328 15.4524C134.351 15.4308 134.369 15.4046 134.381 15.3756C134.394 15.3466 134.4 15.3153 134.4 15.2837C134.401 15.2512 134.394 15.219 134.381 15.1895C134.367 15.16 134.347 15.134 134.322 15.1134C134.259 15.0677 134.182 15.0472 134.104 15.0559C133.526 15.0365 132.805 15.0738 132.805 14.2583C132.805 13.8844 133.038 13.491 133.689 13.491H134.916V12.978H133.78C133.436 12.978 133.186 13.0604 133.009 13.1886V12.978H131.321C131.051 12.978 130.734 13.0448 130.584 13.1886V12.978H127.573V13.1886C127.333 13.0153 126.929 12.978 126.743 12.978H124.756V13.1886C124.567 13.0044 124.145 12.978 123.888 12.978H121.665L121.156 13.5283L120.68 12.978H117.359V16.5749H120.617L121.141 16.016L121.635 16.5749H123.643V15.7307H123.841C124.107 15.7346 124.421 15.7237 124.696 15.604V16.5749H126.352V15.6374H126.43C126.532 15.6374 126.542 15.6374 126.542 15.7439V16.5749H131.58C131.9 16.5749 132.233 16.4933 132.418 16.3417V16.5749H134.013C134.345 16.5749 134.67 16.5283 134.917 16.4093V15.7392H134.919ZM132.459 14.7092C132.578 14.8328 132.643 14.9898 132.643 15.2534C132.643 15.8084 132.296 16.0673 131.675 16.0673H130.477V15.5146H131.672C131.761 15.5251 131.851 15.5024 131.924 15.4508C131.947 15.4293 131.966 15.4032 131.978 15.3741C131.991 15.3451 131.997 15.3138 131.997 15.2821C131.997 15.2498 131.99 15.2178 131.977 15.1884C131.963 15.159 131.944 15.1329 131.919 15.1119C131.855 15.0668 131.778 15.0464 131.7 15.0543C131.124 15.0349 130.403 15.0722 130.403 14.2568C130.403 13.8828 130.636 13.4895 131.283 13.4895H132.518V14.0383H131.391C131.305 14.0281 131.219 14.0441 131.143 14.0842C131.111 14.1064 131.086 14.1369 131.07 14.1724C131.054 14.2079 131.048 14.2471 131.052 14.2858C131.056 14.3245 131.071 14.3613 131.095 14.3924C131.118 14.4234 131.15 14.4474 131.186 14.462C131.264 14.4855 131.345 14.4955 131.426 14.4915L131.757 14.5001C132.092 14.5102 132.321 14.5677 132.459 14.7092ZM126.9 14.5498C126.805 14.5942 126.699 14.6125 126.595 14.6027H125.851V14.0243H126.61C126.71 14.0153 126.811 14.0311 126.903 14.0702C126.945 14.0929 126.979 14.1269 127.001 14.1682C127.024 14.2095 127.034 14.2564 127.031 14.3034C127.033 14.3522 127.022 14.4006 126.999 14.4439C126.977 14.4871 126.943 14.5237 126.902 14.5498H126.9ZM127.271 14.8709C127.39 14.9132 127.495 14.988 127.574 15.087C127.66 15.2129 127.673 15.3303 127.675 15.5573V16.0688H127.054V15.7462C127.054 15.5907 127.068 15.3614 126.954 15.2417C126.864 15.1492 126.727 15.1274 126.502 15.1274H125.851V16.0688H125.229V13.491H126.651C126.962 13.491 127.19 13.5042 127.392 13.6123C127.495 13.6672 127.579 13.7503 127.635 13.8518C127.691 13.9533 127.717 14.0688 127.709 14.1845C127.714 14.3293 127.675 14.4723 127.597 14.5947C127.519 14.7172 127.407 14.8134 127.274 14.8709H127.271ZM128.049 13.491H130.105V14.0235H128.666V14.49H130.073V15.0163H128.666V15.5293H130.108V16.0642H128.052L128.049 13.491ZM123.896 14.682H123.1V14.0259H123.903C124.125 14.0259 124.28 14.116 124.28 14.3415C124.28 14.5669 124.132 14.682 123.896 14.682ZM122.486 15.8356L121.54 14.7854L122.486 13.7693V15.8356ZM120.043 15.5332H118.529V15.0201H119.881V14.4939H118.529V14.0274H120.073L120.747 14.7792L120.043 15.5332ZM124.941 14.3415C124.941 15.0575 124.407 15.2052 123.868 15.2052H123.1V16.0704H121.902L121.144 15.2153L120.355 16.0704H117.915V13.491H120.393L121.151 14.336L121.934 13.491H123.903C124.392 13.491 124.941 13.6263 124.941 14.3399V14.3415Z" fill="white"/>
<rect x="196.25" y="0.25" width="75.5" height="22.5" rx="11.25" fill="white" stroke="#111111" stroke-width="0.5"/>
<path d="M212.203 12.8184H209.982V11.6523H212.203C212.59 11.6523 212.902 11.5898 213.141 11.4648C213.379 11.3398 213.553 11.168 213.662 10.9492C213.775 10.7266 213.832 10.4727 213.832 10.1875C213.832 9.91797 213.775 9.66602 213.662 9.43164C213.553 9.19336 213.379 9.00195 213.141 8.85742C212.902 8.71289 212.59 8.64062 212.203 8.64062H210.434V16H208.963V7.46875H212.203C212.863 7.46875 213.424 7.58594 213.885 7.82031C214.35 8.05078 214.703 8.37109 214.945 8.78125C215.188 9.1875 215.309 9.65234 215.309 10.1758C215.309 10.7266 215.188 11.1992 214.945 11.5938C214.703 11.9883 214.35 12.291 213.885 12.502C213.424 12.7129 212.863 12.8184 212.203 12.8184ZM219.059 8.60547L216.51 16H214.969L218.18 7.46875H219.164L219.059 8.60547ZM221.191 16L218.637 8.60547L218.525 7.46875H219.516L222.738 16H221.191ZM221.068 12.8359V14.002H216.428V12.8359H221.068ZM223.84 7.46875L225.82 11.541L227.801 7.46875H229.43L226.559 12.8594V16H225.076V12.8594L222.205 7.46875H223.84ZM234.82 7.46875V16H233.35V7.46875H234.82ZM238.301 11.2012V12.3672H234.445V11.2012H238.301ZM238.787 7.46875V8.64062H234.445V7.46875H238.787ZM244.746 7.46875H246.211V13.1699C246.211 13.8184 246.07 14.3613 245.789 14.7988C245.508 15.2363 245.125 15.5664 244.641 15.7891C244.16 16.0078 243.623 16.1172 243.029 16.1172C242.416 16.1172 241.869 16.0078 241.389 15.7891C240.908 15.5664 240.529 15.2363 240.252 14.7988C239.979 14.3613 239.842 13.8184 239.842 13.1699V7.46875H241.307V13.1699C241.307 13.5801 241.377 13.918 241.518 14.1836C241.658 14.4453 241.857 14.6387 242.115 14.7637C242.373 14.8887 242.678 14.9512 243.029 14.9512C243.381 14.9512 243.684 14.8887 243.938 14.7637C244.195 14.6387 244.395 14.4453 244.535 14.1836C244.676 13.918 244.746 13.5801 244.746 13.1699V7.46875ZM253.154 14.834V16H248.871V14.834H253.154ZM249.281 7.46875V16H247.811V7.46875H249.281ZM259.635 14.834V16H255.352V14.834H259.635ZM255.762 7.46875V16H254.291V7.46875H255.762Z" fill="#111111"/>
<defs>
<radialGradient id="paint0_radial_1836_7963" cx="0" cy="0" r="1" gradientUnits="userSpaceOnUse" gradientTransform="translate(92.0105 9.06276) scale(2.50723)">
<stop offset="0.01" stop-color="#FFF3E8"/>
<stop offset="0.1" stop-color="#FEEEDF"/>
<stop offset="0.24" stop-color="#FDE2C7"/>
<stop offset="0.43" stop-color="#FACE9F"/>
<stop offset="0.65" stop-color="#F6B268"/>
<stop offset="0.89" stop-color="#F18E22"/>
<stop offset="1" stop-color="#EF7D00"/>
</radialGradient>
<radialGradient id="paint1_radial_1836_7963" cx="0" cy="0" r="1" gradientUnits="userSpaceOnUse" gradientTransform="translate(116.867 4.84417) scale(20.568 20.5681)">
<stop stop-color="#9DD5F6"/>
<stop offset="0.07" stop-color="#98D3F5"/>
<stop offset="0.16" stop-color="#89CEF3"/>
<stop offset="0.25" stop-color="#70C6EF"/>
<stop offset="0.35" stop-color="#4EBBEA"/>
<stop offset="0.45" stop-color="#23ADE3"/>
<stop offset="0.5" stop-color="#0DA6E0"/>
<stop offset="1" stop-color="#2E77BC"/>
</radialGradient>
</defs>
</svg>
