<svg width="32" height="32" viewBox="0 0 32 32" fill="none" xmlns="http://www.w3.org/2000/svg">
<path d="M15.9533 30.9042C24.2111 30.9042 30.9054 24.2099 30.9054 15.9521C30.9054 7.69428 24.2111 1 15.9533 1C7.69544 1 1.00116 7.69428 1.00116 15.9521C1.00116 24.2099 7.69544 30.9042 15.9533 30.9042Z" fill="white" stroke="#E5E5E5" stroke-width="1.168" stroke-miterlimit="10"/>
<path d="M15.9532 1V15.9521L8.40401 3.04353C8.40401 3.04353 1.25635 6.5301 1.00115 15.9521C1.00115 15.9521 0.732805 24.2988 8.40401 28.8607C8.40401 28.8607 15.4353 33.3831 23.3261 28.962C23.3261 28.962 30.4043 25.695 30.9053 15.9521C30.9053 15.9521 31.4064 7.97877 23.3261 2.94219C23.3261 2.94219 20.6839 1.09195 15.9532 1Z" fill="#E72E80"/>
</svg>
