<svg width="32" height="32" viewBox="0 0 32 32" fill="none" xmlns="http://www.w3.org/2000/svg">
<path d="M16.0201 30.9042C24.2779 30.9042 30.9722 24.2099 30.9722 15.9521C30.9722 7.69429 24.2779 1 16.0201 1C7.76227 1 1.06799 7.69429 1.06799 15.9521C1.06799 24.2099 7.76227 30.9042 16.0201 30.9042Z" fill="white" stroke="#E5E5E5" stroke-width="1.168" stroke-miterlimit="10"/>
<path d="M16.0201 1V15.9521L3.06834 8.45541C3.06834 8.45541 -1.58542 15.9821 3.06834 23.4263C3.06834 23.4263 6.75194 30.7447 16.0201 30.9042C16.0201 30.9042 24.3912 31.484 28.9605 23.4488C28.9605 23.4488 33.4623 16.7046 28.9605 8.45729C28.9605 8.45729 25.7892 1.02627 16.0201 1Z" fill="#E72E80"/>
</svg>
