<svg width="32" height="32" viewBox="0 0 32 32" fill="none" xmlns="http://www.w3.org/2000/svg">
<path d="M15.9542 30.9042C24.212 30.9042 30.9063 24.2099 30.9063 15.9521C30.9063 7.69428 24.212 1 15.9542 1C7.69636 1 1.00208 7.69428 1.00208 15.9521C1.00208 24.2099 7.69636 30.9042 15.9542 30.9042Z" fill="white" stroke="#E5E5E5" stroke-width="1.168" stroke-miterlimit="10"/>
<path d="M15.9542 1V15.9521H1.00208C1.00208 15.9521 0.66993 24.5334 8.40494 28.8607C8.40494 28.8607 15.4043 33.4262 23.327 28.962C23.327 28.962 31.0752 24.6835 30.9063 15.9521C30.9063 15.9521 31.1521 7.32011 23.327 2.9422C23.327 2.9422 20.6849 1.23269 15.9542 1Z" fill="#E72E80"/>
</svg>
