<svg width="164" height="35" viewBox="0 0 164 35" fill="none" xmlns="http://www.w3.org/2000/svg">
<circle cx="17.5" cy="17.5" r="17.5" fill="#111111"/>
<path d="M13.7979 24.946V24.9891C13.7979 24.9891 13.8194 24.9891 13.8194 25.0106V24.9676C13.8194 24.946 13.7979 24.946 13.7979 24.946Z" fill="#E72E80"/>
<path d="M17.5218 11.4712C14.2004 11.4712 11.4924 14.1791 11.4924 17.5006C11.4924 17.6275 11.4924 17.9025 11.4924 17.9025V26.6398C11.5136 26.661 11.5559 26.6821 11.5771 26.7033C12.1059 27.0418 12.6772 27.338 13.2695 27.5918C13.4599 27.6765 13.6503 27.7399 13.8407 27.8034H13.8619V27.7611L13.8407 24.9685C13.8407 24.9685 13.8196 24.9685 13.8196 24.9474V24.9051C13.8196 24.9051 13.8407 24.9051 13.8407 24.9262L13.8196 22.2183C14.835 23.0222 16.1255 23.4876 17.5218 23.4876C20.8433 23.4876 23.5512 20.7797 23.5512 17.4583C23.5512 14.1368 20.8433 11.4712 17.5218 11.4712ZM17.5218 21.224C15.4697 21.224 13.7984 19.5527 13.7984 17.5006C13.7984 15.4485 15.4697 13.7772 17.5218 13.7772C19.5739 13.7772 21.2452 15.4485 21.2452 17.5006C21.2241 19.5527 19.5739 21.224 17.5218 21.224Z" fill="#E72E80"/>
<path d="M24.629 25.8142H28.4582V28.4375H17.5207C17.2456 28.4375 16.9918 28.4375 16.7168 28.4163C16.5898 28.4163 16.4629 28.3952 16.3571 28.374H16.3359C15.4897 28.2894 14.6646 28.099 13.8607 27.8028V27.7605L13.8396 24.968V24.9256C14.9608 25.4757 16.209 25.793 17.5207 25.793C22.1115 25.793 25.8349 22.0696 25.8349 17.4788C25.8349 12.8881 22.0903 9.18581 17.5207 9.18581C12.951 9.18581 9.18532 12.9092 9.18532 17.5C9.18532 19.7213 10.0527 21.7311 11.4701 23.2332V26.6393C10.8566 26.2373 10.2854 25.7719 9.75653 25.243C8.74105 24.2487 7.95829 23.0639 7.40824 21.7734C6.85819 20.4195 6.56201 18.9809 6.56201 17.5C6.56201 16.0191 6.85819 14.5805 7.4294 13.2477C7.97945 11.936 8.76221 10.7725 9.77768 9.77817C10.772 8.76269 11.9567 7.97993 13.2472 7.42988C14.6012 6.85868 16.0398 6.5625 17.4995 6.5625C18.9804 6.5625 20.419 6.85868 21.7518 7.42988C23.0635 7.97993 24.227 8.76269 25.2213 9.77817C26.2368 10.7725 27.0196 11.9572 27.5696 13.2477C28.1408 14.6017 28.437 16.0403 28.437 17.5C28.437 18.9597 28.1408 20.4195 27.5696 21.7523C27.0196 23.0639 26.2368 24.2275 25.2213 25.2218C25.0521 25.4334 24.8405 25.6238 24.629 25.8142Z" fill="#FCEBF3"/>
<path d="M44.8031 12.1411V23.625H43.0838V13.9293H41.1255V12.1411H44.8031Z" fill="#010101"/>
<path d="M47.0083 18.2654H51.4214V19.7966H47.0083V18.2654Z" fill="#010101"/>
<path d="M55.0843 23.0896C54.4138 22.7466 53.8552 22.2247 53.4724 21.5837C53.0928 20.92 52.8933 20.1712 52.8933 19.4096C52.8933 18.648 53.0928 17.8993 53.4724 17.2355C53.8562 16.6013 54.4115 16.0845 55.0764 15.7425C55.7985 15.3742 56.6027 15.189 57.416 15.2037C58.1689 15.1872 58.9141 15.3566 59.5833 15.6963C60.1898 16.0096 60.68 16.5034 60.9839 17.1072L59.4816 17.9692C59.2642 17.6108 58.9536 17.3159 58.5818 17.1149C58.0994 16.8711 57.5521 16.7802 57.0151 16.8546C56.478 16.929 55.9776 17.1651 55.5824 17.5305C55.1025 17.9974 54.8626 18.6208 54.8626 19.4006C54.8626 20.1805 55.0999 20.8039 55.5746 21.2708C55.9706 21.6347 56.4709 21.8698 57.0076 21.9442C57.5443 22.0185 58.0912 21.9285 58.574 21.6864C58.9458 21.4853 59.2564 21.1905 59.4738 20.8321L60.9839 21.7043C60.6695 22.3078 60.1754 22.8027 59.5677 23.123C58.9052 23.4664 58.1647 23.6386 57.416 23.6232C56.6058 23.6377 55.8047 23.4544 55.0843 23.0896Z" fill="#010101"/>
<path d="M62.4546 11.3745H64.6611V23.624H62.4546V11.3745Z" fill="#010101"/>
<path d="M67.1842 13.414C67.084 13.3046 67.0043 13.173 66.9498 13.0271C66.8953 12.8811 66.8672 12.7239 66.8672 12.5651C66.8672 12.4063 66.8953 12.2491 66.9498 12.1032C67.0043 11.9572 67.084 11.8256 67.1842 11.7162C67.397 11.4881 67.6794 11.3655 67.9702 11.3751C68.2586 11.365 68.5395 11.4812 68.7562 11.7004C68.8582 11.8012 68.9395 11.9268 68.9944 12.0681C69.0492 12.2093 69.0762 12.3628 69.0734 12.5175C69.077 12.6809 69.0513 12.8435 68.9979 12.995C68.9446 13.1465 68.8646 13.2837 68.7631 13.3981C68.6591 13.5167 68.5351 13.6095 68.3987 13.6709C68.2624 13.7323 68.1165 13.761 67.9702 13.7551C67.6794 13.7647 67.397 13.6421 67.1842 13.414ZM67.1014 15.1487H68.8252V23.624H67.1014V15.1487Z" fill="#010101"/>
<path d="M72.7351 23.0896C72.0647 22.7466 71.506 22.2247 71.1233 21.5837C70.7436 20.92 70.5442 20.1712 70.5442 19.4096C70.5442 18.648 70.7436 17.8993 71.1233 17.2355C71.5071 16.6013 72.0624 16.0845 72.7273 15.7425C73.4494 15.3742 74.2536 15.189 75.0668 15.2037C75.8198 15.1872 76.565 15.3566 77.2342 15.6963C77.8407 16.0096 78.3309 16.5034 78.6348 17.1072L77.1364 17.9794C76.919 17.6211 76.6084 17.3262 76.2366 17.1252C75.7542 16.8814 75.2069 16.7904 74.6699 16.8648C74.1328 16.9393 73.6323 17.1754 73.2372 17.5408C72.7573 18.0077 72.5174 18.631 72.5174 19.4109C72.5174 20.1908 72.753 20.8141 73.2242 21.281C73.6202 21.6449 74.1205 21.8801 74.6572 21.9544C75.1938 22.0288 75.7407 21.9388 76.2236 21.6966C76.5954 21.4956 76.906 21.2007 77.1234 20.8424L78.6257 21.7043C78.3136 22.3065 77.8229 22.8012 77.2186 23.123C76.556 23.4664 75.8156 23.6386 75.0668 23.6232C74.2567 23.6377 73.4555 23.4544 72.7351 23.0896Z" fill="#010101"/>
<path d="M83.2854 19.8418L81.9301 21.2952V23.624H80.1084V11.3745H81.9301V18.7737L85.707 14.8016H87.893L84.6431 18.504L88.199 23.624H85.9839L83.2854 19.8418Z" fill="#010101"/>
<path d="M95.3732 23.0908C94.7491 22.742 94.2336 22.221 93.8856 21.5873C93.5208 20.9217 93.3346 20.1695 93.346 19.4068C93.334 18.6466 93.5202 17.8967 93.8856 17.2342C94.2354 16.6039 94.7506 16.0859 95.3732 15.7386C96.0331 15.3745 96.7737 15.1902 97.5237 15.2033C98.1713 15.1917 98.8126 15.3345 99.3967 15.6205C99.9374 15.8903 100.39 16.3141 100.701 16.8406L99.8797 17.4074C99.627 17.0134 99.2751 16.6962 98.861 16.489C98.443 16.2827 97.984 16.1777 97.5198 16.182C96.9679 16.1733 96.4233 16.3117 95.9397 16.5835C95.4748 16.8483 95.0947 17.2446 94.8452 17.7249C94.5867 18.2486 94.452 18.8269 94.452 19.4134C94.452 19.9999 94.5867 20.5782 94.8452 21.1019C95.0965 21.5788 95.4763 21.9721 95.9397 22.2354C96.4233 22.5072 96.9679 22.6456 97.5198 22.6369C97.9832 22.6414 98.4416 22.5391 98.861 22.3378C99.2768 22.1331 99.6293 21.8153 99.8797 21.4194L100.697 21.9861C100.385 22.5142 99.9299 22.9382 99.3864 23.2063C98.8041 23.4906 98.1652 23.6334 97.5198 23.6235C96.7714 23.6367 96.0322 23.4533 95.3732 23.0908Z" fill="#E71583"/>
<path d="M108.64 15.8201C109.231 16.4532 109.526 17.3754 109.526 18.5866V23.624H108.447V18.7022C108.447 17.7993 108.239 17.1111 107.824 16.6377C107.408 16.1642 106.817 15.9275 106.05 15.9275C105.189 15.9275 104.507 16.2055 104.006 16.7615C103.504 17.3176 103.252 18.0865 103.251 19.0683V23.624H102.171V11.3745H103.251V16.467C103.546 15.9591 103.968 15.5526 104.467 15.2944C105.021 15.0106 105.628 14.8693 106.24 14.8814C107.247 14.8741 108.047 15.187 108.64 15.8201Z" fill="#E71583"/>
<path d="M119.81 19.7516H112.856C112.874 20.1479 112.971 20.5367 113.142 20.8949C113.313 21.2532 113.554 21.5735 113.852 21.8369C114.453 22.3668 115.211 22.6317 116.128 22.6317C116.616 22.6372 117.1 22.5435 117.55 22.3563C117.981 22.1737 118.364 21.8966 118.672 21.5457L119.305 22.2697C118.933 22.7127 118.458 23.0585 117.922 23.277C117.343 23.5128 116.722 23.6306 116.096 23.6232C115.306 23.6389 114.525 23.4519 113.828 23.0803C113.184 22.7321 112.65 22.2115 112.287 21.5772C111.913 20.9149 111.722 20.1653 111.734 19.4053C111.721 18.6484 111.902 17.9008 112.261 17.2334C112.596 16.6112 113.097 16.0937 113.71 15.7382C114.342 15.3774 115.06 15.1925 115.788 15.2031C116.514 15.1919 117.23 15.3768 117.859 15.7382C118.467 16.092 118.965 16.6069 119.297 17.2255C119.656 17.8956 119.837 18.6459 119.824 19.4053L119.81 19.7516ZM113.781 16.9265C113.232 17.4504 112.903 18.1617 112.859 18.9174H118.754C118.71 18.1617 118.381 17.4504 117.832 16.9265C117.274 16.4347 116.554 16.1632 115.809 16.1632C115.064 16.1632 114.344 16.4347 113.786 16.9265H113.781Z" fill="#E71583"/>
<path d="M123.323 23.0883C122.699 22.74 122.183 22.219 121.836 21.5853C121.47 20.9202 121.284 20.1681 121.295 19.4055C121.283 18.6453 121.47 17.8955 121.836 17.2336C122.185 16.6032 122.7 16.0852 123.323 15.7384C123.982 15.3745 124.722 15.1902 125.472 15.2033C126.119 15.1917 126.76 15.3345 127.343 15.6204C127.886 15.8896 128.34 16.3144 128.65 16.8427L127.834 17.4093C127.582 17.0152 127.231 16.698 126.817 16.4912C126.399 16.285 125.941 16.18 125.477 16.1843C124.925 16.1756 124.381 16.314 123.898 16.5857C123.433 16.85 123.053 17.2463 122.804 17.7267C122.546 18.2502 122.411 18.8284 122.411 19.4147C122.411 20.001 122.546 20.5791 122.804 21.1026C123.055 21.5796 123.434 21.9729 123.898 22.2358C124.381 22.5075 124.925 22.6458 125.477 22.6371C125.94 22.6416 126.398 22.5394 126.817 22.3381C127.232 22.1338 127.584 21.8161 127.834 21.42L128.65 21.9866C128.339 22.5148 127.884 22.9387 127.341 23.2063C126.759 23.4905 126.121 23.6333 125.477 23.6234C124.725 23.6374 123.984 23.4531 123.323 23.0883Z" fill="#E71583"/>
<path d="M133.023 19.2637L131.178 21.1466V23.624H130.122V11.3745H131.178V19.6821L135.85 14.9393H137.159L133.812 18.4902L137.477 23.624H136.182L133.023 19.2637Z" fill="#E71583"/>
<path d="M140.195 23.0786C139.587 22.7255 139.085 22.2057 138.742 21.5758C138.395 20.909 138.213 20.1626 138.213 19.4042C138.213 18.6458 138.395 17.8994 138.742 17.2326C139.084 16.6038 139.587 16.0862 140.195 15.7377C140.833 15.3863 141.544 15.2026 142.266 15.2026C142.988 15.2026 143.699 15.3863 144.337 15.7377C144.944 16.086 145.445 16.605 145.782 17.2353C146.124 17.9036 146.303 18.6494 146.303 19.4068C146.303 20.1643 146.124 20.9101 145.782 21.5784C145.443 22.2087 144.944 22.7289 144.338 23.0812C143.701 23.4376 142.99 23.6241 142.267 23.6241C141.544 23.6241 140.832 23.4376 140.196 23.0812L140.195 23.0786ZM143.785 22.2288C144.233 21.9616 144.598 21.5655 144.836 21.088C145.084 20.5643 145.213 19.9882 145.213 19.4042C145.213 18.8202 145.084 18.2441 144.836 17.7204C144.598 17.2429 144.233 16.8468 143.785 16.5796C143.319 16.3163 142.796 16.1784 142.266 16.1784C141.735 16.1784 141.213 16.3163 140.746 16.5796C140.297 16.848 139.93 17.2436 139.688 17.7204C139.435 18.2425 139.303 18.8193 139.303 19.4042C139.303 19.9891 139.435 20.5659 139.688 21.088C139.93 21.5648 140.297 21.9605 140.746 22.2288C141.213 22.4921 141.735 22.63 142.266 22.63C142.796 22.63 143.319 22.4921 143.785 22.2288Z" fill="#E71583"/>
<path d="M155.865 15.2026V23.5442H154.82V22.0213C154.54 22.5217 154.131 22.9311 153.638 23.2031C153.108 23.4905 152.516 23.6351 151.918 23.6235C150.864 23.6235 150.032 23.3194 149.423 22.7113C148.814 22.1032 148.51 21.2123 148.51 20.0384V15.2026H149.6V19.93C149.6 20.8113 149.81 21.4775 150.229 21.9288C150.649 22.38 151.246 22.6074 152.021 22.6109C152.873 22.6109 153.544 22.3438 154.032 21.8098C154.52 21.2757 154.766 20.5328 154.77 19.581V15.2026H155.865Z" fill="#E71583"/>
<path d="M163.22 23.0551C162.985 23.2489 162.708 23.3934 162.409 23.4789C162.083 23.577 161.743 23.6264 161.401 23.6253C160.592 23.6253 159.969 23.4198 159.532 23.0089C159.095 22.5979 158.877 22.0175 158.877 21.2675V16.3669H157.336V15.4448H158.877V13.6726H160.04V15.4448H162.663V16.3695H160.04V21.2084C160.04 21.6913 160.169 22.0586 160.425 22.3103C160.682 22.562 161.051 22.6878 161.532 22.6878C161.769 22.6884 162.004 22.6519 162.228 22.5799C162.442 22.5137 162.639 22.409 162.81 22.2717L163.22 23.0551Z" fill="#E71583"/>
</svg>
