<svg width="22" height="16" viewBox="0 0 22 16" fill="none" xmlns="http://www.w3.org/2000/svg">
<path d="M21.0968 14.051C21.0968 14.258 21.0437 14.4621 20.943 14.6431C20.3698 15.67 19.4447 16.0113 18.2031 15.9997C13.0426 15.9516 7.88156 15.9815 2.72051 15.9798C0.812224 15.9792 0.00276643 15.1809 0.00165986 13.2958C-0.000553286 9.80733 -0.000553286 6.31831 0.00165986 2.82984C0.00276643 0.943135 0.808905 0.148615 2.72162 0.148062C7.90978 0.146955 13.0985 0.175173 18.2867 0.128697C19.1802 0.120951 19.8917 0.319028 20.4268 0.815879C20.8633 1.22144 21.0968 1.79962 21.0968 2.39496V14.051ZM10.6131 1.0134C7.97784 1.0134 5.34253 1.01064 2.70723 1.01451C1.30465 1.01672 0.869766 1.44331 0.867553 2.82652C0.863127 6.31499 0.863127 9.80401 0.867553 13.2925C0.869213 14.6779 1.30576 15.1117 2.70059 15.1128C7.94353 15.1161 13.187 15.1167 18.43 15.1122C19.7739 15.1111 20.227 14.6668 20.2293 13.3401C20.2353 9.82393 20.2353 6.3078 20.2293 2.79166C20.227 1.45935 19.7789 1.01727 18.4366 1.01451C15.829 1.00953 13.2213 1.0134 10.6131 1.0134Z" fill="#6B7280"/>
<path d="M6.56643 9.84054C6.01757 9.83998 5.46816 9.82283 4.9204 9.84386C4.03404 9.87761 3.57647 10.3341 3.50897 11.2271C3.49237 11.4456 3.55102 11.6824 3.48629 11.8816C3.47909 11.9037 3.47024 11.9253 3.46083 11.9469C3.31919 12.2584 2.88099 12.2966 2.70339 12.0039C2.68015 11.9657 2.6641 11.9264 2.65802 11.886C2.39742 10.1033 3.38725 8.95694 5.17879 8.9337C6.13929 8.92098 7.0998 8.91766 8.05975 8.93481C9.82031 8.96579 10.855 10.2168 10.5285 11.9392C10.5224 11.9701 10.5108 12 10.4948 12.0288C10.3266 12.3287 9.88891 12.2933 9.7351 11.9856C9.72293 11.9613 9.71242 11.9364 9.70467 11.9109C9.63385 11.6846 9.69692 11.4202 9.67369 11.1751C9.59291 10.3247 9.14364 9.88259 8.2949 9.84773C7.72003 9.82173 7.14295 9.84109 6.56643 9.84054Z" fill="#6B7280"/>
<path d="M8.76462 5.90335C8.74691 7.12612 7.74823 8.0916 6.53487 8.0584C5.32096 8.02521 4.38812 7.02265 4.42243 5.78772C4.45507 4.60811 5.43771 3.65591 6.61067 3.66752C7.82237 3.67914 8.78232 4.67506 8.76462 5.90335ZM6.5725 4.57159C5.8405 4.58155 5.26951 5.16306 5.28168 5.8862C5.29385 6.59275 5.91187 7.19417 6.61344 7.18145C7.31722 7.16872 7.91809 6.54793 7.90702 5.84526C7.8954 5.12599 7.30394 4.56164 6.5725 4.57159Z" fill="#6B7280"/>
<path d="M15.3431 12.4725C14.5492 12.4725 13.753 12.5007 12.9618 12.4537C12.8915 12.4493 12.8224 12.4194 12.7543 12.3762C12.5225 12.2296 12.5037 11.8938 12.7134 11.7173C12.7975 11.6465 12.8816 11.5956 12.9673 11.5933C14.5818 11.5541 16.1985 11.5568 17.813 11.59C17.8794 11.5911 17.9447 11.6171 18.01 11.6559C18.2584 11.8041 18.2767 12.1577 18.0493 12.3364C17.9696 12.3989 17.8888 12.4443 17.8053 12.4498C16.9881 12.5068 16.1642 12.4731 15.3431 12.4725Z" fill="#6B7280"/>
<path d="M15.3907 5.42477C14.5973 5.42477 13.8023 5.45686 13.0127 5.40485C12.9635 5.40153 12.9148 5.38715 12.8667 5.36557C12.5458 5.22005 12.5452 4.75419 12.8683 4.61365C12.9142 4.59373 12.9607 4.58101 13.0072 4.58045C14.5929 4.54449 16.1797 4.54449 17.7655 4.58045C17.8125 4.58156 17.8595 4.59373 17.906 4.6131C18.233 4.75031 18.2363 5.22282 17.9126 5.36667C17.865 5.3877 17.8175 5.40153 17.7688 5.40485C16.9792 5.45686 16.1842 5.42477 15.3907 5.42477Z" fill="#6B7280"/>
<path d="M15.3365 8.92762C14.5431 8.92707 13.7486 8.95418 12.958 8.90881C12.9225 8.90659 12.8871 8.89829 12.8523 8.88502C12.5363 8.76385 12.5115 8.3273 12.7986 8.14859C12.8584 8.11152 12.9187 8.08718 12.9795 8.08552C14.5924 8.04789 16.2069 8.05066 17.8202 8.0833C17.8512 8.08386 17.8828 8.08994 17.9137 8.10046C18.254 8.21443 18.2717 8.68583 17.9558 8.8568C17.9038 8.88502 17.8507 8.90383 17.797 8.90715C16.9798 8.95971 16.1571 8.92817 15.3365 8.92762Z" fill="#6B7280"/>
</svg>
