<svg width="227" height="25" viewBox="0 0 227 25" fill="none" xmlns="http://www.w3.org/2000/svg">
<path d="M9.83594 14.2969C9.72135 15.5104 9.27344 16.4583 8.49219 17.1406C7.71094 17.8177 6.67188 18.1562 5.375 18.1562C4.46875 18.1562 3.66927 17.9427 2.97656 17.5156C2.28906 17.0833 1.75781 16.4714 1.38281 15.6797C1.00781 14.888 0.8125 13.9688 0.796875 12.9219V11.8594C0.796875 10.7865 0.986979 9.84115 1.36719 9.02344C1.7474 8.20573 2.29167 7.57552 3 7.13281C3.71354 6.6901 4.53646 6.46875 5.46875 6.46875C6.72396 6.46875 7.73438 6.8099 8.5 7.49219C9.26562 8.17448 9.71094 9.13802 9.83594 10.3828H7.86719C7.77344 9.5651 7.53385 8.97656 7.14844 8.61719C6.76823 8.2526 6.20833 8.07031 5.46875 8.07031C4.60938 8.07031 3.94792 8.38542 3.48438 9.01562C3.02604 9.64062 2.79167 10.5599 2.78125 11.7734V12.7812C2.78125 14.0104 3 14.9479 3.4375 15.5938C3.88021 16.2396 4.52604 16.5625 5.375 16.5625C6.15104 16.5625 6.73438 16.388 7.125 16.0391C7.51562 15.6901 7.76302 15.1094 7.86719 14.2969H9.83594ZM16.4766 18C16.3932 17.8385 16.3203 17.5755 16.2578 17.2109C15.6536 17.8411 14.9141 18.1562 14.0391 18.1562C13.1901 18.1562 12.4974 17.9141 11.9609 17.4297C11.4245 16.9453 11.1562 16.3464 11.1562 15.6328C11.1562 14.7318 11.4896 14.0417 12.1562 13.5625C12.8281 13.0781 13.7865 12.8359 15.0312 12.8359H16.1953V12.2812C16.1953 11.8438 16.0729 11.4948 15.8281 11.2344C15.5833 10.9688 15.2109 10.8359 14.7109 10.8359C14.2786 10.8359 13.9245 10.9453 13.6484 11.1641C13.3724 11.3776 13.2344 11.651 13.2344 11.9844H11.3359C11.3359 11.5208 11.4896 11.0885 11.7969 10.6875C12.1042 10.2812 12.5208 9.96354 13.0469 9.73438C13.5781 9.50521 14.1693 9.39062 14.8203 9.39062C15.8099 9.39062 16.599 9.64062 17.1875 10.1406C17.776 10.6354 18.0781 11.3333 18.0938 12.2344V16.0469C18.0938 16.8073 18.2005 17.4141 18.4141 17.8672V18H16.4766ZM14.3906 16.6328C14.7656 16.6328 15.1172 16.5417 15.4453 16.3594C15.7786 16.1771 16.0286 15.9323 16.1953 15.625V14.0312H15.1719C14.4688 14.0312 13.9401 14.1536 13.5859 14.3984C13.2318 14.6432 13.0547 14.9896 13.0547 15.4375C13.0547 15.8021 13.1745 16.0938 13.4141 16.3125C13.6589 16.526 13.9844 16.6328 14.3906 16.6328ZM24.8203 15.7031C24.8203 15.3646 24.6797 15.1068 24.3984 14.9297C24.1224 14.7526 23.6615 14.5964 23.0156 14.4609C22.3698 14.3255 21.8307 14.1536 21.3984 13.9453C20.4505 13.487 19.9766 12.8229 19.9766 11.9531C19.9766 11.224 20.2839 10.6146 20.8984 10.125C21.513 9.63542 22.2943 9.39062 23.2422 9.39062C24.2526 9.39062 25.0677 9.64062 25.6875 10.1406C26.3125 10.6406 26.625 11.2891 26.625 12.0859H24.7266C24.7266 11.7214 24.5911 11.4193 24.3203 11.1797C24.0495 10.9349 23.6901 10.8125 23.2422 10.8125C22.8255 10.8125 22.4844 10.9089 22.2188 11.1016C21.9583 11.2943 21.8281 11.5521 21.8281 11.875C21.8281 12.1667 21.9505 12.3932 22.1953 12.5547C22.4401 12.7161 22.9349 12.8802 23.6797 13.0469C24.4245 13.2083 25.0078 13.4036 25.4297 13.6328C25.8568 13.8568 26.1719 14.1276 26.375 14.4453C26.5833 14.763 26.6875 15.1484 26.6875 15.6016C26.6875 16.362 26.3724 16.9792 25.7422 17.4531C25.112 17.9219 24.2865 18.1562 23.2656 18.1562C22.5729 18.1562 21.9557 18.0312 21.4141 17.7812C20.8724 17.5312 20.4505 17.1875 20.1484 16.75C19.8464 16.3125 19.6953 15.8411 19.6953 15.3359H21.5391C21.5651 15.7839 21.7344 16.1302 22.0469 16.375C22.3594 16.6146 22.7734 16.7344 23.2891 16.7344C23.7891 16.7344 24.1693 16.6406 24.4297 16.4531C24.6901 16.2604 24.8203 16.0104 24.8203 15.7031ZM30.2188 10.4688C30.8385 9.75 31.6224 9.39062 32.5703 9.39062C34.3724 9.39062 35.2865 10.4193 35.3125 12.4766V18H33.4141V12.5469C33.4141 11.9635 33.2865 11.5521 33.0312 11.3125C32.7812 11.0677 32.4115 10.9453 31.9219 10.9453C31.1615 10.9453 30.5938 11.2839 30.2188 11.9609V18H28.3203V6H30.2188V10.4688ZM40.8672 13.6953C40.8672 12.8672 41.0312 12.1224 41.3594 11.4609C41.6875 10.7943 42.1484 10.2839 42.7422 9.92969C43.3359 9.57031 44.0182 9.39062 44.7891 9.39062C45.9297 9.39062 46.8542 9.75781 47.5625 10.4922C48.276 11.2266 48.6615 12.2005 48.7188 13.4141L48.7266 13.8594C48.7266 14.6927 48.5651 15.4375 48.2422 16.0938C47.9245 16.75 47.4661 17.2578 46.8672 17.6172C46.2734 17.9766 45.5859 18.1562 44.8047 18.1562C43.612 18.1562 42.6562 17.7604 41.9375 16.9688C41.224 16.1719 40.8672 15.112 40.8672 13.7891V13.6953ZM42.7656 13.8594C42.7656 14.7292 42.9453 15.4115 43.3047 15.9062C43.6641 16.3958 44.1641 16.6406 44.8047 16.6406C45.4453 16.6406 45.9427 16.3906 46.2969 15.8906C46.6562 15.3906 46.8359 14.6589 46.8359 13.6953C46.8359 12.8411 46.651 12.1641 46.2812 11.6641C45.9167 11.1641 45.4193 10.9141 44.7891 10.9141C44.1693 10.9141 43.6771 11.1615 43.3125 11.6562C42.9479 12.1458 42.7656 12.8802 42.7656 13.8594ZM52.0938 9.54688L52.1484 10.5234C52.7734 9.76823 53.5938 9.39062 54.6094 9.39062C56.3698 9.39062 57.2656 10.3984 57.2969 12.4141V18H55.3984V12.5234C55.3984 11.987 55.2812 11.5911 55.0469 11.3359C54.8177 11.0755 54.4401 10.9453 53.9141 10.9453C53.1484 10.9453 52.5781 11.2917 52.2031 11.9844V18H50.3047V9.54688H52.0938ZM63.4062 18V6.625H66.7656C67.7708 6.625 68.6615 6.84896 69.4375 7.29688C70.2188 7.74479 70.8229 8.38021 71.25 9.20312C71.6771 10.026 71.8906 10.9688 71.8906 12.0312V12.6016C71.8906 13.6797 71.6745 14.6276 71.2422 15.4453C70.8151 16.263 70.2031 16.8932 69.4062 17.3359C68.6146 17.7786 67.7057 18 66.6797 18H63.4062ZM65.3828 8.21875V16.4219H66.6719C67.7083 16.4219 68.5026 16.099 69.0547 15.4531C69.612 14.8021 69.8958 13.8698 69.9062 12.6562V12.0234C69.9062 10.7891 69.638 9.84635 69.1016 9.19531C68.5651 8.54427 67.7865 8.21875 66.7656 8.21875H65.3828ZM77.3984 18.1562C76.1953 18.1562 75.2188 17.7786 74.4688 17.0234C73.724 16.263 73.3516 15.2526 73.3516 13.9922V13.7578C73.3516 12.9141 73.513 12.1615 73.8359 11.5C74.1641 10.8333 74.6224 10.3151 75.2109 9.94531C75.7995 9.57552 76.4557 9.39062 77.1797 9.39062C78.3307 9.39062 79.2188 9.75781 79.8438 10.4922C80.474 11.2266 80.7891 12.2656 80.7891 13.6094V14.375H75.2656C75.3229 15.0729 75.5547 15.625 75.9609 16.0312C76.3724 16.4375 76.888 16.6406 77.5078 16.6406C78.3776 16.6406 79.0859 16.2891 79.6328 15.5859L80.6562 16.5625C80.3177 17.0677 79.8646 17.4609 79.2969 17.7422C78.7344 18.0182 78.1016 18.1562 77.3984 18.1562ZM77.1719 10.9141C76.651 10.9141 76.2292 11.0964 75.9062 11.4609C75.5885 11.8255 75.3854 12.3333 75.2969 12.9844H78.9141V12.8438C78.8724 12.2083 78.7031 11.7292 78.4062 11.4062C78.1094 11.0781 77.6979 10.9141 77.1719 10.9141ZM84.2891 18H82.3906V6H84.2891V18ZM88.3828 18H86.4844V9.54688H88.3828V18ZM86.3672 7.35156C86.3672 7.0599 86.4583 6.81771 86.6406 6.625C86.8281 6.43229 87.0938 6.33594 87.4375 6.33594C87.7812 6.33594 88.0469 6.43229 88.2344 6.625C88.4219 6.81771 88.5156 7.0599 88.5156 7.35156C88.5156 7.63802 88.4219 7.8776 88.2344 8.07031C88.0469 8.25781 87.7812 8.35156 87.4375 8.35156C87.0938 8.35156 86.8281 8.25781 86.6406 8.07031C86.4583 7.8776 86.3672 7.63802 86.3672 7.35156ZM93.4375 15.5938L95.2266 9.54688H97.1875L94.2578 18H92.6094L89.6562 9.54688H91.625L93.4375 15.5938ZM101.992 18.1562C100.789 18.1562 99.8125 17.7786 99.0625 17.0234C98.3177 16.263 97.9453 15.2526 97.9453 13.9922V13.7578C97.9453 12.9141 98.1068 12.1615 98.4297 11.5C98.7578 10.8333 99.2161 10.3151 99.8047 9.94531C100.393 9.57552 101.049 9.39062 101.773 9.39062C102.924 9.39062 103.812 9.75781 104.438 10.4922C105.068 11.2266 105.383 12.2656 105.383 13.6094V14.375H99.8594C99.9167 15.0729 100.148 15.625 100.555 16.0312C100.966 16.4375 101.482 16.6406 102.102 16.6406C102.971 16.6406 103.68 16.2891 104.227 15.5859L105.25 16.5625C104.911 17.0677 104.458 17.4609 103.891 17.7422C103.328 18.0182 102.695 18.1562 101.992 18.1562ZM101.766 10.9141C101.245 10.9141 100.823 11.0964 100.5 11.4609C100.182 11.8255 99.9792 12.3333 99.8906 12.9844H103.508V12.8438C103.466 12.2083 103.297 11.7292 103 11.4062C102.703 11.0781 102.292 10.9141 101.766 10.9141ZM111.289 11.2812C111.039 11.2396 110.781 11.2188 110.516 11.2188C109.646 11.2188 109.06 11.5521 108.758 12.2188V18H106.859V9.54688H108.672L108.719 10.4922C109.177 9.75781 109.812 9.39062 110.625 9.39062C110.896 9.39062 111.12 9.42708 111.297 9.5L111.289 11.2812ZM115.586 15.2812L117.305 9.54688H119.328L115.969 19.2812C115.453 20.7031 114.578 21.4141 113.344 21.4141C113.068 21.4141 112.763 21.3672 112.43 21.2734V19.8047L112.789 19.8281C113.268 19.8281 113.628 19.7396 113.867 19.5625C114.112 19.3906 114.305 19.099 114.445 18.6875L114.719 17.9609L111.75 9.54688H113.797L115.586 15.2812Z" fill="#08162C"/>
<rect x="147.25" y="0.25" width="79.5" height="24.5" rx="12.25" fill="white" stroke="#111111" stroke-width="0.5"/>
<path d="M165.203 13.8184H162.982V12.6523H165.203C165.59 12.6523 165.902 12.5898 166.141 12.4648C166.379 12.3398 166.553 12.168 166.662 11.9492C166.775 11.7266 166.832 11.4727 166.832 11.1875C166.832 10.918 166.775 10.666 166.662 10.4316C166.553 10.1934 166.379 10.002 166.141 9.85742C165.902 9.71289 165.59 9.64062 165.203 9.64062H163.434V17H161.963V8.46875H165.203C165.863 8.46875 166.424 8.58594 166.885 8.82031C167.35 9.05078 167.703 9.37109 167.945 9.78125C168.188 10.1875 168.309 10.6523 168.309 11.1758C168.309 11.7266 168.188 12.1992 167.945 12.5938C167.703 12.9883 167.35 13.291 166.885 13.502C166.424 13.7129 165.863 13.8184 165.203 13.8184ZM172.059 9.60547L169.51 17H167.969L171.18 8.46875H172.164L172.059 9.60547ZM174.191 17L171.637 9.60547L171.525 8.46875H172.516L175.738 17H174.191ZM174.068 13.8359V15.002H169.428V13.8359H174.068ZM176.84 8.46875L178.82 12.541L180.801 8.46875H182.43L179.559 13.8594V17H178.076V13.8594L175.205 8.46875H176.84ZM187.82 8.46875V17H186.35V8.46875H187.82ZM191.301 12.2012V13.3672H187.445V12.2012H191.301ZM191.787 8.46875V9.64062H187.445V8.46875H191.787ZM197.746 8.46875H199.211V14.1699C199.211 14.8184 199.07 15.3613 198.789 15.7988C198.508 16.2363 198.125 16.5664 197.641 16.7891C197.16 17.0078 196.623 17.1172 196.029 17.1172C195.416 17.1172 194.869 17.0078 194.389 16.7891C193.908 16.5664 193.529 16.2363 193.252 15.7988C192.979 15.3613 192.842 14.8184 192.842 14.1699V8.46875H194.307V14.1699C194.307 14.5801 194.377 14.918 194.518 15.1836C194.658 15.4453 194.857 15.6387 195.115 15.7637C195.373 15.8887 195.678 15.9512 196.029 15.9512C196.381 15.9512 196.684 15.8887 196.938 15.7637C197.195 15.6387 197.395 15.4453 197.535 15.1836C197.676 14.918 197.746 14.5801 197.746 14.1699V8.46875ZM206.154 15.834V17H201.871V15.834H206.154ZM202.281 8.46875V17H200.811V8.46875H202.281ZM212.635 15.834V17H208.352V15.834H212.635ZM208.762 8.46875V17H207.291V8.46875H208.762Z" fill="#111111"/>
</svg>
