<svg width="18" height="18" viewBox="0 0 18 18" fill="none" xmlns="http://www.w3.org/2000/svg">
<path d="M1.15832 8.64996L8.65831 1.14996C8.95831 0.849959 9.37498 0.666626 9.83331 0.666626H15.6666C16.5833 0.666626 17.3333 1.41663 17.3333 2.33329V8.16662C17.3333 8.62496 17.15 9.04163 16.8416 9.34996L9.34165 16.85C9.04165 17.15 8.62498 17.3333 8.16665 17.3333C7.70831 17.3333 7.29165 17.15 6.99165 16.8416L1.15832 11.0083C0.849983 10.7083 0.666649 10.2916 0.666649 9.83329C0.666649 9.37496 0.858316 8.94996 1.15832 8.64996ZM14.4166 4.83329C15.1083 4.83329 15.6666 4.27496 15.6666 3.58329C15.6666 2.89163 15.1083 2.33329 14.4166 2.33329C13.725 2.33329 13.1666 2.89163 13.1666 3.58329C13.1666 4.27496 13.725 4.83329 14.4166 4.83329Z" fill="#E72E80"/>
</svg>
