<svg width="21" height="21" viewBox="0 0 21 21" fill="none" xmlns="http://www.w3.org/2000/svg">
<path d="M3.8995 3.89964C-0.00373149 7.80286 -0.00373149 14.1385 3.8995 18.0418C7.80273 21.945 14.1384 21.945 18.0416 18.0418C21.9449 14.1385 21.9449 7.80287 18.0416 3.89964C14.1384 -0.00359392 7.80273 -0.00359425 3.8995 3.89964ZM14.5061 8.84938L12.3848 10.9707L14.5061 13.092C14.895 13.4809 14.895 14.1173 14.5061 14.5062C14.1172 14.8951 13.4808 14.8951 13.0919 14.5062L10.9706 12.3849L8.84925 14.5062C8.46034 14.8951 7.82394 14.8951 7.43503 14.5062C7.04612 14.1173 7.04612 13.4809 7.43503 13.092L9.55635 10.9707L7.43503 8.84938C7.04612 8.46047 7.04612 7.82408 7.43503 7.43517C7.82394 7.04626 8.46034 7.04626 8.84925 7.43517L10.9706 9.55649L13.0919 7.43517C13.4808 7.04626 14.1172 7.04626 14.5061 7.43517C14.895 7.82408 14.895 8.46047 14.5061 8.84938Z" fill="#111111"/>
</svg>
