<svg width="12" height="16" viewBox="0 0 12 16" fill="none" xmlns="http://www.w3.org/2000/svg">
<path d="M0.999959 13.8333C0.999959 14.75 1.74996 15.5 2.66663 15.5H9.33329C10.25 15.5 11 14.75 11 13.8333V5.5C11 4.58333 10.25 3.83333 9.33329 3.83333H2.66663C1.74996 3.83333 0.999959 4.58333 0.999959 5.5V13.8333ZM11 1.33333H8.91663L8.32496 0.741667C8.17496 0.591667 7.95829 0.5 7.74163 0.5H4.25829C4.04163 0.5 3.82496 0.591667 3.67496 0.741667L3.08329 1.33333H0.999959C0.541626 1.33333 0.166626 1.70833 0.166626 2.16667C0.166626 2.625 0.541626 3 0.999959 3H11C11.4583 3 11.8333 2.625 11.8333 2.16667C11.8333 1.70833 11.4583 1.33333 11 1.33333Z" fill="#111111"/>
</svg>
