<svg width="100" height="21" viewBox="0 0 100 21" fill="none" xmlns="http://www.w3.org/2000/svg">
<g clip-path="url(#clip0_637_40)">
<path d="M0.267578 9.69624C0.663843 6.73038 2.56959 4.82463 5.55179 4.65714C7.34111 4.55705 9.17128 5.19842 10.1824 6.88153C11.0709 8.36241 11.2261 11.316 7.40443 12.0983C3.42749 12.9154 0.902828 11.0076 0.267578 9.69624V9.69624ZM7.74963 8.01722C7.36562 7.42895 6.62416 7.11847 5.60286 7.17771C3.9463 7.27167 2.97607 8.3665 2.74321 9.39189C3.22322 9.91479 5.43332 10.4132 7.04493 9.85965C7.87219 9.57777 8.19492 8.70966 7.74146 8.0213" fill="#312D3C"/>
<path d="M9.07934 12.323C8.51558 13.6528 6.9632 14.4412 5.28622 14.3656C2.67986 14.2492 0.74552 12.7765 0.0285662 10.8238C-0.23493 13.5751 1.38281 15.9589 4.26697 16.6125C7.39011 17.3152 10.3948 15.7566 11.2486 13.616L9.07934 12.323Z" fill="#28B35F"/>
<path d="M87.7032 12.8357C87.7032 14.9008 85.8649 16.6288 82.3925 16.6288C79.4389 16.6288 77.4167 15.0131 77.2349 12.8357L79.4389 11.7817C79.6206 13.5997 81.2343 14.2512 82.7336 14.2512C84.096 14.2512 85.0499 13.6895 85.0499 12.9031C85.0499 10.7707 77.7353 12.6805 77.7353 8.1459C77.7353 6.23811 79.5982 4.80013 82.6886 4.80013C85.7791 4.80013 87.5255 6.26059 87.5255 7.92122L85.5728 8.95274C85.4359 7.6516 83.9387 7.15729 82.6192 7.15729C81.3466 7.15729 80.4847 7.58419 80.4847 8.19084C80.4847 9.82493 87.7094 8.59937 87.7094 12.8357H87.7032ZM27.4097 8.19084C27.4097 7.57806 28.2737 7.15729 29.5442 7.15729C30.8617 7.15729 32.3609 7.6516 32.4978 8.95274L34.4505 7.92122C34.4505 6.26059 32.7021 4.80013 29.6136 4.80013C26.5252 4.80013 24.6603 6.22994 24.6603 8.1459C24.6603 12.6805 31.9749 10.7707 31.9749 12.9031C31.9749 13.6895 31.023 14.2512 29.6586 14.2512C28.1593 14.2512 26.5457 13.5997 26.3639 11.7817L24.1619 12.8357C24.3437 15.0131 26.3639 16.6288 29.3175 16.6288C32.7899 16.6288 34.6282 14.9008 34.6282 12.8357C34.6282 8.59324 27.4035 9.82901 27.4035 8.19084H27.4097ZM20.33 4.81646H23.0794V16.6288H20.3361V14.7905C19.9955 15.3475 19.5185 15.8086 18.9503 16.1302C18.3821 16.4519 17.7413 16.6234 17.0884 16.6288C13.8386 16.6288 12.3618 14.0164 12.3618 10.6318C12.3618 7.33704 13.8386 4.81646 17.0884 4.81646C17.7326 4.81395 18.3672 4.9726 18.9345 5.27798C19.5017 5.58336 19.9835 6.02577 20.3361 6.56493L20.33 4.81646ZM20.2973 10.6318C20.2973 8.60958 19.3189 7.20018 17.7298 7.20018C16.0712 7.20018 15.1173 8.60958 15.1173 10.6318C15.1173 12.7213 16.0712 14.1532 17.7298 14.1532C19.3189 14.1532 20.2973 12.7234 20.2973 10.6318ZM43.536 9.8474C43.536 11.3916 43.2398 14.0286 40.6764 14.0286C39.6326 14.0286 38.7706 13.6201 38.7706 11.2343V4.81646H36.0111V12.1412C36.0111 15.0009 37.3735 16.635 40.0084 16.635C42.0511 16.635 43.0581 15.583 43.5299 14.1287V14.5903C43.5299 16.7616 42.8272 18.4059 40.5763 18.7246C38.7992 18.9778 37.5124 18.0403 36.536 16.6819L35.0551 18.5203C35.8109 19.8316 38.1333 20.998 40.3312 20.998C40.6425 20.9976 40.9533 20.9723 41.2606 20.9224C44.5982 20.3627 46.2772 18.075 46.2772 14.7721V4.81646H43.5299L43.536 9.8474ZM72.8984 16.6288H75.6519V4.81646H72.8923L72.8984 16.6288ZM99.6565 4.81646V16.6288H96.8949V14.7905C96.5546 15.3478 96.0777 15.8091 95.5094 16.1307C94.9411 16.4524 94.3002 16.6238 93.6472 16.6288C90.3995 16.6288 88.9227 14.0164 88.9227 10.6318C88.9227 7.33704 90.3995 4.81646 93.6472 4.81646C94.2915 4.81339 94.9263 4.97181 95.4937 5.27724C96.061 5.58267 96.5428 6.02538 96.8949 6.56493V4.81646H99.6565ZM96.8623 10.6318C96.8623 8.60958 95.8859 7.20018 94.2968 7.20018C92.6382 7.20018 91.6822 8.60958 91.6822 10.6318C91.6822 12.7213 92.6382 14.1532 94.2968 14.1532C95.8859 14.1532 96.8623 12.7234 96.8623 10.6318ZM68.2045 4.81646H70.9539V16.6288H68.2005V14.7905C67.8601 15.3478 67.3832 15.8091 66.8149 16.1307C66.2466 16.4524 65.6057 16.6238 64.9527 16.6288C61.705 16.6288 60.2282 14.0164 60.2282 10.6318C60.2282 7.33704 61.705 4.81646 64.9527 4.81646C65.597 4.81339 66.2318 4.97181 66.7992 5.27724C67.3665 5.58267 67.8483 6.02538 68.2005 6.56493L68.2045 4.81646ZM68.1596 10.6318C68.1596 8.60958 67.1832 7.20018 65.5941 7.20018C63.9355 7.20018 62.9796 8.60958 62.9796 10.6318C62.9796 12.7213 63.9355 14.1532 65.5941 14.1532C67.1832 14.1532 68.1596 12.7234 68.1596 10.6318ZM59.0537 10.8238C59.0537 14.1185 57.5789 16.6391 54.3291 16.6391C53.6848 16.6421 53.05 16.4837 52.4827 16.1783C51.9153 15.8728 51.4336 15.4301 51.0814 14.8906V21.0021H48.328V4.81646H51.0773V6.66706C51.4177 6.10978 51.8946 5.6485 52.4628 5.32683C53.0311 5.00516 53.6721 4.83372 54.3251 4.82872C57.5748 4.82872 59.0496 7.44121 59.0496 10.8258L59.0537 10.8238ZM56.3023 10.8258C56.3023 8.73622 55.3484 7.3064 53.6898 7.3064C52.0986 7.3064 51.1223 8.73622 51.1223 10.8258C51.1223 12.848 52.0986 14.2553 53.6898 14.2553C55.3484 14.2553 56.3023 12.848 56.3023 10.8258Z" fill="#312D3C"/>
<path d="M72.4838 1.77298C72.4814 1.42467 72.5823 1.08347 72.7739 0.792537C72.9654 0.501607 73.2389 0.274022 73.5599 0.138583C73.8808 0.00314456 74.2346 -0.0340646 74.5767 0.0316595C74.9188 0.0973835 75.2337 0.26309 75.4815 0.507814C75.7294 0.752537 75.8991 1.06528 75.9692 1.40648C76.0393 1.74768 76.0066 2.102 75.8753 2.42461C75.7439 2.74723 75.5199 3.02364 75.2314 3.21888C74.9429 3.41412 74.6031 3.51942 74.2547 3.52145C73.7891 3.52096 73.3423 3.33729 73.011 3.01013C72.6796 2.68298 72.4902 2.23859 72.4838 1.77298" fill="#28B35F"/>
</g>
<defs>
<clipPath id="clip0_637_40">
<rect width="99.6525" height="21" fill="white"/>
</clipPath>
</defs>
</svg>
