<svg width="166" height="16" viewBox="0 0 166 16" fill="none" xmlns="http://www.w3.org/2000/svg">
<path d="M16.3893 12L19.4853 3.6H20.5533L23.6373 12H22.5693L21.8013 9.84H18.2253L17.4453 12H16.3893ZM18.5253 9.024H21.5013L20.0133 4.872L18.5253 9.024ZM27.1979 12.144C26.6059 12.144 26.0859 12.008 25.6379 11.736C25.1979 11.464 24.8539 11.092 24.6059 10.62C24.3659 10.148 24.2459 9.612 24.2459 9.012C24.2459 8.412 24.3699 7.88 24.6179 7.416C24.8659 6.944 25.2099 6.576 25.6499 6.312C26.0899 6.04 26.6099 5.904 27.2099 5.904C27.6979 5.904 28.1299 6.004 28.5059 6.204C28.8819 6.404 29.1739 6.684 29.3819 7.044V3.36H30.3899V12H29.4779L29.3819 11.016C29.1899 11.304 28.9139 11.564 28.5539 11.796C28.1939 12.028 27.7419 12.144 27.1979 12.144ZM27.3059 11.268C27.7059 11.268 28.0579 11.176 28.3619 10.992C28.6739 10.8 28.9139 10.536 29.0819 10.2C29.2579 9.864 29.3459 9.472 29.3459 9.024C29.3459 8.576 29.2579 8.184 29.0819 7.848C28.9139 7.512 28.6739 7.252 28.3619 7.068C28.0579 6.876 27.7059 6.78 27.3059 6.78C26.9139 6.78 26.5619 6.876 26.2499 7.068C25.9459 7.252 25.7059 7.512 25.5299 7.848C25.3619 8.184 25.2779 8.576 25.2779 9.024C25.2779 9.472 25.3619 9.864 25.5299 10.2C25.7059 10.536 25.9459 10.8 26.2499 10.992C26.5619 11.176 26.9139 11.268 27.3059 11.268ZM34.7331 12.144C34.1411 12.144 33.6211 12.008 33.1731 11.736C32.7331 11.464 32.3891 11.092 32.1411 10.62C31.9011 10.148 31.7811 9.612 31.7811 9.012C31.7811 8.412 31.9051 7.88 32.1531 7.416C32.4011 6.944 32.7451 6.576 33.1851 6.312C33.6251 6.04 34.1451 5.904 34.7451 5.904C35.2331 5.904 35.6651 6.004 36.0411 6.204C36.4171 6.404 36.7091 6.684 36.9171 7.044V3.36H37.9251V12H37.0131L36.9171 11.016C36.7251 11.304 36.4491 11.564 36.0891 11.796C35.7291 12.028 35.2771 12.144 34.7331 12.144ZM34.8411 11.268C35.2411 11.268 35.5931 11.176 35.8971 10.992C36.2091 10.8 36.4491 10.536 36.6171 10.2C36.7931 9.864 36.8811 9.472 36.8811 9.024C36.8811 8.576 36.7931 8.184 36.6171 7.848C36.4491 7.512 36.2091 7.252 35.8971 7.068C35.5931 6.876 35.2411 6.78 34.8411 6.78C34.4491 6.78 34.0971 6.876 33.7851 7.068C33.4811 7.252 33.2411 7.512 33.0651 7.848C32.8971 8.184 32.8131 8.576 32.8131 9.024C32.8131 9.472 32.8971 9.864 33.0651 10.2C33.2411 10.536 33.4811 10.8 33.7851 10.992C34.0971 11.176 34.4491 11.268 34.8411 11.268ZM42.804 12V3.6H43.812L48.288 10.332V3.6H49.296V12H48.288L43.812 5.268V12H42.804ZM53.6935 12.144C53.1255 12.144 52.6215 12.016 52.1815 11.76C51.7415 11.496 51.3935 11.132 51.1375 10.668C50.8895 10.204 50.7655 9.656 50.7655 9.024C50.7655 8.4 50.8895 7.856 51.1375 7.392C51.3855 6.92 51.7295 6.556 52.1695 6.3C52.6175 6.036 53.1335 5.904 53.7175 5.904C54.2935 5.904 54.7895 6.036 55.2055 6.3C55.6295 6.556 55.9535 6.896 56.1775 7.32C56.4015 7.744 56.5135 8.2 56.5135 8.688C56.5135 8.776 56.5095 8.864 56.5015 8.952C56.5015 9.04 56.5015 9.14 56.5015 9.252H51.7615C51.7855 9.708 51.8895 10.088 52.0735 10.392C52.2655 10.688 52.5015 10.912 52.7815 11.064C53.0695 11.216 53.3735 11.292 53.6935 11.292C54.1095 11.292 54.4575 11.196 54.7375 11.004C55.0175 10.812 55.2215 10.552 55.3495 10.224H56.3455C56.1855 10.776 55.8775 11.236 55.4215 11.604C54.9735 11.964 54.3975 12.144 53.6935 12.144ZM53.6935 6.756C53.2135 6.756 52.7855 6.904 52.4095 7.2C52.0415 7.488 51.8295 7.912 51.7735 8.472H55.5175C55.4935 7.936 55.3095 7.516 54.9655 7.212C54.6215 6.908 54.1975 6.756 53.6935 6.756ZM58.8151 12L57.0751 6.048H58.0831L59.3431 10.716L60.7351 6.048H61.8751L63.2791 10.716L64.5271 6.048H65.5471L63.8071 12H62.7751L61.3111 7.092L59.8471 12H58.8151ZM72.5738 12.144C71.9578 12.144 71.4218 12.032 70.9658 11.808C70.5098 11.584 70.1578 11.272 69.9098 10.872C69.6618 10.472 69.5378 10.008 69.5378 9.48H70.5938C70.5938 9.808 70.6698 10.112 70.8218 10.392C70.9738 10.664 71.1938 10.884 71.4818 11.052C71.7778 11.212 72.1418 11.292 72.5738 11.292C73.1418 11.292 73.5818 11.156 73.8938 10.884C74.2058 10.612 74.3618 10.272 74.3618 9.864C74.3618 9.528 74.2898 9.26 74.1458 9.06C74.0018 8.852 73.8058 8.684 73.5578 8.556C73.3178 8.428 73.0378 8.316 72.7178 8.22C72.4058 8.124 72.0778 8.016 71.7338 7.896C71.0858 7.672 70.6058 7.396 70.2938 7.068C69.9818 6.732 69.8258 6.296 69.8258 5.76C69.8178 5.312 69.9218 4.916 70.1378 4.572C70.3538 4.22 70.6578 3.948 71.0498 3.756C71.4498 3.556 71.9218 3.456 72.4658 3.456C73.0018 3.456 73.4658 3.556 73.8578 3.756C74.2578 3.956 74.5658 4.232 74.7818 4.584C75.0058 4.936 75.1218 5.336 75.1298 5.784H74.0738C74.0738 5.552 74.0138 5.324 73.8938 5.1C73.7738 4.868 73.5898 4.68 73.3418 4.536C73.1018 4.392 72.7978 4.32 72.4298 4.32C71.9738 4.312 71.5978 4.428 71.3018 4.668C71.0138 4.908 70.8698 5.24 70.8698 5.664C70.8698 6.024 70.9698 6.3 71.1698 6.492C71.3778 6.684 71.6658 6.844 72.0338 6.972C72.4018 7.092 72.8258 7.232 73.3058 7.392C73.7058 7.536 74.0658 7.704 74.3858 7.896C74.7058 8.088 74.9538 8.336 75.1298 8.64C75.3138 8.944 75.4058 9.332 75.4058 9.804C75.4058 10.204 75.3018 10.584 75.0938 10.944C74.8858 11.296 74.5698 11.584 74.1458 11.808C73.7298 12.032 73.2058 12.144 72.5738 12.144ZM76.7753 12V3.36H77.7833V7.068C77.9833 6.7 78.2673 6.416 78.6353 6.216C79.0033 6.008 79.4033 5.904 79.8353 5.904C80.5233 5.904 81.0753 6.12 81.4913 6.552C81.9073 6.976 82.1153 7.632 82.1153 8.52V12H81.1193V8.628C81.1193 7.388 80.6193 6.768 79.6193 6.768C79.0993 6.768 78.6633 6.956 78.3113 7.332C77.9593 7.7 77.7833 8.228 77.7833 8.916V12H76.7753ZM84.2545 4.728C84.0545 4.728 83.8865 4.664 83.7505 4.536C83.6225 4.4 83.5585 4.232 83.5585 4.032C83.5585 3.84 83.6225 3.68 83.7505 3.552C83.8865 3.424 84.0545 3.36 84.2545 3.36C84.4465 3.36 84.6105 3.424 84.7465 3.552C84.8825 3.68 84.9505 3.84 84.9505 4.032C84.9505 4.232 84.8825 4.4 84.7465 4.536C84.6105 4.664 84.4465 4.728 84.2545 4.728ZM83.7505 12V6.048H84.7585V12H83.7505ZM86.5135 14.64V6.048H87.4255L87.5215 7.032C87.7135 6.744 87.9855 6.484 88.3375 6.252C88.6975 6.02 89.1535 5.904 89.7055 5.904C90.2975 5.904 90.8135 6.04 91.2535 6.312C91.6935 6.584 92.0335 6.956 92.2735 7.428C92.5215 7.9 92.6455 8.436 92.6455 9.036C92.6455 9.636 92.5215 10.172 92.2735 10.644C92.0335 11.108 91.6895 11.476 91.2415 11.748C90.8015 12.012 90.2855 12.144 89.6935 12.144C89.2055 12.144 88.7695 12.044 88.3855 11.844C88.0095 11.644 87.7215 11.364 87.5215 11.004V14.64H86.5135ZM89.5855 11.268C89.9855 11.268 90.3375 11.176 90.6415 10.992C90.9455 10.8 91.1855 10.536 91.3615 10.2C91.5375 9.864 91.6255 9.472 91.6255 9.024C91.6255 8.576 91.5375 8.184 91.3615 7.848C91.1855 7.512 90.9455 7.252 90.6415 7.068C90.3375 6.876 89.9855 6.78 89.5855 6.78C89.1855 6.78 88.8335 6.876 88.5295 7.068C88.2255 7.252 87.9855 7.512 87.8095 7.848C87.6335 8.184 87.5455 8.576 87.5455 9.024C87.5455 9.472 87.6335 9.864 87.8095 10.2C87.9855 10.536 88.2255 10.8 88.5295 10.992C88.8335 11.176 89.1855 11.268 89.5855 11.268ZM94.0487 14.64V6.048H94.9607L95.0567 7.032C95.2487 6.744 95.5207 6.484 95.8727 6.252C96.2327 6.02 96.6887 5.904 97.2407 5.904C97.8327 5.904 98.3487 6.04 98.7887 6.312C99.2287 6.584 99.5687 6.956 99.8087 7.428C100.057 7.9 100.181 8.436 100.181 9.036C100.181 9.636 100.057 10.172 99.8087 10.644C99.5687 11.108 99.2247 11.476 98.7767 11.748C98.3367 12.012 97.8207 12.144 97.2287 12.144C96.7407 12.144 96.3047 12.044 95.9207 11.844C95.5447 11.644 95.2567 11.364 95.0567 11.004V14.64H94.0487ZM97.1207 11.268C97.5207 11.268 97.8727 11.176 98.1767 10.992C98.4807 10.8 98.7207 10.536 98.8967 10.2C99.0727 9.864 99.1607 9.472 99.1607 9.024C99.1607 8.576 99.0727 8.184 98.8967 7.848C98.7207 7.512 98.4807 7.252 98.1767 7.068C97.8727 6.876 97.5207 6.78 97.1207 6.78C96.7207 6.78 96.3687 6.876 96.0647 7.068C95.7607 7.252 95.5207 7.512 95.3447 7.848C95.1687 8.184 95.0807 8.576 95.0807 9.024C95.0807 9.472 95.1687 9.864 95.3447 10.2C95.5207 10.536 95.7607 10.8 96.0647 10.992C96.3687 11.176 96.7207 11.268 97.1207 11.268ZM102.196 4.728C101.996 4.728 101.828 4.664 101.692 4.536C101.564 4.4 101.5 4.232 101.5 4.032C101.5 3.84 101.564 3.68 101.692 3.552C101.828 3.424 101.996 3.36 102.196 3.36C102.388 3.36 102.552 3.424 102.688 3.552C102.824 3.68 102.892 3.84 102.892 4.032C102.892 4.232 102.824 4.4 102.688 4.536C102.552 4.664 102.388 4.728 102.196 4.728ZM101.692 12V6.048H102.7V12H101.692ZM104.455 12V6.048H105.367L105.427 7.116C105.619 6.74 105.895 6.444 106.255 6.228C106.615 6.012 107.023 5.904 107.479 5.904C108.183 5.904 108.743 6.12 109.159 6.552C109.583 6.976 109.795 7.632 109.795 8.52V12H108.787V8.628C108.787 7.388 108.275 6.768 107.251 6.768C106.739 6.768 106.311 6.956 105.967 7.332C105.631 7.7 105.463 8.228 105.463 8.916V12H104.455ZM113.674 10.128C113.338 10.128 113.03 10.084 112.75 9.996L112.15 10.56C112.238 10.624 112.346 10.68 112.474 10.728C112.61 10.768 112.802 10.808 113.05 10.848C113.298 10.88 113.646 10.916 114.094 10.956C114.894 11.012 115.466 11.196 115.81 11.508C116.154 11.82 116.326 12.228 116.326 12.732C116.326 13.076 116.23 13.404 116.038 13.716C115.854 14.028 115.566 14.284 115.174 14.484C114.79 14.684 114.294 14.784 113.686 14.784C113.15 14.784 112.674 14.712 112.258 14.568C111.842 14.432 111.518 14.22 111.286 13.932C111.054 13.652 110.938 13.296 110.938 12.864C110.938 12.64 110.998 12.396 111.118 12.132C111.238 11.876 111.462 11.632 111.79 11.4C111.614 11.328 111.462 11.252 111.334 11.172C111.214 11.084 111.102 10.988 110.998 10.884V10.608L112.018 9.6C111.546 9.2 111.31 8.672 111.31 8.016C111.31 7.624 111.402 7.268 111.586 6.948C111.77 6.628 112.038 6.376 112.39 6.192C112.742 6 113.17 5.904 113.674 5.904C114.018 5.904 114.33 5.952 114.61 6.048H116.806V6.804L115.69 6.852C115.922 7.188 116.038 7.576 116.038 8.016C116.038 8.408 115.942 8.764 115.75 9.084C115.566 9.404 115.298 9.66 114.946 9.852C114.602 10.036 114.178 10.128 113.674 10.128ZM113.674 9.3C114.098 9.3 114.434 9.192 114.682 8.976C114.938 8.752 115.066 8.432 115.066 8.016C115.066 7.608 114.938 7.296 114.682 7.08C114.434 6.856 114.098 6.744 113.674 6.744C113.242 6.744 112.898 6.856 112.642 7.08C112.394 7.296 112.27 7.608 112.27 8.016C112.27 8.432 112.394 8.752 112.642 8.976C112.898 9.192 113.242 9.3 113.674 9.3ZM111.922 12.768C111.922 13.168 112.09 13.464 112.426 13.656C112.762 13.856 113.182 13.956 113.686 13.956C114.182 13.956 114.578 13.848 114.874 13.632C115.178 13.416 115.33 13.128 115.33 12.768C115.33 12.512 115.226 12.288 115.018 12.096C114.81 11.912 114.426 11.804 113.866 11.772C113.426 11.74 113.046 11.7 112.726 11.652C112.398 11.828 112.182 12.016 112.078 12.216C111.974 12.424 111.922 12.608 111.922 12.768ZM120.651 12L123.747 3.6H124.815L127.899 12H126.831L126.063 9.84H122.487L121.707 12H120.651ZM122.787 9.024H125.763L124.275 4.872L122.787 9.024ZM131.46 12.144C130.868 12.144 130.348 12.008 129.9 11.736C129.46 11.464 129.116 11.092 128.868 10.62C128.628 10.148 128.508 9.612 128.508 9.012C128.508 8.412 128.632 7.88 128.88 7.416C129.128 6.944 129.472 6.576 129.912 6.312C130.352 6.04 130.872 5.904 131.472 5.904C131.96 5.904 132.392 6.004 132.768 6.204C133.144 6.404 133.436 6.684 133.644 7.044V3.36H134.652V12H133.74L133.644 11.016C133.452 11.304 133.176 11.564 132.816 11.796C132.456 12.028 132.004 12.144 131.46 12.144ZM131.568 11.268C131.968 11.268 132.32 11.176 132.624 10.992C132.936 10.8 133.176 10.536 133.344 10.2C133.52 9.864 133.608 9.472 133.608 9.024C133.608 8.576 133.52 8.184 133.344 7.848C133.176 7.512 132.936 7.252 132.624 7.068C132.32 6.876 131.968 6.78 131.568 6.78C131.176 6.78 130.824 6.876 130.512 7.068C130.208 7.252 129.968 7.512 129.792 7.848C129.624 8.184 129.54 8.576 129.54 9.024C129.54 9.472 129.624 9.864 129.792 10.2C129.968 10.536 130.208 10.8 130.512 10.992C130.824 11.176 131.176 11.268 131.568 11.268ZM138.995 12.144C138.403 12.144 137.883 12.008 137.435 11.736C136.995 11.464 136.651 11.092 136.403 10.62C136.163 10.148 136.043 9.612 136.043 9.012C136.043 8.412 136.167 7.88 136.415 7.416C136.663 6.944 137.007 6.576 137.447 6.312C137.887 6.04 138.407 5.904 139.007 5.904C139.495 5.904 139.927 6.004 140.303 6.204C140.679 6.404 140.971 6.684 141.179 7.044V3.36H142.187V12H141.275L141.179 11.016C140.987 11.304 140.711 11.564 140.351 11.796C139.991 12.028 139.539 12.144 138.995 12.144ZM139.103 11.268C139.503 11.268 139.855 11.176 140.159 10.992C140.471 10.8 140.711 10.536 140.879 10.2C141.055 9.864 141.143 9.472 141.143 9.024C141.143 8.576 141.055 8.184 140.879 7.848C140.711 7.512 140.471 7.252 140.159 7.068C139.855 6.876 139.503 6.78 139.103 6.78C138.711 6.78 138.359 6.876 138.047 7.068C137.743 7.252 137.503 7.512 137.327 7.848C137.159 8.184 137.075 8.576 137.075 9.024C137.075 9.472 137.159 9.864 137.327 10.2C137.503 10.536 137.743 10.8 138.047 10.992C138.359 11.176 138.711 11.268 139.103 11.268ZM143.83 12V6.048H144.742L144.826 7.188C145.01 6.796 145.29 6.484 145.666 6.252C146.042 6.02 146.506 5.904 147.058 5.904V6.96H146.782C146.43 6.96 146.106 7.024 145.81 7.152C145.514 7.272 145.278 7.48 145.102 7.776C144.926 8.072 144.838 8.48 144.838 9V12H143.83ZM150.643 12.144C150.075 12.144 149.571 12.016 149.131 11.76C148.691 11.496 148.343 11.132 148.087 10.668C147.839 10.204 147.715 9.656 147.715 9.024C147.715 8.4 147.839 7.856 148.087 7.392C148.335 6.92 148.679 6.556 149.119 6.3C149.567 6.036 150.083 5.904 150.667 5.904C151.243 5.904 151.739 6.036 152.155 6.3C152.579 6.556 152.903 6.896 153.127 7.32C153.351 7.744 153.463 8.2 153.463 8.688C153.463 8.776 153.459 8.864 153.451 8.952C153.451 9.04 153.451 9.14 153.451 9.252H148.711C148.735 9.708 148.839 10.088 149.023 10.392C149.215 10.688 149.451 10.912 149.731 11.064C150.019 11.216 150.323 11.292 150.643 11.292C151.059 11.292 151.407 11.196 151.687 11.004C151.967 10.812 152.171 10.552 152.299 10.224H153.295C153.135 10.776 152.827 11.236 152.371 11.604C151.923 11.964 151.347 12.144 150.643 12.144ZM150.643 6.756C150.163 6.756 149.735 6.904 149.359 7.2C148.991 7.488 148.779 7.912 148.723 8.472H152.467C152.443 7.936 152.259 7.516 151.915 7.212C151.571 6.908 151.147 6.756 150.643 6.756ZM157.079 12.144C156.367 12.144 155.775 11.964 155.303 11.604C154.831 11.244 154.555 10.756 154.475 10.14H155.507C155.571 10.452 155.735 10.724 155.999 10.956C156.271 11.18 156.635 11.292 157.091 11.292C157.515 11.292 157.827 11.204 158.027 11.028C158.227 10.844 158.327 10.628 158.327 10.38C158.327 10.02 158.195 9.78 157.931 9.66C157.675 9.54 157.311 9.432 156.839 9.336C156.519 9.272 156.199 9.18 155.879 9.06C155.559 8.94 155.291 8.772 155.075 8.556C154.859 8.332 154.751 8.04 154.751 7.68C154.751 7.16 154.943 6.736 155.327 6.408C155.719 6.072 156.247 5.904 156.911 5.904C157.543 5.904 158.059 6.064 158.459 6.384C158.867 6.696 159.103 7.144 159.167 7.728H158.171C158.131 7.424 157.999 7.188 157.775 7.02C157.559 6.844 157.267 6.756 156.899 6.756C156.539 6.756 156.259 6.832 156.059 6.984C155.867 7.136 155.771 7.336 155.771 7.584C155.771 7.824 155.895 8.012 156.143 8.148C156.399 8.284 156.743 8.4 157.175 8.496C157.543 8.576 157.891 8.676 158.219 8.796C158.555 8.908 158.827 9.08 159.035 9.312C159.251 9.536 159.359 9.864 159.359 10.296C159.367 10.832 159.163 11.276 158.747 11.628C158.339 11.972 157.783 12.144 157.079 12.144ZM163.079 12.144C162.367 12.144 161.775 11.964 161.303 11.604C160.831 11.244 160.555 10.756 160.475 10.14H161.507C161.571 10.452 161.735 10.724 161.999 10.956C162.271 11.18 162.635 11.292 163.091 11.292C163.515 11.292 163.827 11.204 164.027 11.028C164.227 10.844 164.327 10.628 164.327 10.38C164.327 10.02 164.195 9.78 163.931 9.66C163.675 9.54 163.311 9.432 162.839 9.336C162.519 9.272 162.199 9.18 161.879 9.06C161.559 8.94 161.291 8.772 161.075 8.556C160.859 8.332 160.751 8.04 160.751 7.68C160.751 7.16 160.943 6.736 161.327 6.408C161.719 6.072 162.247 5.904 162.911 5.904C163.543 5.904 164.059 6.064 164.459 6.384C164.867 6.696 165.103 7.144 165.167 7.728H164.171C164.131 7.424 163.999 7.188 163.775 7.02C163.559 6.844 163.267 6.756 162.899 6.756C162.539 6.756 162.259 6.832 162.059 6.984C161.867 7.136 161.771 7.336 161.771 7.584C161.771 7.824 161.895 8.012 162.143 8.148C162.399 8.284 162.743 8.4 163.175 8.496C163.543 8.576 163.891 8.676 164.219 8.796C164.555 8.908 164.827 9.08 165.035 9.312C165.251 9.536 165.359 9.864 165.359 10.296C165.367 10.832 165.163 11.276 164.747 11.628C164.339 11.972 163.783 12.144 163.079 12.144Z" fill="#18A0FB"/>
<path d="M5.5 12V3" stroke="#18A0FB" stroke-width="1.5" stroke-linecap="round" stroke-linejoin="round"/>
<path d="M1 7.5L10 7.5" stroke="#18A0FB" stroke-width="1.5" stroke-linecap="round" stroke-linejoin="round"/>
</svg>
