<svg width="26" height="26" viewBox="0 0 26 26" fill="none" xmlns="http://www.w3.org/2000/svg">
<circle cx="13" cy="13" r="13" fill="#18A0FB"/>
<path d="M18.25 18.8333H7.75C7.51083 18.8333 7.3125 18.635 7.3125 18.3958C7.3125 18.1566 7.51083 17.9583 7.75 17.9583H18.25C18.4892 17.9583 18.6875 18.1566 18.6875 18.3958C18.6875 18.635 18.4892 18.8333 18.25 18.8333Z" fill="white"/>
<path d="M17.095 8.03001C15.9633 6.89834 14.855 6.86918 13.6941 8.03001L12.9883 8.73584C12.93 8.79418 12.9066 8.88751 12.93 8.96918C13.3733 10.515 14.61 11.7517 16.1558 12.195C16.1791 12.2008 16.2025 12.2067 16.2258 12.2067C16.29 12.2067 16.3483 12.1833 16.395 12.1367L17.095 11.4308C17.6725 10.8592 17.9525 10.305 17.9525 9.74501C17.9583 9.16751 17.6783 8.60751 17.095 8.03001Z" fill="white"/>
<path d="M15.1059 12.7258C14.9367 12.6442 14.7734 12.5625 14.6159 12.4692C14.4875 12.3933 14.365 12.3117 14.2425 12.2242C14.1434 12.16 14.0267 12.0667 13.9159 11.9733C13.9042 11.9675 13.8634 11.9325 13.8167 11.8858C13.6242 11.7225 13.4084 11.5125 13.2159 11.2792C13.1984 11.2675 13.1692 11.2267 13.1284 11.1742C13.07 11.1042 12.9709 10.9875 12.8834 10.8533C12.8134 10.7658 12.7317 10.6375 12.6559 10.5092C12.5625 10.3517 12.4809 10.1942 12.3992 10.0308C12.2921 9.80139 11.991 9.73323 11.8119 9.91227L8.53169 13.1925C8.45586 13.2683 8.38586 13.4142 8.36836 13.5133L8.05336 15.7475C7.99502 16.1442 8.10586 16.5175 8.35086 16.7683C8.56086 16.9725 8.85252 17.0833 9.16752 17.0833C9.23752 17.0833 9.30752 17.0775 9.37752 17.0658L11.6175 16.7508C11.7225 16.7333 11.8684 16.6633 11.9384 16.5875L15.224 13.3019C15.3995 13.1264 15.3335 12.8245 15.1059 12.7258Z" fill="white"/>
</svg>
