<svg width="231" height="25" viewBox="0 0 231 25" fill="none" xmlns="http://www.w3.org/2000/svg">
<rect x="151.25" y="0.25" width="79.5" height="24.5" rx="12.25" fill="white" stroke="#111111" stroke-width="0.5"/>
<path d="M172.551 13.8184H170.33V12.6523H172.551C172.938 12.6523 173.25 12.5898 173.488 12.4648C173.727 12.3398 173.9 12.168 174.01 11.9492C174.123 11.7266 174.18 11.4727 174.18 11.1875C174.18 10.918 174.123 10.666 174.01 10.4316C173.9 10.1934 173.727 10.002 173.488 9.85742C173.25 9.71289 172.938 9.64062 172.551 9.64062H170.781V17H169.311V8.46875H172.551C173.211 8.46875 173.771 8.58594 174.232 8.82031C174.697 9.05078 175.051 9.37109 175.293 9.78125C175.535 10.1875 175.656 10.6523 175.656 11.1758C175.656 11.7266 175.535 12.1992 175.293 12.5938C175.051 12.9883 174.697 13.291 174.232 13.502C173.771 13.7129 173.211 13.8184 172.551 13.8184ZM179.406 9.60547L176.857 17H175.316L178.527 8.46875H179.512L179.406 9.60547ZM181.539 17L178.984 9.60547L178.873 8.46875H179.863L183.086 17H181.539ZM181.416 13.8359V15.002H176.775V13.8359H181.416ZM184.188 8.46875L186.168 12.541L188.148 8.46875H189.777L186.906 13.8594V17H185.424V13.8594L182.553 8.46875H184.188ZM195.268 8.46875V17H193.797V8.46875H195.268ZM203.863 8.46875V17H202.393L198.566 10.8887V17H197.096V8.46875H198.566L202.404 14.5918V8.46875H203.863ZM214.258 13.959V15.084H208.105L208.059 14.2344L211.738 8.46875H212.869L211.645 10.5664L209.529 13.959H214.258ZM213.191 8.46875V17H211.779V8.46875H213.191Z" fill="#111111"/>
<path d="M74.3222 17.5883C74.035 17.5892 73.7509 17.6459 73.486 17.7552C73.2211 17.8644 72.9806 18.0241 72.7783 18.2251C72.576 18.4261 72.4158 18.6644 72.3068 18.9265C72.1979 19.1886 72.1424 19.4692 72.1434 19.7525V19.7567C72.1403 20.3287 72.3675 20.8784 72.7751 21.2851C73.1828 21.6918 73.7375 21.922 74.3173 21.9252H74.3212C75.5226 21.9252 76.5 20.9538 76.5 19.7567C76.5016 19.4736 76.4466 19.1928 76.3383 18.9306C76.2299 18.6684 76.0703 18.4298 75.8685 18.2284C75.6666 18.027 75.4266 17.8669 75.162 17.757C74.8974 17.6472 74.6135 17.5898 74.3265 17.5883H74.3222ZM67.1557 15.9132C67.1557 14.2727 65.7481 12.9446 64.0119 12.9446C62.2757 12.9446 60.8678 14.2748 60.8678 15.9132C60.8678 17.5516 62.2775 18.88 64.0137 18.88C65.75 18.88 67.1557 17.5519 67.1557 15.9132ZM67.168 10.1434H70.6355V21.6815H67.168V20.9438C66.1566 21.6325 64.9566 22.001 63.7277 22C60.3522 22 57.6135 19.2754 57.6135 15.9132C57.6135 12.5511 60.351 9.82678 63.7277 9.82678C64.9568 9.82489 66.1571 10.1934 67.168 10.883V10.1434ZM39.4012 11.6468V10.1453H35.8483V21.6815H39.4079V16.2959C39.4079 14.478 41.3854 13.5026 42.7583 13.5026H42.7991V10.1453C41.3909 10.1453 40.0975 10.7459 39.4012 11.6468ZM30.5513 15.9132C30.5513 14.2727 29.1437 12.9446 27.4071 12.9446C25.6706 12.9446 24.2633 14.2748 24.2633 15.9132C24.2633 17.5516 25.6728 18.88 27.4093 18.88C29.1458 18.88 30.5513 17.5519 30.5513 15.9132ZM30.5635 10.1434H34.0345V21.6815H30.5635V20.9438C29.5522 21.6324 28.3522 22.0008 27.1233 22C23.7478 22 21.0091 19.2754 21.0091 15.9132C21.0091 12.5511 23.7463 9.82678 27.1233 9.82678C28.3523 9.82495 29.5526 10.1935 30.5635 10.883V10.1434ZM51.4477 9.83496C50.0628 9.83496 48.7513 10.2621 47.8727 11.4434V10.1453H44.4184V21.6815H47.9166V15.6193C47.9166 13.8659 49.0974 13.0052 50.5213 13.0052C52.0452 13.0052 52.9237 13.9134 52.9237 15.5951V21.6815H56.3885V14.3454C56.3885 11.661 54.2435 9.83465 51.448 9.83465L51.4477 9.83496ZM15.9547 21.6815H19.587V5.00394H15.9547V21.6815ZM0 21.6845H3.84683V5H0.00214804L0 21.6845ZM13.4544 5C13.4544 8.61161 12.0407 11.9732 9.5198 14.4704L14.8353 21.6845H10.0857L4.3105 13.8438L5.80185 12.7312C7.01564 11.8306 7.99913 10.6625 8.67377 9.3201C9.34842 7.97772 9.69552 6.4983 9.68735 5H13.4544Z" fill="#0A0B09"/>
</svg>
