<svg width="10" height="11" viewBox="0 0 10 11" fill="none" xmlns="http://www.w3.org/2000/svg">
<path d="M8.44646 4.8125H7.70292V2.75C7.70292 1.2375 6.36456 0 4.72879 0C3.09301 0 1.75465 1.2375 1.75465 2.75V4.8125H1.01111C0.639345 4.8125 0.267578 5.15625 0.267578 5.5V10.3125C0.267578 10.6562 0.639345 11 1.01111 11H8.44646C8.81822 11 9.18999 10.6562 9.18999 10.3125V5.5C9.18999 5.15625 8.81822 4.8125 8.44646 4.8125ZM5.47232 9.625H3.98525L4.28266 8.1125C3.9109 7.975 3.61348 7.5625 3.61348 7.21875C3.61348 6.66875 4.13396 6.1875 4.72879 6.1875C5.32361 6.1875 5.84409 6.66875 5.84409 7.21875C5.84409 7.63125 5.62103 7.975 5.17491 8.1125L5.47232 9.625ZM6.21585 4.8125H3.24172V2.75C3.24172 1.99375 3.9109 1.375 4.72879 1.375C5.54667 1.375 6.21585 1.99375 6.21585 2.75V4.8125Z" fill="black"/>
</svg>
