<svg width="193" height="51" viewBox="0 0 193 51" fill="none" xmlns="http://www.w3.org/2000/svg">
<path d="M67.3185 16.7997C67.9296 16.4432 68.4388 16.0358 68.948 15.5775C69.4064 15.1192 69.8138 14.61 70.1702 14.0498C70.5267 13.4896 70.7813 12.8785 70.9341 12.2674C71.1378 11.6564 71.2396 10.9943 71.2396 10.2814C71.2396 9.21199 71.0359 8.19351 70.5776 7.27687C70.1193 6.36023 69.5082 5.49452 68.7444 4.8325C67.9805 4.11956 67.0639 3.5594 66.0454 3.152C65.0269 2.74461 63.9065 2.54091 62.7353 2.54091C61.9714 2.54091 61.2076 2.64276 60.4946 2.79553C59.7817 2.99923 59.0687 3.25385 58.4577 3.5594C57.8466 3.91587 57.2355 4.32326 56.7262 4.78158C56.217 5.23989 55.7587 5.74914 55.4022 6.36023C55.0457 6.9204 54.7402 7.53149 54.5365 8.19351C54.3328 8.85552 54.2309 9.51754 54.2309 10.2305C54.2309 10.9434 54.3328 11.6054 54.5365 12.2674C54.7402 12.9295 55.0457 13.5406 55.4022 14.1007C55.7587 14.6609 56.217 15.2211 56.7262 15.6794C57.2355 16.1377 57.7956 16.5451 58.4577 16.9016C59.0687 17.258 59.7817 17.5126 60.4946 17.6654C61.2076 17.8691 61.9714 17.92 62.7353 17.92C63.3464 17.92 63.9065 17.8691 64.5176 17.7673C65.0778 17.6654 65.638 17.5126 66.1472 17.3089L67.2166 18.633C66.5546 18.9385 65.8417 19.1422 65.0778 19.295C64.3139 19.4478 63.5501 19.5496 62.7353 19.5496C61.3094 19.5496 59.9854 19.295 58.7632 18.8367C57.541 18.3274 56.4207 17.6654 55.504 16.8506C54.5874 15.9849 53.8235 15.0174 53.3143 13.897C52.7541 12.7767 52.4995 11.5545 52.4995 10.2814C52.4995 9.00829 52.7541 7.78611 53.3143 6.66578C53.8745 5.54545 54.5874 4.52696 55.504 3.71217C56.4207 2.84646 57.541 2.18444 58.7632 1.72612C59.9854 1.21688 61.3603 1.01318 62.7353 1.01318C64.1612 1.01318 65.4852 1.2678 66.7583 1.72612C68.0314 2.23536 69.1008 2.89738 70.0175 3.71217C70.9341 4.57788 71.698 5.54545 72.2072 6.66578C72.7674 7.78611 73.022 9.00829 73.022 10.2814C73.022 10.9434 72.9711 11.6054 72.8183 12.2165C72.6655 12.8276 72.4618 13.4387 72.1563 14.0498C71.8507 14.61 71.5452 15.1701 71.1378 15.6794C70.7304 16.1886 70.2721 16.6469 69.7628 17.1053C70.6285 18.1237 71.4433 19.1422 72.309 20.1607C73.1748 21.1792 73.9895 22.2486 74.8553 23.318H74.0405C73.0729 23.318 72.36 23.0125 71.9017 22.3504L67.3185 16.7997Z" fill="#111111"/>
<path d="M81.0173 19.4473H79.2859V1.16553H81.0173V19.4473Z" fill="#111111"/>
<path d="M96.1418 3.55905C95.9382 3.40628 95.7345 3.30443 95.5817 3.15166C95.4289 3.04981 95.2252 2.94797 95.0724 2.84612C94.9197 2.74427 94.665 2.69334 94.4104 2.64242C94.1558 2.59149 93.8503 2.5915 93.4938 2.5915C92.9336 2.5915 92.4244 2.69334 91.9661 2.84612C91.4568 2.99889 91.0494 3.25351 90.693 3.50813C90.3365 3.81367 90.0309 4.11922 89.8272 4.47569C89.6235 4.83216 89.5217 5.23956 89.5217 5.64695C89.5217 6.10527 89.5726 6.51266 89.7254 6.8182C89.8782 7.12375 90.0819 7.37837 90.3874 7.63299C90.693 7.88762 91.1513 8.09131 91.6605 8.29501C92.1698 8.49871 92.8318 8.70241 93.5956 8.95703C94.003 9.1098 94.4104 9.21164 94.7669 9.36442C95.1234 9.46626 95.4798 9.61904 95.7854 9.72089C96.0909 9.82274 96.3965 9.97551 96.6511 10.1283C96.9057 10.2811 97.2113 10.4338 97.4659 10.5866C98.1279 11.0449 98.5862 11.6051 98.8408 12.2671C99.0955 12.9291 99.2482 13.6421 99.2482 14.4568C99.2482 15.2716 99.0955 15.9846 98.739 16.5957C98.3825 17.2577 97.9242 17.7669 97.3131 18.2252C96.702 18.6836 96.04 18.9891 95.2252 19.2437C94.4104 19.4983 93.5956 19.6002 92.7299 19.6002C90.9985 19.6002 89.5217 19.1419 88.2995 18.1743C87.994 17.9197 87.6884 17.6142 87.4847 17.3595C87.2301 17.1049 87.0773 16.8503 86.9246 16.6466L87.1283 16.5447C87.4338 16.392 87.7393 16.2901 87.994 16.2901C88.1977 16.2901 88.4523 16.341 88.656 16.392C88.8597 16.4429 89.0634 16.5447 89.2162 16.6975C89.6235 17.0031 89.9291 17.2577 90.2856 17.4614C90.5911 17.6141 90.8967 17.7669 91.1513 17.8688C91.4059 17.9706 91.7114 18.0215 91.9661 18.0215C92.2207 18.0215 92.4753 18.0725 92.7808 18.0725C93.341 18.0725 93.9012 18.0215 94.4613 17.9197C95.0215 17.7669 95.5308 17.5632 95.9891 17.2577C96.4474 16.9521 96.8039 16.5957 97.1094 16.1373C97.415 15.679 97.5168 15.1698 97.5168 14.5078C97.5168 13.7948 97.415 13.2347 97.1603 12.8273C96.9566 12.4199 96.6002 12.0634 96.2437 11.8088C95.8363 11.5542 95.378 11.3505 94.8178 11.1468C94.2577 10.994 93.6975 10.7903 93.0864 10.5357C92.2716 10.2301 91.5587 9.97551 90.8967 9.72089C90.2346 9.46627 89.6745 9.16072 89.2162 8.85517C88.7578 8.4987 88.4014 8.09131 88.1467 7.63299C87.8921 7.12375 87.7393 6.51266 87.7393 5.69787C87.7393 4.98493 87.8921 4.32291 88.2486 3.76275C88.6051 3.20258 89.0634 2.69334 89.5726 2.28595C90.0819 1.87855 90.7439 1.57301 91.4059 1.31839C92.0679 1.11469 92.7808 0.961914 93.4938 0.961914C94.1049 0.961914 94.6141 1.01284 95.1234 1.16562C95.5817 1.31839 96.04 1.47116 96.4474 1.72578C96.8548 1.92947 97.2113 2.1841 97.5168 2.43872C97.8223 2.69334 98.1279 2.99888 98.3825 3.25351L97.9242 3.50813C97.8223 3.60998 97.6696 3.6609 97.5168 3.71183C97.364 3.76275 97.2113 3.76275 97.0076 3.76275C96.702 3.76275 96.3965 3.71183 96.1418 3.55905Z" fill="#111111"/>
<path d="M112.234 3.55905C112.03 3.40628 111.826 3.30443 111.674 3.15166C111.521 3.04981 111.317 2.94797 111.164 2.84612C110.961 2.74427 110.757 2.69334 110.502 2.64242C110.248 2.59149 109.942 2.5915 109.586 2.5915C109.026 2.5915 108.516 2.69334 108.058 2.84612C107.549 2.99889 107.141 3.25351 106.785 3.50813C106.429 3.81367 106.123 4.11922 105.919 4.47569C105.716 4.83216 105.614 5.23956 105.614 5.64695C105.614 6.10527 105.665 6.51266 105.817 6.8182C105.97 7.12375 106.174 7.37837 106.479 7.63299C106.785 7.88762 107.243 8.09131 107.753 8.29501C108.262 8.49871 108.924 8.70241 109.688 8.95703C110.095 9.1098 110.502 9.21164 110.859 9.36442C111.215 9.46626 111.572 9.61904 111.877 9.72089C112.183 9.82274 112.489 9.97551 112.743 10.1283C112.998 10.2811 113.303 10.4338 113.558 10.5866C114.22 11.0449 114.678 11.6051 114.933 12.2671C115.187 12.9291 115.34 13.6421 115.34 14.4568C115.34 15.2716 115.187 15.9846 114.831 16.5957C114.475 17.2577 114.016 17.7669 113.405 18.2252C112.794 18.6836 112.132 18.9891 111.317 19.2437C110.502 19.4983 109.688 19.6002 108.822 19.6002C107.091 19.6002 105.614 19.1419 104.392 18.1743C104.086 17.9197 103.78 17.6142 103.577 17.3595C103.373 17.1049 103.169 16.8503 103.017 16.6466L103.22 16.5447C103.526 16.392 103.831 16.2901 104.086 16.2901C104.29 16.2901 104.544 16.341 104.748 16.392C104.952 16.4429 105.155 16.5447 105.308 16.6975C105.716 17.0031 106.021 17.2577 106.378 17.4614C106.683 17.6141 106.989 17.7669 107.243 17.8688C107.498 17.9706 107.803 18.0215 108.058 18.0215C108.313 18.0215 108.567 18.0725 108.873 18.0725C109.433 18.0725 109.993 18.0215 110.553 17.9197C111.114 17.7669 111.623 17.5632 112.081 17.2577C112.539 16.9521 112.896 16.5957 113.201 16.1373C113.507 15.679 113.609 15.1698 113.609 14.5078C113.609 13.7948 113.507 13.2347 113.252 12.8273C113.049 12.4199 112.692 12.0634 112.336 11.8088C111.928 11.5542 111.47 11.3505 110.91 11.1468C110.35 10.994 109.79 10.7903 109.178 10.5357C108.364 10.2301 107.651 9.97551 106.989 9.72089C106.327 9.46627 105.767 9.16072 105.308 8.85517C104.85 8.4987 104.493 8.09131 104.239 7.63299C103.984 7.12375 103.831 6.51266 103.831 5.69787C103.831 4.98493 103.984 4.32291 104.341 3.76275C104.697 3.20258 105.155 2.69334 105.665 2.28595C106.225 1.87855 106.836 1.57301 107.498 1.31839C108.16 1.11469 108.873 0.961914 109.586 0.961914C110.197 0.961914 110.706 1.01284 111.215 1.16562C111.674 1.31839 112.132 1.47116 112.539 1.72578C112.947 1.92947 113.303 2.1841 113.609 2.43872C113.914 2.69334 114.22 2.99888 114.475 3.25351L114.016 3.50813C113.914 3.60998 113.762 3.6609 113.609 3.71183C113.456 3.76275 113.303 3.76275 113.1 3.76275C112.794 3.76275 112.489 3.71183 112.234 3.55905Z" fill="#111111"/>
<path d="M118.651 2.74432V1.11475H133.623V2.74432H127.002V19.3966H125.271V2.74432H118.651Z" fill="#111111"/>
<path d="M138.46 19.4473L142.687 1.16553H148.951C151.039 1.16553 152.617 1.62385 153.788 2.59141C154.96 3.55897 155.52 4.83207 155.571 6.46165C155.571 7.73475 155.265 8.85509 154.654 9.87357C154.043 10.8921 153.126 11.6559 152.006 12.2161C150.886 12.7763 149.511 13.0818 147.932 13.0818H142.025L142.687 10.0773H148.034C148.849 10.0773 149.562 9.9245 150.122 9.61895C150.682 9.31341 151.089 8.90601 151.344 8.34584C151.599 7.8366 151.751 7.27644 151.701 6.66535C151.701 5.95241 151.395 5.34132 150.937 4.883C150.427 4.42468 149.664 4.22098 148.594 4.22098H145.844L142.28 19.4983H138.46V19.4473Z" fill="#111111"/>
<path d="M154.042 19.4473L164.838 1.16553H169.473L171.764 19.4473H168.098L166.824 7.32736L166.57 4.37376H166.519L164.991 7.27644L158.116 19.4473H154.042ZM159.084 14.8132L159.746 12.0124H169.676L169.014 14.8132H159.084Z" fill="#111111"/>
<path d="M178.537 19.4473L180.167 12.5216L176.5 1.16553H180.269L181.949 6.66535L182.713 9.61895L184.699 6.61442L188.773 1.16553H193L183.986 12.7763L182.459 19.4473H178.537Z" fill="#111111"/>
<path d="M50.4941 41.1096C52.7344 32.2256 60.7249 26 69.887 26H193L190.506 35.8904C188.266 44.7744 180.275 51 171.113 51H48L50.4941 41.1096Z" fill="#E72E80"/>
<path d="M68.7044 44.083H71.0294V35.668H74.2244V33.583C71.1494 33.583 68.5694 33.583 65.5094 33.583V35.668H68.7044V44.083ZM83.6479 41.923H77.9479V39.808H83.1229V37.753H77.9479V35.728H83.4379V33.583H75.6529C75.6529 37.078 75.6529 40.588 75.6529 44.083H83.6479V41.923ZM85.0467 35.593H89.9217L84.7917 42.868V44.083H93.1917V41.893H88.0317L93.0717 34.603V33.583H85.0467V35.593Z" fill="white"/>
<path d="M106.405 41.983C105.565 42.823 104.38 43.273 103.255 43.273C100.33 43.273 98.845 41.338 98.845 38.878C98.845 36.553 100.33 34.393 103.255 34.393C104.38 34.393 105.475 34.813 106.33 35.653L106.975 35.008C106.06 33.928 104.65 33.433 103.255 33.433C99.61 33.433 97.78 36.028 97.795 38.893C97.81 41.818 99.625 44.248 103.255 44.248C104.665 44.248 106.015 43.723 107.08 42.658L106.405 41.983ZM117.55 44.083V33.583H116.5V38.443H110.14V33.583H109.09V44.083H110.14V39.433H116.5V44.083H117.55ZM127.987 43.093H121.507V39.313H127.567V38.338H121.507V34.573H127.852V33.583H120.457C120.457 37.078 120.457 40.588 120.457 44.083H127.987V43.093ZM138.104 41.983C137.264 42.823 136.079 43.273 134.954 43.273C132.029 43.273 130.544 41.338 130.544 38.878C130.544 36.553 132.029 34.393 134.954 34.393C136.079 34.393 137.174 34.813 138.029 35.653L138.674 35.008C137.759 33.928 136.349 33.433 134.954 33.433C131.309 33.433 129.479 36.028 129.494 38.893C129.509 41.818 131.324 44.248 134.954 44.248C136.364 44.248 137.714 43.723 138.779 42.658L138.104 41.983ZM147.959 33.583H146.714L141.839 38.308V33.583H140.789V44.083H141.839V38.998L147.104 44.083H148.409V44.008L142.844 38.623L147.959 33.658V33.583ZM153.862 33.403C150.457 33.403 148.537 35.893 148.537 38.848C148.537 41.608 150.292 44.278 153.862 44.278C157.417 44.278 159.157 41.608 159.172 38.863C159.187 36.058 157.417 33.418 153.862 33.403ZM149.587 38.863C149.557 36.388 151.042 34.393 153.862 34.393C156.727 34.408 158.122 36.508 158.122 38.863C158.107 41.113 156.727 43.288 153.862 43.288C150.997 43.288 149.617 41.158 149.587 38.863ZM168.584 33.583V39.988C168.584 42.178 167.084 43.213 165.494 43.213C163.709 43.213 162.344 41.983 162.344 39.988V33.583H161.294V39.988C161.294 42.823 163.214 44.188 165.494 44.188C167.774 44.188 169.634 42.823 169.634 39.988V33.583H168.584ZM174.92 44.083H175.97V34.573H179.675V33.583C176.705 33.583 174.185 33.583 171.215 33.583V34.573H174.92V44.083Z" fill="white"/>
<circle cx="25" cy="26" r="25" fill="#111111"/>
<path d="M19.7112 36.6382V36.6989C19.7112 36.6989 19.7416 36.6989 19.7416 36.7293V36.6686C19.7416 36.6382 19.7112 36.6382 19.7112 36.6382Z" fill="#E72E80"/>
<path d="M25.0304 17.3867C20.2855 17.3867 16.417 21.2552 16.417 26.0001C16.417 26.1815 16.417 26.5743 16.417 26.5743V39.0562C16.4472 39.0864 16.5077 39.1167 16.5379 39.1469C17.2934 39.6304 18.1094 40.0536 18.9557 40.4162C19.2277 40.5371 19.4997 40.6278 19.7717 40.7184H19.8019V40.658L19.7717 36.6686C19.7717 36.6686 19.7415 36.6686 19.7415 36.6384V36.578C19.7415 36.578 19.7717 36.578 19.7717 36.6082L19.7415 32.7397C21.1921 33.8882 23.0357 34.5531 25.0304 34.5531C29.7753 34.5531 33.6438 30.6846 33.6438 25.9397C33.6438 21.1947 29.7753 17.3867 25.0304 17.3867ZM25.0304 31.3193C22.0988 31.3193 19.7112 28.9317 19.7112 26.0001C19.7112 23.0685 22.0988 20.681 25.0304 20.681C27.962 20.681 30.3495 23.0685 30.3495 26.0001C30.3193 28.9317 27.962 31.3193 25.0304 31.3193Z" fill="#E72E80"/>
<path d="M35.1847 37.8774H40.655V41.625H25.03C24.6371 41.625 24.2744 41.625 23.8815 41.5948C23.7002 41.5948 23.5189 41.5646 23.3677 41.5343H23.3375C22.1286 41.4134 20.95 41.1414 19.8015 40.7183V40.6579L19.7713 36.6685V36.6081C21.3731 37.3939 23.1562 37.8472 25.03 37.8472C31.5883 37.8472 36.9074 32.528 36.9074 25.9698C36.9074 19.4115 31.558 14.1226 25.03 14.1226C18.5019 14.1226 13.1223 19.4417 13.1223 26C13.1223 29.1734 14.3615 32.0445 16.3864 34.1903V39.0561C15.5099 38.4819 14.6939 37.817 13.9383 37.0614C12.4877 35.641 11.3694 33.9485 10.5837 32.1049C9.79787 30.1707 9.37476 28.1156 9.37476 26C9.37476 23.8844 9.79787 21.8293 10.6139 19.9253C11.3997 18.0515 12.5179 16.3893 13.9686 14.9688C15.389 13.5181 17.0815 12.3999 18.925 11.6141C20.8593 10.7981 22.9144 10.375 24.9998 10.375C27.1153 10.375 29.1705 10.7981 31.0745 11.6141C32.9483 12.3999 34.6105 13.5181 36.0309 14.9688C37.4816 16.3893 38.5999 18.0817 39.3856 19.9253C40.2016 21.8595 40.6248 23.9147 40.6248 26C40.6248 28.0854 40.2016 30.1707 39.3856 32.0747C38.5999 33.9485 37.4816 35.6107 36.0309 37.0312C35.7892 37.3334 35.4869 37.6054 35.1847 37.8774Z" fill="#FCEBF3"/>
</svg>
