<svg width="22" height="30" viewBox="0 0 22 30" fill="none" xmlns="http://www.w3.org/2000/svg">
<path fill-rule="evenodd" clip-rule="evenodd" d="M3.5126 7.75703e-06H13.7783C14.7099 7.75703e-06 15.6033 0.365318 16.2621 1.01557C16.9208 1.66583 17.2909 2.54777 17.2909 3.46737V6.70764H16.3385V3.77748H0.947412V25.1848H16.3385V22.953H17.2909V26.5326C17.2909 26.988 17.2 27.4389 17.0235 27.8595C16.847 28.2802 16.5882 28.6625 16.2621 28.9844C15.9359 29.3064 15.5487 29.5618 15.1225 29.7361C14.6963 29.9103 14.2396 30 13.7783 30H3.5126C2.58186 30 1.68916 29.6354 1.03056 28.9862C0.371966 28.337 0.00131178 27.4563 8.78486e-07 26.5375V3.46248C-0.000325589 3.00728 0.0903437 2.55649 0.266813 2.13594C0.443283 1.71539 0.702085 1.33335 1.02839 1.0117C1.35469 0.690049 1.74209 0.435118 2.16837 0.261514C2.59466 0.08791 3.05146 -0.000956085 3.5126 7.75703e-06ZM17.8598 12.9074H21.0261C21.2553 12.9087 21.4748 12.9991 21.6369 13.1591C21.799 13.3191 21.8906 13.5357 21.8919 13.762V17.2684C21.8912 17.4949 21.7998 17.7119 21.6376 17.872C21.4754 18.0322 21.2555 18.1224 21.0261 18.1231H17.8524C17.1523 18.1211 16.4815 17.8458 15.9865 17.3571C15.4915 16.8685 15.2125 16.2063 15.2105 15.5152C15.2131 14.8244 15.4923 14.1626 15.9872 13.674C16.4821 13.1855 17.1525 12.91 17.8524 12.9074H17.8598ZM18.8715 9.38874C19.0115 9.41157 19.1385 9.48333 19.2293 9.59092C19.3202 9.69851 19.3688 9.83475 19.3663 9.97477V10.0114C19.3119 10.0114 19.2574 10.0114 19.2005 10.0114H10.6194C10.5682 10.0114 10.5192 10.0315 10.483 10.0672C10.4468 10.1029 10.4265 10.1513 10.4265 10.2019V10.9881H19.0472C19.2377 10.9881 19.4204 11.0626 19.5553 11.1954C19.6902 11.3281 19.7664 11.5082 19.767 11.6962V12.3213H20.7392V11.5156C20.7369 11.2645 20.6715 11.018 20.5489 10.7981C20.4262 10.5782 20.2502 10.3918 20.0366 10.2556V10.0114C20.0375 9.605 19.8783 9.2142 19.5925 8.92164C19.3067 8.62908 18.9169 8.45771 18.5054 8.44376H9.08081C8.7125 8.44505 8.35966 8.59004 8.09923 8.84712C7.8388 9.1042 7.69191 9.4525 7.69061 9.81606V19.8519C7.69256 20.2144 7.83948 20.5614 8.09937 20.8175C8.35927 21.0736 8.71111 21.218 9.07833 21.2193H19.3465C20.0416 21.2193 20.7491 20.6943 20.7515 20.0399V18.7482H19.7621V19.6687C19.7588 19.7994 19.704 19.9236 19.6092 20.0148C19.5145 20.1061 19.3873 20.1571 19.255 20.1571H9.20944C9.07823 20.1571 8.95239 20.1056 8.85961 20.0141C8.76683 19.9225 8.7147 19.7983 8.7147 19.6687V9.90152C8.7147 9.772 8.76683 9.64778 8.85961 9.5562C8.95239 9.46461 9.07823 9.41316 9.20944 9.41316L18.8715 9.38874ZM17.986 13.8646H20.7515V17.1708H17.986C17.5422 17.1695 17.117 16.9949 16.8033 16.6852C16.4895 16.3754 16.3126 15.9557 16.3113 15.5177C16.3126 15.0796 16.4895 14.6599 16.8033 14.3502C17.117 14.0404 17.5422 13.8659 17.986 13.8646ZM18.7528 14.9683C18.8658 14.9683 18.9763 15.0013 19.0703 15.0633C19.1642 15.1253 19.2375 15.2134 19.2807 15.3165C19.324 15.4195 19.3353 15.5329 19.3132 15.6424C19.2912 15.7518 19.2368 15.8523 19.1569 15.9312C19.077 16.01 18.9751 16.0638 18.8643 16.0855C18.7534 16.1073 18.6386 16.0961 18.5341 16.0534C18.4297 16.0107 18.3405 15.9384 18.2777 15.8457C18.2149 15.7529 18.1814 15.6439 18.1814 15.5323C18.1814 15.3827 18.2416 15.2392 18.3488 15.1335C18.4559 15.0277 18.6013 14.9683 18.7528 14.9683ZM8.64049 26.2738C8.92621 26.2738 9.20551 26.3574 9.44308 26.5141C9.68065 26.6708 9.86581 26.8935 9.97515 27.1541C10.0845 27.4147 10.1131 27.7014 10.0574 27.978C10.0016 28.2546 9.86403 28.5087 9.66199 28.7082C9.45996 28.9076 9.20255 29.0434 8.92233 29.0984C8.6421 29.1535 8.35163 29.1252 8.08766 29.0173C7.82369 28.9094 7.59808 28.7266 7.43934 28.4921C7.2806 28.2576 7.19588 27.9819 7.19588 27.6998C7.19555 27.5125 7.23269 27.3269 7.30518 27.1537C7.37766 26.9806 7.48406 26.8232 7.61827 26.6908C7.75248 26.5583 7.91186 26.4533 8.08728 26.3817C8.26269 26.3102 8.45069 26.2735 8.64049 26.2738Z" fill="#4B5563"/>
</svg>
