<svg width="220" height="42" viewBox="0 0 220 42" fill="none" xmlns="http://www.w3.org/2000/svg">
<path d="M54.2925 13.3171V28.683H51.898V15.7098H49.1705V13.3171H54.2925Z" fill="#010101"/>
<path d="M57.3661 21.5122H63.5124V23.561H57.3661V21.5122Z" fill="#010101"/>
<path d="M68.6125 27.9676C67.6787 27.5086 66.9007 26.8103 66.3676 25.9527C65.8388 25.0646 65.561 24.0627 65.561 23.0436C65.561 22.0246 65.8388 21.0227 66.3676 20.1346C66.9021 19.2861 67.6755 18.5945 68.6016 18.1369C69.6073 17.6441 70.7273 17.3963 71.86 17.416C72.9087 17.3939 73.9465 17.6205 74.8786 18.0751C75.7233 18.4943 76.406 19.1551 76.8293 19.963L74.737 21.1163C74.4342 20.6368 74.0016 20.2422 73.4837 19.9733C72.8119 19.647 72.0496 19.5254 71.3016 19.6249C70.5537 19.7245 69.8566 20.0404 69.3063 20.5293C68.6379 21.154 68.3037 21.9881 68.3037 23.0316C68.3037 24.0751 68.6343 24.9092 69.2954 25.5339C69.847 26.0209 70.5438 26.3355 71.2913 26.435C72.0387 26.5344 72.8004 26.414 73.4729 26.09C73.9907 25.821 74.4233 25.4265 74.7261 24.947L76.8293 26.114C76.3914 26.9216 75.7033 27.5837 74.8569 28.0122C73.9341 28.4718 72.9028 28.7022 71.86 28.6816C70.7317 28.701 69.6159 28.4557 68.6125 27.9676V27.9676Z" fill="#010101"/>
<path d="M78.8778 12.2927H81.951V28.683H78.8778V12.2927Z" fill="#010101"/>
<path d="M85.4659 15.0216C85.3264 14.8753 85.2154 14.6992 85.1395 14.5039C85.0636 14.3086 85.0244 14.0983 85.0244 13.8858C85.0244 13.6733 85.0636 13.463 85.1395 13.2677C85.2154 13.0724 85.3264 12.8963 85.4659 12.75C85.7624 12.4447 86.1556 12.2807 86.5606 12.2935C86.9623 12.2799 87.3536 12.4355 87.6554 12.7288C87.7974 12.8637 87.9107 13.0317 87.9871 13.2207C88.0634 13.4097 88.101 13.6151 88.0971 13.8221C88.1022 14.0408 88.0664 14.2582 87.9921 14.461C87.9177 14.6637 87.8064 14.8473 87.665 15.0003C87.5201 15.159 87.3474 15.2833 87.1575 15.3654C86.9676 15.4476 86.7645 15.4859 86.5606 15.478C86.1556 15.4908 85.7624 15.3269 85.4659 15.0216ZM85.3507 17.3427H87.7514V28.683H85.3507V17.3427Z" fill="#010101"/>
<path d="M93.1976 27.9676C92.2638 27.5086 91.4858 26.8103 90.9527 25.9527C90.4239 25.0646 90.1461 24.0627 90.1461 23.0436C90.1461 22.0246 90.4239 21.0227 90.9527 20.1346C91.4872 19.2861 92.2606 18.5945 93.1867 18.1369C94.1924 17.6441 95.3124 17.3963 96.4451 17.416C97.4938 17.3939 98.5316 17.6205 99.4637 18.0751C100.308 18.4943 100.991 19.1551 101.414 19.963L99.3275 21.13C99.0247 20.6505 98.5921 20.256 98.0743 19.987C97.4024 19.6608 96.6402 19.5391 95.8922 19.6387C95.1442 19.7382 94.4472 20.0541 93.8968 20.5431C93.2284 21.1678 92.8943 22.0019 92.8943 23.0454C92.8943 24.0889 93.2224 24.923 93.8787 25.5477C94.4302 26.0346 95.1271 26.3492 95.8745 26.4487C96.6219 26.5482 97.3837 26.4277 98.0561 26.1037C98.574 25.8348 99.0066 25.4402 99.3094 24.9607L101.402 26.114C100.967 26.9198 100.284 27.5818 99.4419 28.0122C98.5192 28.4718 97.4879 28.7022 96.4451 28.6816C95.3168 28.701 94.2009 28.4557 93.1976 27.9676V27.9676Z" fill="#010101"/>
<path d="M107.888 23.6223L106.001 25.567V28.683H103.463V12.2927H106.001V22.1932L111.261 16.8783H114.305L109.779 21.8322L114.732 28.683H111.646L107.888 23.6223Z" fill="#010101"/>
<path d="M124.726 27.9692C123.857 27.5025 123.139 26.8054 122.654 25.9575C122.146 25.0669 121.887 24.0604 121.903 23.0399C121.886 22.0227 122.146 21.0193 122.654 20.1329C123.142 19.2895 123.859 18.5964 124.726 18.1317C125.645 17.6446 126.677 17.3979 127.721 17.4154C128.623 17.3999 129.517 17.591 130.33 17.9737C131.083 18.3347 131.714 18.9017 132.146 19.6062L131.003 20.3646C130.651 19.8375 130.161 19.413 129.584 19.1358C129.002 18.8598 128.363 18.7192 127.716 18.725C126.947 18.7134 126.189 18.8985 125.515 19.2622C124.868 19.6165 124.338 20.1468 123.991 20.7894C123.631 21.4901 123.443 22.264 123.443 23.0487C123.443 23.8334 123.631 24.6072 123.991 25.308C124.341 25.9461 124.87 26.4724 125.515 26.8247C126.189 27.1883 126.947 27.3735 127.716 27.3618C128.361 27.3679 129 27.2311 129.584 26.9616C130.163 26.6878 130.654 26.2626 131.003 25.7328L132.141 26.4911C131.707 27.1977 131.073 27.765 130.316 28.1237C129.505 28.5041 128.615 28.6952 127.716 28.6819C126.674 28.6997 125.644 28.4542 124.726 27.9692V27.9692Z" fill="#E71583"/>
<path d="M143.204 18.2411C144.027 19.0882 144.439 20.3221 144.439 21.9427V28.683H142.936V22.0974C142.936 20.8893 142.646 19.9685 142.068 19.335C141.489 18.7015 140.666 18.3847 139.598 18.3847C138.398 18.3847 137.449 18.7567 136.75 19.5008C136.051 20.2448 135.701 21.2736 135.698 22.5873V28.683H134.195V12.2927H135.698V19.1066C136.11 18.4271 136.697 17.8831 137.392 17.5376C138.164 17.158 139.009 16.9689 139.862 16.9851C141.264 16.9753 142.378 17.394 143.204 18.2411Z" fill="#E71583"/>
<path d="M158.761 23.5012H149.076C149.1 24.0315 149.235 24.5517 149.473 25.0311C149.711 25.5104 150.048 25.939 150.463 26.2915C151.299 27.0004 152.356 27.3549 153.632 27.3549C154.312 27.3623 154.986 27.2369 155.613 26.9864C156.213 26.7421 156.747 26.3714 157.176 25.9019L158.057 26.8706C157.539 27.4633 156.878 27.926 156.131 28.2183C155.324 28.5339 154.46 28.6914 153.588 28.6816C152.488 28.7025 151.4 28.4523 150.43 27.9551C149.532 27.4893 148.789 26.7927 148.284 25.944C147.762 25.0578 147.496 24.0548 147.513 23.0379C147.495 22.0252 147.747 21.0247 148.247 20.1318C148.713 19.2993 149.412 18.6068 150.265 18.1312C151.145 17.6484 152.145 17.401 153.159 17.4152C154.17 17.4002 155.167 17.6476 156.043 18.1312C156.89 18.6046 157.583 19.2934 158.046 20.1212C158.546 21.0178 158.799 22.0218 158.779 23.0379L158.761 23.5012ZM150.364 19.7211C149.6 20.4222 149.141 21.3738 149.08 22.3851H157.29C157.229 21.3738 156.77 20.4222 156.006 19.7211C155.229 19.0631 154.227 18.6998 153.189 18.6998C152.151 18.6998 151.148 19.0631 150.371 19.7211H150.364Z" fill="#E71583"/>
<path d="M163.653 27.9659C162.784 27.4998 162.067 26.8027 161.583 25.9547C161.074 25.0649 160.814 24.0585 160.83 23.0381C160.813 22.0209 161.073 21.0177 161.583 20.132C162.069 19.2885 162.787 18.5955 163.653 18.1314C164.572 17.6445 165.603 17.3979 166.646 17.4154C167.548 17.3999 168.44 17.591 169.253 17.9735C170.009 18.3338 170.641 18.9021 171.073 19.609L169.936 20.3672C169.586 19.8399 169.096 19.4154 168.52 19.1387C167.938 18.8628 167.3 18.7223 166.654 18.7281C165.885 18.7164 165.127 18.9015 164.454 19.2651C163.807 19.6188 163.278 20.1491 162.931 20.7918C162.571 21.4923 162.384 22.2659 162.384 23.0504C162.384 23.8349 162.571 24.6084 162.931 25.3089C163.28 25.9472 163.809 26.4735 164.454 26.8252C165.127 27.1887 165.885 27.3738 166.654 27.3622C167.299 27.3682 167.937 27.2314 168.52 26.9621C169.099 26.6887 169.589 26.2636 169.936 25.7336L171.073 26.4917C170.64 27.1984 170.007 27.7657 169.25 28.1238C168.44 28.504 167.551 28.695 166.654 28.6819C165.607 28.7006 164.574 28.454 163.653 27.9659Z" fill="#E71583"/>
<path d="M177.163 22.8488L174.593 25.3681V28.683H173.122V12.2927H174.593V23.4086L181.1 17.0625H182.924L178.261 21.8138L183.366 28.683H181.563L177.163 22.8488Z" fill="#E71583"/>
<path d="M187.15 27.9529C186.304 27.4805 185.604 26.7849 185.127 25.9421C184.643 25.0499 184.39 24.0512 184.39 23.0364C184.39 22.0216 184.643 21.0229 185.127 20.1308C185.603 19.2894 186.303 18.5968 187.15 18.1305C188.039 17.6603 189.029 17.4146 190.035 17.4146C191.04 17.4146 192.03 17.6603 192.919 18.1305C193.765 18.5966 194.462 19.2909 194.932 20.1343C195.409 21.0285 195.658 22.0264 195.658 23.0399C195.658 24.0534 195.409 25.0513 194.932 25.9456C194.46 26.7889 193.764 27.485 192.921 27.9564C192.034 28.4333 191.043 28.6828 190.036 28.6828C189.03 28.6828 188.038 28.4333 187.152 27.9564L187.15 27.9529ZM192.151 26.8159C192.775 26.4583 193.283 25.9283 193.614 25.2894C193.96 24.5887 194.14 23.8178 194.14 23.0364C194.14 22.255 193.96 21.4841 193.614 20.7835C193.283 20.1445 192.775 19.6145 192.151 19.257C191.501 18.9047 190.774 18.7202 190.035 18.7202C189.296 18.7202 188.568 18.9047 187.919 19.257C187.293 19.6161 186.782 20.1454 186.445 20.7835C186.092 21.482 185.908 22.2537 185.908 23.0364C185.908 23.8191 186.092 24.5908 186.445 25.2894C186.782 25.9274 187.293 26.4568 187.919 26.8159C188.568 27.1682 189.296 27.3527 190.035 27.3527C190.774 27.3527 191.501 27.1682 192.151 26.8159V26.8159Z" fill="#E71583"/>
<path d="M208.976 17.4146V28.5758H207.52V26.5382C207.131 27.2077 206.56 27.7556 205.873 28.1195C205.135 28.504 204.312 28.6974 203.479 28.682C202.01 28.682 200.852 28.2751 200.004 27.4615C199.156 26.6478 198.732 25.4556 198.732 23.8849V17.4146H200.25V23.7399C200.25 24.9191 200.542 25.8106 201.126 26.4143C201.711 27.0181 202.542 27.3223 203.621 27.3271C204.809 27.3271 205.743 26.9698 206.422 26.2551C207.102 25.5405 207.444 24.5465 207.45 23.2729V17.4146H208.976Z" fill="#E71583"/>
<path d="M219.22 27.9201C218.892 28.1794 218.507 28.3727 218.09 28.4871C217.636 28.6184 217.162 28.6845 216.686 28.683C215.559 28.683 214.692 28.4081 214.083 27.8582C213.475 27.3084 213.17 26.5317 213.17 25.5282V18.971H211.024V17.7373H213.17V15.366H214.791V17.7373H218.443V18.9745H214.791V25.4491C214.791 26.0952 214.97 26.5867 215.327 26.9234C215.685 27.2602 216.199 27.4286 216.868 27.4286C217.198 27.4294 217.526 27.3806 217.838 27.2843C218.136 27.1956 218.411 27.0555 218.649 26.8719L219.22 27.9201Z" fill="#E71583"/>
<path d="M22.046 0H19.954C8.93373 0 0 8.93373 0 19.954V22.046C0 33.0663 8.93373 42 19.954 42H22.046C33.0663 42 42 33.0663 42 22.046V19.954C42 8.93373 33.0663 0 22.046 0Z" fill="#131313"/>
<path d="M20.9977 13.3171C18.9614 13.3195 17.0093 14.1167 15.5694 15.5339C14.1296 16.9512 13.3196 18.8727 13.3173 20.877V32.3427C13.3515 32.3675 13.3876 32.3888 13.4236 32.4119C14.1039 32.8449 14.8212 33.219 15.5673 33.5299C15.8053 33.6293 16.0433 33.7215 16.2885 33.8049H16.3119V33.7624L16.2939 30.2824L16.2578 30.2646V30.2167L16.2957 30.2344L16.2813 26.8449C17.246 27.585 18.3763 28.0877 19.5782 28.3109C20.7802 28.5342 22.0189 28.4717 23.1913 28.1287C24.3637 27.7856 25.4359 27.1719 26.3187 26.3386C27.2015 25.5053 27.8694 24.4765 28.2667 23.3378C28.664 22.1992 28.7792 20.9836 28.6029 19.7923C28.4265 18.6009 27.9636 17.4683 27.2527 16.4885C26.5419 15.5088 25.6035 14.7104 24.5159 14.1597C23.4282 13.609 22.2226 13.322 20.9995 13.3225L20.9977 13.3171ZM20.9977 25.5442C20.0599 25.5442 19.1431 25.2704 18.3634 24.7576C17.5836 24.2448 16.9758 23.5158 16.617 22.663C16.2581 21.8102 16.1642 20.8718 16.3471 19.9664C16.5301 19.0611 16.9817 18.2295 17.6448 17.5767C18.3079 16.924 19.1528 16.4795 20.0726 16.2994C20.9924 16.1193 21.9458 16.2118 22.8122 16.565C23.6787 16.9183 24.4192 17.5165 24.9402 18.284C25.4613 19.0515 25.7394 19.9539 25.7394 20.877C25.7379 22.1143 25.2379 23.3006 24.349 24.1756C23.46 25.0506 22.2548 25.5428 20.9977 25.5442Z" fill="#E63081"/>
<path d="M29.975 31.5132H34.8134V34.8292H20.9931C20.6519 34.8292 20.3126 34.8167 19.9768 34.7935C19.8214 34.781 19.6678 34.7685 19.5125 34.7506H19.4767C18.4092 34.6366 17.3589 34.3969 16.3476 34.0363V33.9935L16.3333 30.4757V30.4275C18.6935 31.6001 21.4074 31.8459 23.9399 31.1164C26.4724 30.3869 28.6396 28.7351 30.014 26.4868C31.3884 24.2385 31.8702 21.5568 31.3644 18.9708C30.8587 16.3848 29.402 14.0821 27.2818 12.517C25.1616 10.9519 22.5317 10.2379 19.9109 10.5159C17.2901 10.7939 14.8687 12.0437 13.1241 14.0187C11.3796 15.9938 10.4386 18.5508 10.4868 21.1854C10.5351 23.8199 11.5689 26.3408 13.3846 28.2507V32.5542C11.1084 31.0483 9.32766 28.9039 8.2658 26.39C7.28701 24.0797 6.95543 21.5467 7.30662 19.0623C7.65781 16.578 8.67851 14.236 10.2594 12.2874C11.8402 10.3387 13.9216 8.8569 16.2804 8.00067C18.6393 7.14444 21.1868 6.9461 23.6498 7.42688C26.1128 7.90766 28.3985 9.04944 30.262 10.7299C32.1256 12.4103 33.4966 14.5661 34.2283 16.9661C34.9599 19.3661 35.0246 21.92 34.4153 24.3539C33.8061 26.7879 32.5459 29.0103 30.7698 30.7828C30.5109 31.0382 30.2465 31.281 29.975 31.5132Z" fill="#FDECF3"/>
</svg>
