<svg width="221" height="24" viewBox="0 0 221 24" fill="none" xmlns="http://www.w3.org/2000/svg">
<path d="M35.8257 14.879C36.1717 14.6771 36.4601 14.4464 36.7485 14.1869C37.0081 13.9273 37.2388 13.6389 37.4406 13.3217C37.6425 13.0045 37.7867 12.6584 37.8732 12.3123C37.9886 11.9663 38.0463 11.5914 38.0463 11.1876C38.0463 10.582 37.9309 10.0052 37.6713 9.48613C37.4118 8.96703 37.0657 8.47678 36.6332 8.10187C36.2006 7.69813 35.6815 7.3809 35.1047 7.15019C34.5279 6.91948 33.8935 6.80413 33.2302 6.80413C32.7976 6.80413 32.365 6.8618 31.9613 6.94832C31.5575 7.06368 31.1538 7.20787 30.8077 7.3809C30.4617 7.58277 30.1156 7.81348 29.8272 8.07303C29.5388 8.33258 29.2793 8.62097 29.0774 8.96703C28.8755 9.28426 28.7025 9.63033 28.5871 10.0052C28.4718 10.3801 28.4141 10.755 28.4141 11.1588C28.4141 11.5625 28.4718 11.9374 28.5871 12.3123C28.7025 12.6872 28.8755 13.0333 29.0774 13.3505C29.2793 13.6677 29.5388 13.985 29.8272 14.2445C30.1156 14.5041 30.4328 14.7348 30.8077 14.9367C31.1538 15.1385 31.5575 15.2827 31.9613 15.3692C32.365 15.4846 32.7976 15.5134 33.2302 15.5134C33.5762 15.5134 33.8935 15.4846 34.2395 15.4269C34.5568 15.3692 34.874 15.2827 35.1624 15.1674L35.768 15.9172C35.3931 16.0902 34.9893 16.2056 34.5568 16.2921C34.1242 16.3786 33.6916 16.4363 33.2302 16.4363C32.4227 16.4363 31.6729 16.2921 30.9808 16.0325C30.2886 15.7441 29.6542 15.3692 29.1351 14.9078C28.616 14.4176 28.1834 13.8696 27.895 13.2352C27.5778 12.6007 27.4336 11.9086 27.4336 11.1876C27.4336 10.4666 27.5778 9.77452 27.895 9.14007C28.2122 8.50562 28.616 7.92884 29.1351 7.46742C29.6542 6.97716 30.2886 6.60225 30.9808 6.34271C31.6729 6.05432 32.4515 5.93896 33.2302 5.93896C34.0377 5.93896 34.7875 6.08316 35.5084 6.34271C36.2294 6.63109 36.835 7.006 37.3541 7.46742C37.8732 7.95768 38.3058 8.50562 38.5942 9.14007C38.9114 9.77452 39.0556 10.4666 39.0556 11.1876C39.0556 11.5625 39.0268 11.9374 38.9403 12.2835C38.8537 12.6296 38.7384 12.9756 38.5653 13.3217C38.3923 13.6389 38.2193 13.9561 37.9886 14.2445C37.7579 14.5329 37.4983 14.7925 37.2099 15.052C37.7002 15.6288 38.1616 16.2056 38.6519 16.7823C39.1421 17.3591 39.6035 17.9647 40.0938 18.5703H39.6324C39.0844 18.5703 38.6807 18.3973 38.4212 18.0224L35.8257 14.879Z" fill="#111111"/>
<path d="M43.5831 16.377H42.6025V6.02393H43.5831V16.377Z" fill="#111111"/>
<path d="M52.1485 7.37947C52.0332 7.29295 51.9178 7.23527 51.8313 7.14876C51.7448 7.09108 51.6294 7.03341 51.5429 6.97573C51.4564 6.91805 51.3122 6.88921 51.168 6.86037C51.0238 6.83153 50.8508 6.83153 50.6489 6.83153C50.3317 6.83153 50.0433 6.88921 49.7837 6.97573C49.4954 7.06224 49.2646 7.20644 49.0628 7.35063C48.8609 7.52366 48.6879 7.6967 48.5725 7.89857C48.4572 8.10044 48.3995 8.33115 48.3995 8.56186C48.3995 8.82141 48.4283 9.05212 48.5148 9.22515C48.6014 9.39818 48.7167 9.54238 48.8897 9.68657C49.0628 9.83076 49.3223 9.94612 49.6107 10.0615C49.8991 10.1768 50.274 10.2922 50.7066 10.4364C50.9373 10.5229 51.168 10.5806 51.3699 10.6671C51.5717 10.7248 51.7736 10.8113 51.9467 10.869C52.1197 10.9266 52.2927 11.0132 52.4369 11.0997C52.5811 11.1862 52.7541 11.2727 52.8983 11.3592C53.2732 11.6188 53.5328 11.936 53.677 12.3109C53.8212 12.6858 53.9077 13.0895 53.9077 13.551C53.9077 14.0124 53.8212 14.4161 53.6193 14.7622C53.4174 15.1371 53.1579 15.4255 52.8118 15.685C52.4657 15.9446 52.0908 16.1176 51.6294 16.2618C51.168 16.406 50.7066 16.4637 50.2163 16.4637C49.2358 16.4637 48.3995 16.2041 47.7074 15.6562C47.5343 15.512 47.3613 15.339 47.2459 15.1948C47.1017 15.0506 47.0152 14.9064 46.9287 14.791L47.0441 14.7334C47.2171 14.6468 47.3901 14.5892 47.5343 14.5892C47.6497 14.5892 47.7939 14.618 47.9092 14.6468C48.0246 14.6757 48.1399 14.7334 48.2265 14.8199C48.4572 14.9929 48.6302 15.1371 48.8321 15.2524C49.0051 15.339 49.1781 15.4255 49.3223 15.4832C49.4665 15.5408 49.6396 15.5697 49.7837 15.5697C49.9279 15.5697 50.0721 15.5985 50.2452 15.5985C50.5624 15.5985 50.8796 15.5697 51.1968 15.512C51.5141 15.4255 51.8025 15.3101 52.062 15.1371C52.3216 14.9641 52.5234 14.7622 52.6965 14.5026C52.8695 14.2431 52.9272 13.9547 52.9272 13.5798C52.9272 13.1761 52.8695 12.8588 52.7253 12.6281C52.6099 12.3974 52.4081 12.1955 52.2062 12.0513C51.9755 11.9072 51.7159 11.7918 51.3987 11.6764C51.0815 11.5899 50.7643 11.4746 50.4182 11.3304C49.9568 11.1573 49.553 11.0132 49.1781 10.869C48.8032 10.7248 48.486 10.5517 48.2265 10.3787C47.9669 10.1768 47.765 9.94612 47.6208 9.68657C47.4766 9.39818 47.3901 9.05212 47.3901 8.5907C47.3901 8.18695 47.4766 7.81205 47.6785 7.49482C47.8804 7.1776 48.1399 6.88921 48.4283 6.6585C48.7167 6.42779 49.0916 6.25476 49.4665 6.11057C49.8414 5.99521 50.2452 5.90869 50.6489 5.90869C50.995 5.90869 51.2834 5.93753 51.5717 6.02405C51.8313 6.11057 52.0908 6.19708 52.3216 6.34127C52.5523 6.45663 52.7541 6.60082 52.9272 6.74502C53.1002 6.88921 53.2732 7.06224 53.4174 7.20644L53.1579 7.35063C53.1002 7.40831 53.0137 7.43715 52.9272 7.46599C52.8407 7.49483 52.7541 7.49482 52.6388 7.49482C52.4657 7.49482 52.2927 7.46599 52.1485 7.37947Z" fill="#111111"/>
<path d="M61.2618 7.37947C61.1465 7.29295 61.0311 7.23527 60.9446 7.14876C60.8581 7.09108 60.7427 7.03341 60.6562 6.97573C60.5408 6.91805 60.4255 6.88921 60.2813 6.86037C60.1371 6.83153 59.9641 6.83153 59.7622 6.83153C59.445 6.83153 59.1566 6.88921 58.897 6.97573C58.6086 7.06224 58.3779 7.20644 58.1761 7.35063C57.9742 7.52366 57.8012 7.6967 57.6858 7.89857C57.5704 8.10044 57.5128 8.33115 57.5128 8.56186C57.5128 8.82141 57.5416 9.05212 57.6281 9.22515C57.7146 9.39818 57.83 9.54238 58.003 9.68657C58.1761 9.83076 58.4356 9.94612 58.724 10.0615C59.0124 10.1768 59.3873 10.2922 59.8199 10.4364C60.0506 10.5229 60.2813 10.5806 60.4832 10.6671C60.685 10.7248 60.8869 10.8113 61.0599 10.869C61.233 10.9266 61.406 11.0132 61.5502 11.0997C61.6944 11.1862 61.8674 11.2727 62.0116 11.3592C62.3865 11.6188 62.6461 11.936 62.7903 12.3109C62.9345 12.6858 63.021 13.0895 63.021 13.551C63.021 14.0124 62.9345 14.4161 62.7326 14.7622C62.5307 15.1371 62.2712 15.4255 61.9251 15.685C61.579 15.9446 61.2041 16.1176 60.7427 16.2618C60.2813 16.406 59.8199 16.4637 59.3296 16.4637C58.3491 16.4637 57.5128 16.2041 56.8206 15.6562C56.6476 15.512 56.4746 15.339 56.3592 15.1948C56.2439 15.0506 56.1285 14.9064 56.042 14.791L56.1573 14.7334C56.3304 14.6468 56.5034 14.5892 56.6476 14.5892C56.763 14.5892 56.9072 14.618 57.0225 14.6468C57.1379 14.6757 57.2532 14.7334 57.3397 14.8199C57.5704 14.9929 57.7435 15.1371 57.9453 15.2524C58.1184 15.339 58.2914 15.4255 58.4356 15.4832C58.5798 15.5408 58.7528 15.5697 58.897 15.5697C59.0412 15.5697 59.1854 15.5985 59.3584 15.5985C59.6757 15.5985 59.9929 15.5697 60.3101 15.512C60.6274 15.4255 60.9157 15.3101 61.1753 15.1371C61.4348 14.9641 61.6367 14.7622 61.8097 14.5026C61.9828 14.2431 62.0405 13.9547 62.0405 13.5798C62.0405 13.1761 61.9828 12.8588 61.8386 12.6281C61.7232 12.3974 61.5214 12.1955 61.3195 12.0513C61.0888 11.9072 60.8292 11.7918 60.512 11.6764C60.1948 11.5899 59.8775 11.4746 59.5315 11.3304C59.0701 11.1573 58.6663 11.0132 58.2914 10.869C57.9165 10.7248 57.5993 10.5517 57.3397 10.3787C57.0802 10.1768 56.8783 9.94612 56.7341 9.68657C56.5899 9.39818 56.5034 9.05212 56.5034 8.5907C56.5034 8.18695 56.5899 7.81205 56.7918 7.49482C56.9937 7.1776 57.2532 6.88921 57.5416 6.6585C57.8588 6.42779 58.2049 6.25476 58.5798 6.11057C58.9547 5.99521 59.3584 5.90869 59.7622 5.90869C60.1083 5.90869 60.3966 5.93753 60.685 6.02405C60.9446 6.11057 61.2041 6.19708 61.4348 6.34127C61.6655 6.45663 61.8674 6.60082 62.0405 6.74502C62.2135 6.88921 62.3865 7.06224 62.5307 7.20644L62.2712 7.35063C62.2135 7.40831 62.127 7.43715 62.0405 7.46599C61.9539 7.49483 61.8674 7.49482 61.7521 7.49482C61.579 7.49482 61.406 7.46599 61.2618 7.37947Z" fill="#111111"/>
<path d="M64.8945 6.91796V5.99512H73.3731V6.91796H69.6241V16.3482H68.6436V6.91796H64.8945V6.91796Z" fill="#111111"/>
<path d="M76.1133 16.377L78.5069 6.02393H82.0541C83.2365 6.02393 84.1305 6.28348 84.7937 6.83141C85.457 7.37935 85.7743 8.10031 85.8031 9.02315C85.8031 9.74412 85.6301 10.3786 85.284 10.9553C84.9379 11.5321 84.4188 11.9647 83.7844 12.2819C83.1499 12.5992 82.3713 12.7722 81.4773 12.7722H78.132L78.5069 11.0707H81.535C81.9964 11.0707 82.4001 10.9842 82.7174 10.8112C83.0346 10.6381 83.2653 10.4074 83.4095 10.0902C83.5537 9.8018 83.6402 9.48458 83.6114 9.13851C83.6114 8.73477 83.4383 8.3887 83.1788 8.12915C82.8904 7.86961 82.4578 7.75425 81.8522 7.75425H80.2949L78.2762 16.4059H76.1133V16.377Z" fill="#111111"/>
<path d="M84.9375 16.3775L91.0513 6.02441H93.6756L94.9734 16.3775H92.897L92.176 9.5139L92.0318 7.84126H92.003L91.1378 9.48506L87.2446 16.3775H84.9375V16.3775ZM87.7925 13.7532L88.1674 12.1671H93.791L93.4161 13.7532H87.7925Z" fill="#111111"/>
<path d="M98.8098 16.3775L99.7326 12.4555L97.6562 6.02441H99.7903L100.742 9.139L101.175 10.8116L102.299 9.11016L104.606 6.02441H107L101.896 12.5997L101.03 16.3775H98.8098V16.3775Z" fill="#111111"/>
<circle cx="11.6066" cy="11.6066" r="11.6066" fill="#111111"/>
<path d="M9.15137 16.5454V16.5735C9.15137 16.5735 9.16543 16.5735 9.16543 16.5876V16.5595C9.16543 16.5454 9.15137 16.5454 9.15137 16.5454Z" fill="#E72E80"/>
<path d="M11.621 7.60742C9.41806 7.60742 7.62207 9.40341 7.62207 11.6063C7.62207 11.6905 7.62207 11.8729 7.62207 11.8729V17.6678C7.6361 17.6818 7.66416 17.6958 7.6782 17.7099C8.02897 17.9344 8.40782 18.1308 8.80069 18.2992C8.92697 18.3553 9.05325 18.3974 9.17953 18.4395H9.19356V18.4114L9.17953 16.5593C9.17953 16.5593 9.1655 16.5593 9.1655 16.5453V16.5172C9.1655 16.5172 9.17953 16.5172 9.17953 16.5313L9.1655 14.7353C9.839 15.2685 10.6949 15.5771 11.621 15.5771C13.8239 15.5771 15.6198 13.7811 15.6198 11.5782C15.6198 9.37535 13.8239 7.60742 11.621 7.60742ZM11.621 14.0758C10.2599 14.0758 9.15147 12.9673 9.15147 11.6063C9.15147 10.2453 10.2599 9.13682 11.621 9.13682C12.982 9.13682 14.0904 10.2453 14.0904 11.6063C14.0764 12.9673 12.982 14.0758 11.621 14.0758Z" fill="#E72E80"/>
<path d="M16.3352 17.1209H18.8748V18.8608H11.6207C11.4383 18.8608 11.2699 18.8608 11.0875 18.8468C11.0033 18.8468 10.9191 18.8327 10.849 18.8187H10.8349C10.2737 18.7626 9.72649 18.6363 9.1933 18.4398V18.4118L9.17927 16.5597V16.5316C9.92292 16.8964 10.7508 17.1069 11.6207 17.1069C14.6655 17.1069 17.135 14.6374 17.135 11.5926C17.135 8.54786 14.6514 6.09241 11.6207 6.09241C8.58996 6.09241 6.09241 8.5619 6.09241 11.6067C6.09241 13.0799 6.66769 14.4129 7.60778 15.4091V17.6681C7.20087 17.4015 6.82203 17.0929 6.47125 16.7421C5.79775 16.0826 5.2786 15.2969 4.91379 14.441C4.54898 13.543 4.35254 12.5888 4.35254 11.6067C4.35254 10.6245 4.54898 9.67036 4.92782 8.78639C5.29263 7.91646 5.81178 7.14475 6.48528 6.48528C7.14475 5.81178 7.93049 5.29263 8.7864 4.92782C9.68439 4.54898 10.6385 4.35254 11.6067 4.35254C12.5888 4.35254 13.543 4.54898 14.4269 4.92782C15.2969 5.29263 16.0686 5.81178 16.728 6.48528C17.4015 7.14475 17.9207 7.93049 18.2855 8.78639C18.6644 9.68439 18.8608 10.6385 18.8608 11.6067C18.8608 12.5748 18.6644 13.543 18.2855 14.4269C17.9207 15.2969 17.4015 16.0686 16.728 16.728C16.6158 16.8684 16.4755 16.9946 16.3352 17.1209Z" fill="#FCEBF3"/>
<rect x="145.25" y="0.503906" width="75.5" height="22.5" rx="11.25" stroke="#111111" stroke-width="0.5"/>
<path d="M164.551 13.0723H162.33V11.9062H164.551C164.938 11.9062 165.25 11.8438 165.488 11.7188C165.727 11.5938 165.9 11.4219 166.01 11.2031C166.123 10.9805 166.18 10.7266 166.18 10.4414C166.18 10.1719 166.123 9.91992 166.01 9.68555C165.9 9.44727 165.727 9.25586 165.488 9.11133C165.25 8.9668 164.938 8.89453 164.551 8.89453H162.781V16.2539H161.311V7.72266H164.551C165.211 7.72266 165.771 7.83984 166.232 8.07422C166.697 8.30469 167.051 8.625 167.293 9.03516C167.535 9.44141 167.656 9.90625 167.656 10.4297C167.656 10.9805 167.535 11.4531 167.293 11.8477C167.051 12.2422 166.697 12.5449 166.232 12.7559C165.771 12.9668 165.211 13.0723 164.551 13.0723ZM171.406 8.85938L168.857 16.2539H167.316L170.527 7.72266H171.512L171.406 8.85938ZM173.539 16.2539L170.984 8.85938L170.873 7.72266H171.863L175.086 16.2539H173.539ZM173.416 13.0898V14.2559H168.775V13.0898H173.416ZM176.188 7.72266L178.168 11.7949L180.148 7.72266H181.777L178.906 13.1133V16.2539H177.424V13.1133L174.553 7.72266H176.188ZM187.268 7.72266V16.2539H185.797V7.72266H187.268ZM195.863 7.72266V16.2539H194.393L190.566 10.1426V16.2539H189.096V7.72266H190.566L194.404 13.8457V7.72266H195.863ZM206.1 15.1289V16.2539H200.381V15.2871L203.158 12.2578C203.463 11.9141 203.703 11.6172 203.879 11.3672C204.055 11.1172 204.178 10.8926 204.248 10.6934C204.322 10.4902 204.359 10.293 204.359 10.1016C204.359 9.83203 204.309 9.5957 204.207 9.39258C204.109 9.18555 203.965 9.02344 203.773 8.90625C203.582 8.78516 203.35 8.72461 203.076 8.72461C202.76 8.72461 202.494 8.79297 202.279 8.92969C202.064 9.06641 201.902 9.25586 201.793 9.49805C201.684 9.73633 201.629 10.0098 201.629 10.3184H200.217C200.217 9.82227 200.33 9.36914 200.557 8.95898C200.783 8.54492 201.111 8.2168 201.541 7.97461C201.971 7.72852 202.488 7.60547 203.094 7.60547C203.664 7.60547 204.148 7.70117 204.547 7.89258C204.945 8.08398 205.248 8.35547 205.455 8.70703C205.666 9.05859 205.771 9.47461 205.771 9.95508C205.771 10.2207 205.729 10.4844 205.643 10.7461C205.557 11.0078 205.434 11.2695 205.273 11.5312C205.117 11.7891 204.932 12.0488 204.717 12.3105C204.502 12.5684 204.266 12.8301 204.008 13.0957L202.162 15.1289H206.1Z" fill="#111111"/>
</svg>
