<svg width="193" height="28" viewBox="0 0 193 28" fill="none" xmlns="http://www.w3.org/2000/svg">
<path d="M37.9564 16.2454C38.2484 16.0751 38.4916 15.8805 38.7349 15.6615C38.9539 15.4426 39.1485 15.1993 39.3188 14.9317C39.4891 14.6641 39.6108 14.3721 39.6838 14.0802C39.7811 13.7882 39.8297 13.4719 39.8297 13.1313C39.8297 12.6204 39.7324 12.1339 39.5135 11.6959C39.2945 11.258 39.0025 10.8444 38.6376 10.5282C38.2727 10.1876 37.8348 9.91993 37.3482 9.7253C36.8616 9.53067 36.3264 9.43336 35.7668 9.43336C35.4019 9.43336 35.0369 9.48201 34.6963 9.555C34.3557 9.65232 34.0151 9.77396 33.7232 9.91993C33.4312 10.0902 33.1393 10.2849 32.896 10.5038C32.6527 10.7228 32.4338 10.9661 32.2635 11.258C32.0932 11.5256 31.9472 11.8176 31.8499 12.1339C31.7525 12.4501 31.7039 12.7664 31.7039 13.107C31.7039 13.4476 31.7525 13.7639 31.8499 14.0802C31.9472 14.3964 32.0932 14.6884 32.2635 14.956C32.4338 15.2236 32.6527 15.4912 32.896 15.7102C33.1393 15.9292 33.4069 16.1238 33.7232 16.2941C34.0151 16.4644 34.3557 16.586 34.6963 16.659C35.0369 16.7563 35.4019 16.7807 35.7668 16.7807C36.0588 16.7807 36.3264 16.7563 36.6183 16.7077C36.8859 16.659 37.1536 16.586 37.3968 16.4887L37.9077 17.1213C37.5915 17.2672 37.2509 17.3646 36.8859 17.4375C36.521 17.5105 36.1561 17.5592 35.7668 17.5592C35.0856 17.5592 34.4531 17.4375 33.8692 17.2186C33.2853 16.9753 32.75 16.659 32.3121 16.2698C31.8742 15.8562 31.5093 15.3939 31.266 14.8587C30.9984 14.3235 30.8767 13.7396 30.8767 13.1313C30.8767 12.5231 30.9984 11.9392 31.266 11.404C31.5336 10.8688 31.8742 10.3822 32.3121 9.99292C32.75 9.57933 33.2853 9.26305 33.8692 9.04409C34.4531 8.80081 35.1099 8.70349 35.7668 8.70349C36.448 8.70349 37.0806 8.82513 37.6888 9.04409C38.297 9.28738 38.8079 9.60366 39.2458 9.99292C39.6838 10.4065 40.0487 10.8688 40.292 11.404C40.5596 11.9392 40.6812 12.5231 40.6812 13.1313C40.6812 13.4476 40.6569 13.7639 40.5839 14.0558C40.5109 14.3478 40.4136 14.6397 40.2676 14.9317C40.1217 15.1993 39.9757 15.4669 39.7811 15.7102C39.5864 15.9535 39.3675 16.1724 39.1242 16.3914C39.5378 16.878 39.927 17.3646 40.3406 17.8511C40.7542 18.3377 41.1435 18.8486 41.5571 19.3595H41.1678C40.7056 19.3595 40.365 19.2136 40.146 18.8973L37.9564 16.2454Z" fill="#111111"/>
<path d="M44.5009 17.5097H43.6737V8.77563H44.5009V17.5097Z" fill="#111111"/>
<path d="M51.7265 9.91887C51.6292 9.84589 51.5319 9.79723 51.4589 9.72424C51.3859 9.67558 51.2886 9.62693 51.2156 9.57827C51.1426 9.52961 51.021 9.50528 50.8993 9.48095C50.7777 9.45662 50.6317 9.45663 50.4614 9.45663C50.1938 9.45663 49.9505 9.50528 49.7316 9.57827C49.4883 9.65126 49.2936 9.7729 49.1233 9.89454C48.953 10.0405 48.8071 10.1865 48.7097 10.3568C48.6124 10.5271 48.5638 10.7217 48.5638 10.9164C48.5638 11.1353 48.5881 11.3299 48.6611 11.4759C48.7341 11.6219 48.8314 11.7435 48.9774 11.8652C49.1233 11.9868 49.3423 12.0841 49.5856 12.1815C49.8289 12.2788 50.1451 12.3761 50.5101 12.4977C50.7047 12.5707 50.8993 12.6194 51.0696 12.6924C51.2399 12.741 51.4102 12.814 51.5562 12.8627C51.7022 12.9113 51.8482 12.9843 51.9698 13.0573C52.0915 13.1303 52.2374 13.2033 52.3591 13.2763C52.6753 13.4952 52.8943 13.7628 53.0159 14.0791C53.1376 14.3954 53.2106 14.736 53.2106 15.1252C53.2106 15.5145 53.1376 15.8551 52.9673 16.1471C52.797 16.4633 52.578 16.7066 52.2861 16.9256C51.9941 17.1445 51.6779 17.2905 51.2886 17.4122C50.8993 17.5338 50.5101 17.5825 50.0965 17.5825C49.2693 17.5825 48.5638 17.3635 47.9799 16.9013C47.8339 16.7796 47.6879 16.6336 47.5906 16.512C47.469 16.3903 47.396 16.2687 47.323 16.1714L47.4203 16.1227C47.5663 16.0497 47.7123 16.0011 47.8339 16.0011C47.9312 16.0011 48.0529 16.0254 48.1502 16.0497C48.2475 16.0741 48.3448 16.1227 48.4178 16.1957C48.6124 16.3417 48.7584 16.4633 48.9287 16.5606C49.0747 16.6336 49.2206 16.7066 49.3423 16.7553C49.4639 16.8039 49.6099 16.8283 49.7316 16.8283C49.8532 16.8283 49.9748 16.8526 50.1208 16.8526C50.3884 16.8526 50.656 16.8283 50.9237 16.7796C51.1913 16.7066 51.4346 16.6093 51.6535 16.4633C51.8725 16.3174 52.0428 16.1471 52.1888 15.9281C52.3347 15.7091 52.3834 15.4658 52.3834 15.1496C52.3834 14.809 52.3347 14.5414 52.2131 14.3467C52.1158 14.1521 51.9455 13.9818 51.7752 13.8601C51.5805 13.7385 51.3616 13.6412 51.094 13.5439C50.8264 13.4709 50.5587 13.3736 50.2668 13.2519C49.8775 13.106 49.5369 12.9843 49.2206 12.8627C48.9044 12.741 48.6368 12.595 48.4178 12.4491C48.1988 12.2788 48.0285 12.0841 47.9069 11.8652C47.7852 11.6219 47.7123 11.3299 47.7123 10.9407C47.7123 10.6001 47.7852 10.2838 47.9555 10.0162C48.1258 9.74857 48.3448 9.50528 48.5881 9.31065C48.8314 9.11602 49.1477 8.97005 49.4639 8.84841C49.7802 8.75109 50.1208 8.6781 50.4614 8.6781C50.7534 8.6781 50.9967 8.70243 51.2399 8.77542C51.4589 8.8484 51.6779 8.92139 51.8725 9.04303C52.0671 9.14035 52.2374 9.262 52.3834 9.38364C52.5294 9.50528 52.6753 9.65125 52.797 9.7729L52.578 9.89454C52.5294 9.9432 52.4564 9.96753 52.3834 9.99186C52.3104 10.0162 52.2374 10.0162 52.1401 10.0162C51.9941 10.0162 51.8482 9.99186 51.7265 9.91887Z" fill="#111111"/>
<path d="M59.4144 9.91887C59.3171 9.84589 59.2198 9.79723 59.1468 9.72424C59.0738 9.67558 58.9765 9.62693 58.9035 9.57827C58.8062 9.52961 58.7088 9.50528 58.5872 9.48095C58.4656 9.45662 58.3196 9.45663 58.1493 9.45663C57.8817 9.45663 57.6384 9.50528 57.4194 9.57827C57.1761 9.65126 56.9815 9.7729 56.8112 9.89454C56.6409 10.0405 56.4949 10.1865 56.3976 10.3568C56.3003 10.5271 56.2516 10.7217 56.2516 10.9164C56.2516 11.1353 56.276 11.3299 56.349 11.4759C56.4219 11.6219 56.5193 11.7435 56.6652 11.8652C56.8112 11.9868 57.0302 12.0841 57.2734 12.1815C57.5167 12.2788 57.833 12.3761 58.1979 12.4977C58.3926 12.5707 58.5872 12.6194 58.7575 12.6924C58.9278 12.741 59.0981 12.814 59.2441 12.8627C59.3901 12.9113 59.536 12.9843 59.6577 13.0573C59.7793 13.1303 59.9253 13.2033 60.0469 13.2763C60.3632 13.4952 60.5822 13.7628 60.7038 14.0791C60.8255 14.3954 60.8984 14.736 60.8984 15.1252C60.8984 15.5145 60.8255 15.8551 60.6552 16.1471C60.4849 16.4633 60.2659 16.7066 59.9739 16.9256C59.682 17.1445 59.3657 17.2905 58.9765 17.4122C58.5872 17.5338 58.1979 17.5825 57.7844 17.5825C56.9572 17.5825 56.2516 17.3635 55.6677 16.9013C55.5218 16.7796 55.3758 16.6336 55.2785 16.512C55.1812 16.3903 55.0839 16.2687 55.0109 16.1714L55.1082 16.1227C55.2542 16.0497 55.4001 16.0011 55.5218 16.0011C55.6191 16.0011 55.7407 16.0254 55.838 16.0497C55.9354 16.0741 56.0327 16.1227 56.1057 16.1957C56.3003 16.3417 56.4463 16.4633 56.6166 16.5606C56.7625 16.6336 56.9085 16.7066 57.0302 16.7553C57.1518 16.8039 57.2978 16.8283 57.4194 16.8283C57.5411 16.8283 57.6627 16.8526 57.8087 16.8526C58.0763 16.8526 58.3439 16.8283 58.6115 16.7796C58.8791 16.7066 59.1224 16.6093 59.3414 16.4633C59.5604 16.3174 59.7307 16.1471 59.8766 15.9281C60.0226 15.7091 60.0713 15.4658 60.0713 15.1496C60.0713 14.809 60.0226 14.5414 59.901 14.3467C59.8036 14.1521 59.6333 13.9818 59.463 13.8601C59.2684 13.7385 59.0495 13.6412 58.7818 13.5439C58.5142 13.4709 58.2466 13.3736 57.9547 13.2519C57.5654 13.106 57.2248 12.9843 56.9085 12.8627C56.5922 12.741 56.3246 12.595 56.1057 12.4491C55.8867 12.2788 55.7164 12.0841 55.5948 11.8652C55.4731 11.6219 55.4001 11.3299 55.4001 10.9407C55.4001 10.6001 55.4731 10.2838 55.6434 10.0162C55.8137 9.74857 56.0327 9.50528 56.276 9.31065C56.5436 9.11602 56.8355 8.97005 57.1518 8.84841C57.4681 8.75109 57.8087 8.6781 58.1493 8.6781C58.4412 8.6781 58.6845 8.70243 58.9278 8.77542C59.1468 8.8484 59.3657 8.92139 59.5604 9.04303C59.755 9.14035 59.9253 9.262 60.0713 9.38364C60.2172 9.50528 60.3632 9.65125 60.4849 9.7729L60.2659 9.89454C60.2172 9.9432 60.1442 9.96753 60.0713 9.99186C59.9983 10.0162 59.9253 10.0162 59.828 10.0162C59.682 10.0162 59.536 9.99186 59.4144 9.91887Z" fill="#111111"/>
<path d="M62.48 9.52987V8.75134H69.6327V9.52987H66.4699V17.4854H65.6427V9.52987H62.48V9.52987Z" fill="#111111"/>
<path d="M71.9438 17.5097L73.9631 8.77563H76.9556C77.9531 8.77563 78.7073 8.9946 79.2668 9.45684C79.8264 9.91909 80.094 10.5273 80.1183 11.3058C80.1183 11.9141 79.9724 12.4493 79.6804 12.9359C79.3885 13.4224 78.9506 13.7874 78.4153 14.055C77.8801 14.3226 77.2232 14.4686 76.469 14.4686H73.6469L73.9631 13.0332H76.5177C76.9069 13.0332 77.2475 12.9602 77.5152 12.8142C77.7828 12.6682 77.9774 12.4736 78.099 12.206C78.2207 11.9627 78.2937 11.6951 78.2693 11.4032C78.2693 11.0625 78.1234 10.7706 77.9044 10.5516C77.6611 10.3327 77.2962 10.2354 76.7853 10.2354H75.4715L73.7685 17.534H71.9438V17.5097Z" fill="#111111"/>
<path d="M79.3884 17.5097L84.5461 8.77563H86.7601L87.8549 17.5097H86.1032L85.495 11.7194L85.3733 10.3084H85.349L84.6191 11.6951L81.3347 17.5097H79.3884V17.5097ZM81.797 15.2958L82.1133 13.9577H86.8574L86.5411 15.2958H81.797Z" fill="#111111"/>
<path d="M91.0906 17.5097L91.8691 14.201L90.1174 8.77563H91.9178L92.7206 11.4032L93.0856 12.8142L94.0344 11.3788L95.9807 8.77563H98L93.6938 14.3226L92.9639 17.5097H91.0906V17.5097Z" fill="#111111"/>
<circle cx="13.4247" cy="13.7124" r="13.4247" fill="#111111"/>
<path d="M10.5846 19.4248V19.4574C10.5846 19.4574 10.6009 19.4574 10.6009 19.4737V19.4411C10.6009 19.4248 10.5846 19.4248 10.5846 19.4248Z" fill="#E72E80"/>
<path d="M13.4408 9.08716C10.8929 9.08716 8.81555 11.1645 8.81555 13.7124C8.81555 13.8098 8.81555 14.0208 8.81555 14.0208V20.7234C8.83178 20.7396 8.86424 20.7558 8.88047 20.7721C9.28619 21.0317 9.72438 21.2589 10.1788 21.4537C10.3249 21.5186 10.4709 21.5673 10.617 21.616H10.6332V21.5835L10.617 19.4413C10.617 19.4413 10.6007 19.4413 10.6007 19.4251V19.3926C10.6007 19.3926 10.617 19.3926 10.617 19.4088L10.6007 17.3315C11.3797 17.9482 12.3697 18.3053 13.4408 18.3053C15.9888 18.3053 18.0661 16.2279 18.0661 13.68C18.0661 11.132 15.9888 9.08716 13.4408 9.08716ZM13.4408 16.5687C11.8666 16.5687 10.5845 15.2867 10.5845 13.7124C10.5845 12.1382 11.8666 10.8561 13.4408 10.8561C15.015 10.8561 16.2971 12.1382 16.2971 13.7124C16.2809 15.2867 15.015 16.5687 13.4408 16.5687Z" fill="#E72E80"/>
<path d="M18.8938 20.0901H21.8312V22.1025H13.4408C13.2298 22.1025 13.0351 22.1025 12.8241 22.0862C12.7267 22.0862 12.6294 22.07 12.5482 22.0538H12.532C11.8828 21.9889 11.2499 21.8428 10.6332 21.6156V21.5831L10.617 19.4409V19.4085C11.4771 19.8304 12.4346 20.0738 13.4408 20.0738C16.9625 20.0738 19.8188 17.2175 19.8188 13.6958C19.8188 10.1741 16.9463 7.33406 13.4408 7.33406C9.93535 7.33406 7.04658 10.1904 7.04658 13.7121C7.04658 15.4161 7.71197 16.9579 8.79932 18.1101V20.723C8.32867 20.4147 7.89049 20.0576 7.48477 19.6519C6.70577 18.8891 6.1053 17.9803 5.68334 16.9903C5.26139 15.9517 5.03418 14.8481 5.03418 13.7121C5.03418 12.576 5.26139 11.4725 5.69957 10.45C6.12153 9.44383 6.722 8.55123 7.50099 7.78847C8.26376 7.00948 9.17258 6.409 10.1626 5.98705C11.2012 5.54886 12.3048 5.32166 13.4246 5.32166C14.5606 5.32166 15.6642 5.54886 16.6866 5.98705C17.6928 6.409 18.5854 7.00948 19.3482 7.78847C20.1272 8.55123 20.7277 9.46006 21.1496 10.45C21.5878 11.4887 21.815 12.5923 21.815 13.7121C21.815 14.8319 21.5878 15.9517 21.1496 16.9741C20.7277 17.9803 20.1272 18.8729 19.3482 19.6357C19.2184 19.798 19.0561 19.944 18.8938 20.0901Z" fill="#FCEBF3"/>
<rect x="117.25" y="1.25" width="75.5" height="22.5" rx="11.25" fill="white" stroke="#111111" stroke-width="0.5"/>
<path d="M133.141 13.8184H130.92V12.6523H133.141C133.527 12.6523 133.84 12.5898 134.078 12.4648C134.316 12.3398 134.49 12.168 134.6 11.9492C134.713 11.7266 134.77 11.4727 134.77 11.1875C134.77 10.918 134.713 10.666 134.6 10.4316C134.49 10.1934 134.316 10.002 134.078 9.85742C133.84 9.71289 133.527 9.64062 133.141 9.64062H131.371V17H129.9V8.46875H133.141C133.801 8.46875 134.361 8.58594 134.822 8.82031C135.287 9.05078 135.641 9.37109 135.883 9.78125C136.125 10.1875 136.246 10.6523 136.246 11.1758C136.246 11.7266 136.125 12.1992 135.883 12.5938C135.641 12.9883 135.287 13.291 134.822 13.502C134.361 13.7129 133.801 13.8184 133.141 13.8184ZM139.996 9.60547L137.447 17H135.906L139.117 8.46875H140.102L139.996 9.60547ZM142.129 17L139.574 9.60547L139.463 8.46875H140.453L143.676 17H142.129ZM142.006 13.8359V15.002H137.365V13.8359H142.006ZM144.777 8.46875L146.758 12.541L148.738 8.46875H150.367L147.496 13.8594V17H146.014V13.8594L143.143 8.46875H144.777ZM155.857 8.46875V17H154.387V8.46875H155.857ZM164.453 8.46875V17H162.982L159.156 10.8887V17H157.686V8.46875H159.156L162.994 14.5918V8.46875H164.453ZM172.826 8.43945V17H171.414V10.1152L169.322 10.8242V9.6582L172.656 8.43945H172.826ZM181.51 15.875V17H175.791V16.0332L178.568 13.0039C178.873 12.6602 179.113 12.3633 179.289 12.1133C179.465 11.8633 179.588 11.6387 179.658 11.4395C179.732 11.2363 179.77 11.0391 179.77 10.8477C179.77 10.5781 179.719 10.3418 179.617 10.1387C179.52 9.93164 179.375 9.76953 179.184 9.65234C178.992 9.53125 178.76 9.4707 178.486 9.4707C178.17 9.4707 177.904 9.53906 177.689 9.67578C177.475 9.8125 177.312 10.002 177.203 10.2441C177.094 10.4824 177.039 10.7559 177.039 11.0645H175.627C175.627 10.5684 175.74 10.1152 175.967 9.70508C176.193 9.29102 176.521 8.96289 176.951 8.7207C177.381 8.47461 177.898 8.35156 178.504 8.35156C179.074 8.35156 179.559 8.44727 179.957 8.63867C180.355 8.83008 180.658 9.10156 180.865 9.45312C181.076 9.80469 181.182 10.2207 181.182 10.7012C181.182 10.9668 181.139 11.2305 181.053 11.4922C180.967 11.7539 180.844 12.0156 180.684 12.2773C180.527 12.5352 180.342 12.7949 180.127 13.0566C179.912 13.3145 179.676 13.5762 179.418 13.8418L177.572 15.875H181.51Z" fill="#111111"/>
</svg>
