<svg width="271" height="24" viewBox="0 0 271 24" fill="none" xmlns="http://www.w3.org/2000/svg">
<path d="M35.8259 14.8792C36.172 14.6773 36.4604 14.4466 36.7488 14.1871C37.0083 13.9275 37.239 13.6391 37.4409 13.3219C37.6428 13.0047 37.7869 12.6586 37.8735 12.3125C37.9888 11.9665 38.0465 11.5916 38.0465 11.1878C38.0465 10.5822 37.9311 10.0054 37.6716 9.48635C37.412 8.96725 37.066 8.47699 36.6334 8.10209C36.2008 7.69834 35.6817 7.38112 35.1049 7.15041C34.5282 6.9197 33.8937 6.80434 33.2304 6.80434C32.7978 6.80434 32.3653 6.86202 31.9615 6.94853C31.5578 7.06389 31.154 7.20808 30.808 7.38112C30.4619 7.58299 30.1158 7.8137 29.8275 8.07324C29.5391 8.33279 29.2795 8.62118 29.0776 8.96725C28.8758 9.28447 28.7027 9.63054 28.5874 10.0054C28.472 10.3803 28.4144 10.7553 28.4144 11.159C28.4144 11.5627 28.472 11.9376 28.5874 12.3125C28.7027 12.6874 28.8758 13.0335 29.0776 13.3507C29.2795 13.668 29.5391 13.9852 29.8275 14.2447C30.1158 14.5043 30.4331 14.735 30.808 14.9369C31.154 15.1387 31.5578 15.2829 31.9615 15.3694C32.3653 15.4848 32.7978 15.5136 33.2304 15.5136C33.5765 15.5136 33.8937 15.4848 34.2398 15.4271C34.557 15.3694 34.8742 15.2829 35.1626 15.1676L35.7682 15.9174C35.3933 16.0904 34.9896 16.2058 34.557 16.2923C34.1244 16.3788 33.6918 16.4365 33.2304 16.4365C32.4229 16.4365 31.6731 16.2923 30.981 16.0327C30.2889 15.7444 29.6544 15.3695 29.1353 14.908C28.6162 14.4178 28.1836 13.8698 27.8953 13.2354C27.578 12.6009 27.4338 11.9088 27.4338 11.1878C27.4338 10.4669 27.578 9.77473 27.8953 9.14028C28.2125 8.50583 28.6162 7.92905 29.1353 7.46763C29.6544 6.97737 30.2889 6.60247 30.981 6.34292C31.6731 6.05453 32.4518 5.93918 33.2304 5.93918C34.0379 5.93918 34.7877 6.08337 35.5087 6.34292C36.2297 6.63131 36.8353 7.00621 37.3544 7.46763C37.8735 7.95789 38.306 8.50583 38.5944 9.14028C38.9117 9.77473 39.0559 10.4669 39.0559 11.1878C39.0559 11.5627 39.027 11.9376 38.9405 12.2837C38.854 12.6298 38.7386 12.9758 38.5656 13.3219C38.3926 13.6391 38.2195 13.9564 37.9888 14.2447C37.7581 14.5331 37.4986 14.7927 37.2102 15.0522C37.7004 15.629 38.1619 16.2058 38.6521 16.7826C39.1424 17.3593 39.6038 17.9649 40.094 18.5706H39.6326C39.0847 18.5706 38.6809 18.3975 38.4214 18.0226L35.8259 14.8792Z" fill="#111111"/>
<path d="M43.5835 16.3773H42.603V6.02418H43.5835V16.3773Z" fill="#111111"/>
<path d="M52.1486 7.37959C52.0333 7.29308 51.9179 7.2354 51.8314 7.14888C51.7449 7.0912 51.6295 7.03353 51.543 6.97585C51.4565 6.91817 51.3123 6.88933 51.1681 6.86049C51.0239 6.83165 50.8509 6.83166 50.649 6.83166C50.3318 6.83166 50.0434 6.88933 49.7839 6.97585C49.4955 7.06237 49.2648 7.20656 49.0629 7.35075C48.861 7.52378 48.688 7.69682 48.5726 7.89869C48.4573 8.10056 48.3996 8.33127 48.3996 8.56198C48.3996 8.82153 48.4284 9.05224 48.515 9.22527C48.6015 9.3983 48.7168 9.5425 48.8899 9.68669C49.0629 9.83089 49.3224 9.94624 49.6108 10.0616C49.8992 10.177 50.2741 10.2923 50.7067 10.4365C50.9374 10.523 51.1681 10.5807 51.37 10.6672C51.5719 10.7249 51.7737 10.8114 51.9468 10.8691C52.1198 10.9268 52.2928 11.0133 52.437 11.0998C52.5812 11.1863 52.7543 11.2728 52.8985 11.3593C53.2734 11.6189 53.5329 11.9361 53.6771 12.311C53.8213 12.6859 53.9078 13.0897 53.9078 13.5511C53.9078 14.0125 53.8213 14.4162 53.6194 14.7623C53.4176 15.1372 53.158 15.4256 52.8119 15.6852C52.4659 15.9447 52.091 16.1177 51.6295 16.2619C51.1681 16.4061 50.7067 16.4638 50.2164 16.4638C49.2359 16.4638 48.3996 16.2042 47.7075 15.6563C47.5344 15.5121 47.3614 15.3391 47.2461 15.1949C47.1019 15.0507 47.0153 14.9065 46.9288 14.7911L47.0442 14.7335C47.2172 14.647 47.3903 14.5893 47.5344 14.5893C47.6498 14.5893 47.794 14.6181 47.9093 14.647C48.0247 14.6758 48.1401 14.7335 48.2266 14.82C48.4573 14.993 48.6303 15.1372 48.8322 15.2526C49.0052 15.3391 49.1783 15.4256 49.3224 15.4833C49.4666 15.541 49.6397 15.5698 49.7839 15.5698C49.9281 15.5698 50.0723 15.5986 50.2453 15.5986C50.5625 15.5986 50.8797 15.5698 51.197 15.5121C51.5142 15.4256 51.8026 15.3102 52.0621 15.1372C52.3217 14.9642 52.5236 14.7623 52.6966 14.5028C52.8696 14.2432 52.9273 13.9548 52.9273 13.5799C52.9273 13.1762 52.8696 12.859 52.7254 12.6282C52.6101 12.3975 52.4082 12.1957 52.2063 12.0515C51.9756 11.9073 51.7161 11.7919 51.3988 11.6766C51.0816 11.59 50.7644 11.4747 50.4183 11.3305C49.9569 11.1575 49.5532 11.0133 49.1783 10.8691C48.8034 10.7249 48.4861 10.5519 48.2266 10.3788C47.967 10.1769 47.7652 9.94624 47.621 9.68669C47.4768 9.3983 47.3903 9.05224 47.3903 8.59082C47.3903 8.18708 47.4768 7.81217 47.6786 7.49494C47.8805 7.17772 48.1401 6.88933 48.4284 6.65862C48.7168 6.42791 49.0917 6.25488 49.4666 6.11069C49.8415 5.99533 50.2453 5.90881 50.649 5.90881C50.9951 5.90881 51.2835 5.93765 51.5719 6.02417C51.8314 6.11069 52.091 6.1972 52.3217 6.34139C52.5524 6.45675 52.7543 6.60095 52.9273 6.74514C53.1003 6.88933 53.2734 7.06236 53.4176 7.20656L53.158 7.35075C53.1003 7.40843 53.0138 7.43727 52.9273 7.46611C52.8408 7.49495 52.7543 7.49494 52.6389 7.49494C52.4659 7.49494 52.2928 7.46611 52.1486 7.37959Z" fill="#111111"/>
<path d="M61.2617 7.37959C61.1463 7.29308 61.031 7.2354 60.9445 7.14888C60.8579 7.0912 60.7426 7.03353 60.6561 6.97585C60.5407 6.91817 60.4254 6.88933 60.2812 6.86049C60.137 6.83165 59.9639 6.83166 59.7621 6.83166C59.4448 6.83166 59.1565 6.88933 58.8969 6.97585C58.6085 7.06237 58.3778 7.20656 58.1759 7.35075C57.9741 7.52378 57.801 7.69682 57.6857 7.89869C57.5703 8.10056 57.5126 8.33127 57.5126 8.56198C57.5126 8.82153 57.5415 9.05224 57.628 9.22527C57.7145 9.3983 57.8299 9.5425 58.0029 9.68669C58.1759 9.83089 58.4355 9.94624 58.7239 10.0616C59.0123 10.177 59.3872 10.2923 59.8197 10.4365C60.0505 10.523 60.2812 10.5807 60.483 10.6672C60.6849 10.7249 60.8868 10.8114 61.0598 10.8691C61.2328 10.9268 61.4059 11.0133 61.5501 11.0998C61.6943 11.1863 61.8673 11.2728 62.0115 11.3593C62.3864 11.6189 62.6459 11.9361 62.7901 12.311C62.9343 12.6859 63.0208 13.0897 63.0208 13.5511C63.0208 14.0125 62.9343 14.4162 62.7325 14.7623C62.5306 15.1372 62.271 15.4256 61.925 15.6852C61.5789 15.9447 61.204 16.1177 60.7426 16.2619C60.2812 16.4061 59.8197 16.4638 59.3295 16.4638C58.349 16.4638 57.5126 16.2042 56.8205 15.6563C56.6475 15.5121 56.4745 15.3391 56.3591 15.1949C56.2437 15.0507 56.1284 14.9065 56.0419 14.7911L56.1572 14.7335C56.3303 14.647 56.5033 14.5893 56.6475 14.5893C56.7628 14.5893 56.907 14.6181 57.0224 14.647C57.1377 14.6758 57.2531 14.7335 57.3396 14.82C57.5703 14.993 57.7434 15.1372 57.9452 15.2526C58.1183 15.3391 58.2913 15.4256 58.4355 15.4833C58.5797 15.541 58.7527 15.5698 58.8969 15.5698C59.0411 15.5698 59.1853 15.5986 59.3583 15.5986C59.6756 15.5986 59.9928 15.5698 60.31 15.5121C60.6272 15.4256 60.9156 15.3102 61.1752 15.1372C61.4347 14.9642 61.6366 14.7623 61.8096 14.5028C61.9827 14.2432 62.0403 13.9548 62.0403 13.5799C62.0403 13.1762 61.9827 12.859 61.8385 12.6282C61.7231 12.3975 61.5212 12.1957 61.3194 12.0515C61.0887 11.9073 60.8291 11.7919 60.5119 11.6766C60.1947 11.59 59.8774 11.4747 59.5314 11.3305C59.0699 11.1575 58.6662 11.0133 58.2913 10.8691C57.9164 10.7249 57.5992 10.5519 57.3396 10.3788C57.0801 10.1769 56.8782 9.94624 56.734 9.68669C56.5898 9.3983 56.5033 9.05224 56.5033 8.59082C56.5033 8.18708 56.5898 7.81217 56.7917 7.49494C56.9935 7.17772 57.2531 6.88933 57.5415 6.65862C57.8587 6.42791 58.2048 6.25488 58.5797 6.11069C58.9546 5.99533 59.3583 5.90881 59.7621 5.90881C60.1081 5.90881 60.3965 5.93765 60.6849 6.02417C60.9445 6.11069 61.204 6.1972 61.4347 6.34139C61.6654 6.45675 61.8673 6.60095 62.0403 6.74514C62.2134 6.88933 62.3864 7.06236 62.5306 7.20656L62.271 7.35075C62.2134 7.40843 62.1268 7.43727 62.0403 7.46611C61.9538 7.49495 61.8673 7.49494 61.7519 7.49494C61.5789 7.49494 61.4059 7.46611 61.2617 7.37959Z" fill="#111111"/>
<path d="M64.8953 6.91812V5.99529H73.3739V6.91812H69.6249V16.3484H68.6444V6.91812H64.8953Z" fill="#111111"/>
<path d="M76.1136 16.3773L78.5072 6.02418H82.0544C83.2368 6.02418 84.1308 6.28373 84.7941 6.83166C85.4573 7.3796 85.7746 8.10057 85.8034 9.0234C85.8034 9.74437 85.6304 10.3788 85.2843 10.9556C84.9382 11.5324 84.4191 11.965 83.7847 12.2822C83.1502 12.5994 82.3716 12.7724 81.4776 12.7724H78.1323L78.5072 11.071H81.5353C81.9967 11.071 82.4004 10.9844 82.7177 10.8114C83.0349 10.6384 83.2656 10.4077 83.4098 10.0904C83.554 9.80205 83.6405 9.48483 83.6117 9.13876C83.6117 8.73502 83.4386 8.38896 83.1791 8.12941C82.8907 7.86986 82.4581 7.7545 81.8525 7.7545H80.2952L78.2765 16.4061H76.1136V16.3773Z" fill="#111111"/>
<path d="M84.9382 16.3773L91.052 6.02418H93.6764L94.9741 16.3773H92.8977L92.1768 9.51366L92.0326 7.84102H92.0037L91.1386 9.48483L87.2453 16.3773H84.9382ZM87.7933 13.753L88.1682 12.1668H93.7917L93.4168 13.753H87.7933Z" fill="#111111"/>
<path d="M98.8097 16.3773L99.7326 12.4552L97.6562 6.02418H99.7903L100.742 9.13876L101.175 10.8114L102.299 9.10992L104.606 6.02418H107L101.895 12.5994L101.03 16.3773H98.8097Z" fill="#111111"/>
<circle cx="11.6066" cy="11.6066" r="11.6066" fill="#111111"/>
<path d="M9.15106 16.5455V16.5736C9.15106 16.5736 9.16513 16.5736 9.16513 16.5877V16.5595C9.16513 16.5455 9.15106 16.5455 9.15106 16.5455Z" fill="#E72E80"/>
<path d="M11.6206 7.60763C9.4177 7.60763 7.6217 9.40362 7.6217 11.6065C7.6217 11.6907 7.6217 11.8731 7.6217 11.8731V17.668C7.63574 17.682 7.6638 17.6961 7.67783 17.7101C8.02861 17.9346 8.40745 18.131 8.80032 18.2994C8.9266 18.3555 9.05289 18.3976 9.17917 18.4397H9.1932V18.4116L9.17917 16.5595C9.17917 16.5595 9.16513 16.5595 9.16513 16.5455V16.5174C9.16513 16.5174 9.17917 16.5174 9.17917 16.5315L9.16513 14.7355C9.83863 15.2687 10.6945 15.5773 11.6206 15.5773C13.8235 15.5773 15.6195 13.7814 15.6195 11.5785C15.6195 9.37556 13.8235 7.60763 11.6206 7.60763ZM11.6206 14.076C10.2596 14.076 9.1511 12.9675 9.1511 11.6065C9.1511 10.2455 10.2596 9.13703 11.6206 9.13703C12.9816 9.13703 14.0901 10.2455 14.0901 11.6065C14.0761 12.9675 12.9816 14.076 11.6206 14.076Z" fill="#E72E80"/>
<path d="M16.3351 17.1208H18.8748V18.8607H11.6206C11.4382 18.8607 11.2699 18.8607 11.0875 18.8466C11.0033 18.8466 10.9191 18.8326 10.8489 18.8186H10.8349C10.2736 18.7625 9.72642 18.6362 9.19324 18.4397V18.4117L9.17921 16.5596V16.5315C9.92286 16.8963 10.7507 17.1068 11.6206 17.1068C14.6654 17.1068 17.1349 14.6373 17.1349 11.5925C17.1349 8.54776 14.6514 6.0923 11.6206 6.0923C8.5899 6.0923 6.09235 8.56179 6.09235 11.6066C6.09235 13.0798 6.66763 14.4128 7.60772 15.409V17.668C7.20081 17.4014 6.82197 17.0928 6.47119 16.742C5.79769 16.0825 5.27854 15.2968 4.91373 14.4409C4.54891 13.5429 4.35248 12.5887 4.35248 11.6066C4.35248 10.6244 4.54892 9.67025 4.92776 8.78629C5.29257 7.91635 5.81172 7.14464 6.48522 6.48517C7.14469 5.81168 7.93043 5.29252 8.78634 4.92771C9.68433 4.54887 10.6385 4.35243 11.6066 4.35243C12.5888 4.35243 13.5429 4.54887 14.4269 4.92771C15.2968 5.29252 16.0685 5.81168 16.728 6.48517C17.4015 7.14464 17.9206 7.93039 18.2855 8.78629C18.6643 9.68428 18.8607 10.6384 18.8607 11.6066C18.8607 12.5747 18.6643 13.5429 18.2855 14.4268C17.9206 15.2968 17.4015 16.0685 16.728 16.7279C16.6157 16.8682 16.4754 16.9945 16.3351 17.1208Z" fill="#FCEBF3"/>
<rect x="195.25" y="0.50415" width="75.5" height="22.5" rx="11.25" fill="white" stroke="#111111" stroke-width="0.5"/>
<path d="M214.551 13.0725H212.33V11.9065H214.551C214.938 11.9065 215.25 11.844 215.488 11.719C215.727 11.594 215.9 11.4221 216.01 11.2034C216.123 10.9807 216.18 10.7268 216.18 10.4417C216.18 10.1721 216.123 9.92017 216.01 9.68579C215.9 9.44751 215.727 9.2561 215.488 9.11157C215.25 8.96704 214.938 8.89478 214.551 8.89478H212.781V16.2542H211.311V7.7229H214.551C215.211 7.7229 215.771 7.84009 216.232 8.07446C216.697 8.30493 217.051 8.62524 217.293 9.0354C217.535 9.44165 217.656 9.90649 217.656 10.4299C217.656 10.9807 217.535 11.4534 217.293 11.8479C217.051 12.2424 216.697 12.5452 216.232 12.7561C215.771 12.967 215.211 13.0725 214.551 13.0725ZM221.406 8.85962L218.857 16.2542H217.316L220.527 7.7229H221.512L221.406 8.85962ZM223.539 16.2542L220.984 8.85962L220.873 7.7229H221.863L225.086 16.2542H223.539ZM223.416 13.0901V14.2561H218.775V13.0901H223.416ZM226.188 7.7229L228.168 11.7952L230.148 7.7229H231.777L228.906 13.1135V16.2542H227.424V13.1135L224.553 7.7229H226.188ZM237.268 7.7229V16.2542H235.797V7.7229H237.268ZM245.863 7.7229V16.2542H244.393L240.566 10.1428V16.2542H239.096V7.7229H240.566L244.404 13.8459V7.7229H245.863ZM256.258 13.2131V14.3381H250.105L250.059 13.4885L253.738 7.7229H254.869L253.645 9.82056L251.529 13.2131H256.258ZM255.191 7.7229V16.2542H253.779V7.7229H255.191Z" fill="#111111"/>
</svg>
