<svg width="232" height="25" viewBox="0 0 232 25" fill="none" xmlns="http://www.w3.org/2000/svg">
<rect x="152.25" y="0.250244" width="79.5" height="24.5" rx="12.25" fill="white" stroke="#111111" stroke-width="0.5"/>
<path d="M170.203 13.8186H167.982V12.6526H170.203C170.59 12.6526 170.902 12.5901 171.141 12.4651C171.379 12.3401 171.553 12.1682 171.662 11.9495C171.775 11.7268 171.832 11.4729 171.832 11.1877C171.832 10.9182 171.775 10.6663 171.662 10.4319C171.553 10.1936 171.379 10.0022 171.141 9.85767C170.902 9.71313 170.59 9.64087 170.203 9.64087H168.434V17.0002H166.963V8.46899H170.203C170.863 8.46899 171.424 8.58618 171.885 8.82056C172.35 9.05103 172.703 9.37134 172.945 9.78149C173.188 10.1877 173.309 10.6526 173.309 11.176C173.309 11.7268 173.188 12.1995 172.945 12.594C172.703 12.9885 172.35 13.2913 171.885 13.5022C171.424 13.7131 170.863 13.8186 170.203 13.8186ZM177.059 9.60571L174.51 17.0002H172.969L176.18 8.46899H177.164L177.059 9.60571ZM179.191 17.0002L176.637 9.60571L176.525 8.46899H177.516L180.738 17.0002H179.191ZM179.068 13.8362V15.0022H174.428V13.8362H179.068ZM181.84 8.46899L183.82 12.5413L185.801 8.46899H187.43L184.559 13.8596V17.0002H183.076V13.8596L180.205 8.46899H181.84ZM192.82 8.46899V17.0002H191.35V8.46899H192.82ZM196.301 12.2014V13.3674H192.445V12.2014H196.301ZM196.787 8.46899V9.64087H192.445V8.46899H196.787ZM202.746 8.46899H204.211V14.1702C204.211 14.8186 204.07 15.3616 203.789 15.7991C203.508 16.2366 203.125 16.5667 202.641 16.7893C202.16 17.0081 201.623 17.1174 201.029 17.1174C200.416 17.1174 199.869 17.0081 199.389 16.7893C198.908 16.5667 198.529 16.2366 198.252 15.7991C197.979 15.3616 197.842 14.8186 197.842 14.1702V8.46899H199.307V14.1702C199.307 14.5803 199.377 14.9182 199.518 15.1838C199.658 15.4456 199.857 15.6389 200.115 15.7639C200.373 15.8889 200.678 15.9514 201.029 15.9514C201.381 15.9514 201.684 15.8889 201.938 15.7639C202.195 15.6389 202.395 15.4456 202.535 15.1838C202.676 14.9182 202.746 14.5803 202.746 14.1702V8.46899ZM211.154 15.8342V17.0002H206.871V15.8342H211.154ZM207.281 8.46899V17.0002H205.811V8.46899H207.281ZM217.635 15.8342V17.0002H213.352V15.8342H217.635ZM213.762 8.46899V17.0002H212.291V8.46899H213.762Z" fill="#111111"/>
<g clip-path="url(#clip0_201_47)">
<path fill-rule="evenodd" clip-rule="evenodd" d="M7.93185 7.17847H14.137C17.4686 7.17847 18.7228 8.86511 18.529 11.343C18.2087 15.4355 15.7356 17.6971 12.4552 17.6971H10.791C10.3409 17.6971 10.0381 17.9951 9.91641 18.8023L9.21324 23.4955C9.16679 23.7998 9.00662 23.976 8.76636 24.0016H4.8677C4.5009 24.0016 4.37116 23.7213 4.46566 23.1142L6.84266 8.06904C6.93716 7.46518 7.26712 7.17847 7.93185 7.17847Z" fill="#009EE3"/>
<path fill-rule="evenodd" clip-rule="evenodd" d="M34.8636 6.89966C36.9571 6.89966 38.8888 8.0353 38.6245 10.8672C38.3042 14.2309 36.5022 16.0921 33.6591 16.1001H31.1764C30.8192 16.1001 30.6462 16.39 30.5533 16.9891L30.0728 20.0436C30.0007 20.5049 29.7637 20.7339 29.4129 20.7339H27.1016C26.7332 20.7339 26.605 20.4969 26.6867 19.9715L28.5944 7.72616C28.6889 7.1239 28.9148 6.89966 29.3264 6.89966H34.8636ZM31.0979 13.454H32.98C34.1573 13.4092 34.9405 12.5939 35.019 11.1235C35.0671 10.2153 34.4536 9.56496 33.4781 9.56977L31.705 9.57778L31.0979 13.4524V13.454ZM44.9066 19.7937C45.118 19.6031 45.3327 19.5022 45.3022 19.7393L45.2269 20.3063C45.1885 20.6026 45.3054 20.7612 45.5825 20.7612H47.6344C47.9803 20.7612 48.1485 20.6202 48.235 20.0868L49.5004 12.1438C49.5629 11.7449 49.4668 11.5495 49.164 11.5495H46.9056C46.7022 11.5495 46.6044 11.6649 46.55 11.9756L46.4667 12.4641C46.4234 12.7188 46.3065 12.7637 46.1976 12.5058C45.8148 11.5992 44.8377 11.1923 43.4746 11.2244C40.3064 11.2884 38.1712 13.6927 37.9438 16.776C37.766 19.1594 39.4751 21.0319 41.7271 21.0319C43.3593 21.0319 44.0913 20.5513 44.913 19.7969L44.9066 19.7937ZM43.1879 18.5716C41.8248 18.5716 40.875 17.484 41.0736 16.1514C41.2722 14.8187 42.5456 13.7311 43.9087 13.7311C45.2718 13.7311 46.2216 14.8171 46.0246 16.1514C45.8276 17.4856 44.5526 18.5716 43.1879 18.5716ZM53.5208 11.5239H51.4465C51.0157 11.5239 50.8411 11.8442 50.9788 12.2383L53.564 19.8097L51.0189 23.4105C50.8074 23.71 50.9708 23.9855 51.2703 23.9855H53.6105C53.7471 24.0012 53.8853 23.9774 54.0088 23.9169C54.1323 23.8564 54.2359 23.7618 54.3072 23.6443L62.2567 12.2383C62.5018 11.8875 62.3865 11.5207 61.9844 11.5191H59.7692C59.3896 11.5191 59.2374 11.6681 59.0196 11.9852L55.7024 16.7904L54.2224 11.9756C54.1359 11.6841 53.9196 11.5239 53.5208 11.5239Z" fill="#113984"/>
<path fill-rule="evenodd" clip-rule="evenodd" d="M70.5282 6.89966C72.6233 6.89966 74.555 8.0353 74.2891 10.8672C73.9767 14.2309 72.1668 16.0921 69.3237 16.1001H66.841C66.4838 16.1001 66.3108 16.39 66.2179 16.9891L65.7373 20.0436C65.6637 20.5049 65.4282 20.734 65.0774 20.734H62.7677C62.3993 20.734 62.2712 20.4969 62.3529 19.9715L64.2637 7.72616C64.3566 7.1239 64.5841 6.89966 64.9957 6.89966H70.5282ZM66.7641 13.454H68.6461C69.8234 13.4092 70.6067 12.5939 70.6852 11.1235C70.7332 10.2153 70.1197 9.56496 69.1427 9.56977L67.3711 9.57778L66.7641 13.4524V13.454ZM80.5727 19.7937C80.7842 19.6031 80.9988 19.5022 80.9684 19.7393L80.8931 20.3063C80.853 20.6026 80.9716 20.7612 81.2471 20.7612H83.3005C83.6465 20.7612 83.8147 20.6202 83.8996 20.0868L85.1649 12.1438C85.229 11.7449 85.1329 11.5495 84.8286 11.5495H82.5733C82.3699 11.5495 82.2706 11.6649 82.2177 11.9756L82.1344 12.4641C82.0912 12.7188 81.9743 12.7637 81.8653 12.5058C81.4825 11.5992 80.5055 11.1923 79.1344 11.2244C75.9677 11.2884 73.8326 13.6927 73.6035 16.776C73.4273 19.1594 75.1364 21.0319 77.3869 21.0319C79.0206 21.0319 79.751 20.5514 80.5743 19.7969L80.5727 19.7937ZM78.8541 18.5716C77.491 18.5716 76.5411 17.484 76.7398 16.1514C76.9384 14.8187 78.2118 13.7311 79.5749 13.7311C80.9379 13.7311 81.8878 14.8171 81.6891 16.1514C81.4905 17.4856 80.2171 18.5716 78.8541 18.5716ZM88.3252 20.7724H85.9562C85.9141 20.7747 85.8719 20.7675 85.8329 20.7513C85.794 20.735 85.7592 20.7102 85.7312 20.6786C85.7031 20.647 85.6826 20.6095 85.6711 20.5689C85.6596 20.5283 85.6574 20.4856 85.6647 20.444L87.747 7.25204C87.7671 7.16214 87.8169 7.08165 87.8884 7.02353C87.9599 6.96541 88.0489 6.93306 88.141 6.93169H90.5116C90.5529 6.92955 90.5942 6.93664 90.6324 6.95244C90.6706 6.96823 90.7049 6.99234 90.7326 7.02301C90.7604 7.05368 90.781 7.09015 90.7929 7.12976C90.8048 7.16938 90.8077 7.21115 90.8015 7.25204L88.7192 20.444C88.7016 20.5361 88.6528 20.6194 88.581 20.6797C88.5093 20.7401 88.4189 20.774 88.3252 20.7756V20.7724Z" fill="#009EE3"/>
<path fill-rule="evenodd" clip-rule="evenodd" d="M4.04278 2H10.256C12.0051 2 14.0793 2.05766 15.468 3.2814C16.3955 4.09989 16.8824 5.40211 16.7703 6.80524C16.389 11.548 13.5508 14.2053 9.74661 14.2053H6.68246C6.16189 14.2053 5.81592 14.5497 5.66856 15.4867L4.81322 20.9246C4.75876 21.277 4.605 21.4853 4.3327 21.5109H0.49972C0.0752571 21.5109 -0.0753086 21.1905 0.035212 20.4826L2.79022 3.03473C2.90074 2.33316 3.28676 2 4.04278 2Z" fill="#113984"/>
<path fill-rule="evenodd" clip-rule="evenodd" d="M5.7583 14.9341L6.84268 8.06904C6.93719 7.46518 7.26715 7.17847 7.92386 7.17847H14.129C15.1558 7.17847 15.9871 7.33864 16.6374 7.63497C16.0127 11.8556 13.2833 14.2021 9.70661 14.2021H6.65047C6.24043 14.2021 5.9393 14.4072 5.7583 14.9341Z" fill="#172C70"/>
</g>
<defs>
<clipPath id="clip0_201_47">
<rect width="90.8079" height="22" fill="white" transform="translate(0 2)"/>
</clipPath>
</defs>
</svg>
