<svg width="88" height="34" viewBox="0 0 88 34" fill="none" xmlns="http://www.w3.org/2000/svg">
<path d="M59.5994 18.9694L60.4722 19.2313C60.414 19.4786 60.3267 19.6822 60.1958 19.8422C60.0649 20.0023 59.9194 20.1332 59.7303 20.2059C59.5412 20.2932 59.3085 20.3368 59.0175 20.3368C58.6684 20.3368 58.392 20.2932 58.1592 20.1914C57.941 20.0895 57.7519 19.915 57.5919 19.6531C57.4319 19.4058 57.3446 19.0713 57.3446 18.6785C57.3446 18.1548 57.4901 17.7475 57.7665 17.4565C58.0429 17.1656 58.4502 17.0347 58.9593 17.0347C59.3666 17.0347 59.6721 17.122 59.9049 17.282C60.1376 17.442 60.3122 17.6893 60.414 18.0384L59.5412 18.2275C59.5121 18.1257 59.483 18.053 59.4394 18.0093C59.3812 17.9366 59.323 17.8784 59.2357 17.8348C59.1484 17.7911 59.0612 17.7766 58.9739 17.7766C58.7557 17.7766 58.5811 17.8638 58.4647 18.053C58.3774 18.1839 58.3338 18.4021 58.3338 18.6785C58.3338 19.0276 58.392 19.2749 58.4938 19.4058C58.5956 19.5368 58.7557 19.6095 58.9448 19.6095C59.1339 19.6095 59.2794 19.5513 59.3666 19.4495C59.483 19.3186 59.5558 19.1731 59.5994 18.9694Z" fill="#225E63"/>
<path d="M60.8213 18.6784C60.8213 18.1547 60.9668 17.7474 61.2577 17.4564C61.5486 17.1655 61.956 17.02 62.4797 17.02C63.0179 17.02 63.4252 17.1655 63.7161 17.4419C64.0071 17.7328 64.1526 18.1256 64.1526 18.6493C64.1526 19.0275 64.0944 19.333 63.9634 19.5658C63.8325 19.7985 63.658 19.9876 63.4107 20.1185C63.1779 20.2495 62.8724 20.3222 62.5233 20.3222C62.1596 20.3222 61.8687 20.264 61.6214 20.1476C61.3886 20.0313 61.1995 19.8567 61.0395 19.5948C60.8795 19.333 60.8213 19.0566 60.8213 18.6784ZM61.8105 18.6784C61.8105 18.9984 61.8687 19.2312 61.9851 19.3766C62.1014 19.5221 62.2614 19.5948 62.4797 19.5948C62.6979 19.5948 62.8579 19.5221 62.9743 19.3912C63.0906 19.2457 63.1488 18.9984 63.1488 18.6493C63.1488 18.3438 63.0906 18.1256 62.9597 17.9947C62.8433 17.8492 62.6688 17.791 62.4651 17.791C62.2614 17.791 62.1014 17.8638 61.9851 18.0092C61.8687 18.1256 61.8105 18.3584 61.8105 18.6784Z" fill="#225E63"/>
<path d="M64.6619 17.0781H65.9566L66.4512 19.0274L66.9458 17.0781H68.2405V20.2785H67.4258V17.8346L66.8003 20.2785H66.073L65.4474 17.8346V20.2785H64.6328V17.0781H64.6619Z" fill="#225E63"/>
<path d="M68.8801 17.0781H70.5239C70.8876 17.0781 71.1495 17.1654 71.324 17.34C71.4986 17.5145 71.5859 17.7473 71.5859 18.0673C71.5859 18.3874 71.484 18.6492 71.2949 18.8238C71.1058 19.0129 70.8003 19.1002 70.4076 19.1002H69.8693V20.293H68.8801V17.0781ZM69.8693 18.4455H70.1166C70.3057 18.4455 70.4367 18.4164 70.5239 18.3437C70.5967 18.271 70.6403 18.1982 70.6403 18.0964C70.6403 17.9946 70.6112 17.9073 70.5385 17.8346C70.4658 17.7618 70.3494 17.7327 70.1603 17.7327H69.8839V18.4455H69.8693Z" fill="#225E63"/>
<path d="M72.1099 17.0781H73.0991V19.4929H74.6411V20.2785H72.1099V17.0781Z" fill="#225E63"/>
<path d="M75.1356 17.0781H76.1248V20.2785H75.1356V17.0781Z" fill="#225E63"/>
<path d="M78.8012 19.7404H77.6811L77.5211 20.2641H76.5173L77.7247 17.0637H78.8012L80.0086 20.2641H78.9758L78.8012 19.7404ZM78.5976 19.0567L78.2484 17.9074L77.8993 19.0567H78.5976Z" fill="#225E63"/>
<path d="M80.3142 17.0781H81.2307L82.4381 18.8529V17.0781H83.3691V20.2785H82.4381L81.2452 18.5183V20.2785H80.3142V17.0781Z" fill="#225E63"/>
<path d="M83.8059 17.0781H86.8171V17.8637H85.8134V20.2785H84.8242V17.8637H83.8205V17.0781H83.8059Z" fill="#225E63"/>
<path d="M47.6997 21.9515L50.5655 21.0496L49.6345 18.9839C48.9508 19.8422 48.2671 20.9477 47.6997 21.9515ZM46.7251 12.5104L41.1099 0L0 2.32753L11.3903 33.4L33.3127 26.4902C31.9162 24.4827 31.4071 22.097 33.0218 20.9332C34.8256 19.624 37.5459 21.1368 39.277 23.2753C40.9499 20.4822 45.6486 13.9797 46.7251 12.5104Z" fill="#225E63"/>
<path d="M39.8291 9.04082C41.5457 9.04082 42.9422 7.73159 42.9422 6.10232C42.9422 4.47305 41.5457 3.16382 39.8291 3.16382C38.1126 3.16382 36.7161 4.47305 36.7161 6.10232C36.7161 7.71704 38.1126 9.04082 39.8291 9.04082ZM37.2834 10.3064H42.3749V23.6169H37.2834V10.3064Z" fill="#FEFEFE"/>
<path d="M34.7667 14.1904C34.8103 14.205 34.8394 14.1904 34.8394 14.1468V10.7719C34.8394 10.7282 34.8103 10.6846 34.7667 10.6555C34.7667 10.6555 34.0975 10.2191 32.0609 10.1027C31.9591 10.0445 30.1698 10.03 29.6898 10.1027C22.2708 10.6991 21.9944 16.067 21.9944 16.2998V17.609C21.9944 17.769 21.9944 23.2532 29.6898 23.7333C30.4462 23.7915 31.9155 23.7333 32.0609 23.7333C33.8357 23.7333 35.0576 23.195 35.0576 23.195C35.1013 23.1805 35.1304 23.1369 35.1304 23.0932V19.9365C35.1304 19.8929 35.1013 19.8783 35.0722 19.9074C35.0722 19.9074 34.5194 20.3438 32.1046 20.5911C31.4209 20.6639 31.0863 20.6348 30.839 20.5911C27.4059 20.0092 27.2459 17.5072 27.2459 17.5072C27.2459 17.4635 27.2313 17.3908 27.2313 17.3617V16.4016C27.2313 16.3579 27.2313 16.2852 27.2459 16.2561C27.2459 16.2561 27.4786 13.5649 30.839 13.274H32.1046C33.5738 13.4631 34.7667 14.1904 34.7667 14.1904Z" fill="#FEFEFE"/>
<path d="M7.85474 23.5734C7.85474 23.6171 7.88383 23.6462 7.92747 23.6462H12.888C12.9317 23.6462 12.9607 23.6171 12.9607 23.5734V19.7039C12.9607 19.6603 12.9898 19.6312 13.0335 19.6312C13.0335 19.6312 20.9616 20.1985 20.9616 14.8889C20.9616 10.6848 15.9865 10.2338 14.3573 10.3065C14.3282 10.3065 7.92747 10.3065 7.92747 10.3065C7.88383 10.3065 7.85474 10.3356 7.85474 10.3793V23.5734ZM12.8735 16.6781V13.2014H14.0954C14.0954 13.2014 15.8556 13.2741 16.0011 14.4815C16.0302 14.5688 16.0302 15.1653 16.0011 15.1943C15.7683 16.6054 14.2409 16.6781 14.2409 16.6781H12.8735Z" fill="#FEFEFE"/>
<path d="M39.975 30.0395C40.3824 30.0395 40.7024 30.0395 41.2261 29.8067C43.0299 28.8612 49.1251 13.9796 55.5549 9.39724C55.5986 9.36815 55.6422 9.32451 55.6713 9.28087C55.7149 9.22268 55.7149 9.16449 55.7149 9.16449C55.7149 9.16449 55.7149 8.85901 54.7694 8.85901C49.0524 8.69899 43.1027 20.7003 39.975 25.4426C39.9314 25.5008 39.7277 25.4426 39.7277 25.4426C39.7277 25.4426 37.633 22.9696 35.8146 22.0241C35.771 22.0095 35.5673 21.9368 35.3491 21.9513C35.2036 21.9513 34.3599 22.1259 33.9671 22.5332C33.5016 23.0278 33.5162 23.3042 33.5162 23.9006C33.5162 23.9443 33.5453 24.1479 33.6034 24.2498C34.0544 25.0353 36.0764 27.8283 37.7493 29.3703C37.9966 29.5594 38.3894 30.0395 39.975 30.0395Z" fill="#2BBC5D"/>
<path d="M57.2429 4.90234H61.9998C62.9454 4.90234 63.7018 5.03327 64.2691 5.28057C64.851 5.54241 65.3311 5.90609 65.6947 6.3716C66.073 6.85165 66.3494 7.40443 66.5094 8.02996C66.6839 8.65548 66.7712 9.32464 66.7712 10.0374C66.7712 11.143 66.6403 12.0013 66.393 12.6123C66.1457 13.2232 65.7966 13.7324 65.3456 14.1543C64.8947 14.5616 64.4146 14.838 63.9055 14.9834C63.2072 15.1726 62.5671 15.2598 61.9998 15.2598H57.2429V4.90234ZM60.4433 7.24442V12.9032H61.2288C61.898 12.9032 62.378 12.8305 62.6544 12.685C62.9308 12.5395 63.1636 12.2777 63.3236 11.914C63.4836 11.5503 63.5709 10.9394 63.5709 10.1102C63.5709 9.00461 63.3963 8.26271 63.0326 7.85539C62.669 7.44807 62.0871 7.24442 61.2434 7.24442H60.4433Z" fill="#225E63"/>
<path d="M67.6587 11.8412L70.7136 11.6521C70.7863 12.1467 70.9172 12.5249 71.1209 12.7867C71.4555 13.2086 71.921 13.4123 72.532 13.4123C72.9829 13.4123 73.3466 13.3104 73.5939 13.0922C73.8412 12.874 73.9721 12.6267 73.9721 12.3503C73.9721 12.0885 73.8557 11.8412 73.623 11.623C73.3902 11.4048 72.8374 11.2157 71.9792 11.0265C70.5681 10.7065 69.5789 10.2846 68.9679 9.76096C68.3569 9.23726 68.066 8.5681 68.066 7.75347C68.066 7.21523 68.226 6.72063 68.5315 6.24058C68.837 5.76052 69.3025 5.39685 69.928 5.12045C70.5536 4.84406 71.3973 4.71313 72.4738 4.71313C73.7975 4.71313 74.8158 4.96044 75.4995 5.45503C76.1978 5.94963 76.6051 6.73517 76.736 7.81165L73.7103 7.98622C73.623 7.52071 73.463 7.18613 73.2011 6.96793C72.9393 6.74972 72.5901 6.64789 72.1392 6.64789C71.761 6.64789 71.4846 6.72063 71.2955 6.88064C71.1063 7.04066 71.0191 7.22977 71.0191 7.46253C71.0191 7.62254 71.0918 7.78256 71.2518 7.91349C71.3973 8.04441 71.761 8.17533 72.3283 8.2917C73.7248 8.59719 74.7286 8.90268 75.3395 9.20817C75.9505 9.51366 76.3869 9.90643 76.6633 10.3574C76.9397 10.8083 77.0706 11.332 77.0706 11.8994C77.0706 12.5685 76.8815 13.1795 76.5178 13.7323C76.1542 14.2996 75.6305 14.7215 74.9759 15.0124C74.3212 15.3034 73.4775 15.4488 72.4738 15.4488C70.7136 15.4488 69.4916 15.1143 68.8079 14.4306C68.1387 13.7468 67.7605 12.8886 67.6587 11.8412Z" fill="#225E63"/>
<path d="M77.8853 11.8412L80.9401 11.6521C81.0129 12.1467 81.1438 12.5249 81.3474 12.7867C81.682 13.2086 82.1475 13.4123 82.7585 13.4123C83.2095 13.4123 83.5731 13.3104 83.8204 13.0922C84.0677 12.874 84.1987 12.6267 84.1987 12.3503C84.1987 12.0885 84.0823 11.8412 83.8495 11.623C83.6168 11.4048 83.064 11.2157 82.2057 11.0265C80.7947 10.7065 79.8055 10.2846 79.1945 9.76096C78.5981 9.23726 78.2926 8.5681 78.2926 7.75347C78.2926 7.21523 78.4526 6.72063 78.7581 6.24058C79.0636 5.76052 79.5291 5.39685 80.1546 5.12045C80.7801 4.84406 81.6238 4.71313 82.7003 4.71313C84.0241 4.71313 85.0424 4.96044 85.7261 5.45503C86.4244 5.94963 86.8317 6.73517 86.9626 7.81165L83.9368 7.98622C83.8495 7.52071 83.6895 7.18613 83.4277 6.96793C83.1658 6.74972 82.8167 6.64789 82.3657 6.64789C81.9875 6.64789 81.7111 6.72063 81.522 6.88064C81.3329 7.04066 81.2456 7.22977 81.2456 7.46253C81.2456 7.62254 81.3184 7.78256 81.4784 7.91349C81.6238 8.04441 81.9875 8.17533 82.5548 8.2917C83.9514 8.59719 84.9551 8.90268 85.5661 9.20817C86.1771 9.51366 86.6135 9.90643 86.8899 10.3574C87.1663 10.8083 87.2972 11.332 87.2972 11.8994C87.2972 12.5685 87.1081 13.1795 86.7444 13.7323C86.3807 14.2996 85.857 14.7215 85.2024 15.0124C84.5478 15.3034 83.7041 15.4488 82.7003 15.4488C80.9401 15.4488 79.7182 15.1143 79.0345 14.4306C78.3508 13.7468 77.9725 12.8886 77.8853 11.8412Z" fill="#225E63"/>
</svg>
