<svg width="162" height="14" viewBox="0 0 162 14" fill="none" xmlns="http://www.w3.org/2000/svg">
<path d="M0.69 12.2V5.04H1.45L1.53 5.86C1.69 5.62 1.91667 5.40333 2.21 5.21C2.51 5.01667 2.89 4.92 3.35 4.92C3.84333 4.92 4.27333 5.03333 4.64 5.26C5.00667 5.48667 5.29 5.79667 5.49 6.19C5.69667 6.58333 5.8 7.03 5.8 7.53C5.8 8.03 5.69667 8.47667 5.49 8.87C5.29 9.25667 5.00333 9.56333 4.63 9.79C4.26333 10.01 3.83333 10.12 3.34 10.12C2.93333 10.12 2.57 10.0367 2.25 9.87C1.93667 9.70333 1.69667 9.47 1.53 9.17V12.2H0.69ZM3.25 9.39C3.58333 9.39 3.87667 9.31333 4.13 9.16C4.38333 9 4.58333 8.78 4.73 8.5C4.87667 8.22 4.95 7.89333 4.95 7.52C4.95 7.14667 4.87667 6.82 4.73 6.54C4.58333 6.26 4.38333 6.04333 4.13 5.89C3.87667 5.73 3.58333 5.65 3.25 5.65C2.91667 5.65 2.62333 5.73 2.37 5.89C2.11667 6.04333 1.91667 6.26 1.77 6.54C1.62333 6.82 1.55 7.14667 1.55 7.52C1.55 7.89333 1.62333 8.22 1.77 8.5C1.91667 8.78 2.11667 9 2.37 9.16C2.62333 9.31333 2.91667 9.39 3.25 9.39ZM9.3293 10.12C8.86263 10.12 8.44263 10.0133 8.0693 9.8C7.69596 9.58667 7.3993 9.28667 7.1793 8.9C6.96596 8.50667 6.8593 8.04667 6.8593 7.52C6.8593 6.99333 6.9693 6.53667 7.1893 6.15C7.4093 5.75667 7.70596 5.45333 8.0793 5.24C8.4593 5.02667 8.88263 4.92 9.3493 4.92C9.81596 4.92 10.236 5.02667 10.6093 5.24C10.9826 5.45333 11.276 5.75667 11.4893 6.15C11.7093 6.53667 11.8193 6.99333 11.8193 7.52C11.8193 8.04667 11.7093 8.50667 11.4893 8.9C11.2693 9.28667 10.9693 9.58667 10.5893 9.8C10.216 10.0133 9.79596 10.12 9.3293 10.12ZM9.3293 9.4C9.61596 9.4 9.88263 9.33 10.1293 9.19C10.376 9.05 10.576 8.84 10.7293 8.56C10.8826 8.28 10.9593 7.93333 10.9593 7.52C10.9593 7.10667 10.8826 6.76 10.7293 6.48C10.5826 6.2 10.386 5.99 10.1393 5.85C9.89263 5.71 9.6293 5.64 9.3493 5.64C9.06263 5.64 8.79596 5.71 8.5493 5.85C8.30263 5.99 8.10263 6.2 7.9493 6.48C7.79596 6.76 7.7193 7.10667 7.7193 7.52C7.7193 7.93333 7.79596 8.28 7.9493 8.56C8.10263 8.84 8.2993 9.05 8.5393 9.19C8.78596 9.33 9.0493 9.4 9.3293 9.4ZM13.9017 10L12.4517 5.04H13.2917L14.3417 8.93L15.5017 5.04H16.4517L17.6217 8.93L18.6617 5.04H19.5117L18.0617 10H17.2017L15.9817 5.91L14.7617 10H13.9017ZM22.5852 10.12C22.1119 10.12 21.6919 10.0133 21.3252 9.8C20.9586 9.58 20.6686 9.27667 20.4552 8.89C20.2486 8.50333 20.1452 8.04667 20.1452 7.52C20.1452 7 20.2486 6.54667 20.4552 6.16C20.6619 5.76667 20.9486 5.46333 21.3152 5.25C21.6886 5.03 22.1186 4.92 22.6052 4.92C23.0852 4.92 23.4986 5.03 23.8452 5.25C24.1986 5.46333 24.4686 5.74667 24.6552 6.1C24.8419 6.45333 24.9352 6.83333 24.9352 7.24C24.9352 7.31333 24.9319 7.38667 24.9252 7.46C24.9252 7.53333 24.9252 7.61667 24.9252 7.71H20.9752C20.9952 8.09 21.0819 8.40667 21.2352 8.66C21.3952 8.90667 21.5919 9.09333 21.8252 9.22C22.0652 9.34667 22.3186 9.41 22.5852 9.41C22.9319 9.41 23.2219 9.33 23.4552 9.17C23.6886 9.01 23.8586 8.79333 23.9652 8.52H24.7952C24.6619 8.98 24.4052 9.36333 24.0252 9.67C23.6519 9.97 23.1719 10.12 22.5852 10.12ZM22.5852 5.63C22.1852 5.63 21.8286 5.75333 21.5152 6C21.2086 6.24 21.0319 6.59333 20.9852 7.06H24.1052C24.0852 6.61333 23.9319 6.26333 23.6452 6.01C23.3586 5.75667 23.0052 5.63 22.5852 5.63ZM26.1486 10V5.04H26.9086L26.9786 5.99C27.1319 5.66333 27.3653 5.40333 27.6786 5.21C27.9919 5.01667 28.3786 4.92 28.8386 4.92V5.8H28.6086C28.3153 5.8 28.0453 5.85333 27.7986 5.96C27.5519 6.06 27.3553 6.23333 27.2086 6.48C27.0619 6.72667 26.9886 7.06667 26.9886 7.5V10H26.1486ZM31.9259 10.12C31.4525 10.12 31.0325 10.0133 30.6659 9.8C30.2992 9.58 30.0092 9.27667 29.7959 8.89C29.5892 8.50333 29.4859 8.04667 29.4859 7.52C29.4859 7 29.5892 6.54667 29.7959 6.16C30.0025 5.76667 30.2892 5.46333 30.6559 5.25C31.0292 5.03 31.4592 4.92 31.9459 4.92C32.4259 4.92 32.8392 5.03 33.1859 5.25C33.5392 5.46333 33.8092 5.74667 33.9959 6.1C34.1825 6.45333 34.2759 6.83333 34.2759 7.24C34.2759 7.31333 34.2725 7.38667 34.2659 7.46C34.2659 7.53333 34.2659 7.61667 34.2659 7.71H30.3159C30.3359 8.09 30.4225 8.40667 30.5759 8.66C30.7359 8.90667 30.9325 9.09333 31.1659 9.22C31.4059 9.34667 31.6592 9.41 31.9259 9.41C32.2725 9.41 32.5625 9.33 32.7959 9.17C33.0292 9.01 33.1992 8.79333 33.3059 8.52H34.1359C34.0025 8.98 33.7459 9.36333 33.3659 9.67C32.9925 9.97 32.5125 10.12 31.9259 10.12ZM31.9259 5.63C31.5259 5.63 31.1692 5.75333 30.8559 6C30.5492 6.24 30.3725 6.59333 30.3259 7.06H33.4459C33.4259 6.61333 33.2725 6.26333 32.9859 6.01C32.6992 5.75667 32.3459 5.63 31.9259 5.63ZM37.7392 10.12C37.2459 10.12 36.8126 10.0067 36.4392 9.78C36.0726 9.55333 35.7859 9.24333 35.5792 8.85C35.3792 8.45667 35.2792 8.01 35.2792 7.51C35.2792 7.01 35.3826 6.56667 35.5892 6.18C35.7959 5.78667 36.0826 5.48 36.4492 5.26C36.8159 5.03333 37.2492 4.92 37.7492 4.92C38.1559 4.92 38.5159 5.00333 38.8292 5.17C39.1426 5.33667 39.3859 5.57 39.5592 5.87V2.8H40.3992V10H39.6392L39.5592 9.18C39.3992 9.42 39.1692 9.63667 38.8692 9.83C38.5692 10.0233 38.1926 10.12 37.7392 10.12ZM37.8292 9.39C38.1626 9.39 38.4559 9.31333 38.7092 9.16C38.9692 9 39.1692 8.78 39.3092 8.5C39.4559 8.22 39.5292 7.89333 39.5292 7.52C39.5292 7.14667 39.4559 6.82 39.3092 6.54C39.1692 6.26 38.9692 6.04333 38.7092 5.89C38.4559 5.73 38.1626 5.65 37.8292 5.65C37.5026 5.65 37.2092 5.73 36.9492 5.89C36.6959 6.04333 36.4959 6.26 36.3492 6.54C36.2092 6.82 36.1392 7.14667 36.1392 7.52C36.1392 7.89333 36.2092 8.22 36.3492 8.5C36.4959 8.78 36.6959 9 36.9492 9.16C37.2092 9.31333 37.5026 9.39 37.8292 9.39ZM47.265 10.12C46.8583 10.12 46.495 10.0367 46.175 9.87C45.8617 9.70333 45.6217 9.47 45.455 9.17L45.375 10H44.615V2.8H45.455V5.86C45.615 5.62 45.8417 5.40333 46.135 5.21C46.435 5.01667 46.815 4.92 47.275 4.92C47.7683 4.92 48.1983 5.03333 48.565 5.26C48.9317 5.48667 49.215 5.79667 49.415 6.19C49.6217 6.58333 49.725 7.03 49.725 7.53C49.725 8.03 49.6217 8.47667 49.415 8.87C49.215 9.25667 48.9283 9.56333 48.555 9.79C48.1883 10.01 47.7583 10.12 47.265 10.12ZM47.175 9.39C47.5083 9.39 47.8017 9.31333 48.055 9.16C48.3083 9 48.5083 8.78 48.655 8.5C48.8017 8.22 48.875 7.89333 48.875 7.52C48.875 7.14667 48.8017 6.82 48.655 6.54C48.5083 6.26 48.3083 6.04333 48.055 5.89C47.8017 5.73 47.5083 5.65 47.175 5.65C46.8417 5.65 46.5483 5.73 46.295 5.89C46.0417 6.04333 45.8417 6.26 45.695 6.54C45.5483 6.82 45.475 7.14667 45.475 7.52C45.475 7.89333 45.5483 8.22 45.695 8.5C45.8417 8.78 46.0417 9 46.295 9.16C46.5483 9.31333 46.8417 9.39 47.175 9.39ZM51.1339 12.2L52.3639 9.52H52.0739L50.1039 5.04H51.0139L52.6539 8.9L54.3939 5.04H55.2639L52.0139 12.2H51.1339Z" fill="black"/>
<path d="M63.8348 2.3338V11.0474H62.2014V3.69064H60.3407V2.3338H63.8348Z" fill="#E72E80"/>
<path d="M65.7195 6.94006H69.1748V8.23673H65.7195V6.94006Z" fill="#E72E80"/>
<path d="M72.2253 10.6984C71.687 10.421 71.2385 9.9989 70.9312 9.48055C70.6263 8.94374 70.4662 8.33819 70.4662 7.72226C70.4662 7.10634 70.6263 6.50079 70.9312 5.96398C71.2393 5.45111 71.6852 5.0331 72.2191 4.75652C72.7988 4.45866 73.4445 4.30891 74.0975 4.32084C74.702 4.30748 75.3003 4.44443 75.8377 4.71917C76.3246 4.97255 76.7182 5.37194 76.9622 5.86024L75.756 6.55734C75.5815 6.26752 75.3321 6.02903 75.0336 5.86647C74.6462 5.66929 74.2068 5.59575 73.7756 5.65593C73.3444 5.71611 72.9426 5.90706 72.6253 6.20257C72.24 6.58016 72.0473 7.0843 72.0473 7.715C72.0473 8.3457 72.2379 8.84985 72.619 9.22744C72.937 9.52174 73.3387 9.71189 73.7696 9.77202C74.2005 9.83216 74.6396 9.75936 75.0273 9.56354C75.3258 9.40097 75.5752 9.16249 75.7497 8.87267L76.9622 9.57806C76.7098 10.0661 76.3131 10.4664 75.8251 10.7254C75.2932 11.0031 74.6987 11.1424 74.0975 11.1299C73.447 11.1417 72.8038 10.9934 72.2253 10.6984Z" fill="#E72E80"/>
<path d="M78.2632 1.81219H79.8338V11.0445H78.2632V1.81219Z" fill="#E72E80"/>
<path d="M81.9646 3.0385C81.8733 2.95273 81.8007 2.84945 81.751 2.73495C81.7014 2.62046 81.6757 2.49715 81.6757 2.37253C81.6757 2.24792 81.7014 2.1246 81.751 2.01011C81.8007 1.89562 81.8733 1.79233 81.9646 1.70656C82.1585 1.52755 82.4158 1.43141 82.6808 1.43893C82.9435 1.43094 83.1995 1.52216 83.397 1.69411C83.4899 1.77322 83.564 1.87173 83.614 1.98257C83.6639 2.09341 83.6885 2.21382 83.686 2.33518C83.6893 2.4634 83.6659 2.59092 83.6172 2.70979C83.5686 2.82865 83.4957 2.93631 83.4032 3.02605C83.3085 3.11909 83.1955 3.19194 83.0712 3.24011C82.947 3.28827 82.8141 3.31074 82.6808 3.30614C82.4158 3.31365 82.1585 3.21751 81.9646 3.0385ZM81.8892 4.39949H83.4598V11.0488H81.8892V4.39949Z" fill="#E72E80"/>
<path d="M86.7305 10.6984C86.1921 10.421 85.7436 9.9989 85.4363 9.48055C85.1315 8.94374 84.9713 8.33819 84.9713 7.72226C84.9713 7.10634 85.1315 6.50079 85.4363 5.96398C85.7445 5.45111 86.1903 5.0331 86.7242 4.75652C87.304 4.45866 87.9496 4.30891 88.6026 4.32084C89.2072 4.30748 89.8055 4.44443 90.3428 4.71917C90.8297 4.97255 91.2233 5.37194 91.4674 5.86024L90.2643 6.56564C90.0897 6.27582 89.8403 6.03734 89.5418 5.87477C89.1545 5.67759 88.7151 5.60405 88.2839 5.66423C87.8527 5.72441 87.4508 5.91536 87.1336 6.21086C86.7483 6.58845 86.5556 7.0926 86.5556 7.7233C86.5556 8.354 86.7448 8.85815 87.1231 9.23574C87.4411 9.53004 87.8428 9.72018 88.2737 9.78032C88.7046 9.84045 89.1437 9.76766 89.5313 9.57184C89.8299 9.40927 90.0793 9.17079 90.2538 8.88097L91.46 9.57806C91.2095 10.0651 90.8155 10.4652 90.3303 10.7254C89.7983 11.0031 89.2038 11.1424 88.6026 11.1299C87.9521 11.1417 87.3089 10.9934 86.7305 10.6984Z" fill="#E72E80"/>
<path d="M95.4952 8.19777L94.3266 9.2932V11.0484H92.756V1.81607H94.3266V7.3928L97.583 4.39904H99.4677L96.6658 7.18948L99.7316 11.0484H97.8217L95.4952 8.19777Z" fill="#E72E80"/>
<path d="M105.333 10.6863C104.825 10.4105 104.404 9.9986 104.121 9.49753C103.823 8.97126 103.672 8.37651 103.681 7.77348C103.671 7.17236 103.823 6.57948 104.121 6.05565C104.406 5.55729 104.826 5.14773 105.333 4.87309C105.871 4.58526 106.475 4.4395 107.086 4.44986C107.614 4.44068 108.137 4.55363 108.613 4.77973C109.053 4.99309 109.422 5.32811 109.675 5.74445L109.006 6.19258C108.8 5.8811 108.514 5.63028 108.176 5.46645C107.835 5.30334 107.461 5.22028 107.083 5.22371C106.633 5.21684 106.189 5.32624 105.795 5.54114C105.416 5.75051 105.106 6.0639 104.903 6.44362C104.692 6.85769 104.583 7.31496 104.583 7.77867C104.583 8.24239 104.692 8.69965 104.903 9.11372C105.108 9.49079 105.417 9.80181 105.795 10.01C106.189 10.2249 106.633 10.3343 107.083 10.3274C107.461 10.331 107.834 10.2501 108.176 10.0909C108.515 9.92908 108.802 9.67783 109.006 9.36476L109.672 9.81289C109.418 10.2304 109.047 10.5656 108.604 10.7776C108.13 11.0024 107.609 11.1153 107.083 11.1075C106.473 11.1179 105.87 10.9729 105.333 10.6863Z" fill="#E72E80"/>
<path d="M116.667 5.16671C117.156 5.64388 117.4 6.33889 117.4 7.25175V11.0484H116.508V7.33889C116.508 6.6584 116.336 6.13973 115.993 5.78288C115.649 5.42604 115.161 5.24761 114.527 5.24761C113.815 5.24761 113.252 5.45716 112.837 5.87624C112.422 6.29533 112.214 6.87485 112.213 7.61482V11.0484H111.321V1.8161H112.213V5.65425C112.457 5.27149 112.806 4.96506 113.218 4.77044C113.676 4.55661 114.178 4.45012 114.684 4.45924C115.516 4.45371 116.177 4.68953 116.667 5.16671Z" fill="#E72E80"/>
<path d="M125.605 8.04721H120.077C120.09 8.36066 120.167 8.6682 120.303 8.95155C120.439 9.23489 120.631 9.48826 120.868 9.69657C121.346 10.1157 121.949 10.3252 122.677 10.3252C123.065 10.3296 123.45 10.2554 123.808 10.1074C124.151 9.96295 124.456 9.74381 124.7 9.46628L125.203 10.0389C124.908 10.3893 124.53 10.6628 124.104 10.8356C123.643 11.0221 123.15 11.1152 122.652 11.1094C122.024 11.1218 121.403 10.9739 120.849 10.68C120.337 10.4046 119.913 9.99284 119.624 9.49118C119.326 8.96735 119.175 8.37447 119.184 7.77335C119.174 7.17472 119.318 6.58336 119.603 6.05552C119.87 5.56343 120.268 5.15408 120.755 4.87296C121.258 4.58754 121.828 4.44135 122.407 4.44972C122.985 4.44083 123.553 4.58709 124.053 4.87296C124.537 5.15278 124.933 5.55998 125.197 6.0493C125.482 6.57926 125.626 7.1727 125.616 7.77335L125.605 8.04721ZM120.812 5.81279C120.375 6.22719 120.114 6.78972 120.079 7.38746H124.765C124.73 6.78972 124.469 6.22719 124.032 5.81279C123.589 5.42382 123.017 5.20909 122.424 5.20909C121.832 5.20909 121.26 5.42382 120.816 5.81279H120.812Z" fill="#E72E80"/>
<path d="M128.429 10.6863C127.92 10.4108 127.5 9.9988 127.216 9.49753C126.918 8.97153 126.766 8.37666 126.776 7.77348C126.766 7.17222 126.918 6.57921 127.216 6.05565C127.501 5.55706 127.921 5.14741 128.429 4.87309C128.967 4.58526 129.571 4.4395 130.182 4.44986C130.71 4.44068 131.232 4.55363 131.708 4.77973C132.151 4.99271 132.521 5.32863 132.774 5.74653L132.108 6.19466C131.903 5.88298 131.617 5.63208 131.279 5.46852C130.938 5.30542 130.564 5.22235 130.186 5.22578C129.736 5.21891 129.292 5.32831 128.898 5.54321C128.519 5.75229 128.209 6.06577 128.006 6.44569C127.795 6.85977 127.686 7.31703 127.686 7.78074C127.686 8.24446 127.795 8.70172 128.006 9.11579C128.21 9.49307 128.52 9.80417 128.898 10.0121C129.292 10.227 129.736 10.3364 130.186 10.3295C130.564 10.333 130.937 10.2522 131.279 10.093C131.618 9.93141 131.905 9.68008 132.108 9.36683L132.774 9.81496C132.521 10.2327 132.15 10.568 131.706 10.7797C131.232 11.0045 130.712 11.1174 130.186 11.1096C129.573 11.1206 128.968 10.9749 128.429 10.6863Z" fill="#E72E80"/>
<path d="M136.866 7.76212L135.308 9.1812V11.0484H134.416V1.8161H135.308V8.07747L139.253 4.50281H140.359L137.532 7.17914L140.627 11.0484H139.534L136.866 7.76212Z" fill="#E72E80"/>
<path d="M142.684 10.6797C142.179 10.4005 141.762 9.98924 141.477 9.49094C141.188 8.96351 141.037 8.37305 141.037 7.77311C141.037 7.17317 141.188 6.58272 141.477 6.05528C141.761 5.55786 142.179 5.14844 142.684 4.87272C143.214 4.59477 143.805 4.44946 144.405 4.44946C145.005 4.44946 145.596 4.59477 146.127 4.87272C146.631 5.14828 147.047 5.55877 147.328 6.05736C147.612 6.58605 147.761 7.17601 147.761 7.77519C147.761 8.37437 147.612 8.96433 147.328 9.49302C147.046 9.9916 146.631 10.4031 146.128 10.6818C145.599 10.9637 145.007 11.1113 144.406 11.1113C143.806 11.1113 143.214 10.9637 142.685 10.6818L142.684 10.6797ZM145.668 10.0075C146.041 9.79613 146.344 9.48279 146.541 9.10506C146.748 8.69084 146.855 8.23508 146.855 7.77311C146.855 7.31115 146.748 6.85539 146.541 6.44118C146.344 6.06344 146.041 5.7501 145.668 5.53869C145.28 5.33042 144.846 5.22134 144.405 5.22134C143.964 5.22134 143.53 5.33042 143.143 5.53869C142.769 5.75101 142.464 6.06396 142.263 6.44118C142.052 6.85416 141.943 7.3104 141.943 7.77311C141.943 8.23583 142.052 8.69207 142.263 9.10506C142.464 9.48228 142.769 9.79523 143.143 10.0075C143.53 10.2158 143.964 10.3249 144.405 10.3249C144.846 10.3249 145.28 10.2158 145.668 10.0075Z" fill="#E72E80"/>
<path d="M155.539 4.50238V11.048H154.684V9.85297C154.455 10.2456 154.12 10.5669 153.716 10.7803C153.283 11.0058 152.799 11.1193 152.309 11.1102C151.446 11.1102 150.766 10.8716 150.267 10.3945C149.769 9.91728 149.52 9.21812 149.52 8.29696V4.50238H150.412V8.2119C150.412 8.90346 150.584 9.42628 150.927 9.78035C151.27 10.1344 151.759 10.3128 152.393 10.3156C153.091 10.3156 153.64 10.1061 154.039 9.68699C154.438 9.26791 154.64 8.68492 154.643 7.93804V4.50238H155.539Z" fill="#E72E80"/>
<path d="M161.518 10.6493C161.338 10.8059 161.126 10.9226 160.896 10.9917C160.646 11.0709 160.386 11.1108 160.123 11.1099C159.503 11.1099 159.026 10.9439 158.691 10.612C158.356 10.28 158.188 9.81117 158.188 9.20537V5.24689H157.007V4.50208H158.188V3.07056H159.08V4.50208H161.091V5.24896H159.08V9.15765C159.08 9.54769 159.179 9.84437 159.376 10.0477C159.573 10.251 159.855 10.3527 160.224 10.3527C160.406 10.3531 160.586 10.3237 160.758 10.2655C160.921 10.212 161.073 10.1274 161.204 10.0166L161.518 10.6493Z" fill="#E72E80"/>
</svg>
