<svg xmlns="http://www.w3.org/2000/svg" width="94" height="10" fill="none" xmlns:v="https://vecta.io/nano"><path d="M.705 8V2.182H2.67c.456 0 .83.082 1.119.247s.508.384.648.662.21.589.21.932a2.06 2.06 0 0 1-.21.935c-.138.28-.352.504-.642.67s-.661.247-1.114.247H1.273V5.25h1.386c.313 0 .563-.054.753-.162s.327-.254.412-.437a1.46 1.46 0 0 0 .131-.628 1.44 1.44 0 0 0-.131-.625c-.085-.184-.223-.328-.415-.432s-.445-.159-.761-.159H1.409V8H.705zm6.713.091c-.394 0-.74-.094-1.037-.281a1.91 1.91 0 0 1-.693-.787c-.165-.337-.247-.731-.247-1.182s.082-.851.247-1.19.398-.602.693-.79.643-.281 1.037-.281.739.094 1.034.281a1.88 1.88 0 0 1 .693.79c.167.339.25.736.25 1.19s-.083.845-.25 1.182-.396.599-.693.787-.64.281-1.034.281zm0-.602c.299 0 .545-.077.739-.23s.336-.355.429-.605.139-.521.139-.812a2.34 2.34 0 0 0-.139-.815c-.093-.252-.236-.455-.429-.611s-.439-.233-.739-.233-.545.078-.739.233-.336.359-.429.611a2.34 2.34 0 0 0-.139.815c0 .292.046.563.139.813s.236.452.429.605.439.23.739.23zM11.259 8l-1.33-4.364h.705l.943 3.341h.045l.932-3.341h.716l.92 3.33h.045l.943-3.33h.704L14.554 8h-.659l-.955-3.352h-.068L11.918 8h-.659zm7.193.091c-.421 0-.783-.093-1.088-.278a1.87 1.87 0 0 1-.702-.784c-.163-.337-.244-.729-.244-1.176s.081-.841.244-1.182.394-.61.688-.801.64-.29 1.034-.29a2.07 2.07 0 0 1 .673.114c.222.076.423.199.605.369s.327.392.435.67.162.621.162 1.028v.284h-3.364v-.58h2.682a1.43 1.43 0 0 0-.148-.659c-.097-.193-.235-.346-.415-.457s-.388-.168-.631-.168c-.267 0-.498.066-.693.199a1.31 1.31 0 0 0-.446.511 1.5 1.5 0 0 0-.156.676v.386c0 .33.057.609.17.838a1.23 1.23 0 0 0 .48.52c.205.117.442.176.713.176a1.45 1.45 0 0 0 .477-.074 1.02 1.02 0 0 0 .372-.227 1.03 1.03 0 0 0 .241-.381l.648.182c-.068.22-.183.413-.344.58s-.36.294-.597.386-.503.136-.798.136zM21.278 8V3.636h.648v.659h.046c.079-.216.224-.391.432-.526a1.27 1.27 0 0 1 .704-.202l.185.003.168.009v.682a1.99 1.99 0 0 0-.156-.026 1.54 1.54 0 0 0-.253-.02c-.212 0-.401.045-.568.134s-.295.208-.392.364a.98.98 0 0 0-.142.526V8h-.671zm4.673.091c-.421 0-.783-.093-1.088-.278a1.87 1.87 0 0 1-.702-.784c-.163-.337-.244-.729-.244-1.176s.081-.841.244-1.182.394-.61.688-.801.64-.29 1.034-.29a2.07 2.07 0 0 1 .673.114c.222.076.423.199.605.369s.327.392.435.67.162.621.162 1.028v.284h-3.364v-.58h2.682a1.43 1.43 0 0 0-.148-.659c-.097-.193-.235-.346-.415-.457s-.388-.168-.631-.168c-.267 0-.498.066-.693.199a1.31 1.31 0 0 0-.446.511 1.5 1.5 0 0 0-.156.676v.386c0 .33.057.609.17.838a1.23 1.23 0 0 0 .48.52c.205.117.442.176.713.176a1.45 1.45 0 0 0 .477-.074 1.02 1.02 0 0 0 .372-.227 1.03 1.03 0 0 0 .241-.381l.648.182c-.068.22-.183.413-.344.58s-.36.294-.597.386-.503.136-.798.136zm4.474 0c-.364 0-.685-.092-.963-.276a1.86 1.86 0 0 1-.653-.784c-.157-.339-.236-.74-.236-1.202s.079-.856.236-1.193.376-.598.656-.781.604-.276.972-.276c.284 0 .508.047.673.142s.294.199.381.318l.207.29h.057V2.182h.67V8h-.648v-.67h-.079a4.33 4.33 0 0 1-.21.301c-.091.119-.221.226-.389.321s-.393.139-.673.139zm.091-.602c.269 0 .496-.07.682-.21s.327-.338.423-.588.145-.543.145-.872-.047-.611-.142-.855-.235-.437-.421-.574-.415-.207-.687-.207c-.284 0-.521.073-.71.219a1.31 1.31 0 0 0-.423.588c-.093.246-.139.523-.139.83s.047.593.142.847.239.453.426.602a1.11 1.11 0 0 0 .704.222zM36.087 8V2.182h.67V4.33h.057l.205-.29c.089-.119.216-.225.381-.318s.392-.142.676-.142c.367 0 .691.092.972.276s.499.444.656.781.236.735.236 1.193-.079.863-.236 1.202a1.86 1.86 0 0 1-.653.784c-.278.184-.599.276-.963.276-.28 0-.505-.046-.673-.139s-.298-.202-.389-.321l-.21-.301h-.079V8h-.648zm.659-2.182c0 .33.048.62.145.872s.238.446.423.588.413.21.682.21c.28 0 .514-.074.702-.222s.331-.35.426-.602.145-.536.145-.847-.047-.583-.142-.83-.234-.444-.423-.588-.423-.219-.707-.219c-.273 0-.502.069-.687.207s-.326.328-.42.574-.142.529-.142.855zm4.494 3.818a1.47 1.47 0 0 1-.304-.028c-.089-.017-.151-.034-.185-.051l.171-.591a1.29 1.29 0 0 0 .432.045c.125-.011.236-.067.332-.168s.188-.259.27-.48l.125-.341-1.614-4.386h.727L42.4 7.114h.045l1.205-3.477h.727l-1.852 5c-.083.225-.187.412-.31.56a1.16 1.16 0 0 1-.429.332c-.161.072-.343.108-.545.108z" fill="#000"/><g fill="#111"><path d="M62.433 6.41a2.37 2.37 0 0 0 .398-.298 2.18 2.18 0 0 0 .298-.373 1.48 1.48 0 0 0 .186-.435c.05-.149.075-.311.075-.485 0-.261-.05-.509-.162-.733a1.93 1.93 0 0 0-.447-.596 2.09 2.09 0 0 0-.659-.41 2.17 2.17 0 0 0-.807-.149 2.63 2.63 0 0 0-.547.062 2.94 2.94 0 0 0-.497.186 2.58 2.58 0 0 0-.422.298c-.124.112-.236.236-.323.385a1.85 1.85 0 0 0-.211.447 1.66 1.66 0 0 0-.075.497 1.66 1.66 0 0 0 .075.497 1.85 1.85 0 0 0 .211.447 1.9 1.9 0 0 0 .323.385 2.14 2.14 0 0 0 .422.298 1.71 1.71 0 0 0 .497.186c.174.05.36.062.547.062a2.57 2.57 0 0 0 .435-.037 2.09 2.09 0 0 0 .398-.112l.261.323c-.162.075-.336.124-.522.162s-.373.062-.572.062a2.74 2.74 0 0 1-.969-.174c-.298-.124-.572-.286-.795-.485-.224-.211-.41-.447-.534-.721-.137-.273-.199-.571-.199-.882s.062-.609.199-.882.311-.522.534-.721a2.36 2.36 0 0 1 .795-.485c.298-.124.634-.174.969-.174a2.86 2.86 0 0 1 .981.174 2.67 2.67 0 0 1 .795.485c.224.211.41.447.534.721.137.273.199.571.199.882 0 .162-.012.323-.05.472a2.15 2.15 0 0 1-.161.447c-.075.137-.149.273-.248.398s-.211.236-.336.348l.621.745.621.77h-.199c-.236 0-.41-.075-.522-.236L62.433 6.41zm3.341.645h-.422v-4.46h.422v4.46zm3.691-3.876c-.05-.037-.099-.062-.137-.099l-.124-.075c-.037-.025-.099-.037-.161-.05s-.137-.012-.224-.012a1.17 1.17 0 0 0-.373.062c-.124.037-.224.099-.311.162a.93.93 0 0 0-.211.236c-.05.087-.075.186-.075.286 0 .112.012.211.05.286a.6.6 0 0 0 .161.199c.075.062.186.112.311.162l.472.162.286.099c.087.025.174.062.248.087a1.1 1.1 0 0 1 .211.099l.199.112c.162.112.273.248.335.41a1.46 1.46 0 0 1 .099.534c0 .199-.037.373-.124.522-.087.162-.199.286-.348.398a1.62 1.62 0 0 1-.509.248c-.198.062-.397.087-.609.087-.422 0-.783-.112-1.081-.348-.075-.062-.149-.137-.199-.199-.062-.062-.099-.124-.137-.174l.05-.025a.51.51 0 0 1 .211-.062.7.7 0 0 1 .162.025.3.3 0 0 1 .137.075l.261.186.211.099a.56.56 0 0 0 .199.037c.062 0 .124.012.199.012.137 0 .273-.012.41-.037a1.24 1.24 0 0 0 .373-.162.96.96 0 0 0 .273-.273.68.68 0 0 0 .099-.398c0-.174-.025-.311-.087-.41-.05-.099-.137-.186-.224-.248a1.82 1.82 0 0 0-.348-.162 3.46 3.46 0 0 1-.422-.149l-.534-.199a2.14 2.14 0 0 1-.41-.211c-.112-.087-.199-.186-.261-.298-.062-.124-.099-.273-.099-.472 0-.174.037-.335.124-.472s.199-.261.323-.36.286-.174.447-.236c.162-.05.335-.087.509-.087a1.34 1.34 0 0 1 .398.05c.112.037.224.075.323.137a1.36 1.36 0 0 1 .261.174 3.3 3.3 0 0 1 .211.199l-.112.062a.25.25 0 0 1-.099.05c-.037.012-.075.012-.124.012a.4.4 0 0 1-.211-.05zm3.925 0c-.05-.037-.099-.062-.137-.099l-.124-.075c-.05-.025-.099-.037-.162-.05s-.137-.012-.224-.012a1.17 1.17 0 0 0-.373.062c-.124.037-.224.099-.311.162-.087.075-.162.149-.211.236s-.075.186-.075.286c0 .112.012.211.05.286a.6.6 0 0 0 .162.199 1.2 1.2 0 0 0 .311.162c.124.05.286.099.472.162l.286.099c.087.025.174.062.248.087a1.1 1.1 0 0 1 .211.099l.199.112c.161.112.273.248.335.41a1.46 1.46 0 0 1 .099.534c0 .199-.037.373-.124.522-.087.162-.199.286-.348.398a1.62 1.62 0 0 1-.509.248c-.198.062-.398.087-.609.087-.422 0-.783-.112-1.081-.348a1.5 1.5 0 0 1-.199-.199l-.137-.174.05-.025a.51.51 0 0 1 .211-.062c.05 0 .112.012.161.025s.099.037.137.075l.261.186.211.099a.56.56 0 0 0 .199.037c.062 0 .124.012.199.012.137 0 .273-.012.41-.037a1.24 1.24 0 0 0 .373-.162.96.96 0 0 0 .273-.273.68.68 0 0 0 .099-.398c0-.174-.025-.311-.087-.41-.05-.099-.137-.186-.224-.248-.099-.062-.211-.112-.348-.162a3.47 3.47 0 0 1-.422-.149l-.534-.199a2.11 2.11 0 0 1-.41-.211.98.98 0 0 1-.261-.298c-.062-.124-.099-.273-.099-.472 0-.174.037-.335.124-.472s.199-.261.323-.36c.137-.099.286-.174.447-.236.162-.05.335-.087.509-.087a1.34 1.34 0 0 1 .398.05c.112.037.224.075.323.137a1.41 1.41 0 0 1 .261.174 3.3 3.3 0 0 1 .211.199l-.112.062c-.025.025-.062.037-.099.05s-.075.012-.124.012a.4.4 0 0 1-.211-.05zm1.565-.199v-.398h3.653v.398h-1.615v4.062h-.422V2.98h-1.615 0zm4.833 4.075l1.031-4.46h1.528c.509 0 .894.112 1.18.348s.422.547.435.944c0 .311-.075.584-.224.832s-.373.435-.646.571-.609.211-.994.211h-1.441l.161-.733h1.305c.199 0 .373-.037.509-.112a.66.66 0 0 0 .298-.311.77.77 0 0 0 .087-.41.61.61 0 0 0-.186-.435c-.124-.112-.311-.162-.572-.162h-.671l-.87 3.727h-.932v-.012zm3.802 0l2.634-4.46h1.13l.559 4.46h-.895l-.311-2.957-.062-.721h-.012l-.373.708-1.677 2.969h-.994 0zm1.23-1.131l.162-.683h2.422l-.162.683H84.82zm4.745 1.131l.398-1.69-.894-2.77h.919l.41 1.342.186.721.484-.733.994-1.329h1.031l-2.199 2.833-.373 1.627h-.957 0z"/><circle cx="52" cy="5" r="5"/></g><g fill="#e72e80"><path d="M50.943 7.127v.012l.006-.006z"/><path d="M52.007 3.277c-.949 0-1.723.774-1.723 1.723v.115 2.496c.006.006.018.012.024.018a3.34 3.34 0 0 0 .483.254 1.78 1.78 0 0 0 .163.06h.006v-.012l-.006-.798-.006-.018v-.768c.29.23.659.363 1.058.363.949 0 1.723-.774 1.723-1.723s-.774-1.711-1.723-1.711zm0 2.787c-.586 0-1.064-.478-1.064-1.064s.477-1.064 1.064-1.064 1.064.478 1.064 1.064a1.07 1.07 0 0 1-1.064 1.064z"/></g><path d="M54.037 7.375h1.094v.75h-3.125c-.078 0-.151 0-.23-.006a.53.53 0 0 1-.103-.012h-.006a2.86 2.86 0 0 1-.707-.163v-.012l-.006-.798v-.012c.32.157.677.248 1.052.248 1.312 0 2.376-1.064 2.376-2.375s-1.07-2.369-2.376-2.369S49.625 3.688 49.625 5c0 .635.248 1.209.653 1.638v.973a3.07 3.07 0 0 1-.49-.399 3.06 3.06 0 0 1-.671-.991c-.157-.387-.242-.798-.242-1.221s.085-.834.248-1.215c.157-.375.381-.707.671-.991a3.06 3.06 0 0 1 .991-.671A3.12 3.12 0 0 1 52 1.875c.423 0 .834.085 1.215.248.375.157.707.381.991.671a3.06 3.06 0 0 1 .671.991A3.12 3.12 0 0 1 55.125 5c0 .417-.085.834-.248 1.215-.157.375-.381.707-.671.991-.048.06-.109.115-.169.169z" fill="#fcebf3"/></svg>