<svg width="235" height="48" viewBox="0 0 235 48" fill="none" xmlns="http://www.w3.org/2000/svg">
<line x1="31.6166" y1="14.6771" x2="108.717" y2="14.6771" stroke="#E93A7D" stroke-width="0.645816"/>
<path d="M4.0448 44.5717C3.53147 44.5717 3.0848 44.4783 2.7048 44.2917C2.3248 44.105 2.03147 43.845 1.8248 43.5117C1.61814 43.1783 1.5148 42.7917 1.5148 42.3517H2.3948C2.3948 42.625 2.45814 42.8783 2.5848 43.1117C2.71147 43.3383 2.8948 43.5217 3.1348 43.6617C3.38147 43.795 3.6848 43.8617 4.0448 43.8617C4.51814 43.8617 4.8848 43.7483 5.1448 43.5217C5.4048 43.295 5.5348 43.0117 5.5348 42.6717C5.5348 42.3917 5.4748 42.1683 5.3548 42.0017C5.2348 41.8283 5.07147 41.6883 4.8648 41.5817C4.6648 41.475 4.43147 41.3817 4.1648 41.3017C3.9048 41.2217 3.63147 41.1317 3.3448 41.0317C2.8048 40.845 2.4048 40.615 2.1448 40.3417C1.8848 40.0617 1.7548 39.6983 1.7548 39.2517C1.74814 38.8783 1.8348 38.5483 2.0148 38.2617C2.1948 37.9683 2.44814 37.7417 2.7748 37.5817C3.10814 37.415 3.50147 37.3317 3.9548 37.3317C4.40147 37.3317 4.78814 37.415 5.1148 37.5817C5.44814 37.7483 5.7048 37.9783 5.8848 38.2717C6.07147 38.565 6.16814 38.8983 6.1748 39.2717H5.2948C5.2948 39.0783 5.2448 38.8883 5.1448 38.7017C5.0448 38.5083 4.89147 38.3517 4.6848 38.2317C4.4848 38.1117 4.23147 38.0517 3.9248 38.0517C3.5448 38.045 3.23147 38.1417 2.9848 38.3417C2.7448 38.5417 2.6248 38.8183 2.6248 39.1717C2.6248 39.4717 2.70814 39.7017 2.8748 39.8617C3.04814 40.0217 3.28814 40.155 3.5948 40.2617C3.90147 40.3617 4.2548 40.4783 4.6548 40.6117C4.98814 40.7317 5.28814 40.8717 5.5548 41.0317C5.82147 41.1917 6.02814 41.3983 6.1748 41.6517C6.32814 41.905 6.4048 42.2283 6.4048 42.6217C6.4048 42.955 6.31814 43.2717 6.1448 43.5717C5.97147 43.865 5.70814 44.105 5.3548 44.2917C5.00814 44.4783 4.57147 44.5717 4.0448 44.5717ZM7.64605 44.4517V37.2517H8.48605V40.3417C8.65272 40.035 8.88939 39.7983 9.19605 39.6317C9.50272 39.4583 9.83605 39.3717 10.1961 39.3717C10.7694 39.3717 11.2294 39.5517 11.5761 39.9117C11.9227 40.265 12.0961 40.8117 12.0961 41.5517V44.4517H11.2661V41.6417C11.2661 40.6083 10.8494 40.0917 10.0161 40.0917C9.58272 40.0917 9.21939 40.2483 8.92605 40.5617C8.63272 40.8683 8.48605 41.3083 8.48605 41.8817V44.4517H7.64605ZM13.9787 38.3917C13.812 38.3917 13.672 38.3383 13.5587 38.2317C13.452 38.1183 13.3987 37.9783 13.3987 37.8117C13.3987 37.6517 13.452 37.5183 13.5587 37.4117C13.672 37.305 13.812 37.2517 13.9787 37.2517C14.1387 37.2517 14.2754 37.305 14.3887 37.4117C14.502 37.5183 14.5587 37.6517 14.5587 37.8117C14.5587 37.9783 14.502 38.1183 14.3887 38.2317C14.2754 38.3383 14.1387 38.3917 13.9787 38.3917ZM13.5587 44.4517V39.4917H14.3987V44.4517H13.5587ZM15.9613 46.6517V39.4917H16.7213L16.8013 40.3117C16.9613 40.0717 17.188 39.855 17.4813 39.6617C17.7813 39.4683 18.1613 39.3717 18.6213 39.3717C19.1146 39.3717 19.5446 39.485 19.9113 39.7117C20.278 39.9383 20.5613 40.2483 20.7613 40.6417C20.968 41.035 21.0713 41.4817 21.0713 41.9817C21.0713 42.4817 20.968 42.9283 20.7613 43.3217C20.5613 43.7083 20.2746 44.015 19.9013 44.2417C19.5346 44.4617 19.1046 44.5717 18.6113 44.5717C18.2046 44.5717 17.8413 44.4883 17.5213 44.3217C17.208 44.155 16.968 43.9217 16.8013 43.6217V46.6517H15.9613ZM18.5213 43.8417C18.8546 43.8417 19.148 43.765 19.4013 43.6117C19.6546 43.4517 19.8546 43.2317 20.0013 42.9517C20.148 42.6717 20.2213 42.345 20.2213 41.9717C20.2213 41.5983 20.148 41.2717 20.0013 40.9917C19.8546 40.7117 19.6546 40.495 19.4013 40.3417C19.148 40.1817 18.8546 40.1017 18.5213 40.1017C18.188 40.1017 17.8946 40.1817 17.6413 40.3417C17.388 40.495 17.188 40.7117 17.0413 40.9917C16.8946 41.2717 16.8213 41.5983 16.8213 41.9717C16.8213 42.345 16.8946 42.6717 17.0413 42.9517C17.188 43.2317 17.388 43.4517 17.6413 43.6117C17.8946 43.765 18.188 43.8417 18.5213 43.8417ZM22.3406 46.6517V39.4917H23.1006L23.1806 40.3117C23.3406 40.0717 23.5673 39.855 23.8606 39.6617C24.1606 39.4683 24.5406 39.3717 25.0006 39.3717C25.4939 39.3717 25.9239 39.485 26.2906 39.7117C26.6573 39.9383 26.9406 40.2483 27.1406 40.6417C27.3473 41.035 27.4506 41.4817 27.4506 41.9817C27.4506 42.4817 27.3473 42.9283 27.1406 43.3217C26.9406 43.7083 26.6539 44.015 26.2806 44.2417C25.9139 44.4617 25.4839 44.5717 24.9906 44.5717C24.5839 44.5717 24.2206 44.4883 23.9006 44.3217C23.5873 44.155 23.3473 43.9217 23.1806 43.6217V46.6517H22.3406ZM24.9006 43.8417C25.2339 43.8417 25.5273 43.765 25.7806 43.6117C26.0339 43.4517 26.2339 43.2317 26.3806 42.9517C26.5273 42.6717 26.6006 42.345 26.6006 41.9717C26.6006 41.5983 26.5273 41.2717 26.3806 40.9917C26.2339 40.7117 26.0339 40.495 25.7806 40.3417C25.5273 40.1817 25.2339 40.1017 24.9006 40.1017C24.5673 40.1017 24.2739 40.1817 24.0206 40.3417C23.7673 40.495 23.5673 40.7117 23.4206 40.9917C23.2739 41.2717 23.2006 41.5983 23.2006 41.9717C23.2006 42.345 23.2739 42.6717 23.4206 42.9517C23.5673 43.2317 23.7673 43.4517 24.0206 43.6117C24.2739 43.765 24.5673 43.8417 24.9006 43.8417ZM29.2299 38.3917C29.0632 38.3917 28.9232 38.3383 28.8099 38.2317C28.7032 38.1183 28.6499 37.9783 28.6499 37.8117C28.6499 37.6517 28.7032 37.5183 28.8099 37.4117C28.9232 37.305 29.0632 37.2517 29.2299 37.2517C29.3899 37.2517 29.5265 37.305 29.6399 37.4117C29.7532 37.5183 29.8099 37.6517 29.8099 37.8117C29.8099 37.9783 29.7532 38.1183 29.6399 38.2317C29.5265 38.3383 29.3899 38.3917 29.2299 38.3917ZM28.8099 44.4517V39.4917H29.6499V44.4517H28.8099ZM31.2125 44.4517V39.4917H31.9725L32.0225 40.3817C32.1825 40.0683 32.4125 39.8217 32.7125 39.6417C33.0125 39.4617 33.3525 39.3717 33.7325 39.3717C34.3191 39.3717 34.7858 39.5517 35.1325 39.9117C35.4858 40.265 35.6625 40.8117 35.6625 41.5517V44.4517H34.8225V41.6417C34.8225 40.6083 34.3958 40.0917 33.5425 40.0917C33.1158 40.0917 32.7591 40.2483 32.4725 40.5617C32.1925 40.8683 32.0525 41.3083 32.0525 41.8817V44.4517H31.2125ZM38.9951 42.8917C38.7151 42.8917 38.4584 42.855 38.2251 42.7817L37.7251 43.2517C37.7984 43.305 37.8884 43.3517 37.9951 43.3917C38.1084 43.425 38.2684 43.4583 38.4751 43.4917C38.6818 43.5183 38.9718 43.5483 39.3451 43.5817C40.0118 43.6283 40.4884 43.7817 40.7751 44.0417C41.0618 44.3017 41.2051 44.6417 41.2051 45.0617C41.2051 45.3483 41.1251 45.6217 40.9651 45.8817C40.8118 46.1417 40.5718 46.355 40.2451 46.5217C39.9251 46.6883 39.5118 46.7717 39.0051 46.7717C38.5584 46.7717 38.1618 46.7117 37.8151 46.5917C37.4684 46.4783 37.1984 46.3017 37.0051 46.0617C36.8118 45.8283 36.7151 45.5317 36.7151 45.1717C36.7151 44.985 36.7651 44.7817 36.8651 44.5617C36.9651 44.3483 37.1518 44.145 37.4251 43.9517C37.2784 43.8917 37.1518 43.8283 37.0451 43.7617C36.9451 43.6883 36.8518 43.6083 36.7651 43.5217V43.2917L37.6151 42.4517C37.2218 42.1183 37.0251 41.6783 37.0251 41.1317C37.0251 40.805 37.1018 40.5083 37.2551 40.2417C37.4084 39.975 37.6318 39.765 37.9251 39.6117C38.2184 39.4517 38.5751 39.3717 38.9951 39.3717C39.2818 39.3717 39.5418 39.4117 39.7751 39.4917H41.6051V40.1217L40.6751 40.1617C40.8684 40.4417 40.9651 40.765 40.9651 41.1317C40.9651 41.4583 40.8851 41.755 40.7251 42.0217C40.5718 42.2883 40.3484 42.5017 40.0551 42.6617C39.7684 42.815 39.4151 42.8917 38.9951 42.8917ZM38.9951 42.2017C39.3484 42.2017 39.6284 42.1117 39.8351 41.9317C40.0484 41.745 40.1551 41.4783 40.1551 41.1317C40.1551 40.7917 40.0484 40.5317 39.8351 40.3517C39.6284 40.165 39.3484 40.0717 38.9951 40.0717C38.6351 40.0717 38.3484 40.165 38.1351 40.3517C37.9284 40.5317 37.8251 40.7917 37.8251 41.1317C37.8251 41.4783 37.9284 41.745 38.1351 41.9317C38.3484 42.1117 38.6351 42.2017 38.9951 42.2017ZM37.5351 45.0917C37.5351 45.425 37.6751 45.6717 37.9551 45.8317C38.2351 45.9983 38.5851 46.0817 39.0051 46.0817C39.4184 46.0817 39.7484 45.9917 39.9951 45.8117C40.2484 45.6317 40.3751 45.3917 40.3751 45.0917C40.3751 44.8783 40.2884 44.6917 40.1151 44.5317C39.9418 44.3783 39.6218 44.2883 39.1551 44.2617C38.7884 44.235 38.4718 44.2017 38.2051 44.1617C37.9318 44.3083 37.7518 44.465 37.6651 44.6317C37.5784 44.805 37.5351 44.9583 37.5351 45.0917Z" fill="#E93A7D"/>
<ellipse cx="22.2797" cy="14.1696" rx="14.3073" ry="14.1696" fill="#E93A7D"/>
<path d="M21.8983 19.3352V11.8849L20.3517 12.248V10.9301L22.6245 9.92148H23.6869V19.3352H21.8983Z" fill="white"/>
<path d="M99.5393 44.4517V37.4517H101.689C102.923 37.4517 103.829 37.765 104.409 38.3917C104.996 39.0183 105.289 39.8783 105.289 40.9717C105.289 42.045 104.996 42.895 104.409 43.5217C103.829 44.1417 102.923 44.4517 101.689 44.4517H99.5393ZM100.379 43.7517H101.669C102.349 43.7517 102.889 43.6417 103.289 43.4217C103.696 43.195 103.986 42.875 104.159 42.4617C104.333 42.0417 104.419 41.545 104.419 40.9717C104.419 40.385 104.333 39.8817 104.159 39.4617C103.986 39.0417 103.696 38.7183 103.289 38.4917C102.889 38.265 102.349 38.1517 101.669 38.1517H100.379V43.7517ZM108.782 44.5717C108.309 44.5717 107.889 44.465 107.522 44.2517C107.156 44.0317 106.866 43.7283 106.652 43.3417C106.446 42.955 106.342 42.4983 106.342 41.9717C106.342 41.4517 106.446 40.9983 106.652 40.6117C106.859 40.2183 107.146 39.915 107.512 39.7017C107.886 39.4817 108.316 39.3717 108.802 39.3717C109.282 39.3717 109.696 39.4817 110.042 39.7017C110.396 39.915 110.666 40.1983 110.852 40.5517C111.039 40.905 111.132 41.285 111.132 41.6917C111.132 41.765 111.129 41.8383 111.122 41.9117C111.122 41.985 111.122 42.0683 111.122 42.1617H107.172C107.192 42.5417 107.279 42.8583 107.432 43.1117C107.592 43.3583 107.789 43.545 108.022 43.6717C108.262 43.7983 108.516 43.8617 108.782 43.8617C109.129 43.8617 109.419 43.7817 109.652 43.6217C109.886 43.4617 110.056 43.245 110.162 42.9717H110.992C110.859 43.4317 110.602 43.815 110.222 44.1217C109.849 44.4217 109.369 44.5717 108.782 44.5717ZM108.782 40.0817C108.382 40.0817 108.026 40.205 107.712 40.4517C107.406 40.6917 107.229 41.045 107.182 41.5117H110.302C110.282 41.065 110.129 40.715 109.842 40.4617C109.556 40.2083 109.202 40.0817 108.782 40.0817ZM112.346 44.4517V37.2517H113.186V44.4517H112.346ZM115.172 38.3917C115.006 38.3917 114.866 38.3383 114.752 38.2317C114.646 38.1183 114.592 37.9783 114.592 37.8117C114.592 37.6517 114.646 37.5183 114.752 37.4117C114.866 37.305 115.006 37.2517 115.172 37.2517C115.332 37.2517 115.469 37.305 115.582 37.4117C115.696 37.5183 115.752 37.6517 115.752 37.8117C115.752 37.9783 115.696 38.1183 115.582 38.2317C115.469 38.3383 115.332 38.3917 115.172 38.3917ZM114.752 44.4517V39.4917H115.592V44.4517H114.752ZM118.585 44.4517L116.705 39.4917H117.585L119.075 43.6417L120.575 39.4917H121.435L119.555 44.4517H118.585ZM124.446 44.5717C123.973 44.5717 123.553 44.465 123.186 44.2517C122.819 44.0317 122.529 43.7283 122.316 43.3417C122.109 42.955 122.006 42.4983 122.006 41.9717C122.006 41.4517 122.109 40.9983 122.316 40.6117C122.523 40.2183 122.809 39.915 123.176 39.7017C123.549 39.4817 123.979 39.3717 124.466 39.3717C124.946 39.3717 125.359 39.4817 125.706 39.7017C126.059 39.915 126.329 40.1983 126.516 40.5517C126.703 40.905 126.796 41.285 126.796 41.6917C126.796 41.765 126.793 41.8383 126.786 41.9117C126.786 41.985 126.786 42.0683 126.786 42.1617H122.836C122.856 42.5417 122.943 42.8583 123.096 43.1117C123.256 43.3583 123.453 43.545 123.686 43.6717C123.926 43.7983 124.179 43.8617 124.446 43.8617C124.793 43.8617 125.083 43.7817 125.316 43.6217C125.549 43.4617 125.719 43.245 125.826 42.9717H126.656C126.523 43.4317 126.266 43.815 125.886 44.1217C125.513 44.4217 125.033 44.5717 124.446 44.5717ZM124.446 40.0817C124.046 40.0817 123.689 40.205 123.376 40.4517C123.069 40.6917 122.893 41.045 122.846 41.5117H125.966C125.946 41.065 125.793 40.715 125.506 40.4617C125.219 40.2083 124.866 40.0817 124.446 40.0817ZM128.009 44.4517V39.4917H128.769L128.839 40.4417C128.993 40.115 129.226 39.855 129.539 39.6617C129.853 39.4683 130.239 39.3717 130.699 39.3717V40.2517H130.469C130.176 40.2517 129.906 40.305 129.659 40.4117C129.413 40.5117 129.216 40.685 129.069 40.9317C128.923 41.1783 128.849 41.5183 128.849 41.9517V44.4517H128.009ZM132.282 46.6517L133.512 43.9717H133.222L131.252 39.4917H132.162L133.802 43.3517L135.542 39.4917H136.412L133.162 46.6517H132.282Z" fill="#374151"/>
<ellipse cx="118.018" cy="14.1696" rx="14.3073" ry="14.1696" fill="#374151"/>
<path d="M114.862 19.3352V18.0845C115.436 17.6094 115.992 17.1387 116.53 16.6725C117.077 16.2063 117.561 15.7445 117.982 15.2873C118.413 14.8301 118.753 14.3863 119.004 13.9559C119.264 13.5166 119.394 13.0908 119.394 12.6784C119.394 12.2928 119.287 11.9522 119.072 11.6563C118.865 11.3604 118.52 11.2125 118.036 11.2125C117.543 11.2125 117.171 11.3739 116.92 11.6966C116.669 12.0194 116.543 12.4094 116.543 12.8666H114.876C114.894 12.1763 115.046 11.6025 115.333 11.1453C115.62 10.6791 116.001 10.3339 116.476 10.1098C116.951 9.87665 117.485 9.7601 118.076 9.7601C119.036 9.7601 119.78 10.0246 120.309 10.5535C120.847 11.0735 121.116 11.7504 121.116 12.5842C121.116 13.1042 120.995 13.6108 120.753 14.1039C120.52 14.597 120.21 15.0721 119.825 15.5294C119.439 15.9866 119.022 16.417 118.574 16.8204C118.126 17.2149 117.691 17.5825 117.27 17.9231H121.344V19.3352H114.862Z" fill="white"/>
<line x1="127.742" y1="14.6771" x2="201.838" y2="14.6771" stroke="#374151" stroke-width="0.645816"/>
<path d="M193.454 44.4517V37.4517H195.754C196.301 37.4517 196.751 37.5417 197.104 37.7217C197.457 37.9017 197.717 38.145 197.884 38.4517C198.057 38.7583 198.144 39.105 198.144 39.4917C198.144 39.8717 198.061 40.215 197.894 40.5217C197.727 40.8283 197.467 41.075 197.114 41.2617C196.761 41.4417 196.307 41.5317 195.754 41.5317H194.294V44.4517H193.454ZM194.294 40.8217H195.734C196.294 40.8217 196.691 40.705 196.924 40.4717C197.164 40.2317 197.284 39.905 197.284 39.4917C197.284 39.0717 197.164 38.745 196.924 38.5117C196.691 38.2717 196.294 38.1517 195.734 38.1517H194.294V40.8217ZM200.711 44.5717C200.297 44.5717 199.954 44.5017 199.681 44.3617C199.407 44.2217 199.204 44.035 199.071 43.8017C198.937 43.5683 198.871 43.315 198.871 43.0417C198.871 42.535 199.064 42.145 199.451 41.8717C199.837 41.5983 200.364 41.4617 201.031 41.4617H202.371V41.4017C202.371 40.9683 202.257 40.6417 202.031 40.4217C201.804 40.195 201.501 40.0817 201.121 40.0817C200.794 40.0817 200.511 40.165 200.271 40.3317C200.037 40.4917 199.891 40.7283 199.831 41.0417H198.971C199.004 40.6817 199.124 40.3783 199.331 40.1317C199.544 39.885 199.807 39.6983 200.121 39.5717C200.434 39.4383 200.767 39.3717 201.121 39.3717C201.814 39.3717 202.334 39.5583 202.681 39.9317C203.034 40.2983 203.211 40.7883 203.211 41.4017V44.4517H202.461L202.411 43.5617C202.271 43.8417 202.064 44.0817 201.791 44.2817C201.524 44.475 201.164 44.5717 200.711 44.5717ZM200.841 43.8617C201.161 43.8617 201.434 43.7783 201.661 43.6117C201.894 43.445 202.071 43.2283 202.191 42.9617C202.311 42.695 202.371 42.415 202.371 42.1217V42.1117H201.101C200.607 42.1117 200.257 42.1983 200.051 42.3717C199.851 42.5383 199.751 42.7483 199.751 43.0017C199.751 43.2617 199.844 43.4717 200.031 43.6317C200.224 43.785 200.494 43.8617 200.841 43.8617ZM204.964 46.6517L206.194 43.9717H205.904L203.934 39.4917H204.844L206.484 43.3517L208.224 39.4917H209.094L205.844 46.6517H204.964ZM210.081 44.4517V39.4917H210.841L210.901 40.2117C211.061 39.945 211.274 39.7383 211.541 39.5917C211.808 39.445 212.108 39.3717 212.441 39.3717C212.834 39.3717 213.171 39.4517 213.451 39.6117C213.738 39.7717 213.958 40.015 214.111 40.3417C214.284 40.0417 214.521 39.805 214.821 39.6317C215.128 39.4583 215.458 39.3717 215.811 39.3717C216.404 39.3717 216.878 39.5517 217.231 39.9117C217.584 40.265 217.761 40.8117 217.761 41.5517V44.4517H216.931V41.6417C216.931 41.1283 216.828 40.7417 216.621 40.4817C216.414 40.2217 216.118 40.0917 215.731 40.0917C215.331 40.0917 214.998 40.2483 214.731 40.5617C214.471 40.8683 214.341 41.3083 214.341 41.8817V44.4517H213.501V41.6417C213.501 41.1283 213.398 40.7417 213.191 40.4817C212.984 40.2217 212.688 40.0917 212.301 40.0917C211.908 40.0917 211.578 40.2483 211.311 40.5617C211.051 40.8683 210.921 41.3083 210.921 41.8817V44.4517H210.081ZM221.356 44.5717C220.883 44.5717 220.463 44.465 220.096 44.2517C219.73 44.0317 219.44 43.7283 219.226 43.3417C219.02 42.955 218.916 42.4983 218.916 41.9717C218.916 41.4517 219.02 40.9983 219.226 40.6117C219.433 40.2183 219.72 39.915 220.086 39.7017C220.46 39.4817 220.89 39.3717 221.376 39.3717C221.856 39.3717 222.27 39.4817 222.616 39.7017C222.97 39.915 223.24 40.1983 223.426 40.5517C223.613 40.905 223.706 41.285 223.706 41.6917C223.706 41.765 223.703 41.8383 223.696 41.9117C223.696 41.985 223.696 42.0683 223.696 42.1617H219.746C219.766 42.5417 219.853 42.8583 220.006 43.1117C220.166 43.3583 220.363 43.545 220.596 43.6717C220.836 43.7983 221.09 43.8617 221.356 43.8617C221.703 43.8617 221.993 43.7817 222.226 43.6217C222.46 43.4617 222.63 43.245 222.736 42.9717H223.566C223.433 43.4317 223.176 43.815 222.796 44.1217C222.423 44.4217 221.943 44.5717 221.356 44.5717ZM221.356 40.0817C220.956 40.0817 220.6 40.205 220.286 40.4517C219.98 40.6917 219.803 41.045 219.756 41.5117H222.876C222.856 41.065 222.703 40.715 222.416 40.4617C222.13 40.2083 221.776 40.0817 221.356 40.0817ZM224.92 44.4517V39.4917H225.68L225.73 40.3817C225.89 40.0683 226.12 39.8217 226.42 39.6417C226.72 39.4617 227.06 39.3717 227.44 39.3717C228.026 39.3717 228.493 39.5517 228.84 39.9117C229.193 40.265 229.37 40.8117 229.37 41.5517V44.4517H228.53V41.6417C228.53 40.6083 228.103 40.0917 227.25 40.0917C226.823 40.0917 226.466 40.2483 226.18 40.5617C225.9 40.8683 225.76 41.3083 225.76 41.8817V44.4517H224.92ZM232.702 44.4517C232.249 44.4517 231.892 44.3417 231.632 44.1217C231.372 43.9017 231.242 43.505 231.242 42.9317V40.2017H230.382V39.4917H231.242L231.352 38.3017H232.082V39.4917H233.542V40.2017H232.082V42.9317C232.082 43.245 232.146 43.4583 232.272 43.5717C232.399 43.6783 232.622 43.7317 232.942 43.7317H233.462V44.4517H232.702Z" fill="black"/>
<ellipse cx="214.383" cy="14.1696" rx="14.3073" ry="14.1696" fill="#374151"/>
<path d="M214.371 19.4966C213.753 19.4966 213.192 19.389 212.69 19.1738C212.188 18.9497 211.785 18.609 211.48 18.1518C211.175 17.6945 211.014 17.1207 210.996 16.4304H212.69C212.699 16.8876 212.847 17.2732 213.134 17.5869C213.43 17.8918 213.842 18.0442 214.371 18.0442C214.873 18.0442 215.259 17.9052 215.528 17.6273C215.797 17.3494 215.931 16.9997 215.931 16.5783C215.931 16.0852 215.752 15.7132 215.393 15.4621C215.044 15.2021 214.591 15.0721 214.035 15.0721H213.336V13.6601H214.049C214.506 13.6601 214.887 13.5525 215.192 13.3373C215.496 13.1221 215.649 12.8039 215.649 12.3825C215.649 12.0328 215.532 11.7549 215.299 11.5487C215.075 11.3335 214.761 11.226 214.358 11.226C213.919 11.226 213.573 11.356 213.322 11.616C213.08 11.8759 212.946 12.1942 212.919 12.5708H211.238C211.274 11.7011 211.574 11.0153 212.139 10.5132C212.713 10.0111 213.452 9.7601 214.358 9.7601C215.003 9.7601 215.546 9.87665 215.985 10.1098C216.433 10.3339 216.77 10.6342 216.994 11.0108C217.227 11.3873 217.343 11.8042 217.343 12.2615C217.343 12.7904 217.195 13.2387 216.9 13.6063C216.613 13.9649 216.254 14.207 215.824 14.3325C216.353 14.4401 216.783 14.7001 217.115 15.1125C217.446 15.5159 217.612 16.027 217.612 16.6456C217.612 17.1656 217.487 17.6407 217.236 18.0711C216.985 18.5014 216.617 18.8466 216.133 19.1066C215.658 19.3666 215.071 19.4966 214.371 19.4966Z" fill="white"/>
</svg>
