<svg width="234" height="48" viewBox="0 0 234 48" fill="none" xmlns="http://www.w3.org/2000/svg">
<line x1="31" y1="14.6771" x2="108" y2="14.6771" stroke="#E93A7D" stroke-width="0.645816"/>
<line x1="125" y1="14.6771" x2="199" y2="14.6771" stroke="#374151" stroke-width="0.645816"/>
<path d="M3.07613 44.5717C2.5628 44.5717 2.11613 44.4783 1.73613 44.2917C1.35613 44.105 1.0628 43.845 0.856131 43.5117C0.649464 43.1783 0.546131 42.7917 0.546131 42.3517H1.42613C1.42613 42.625 1.48946 42.8783 1.61613 43.1117C1.7428 43.3383 1.92613 43.5217 2.16613 43.6617C2.4128 43.795 2.71613 43.8617 3.07613 43.8617C3.54946 43.8617 3.91613 43.7483 4.17613 43.5217C4.43613 43.295 4.56613 43.0117 4.56613 42.6717C4.56613 42.3917 4.50613 42.1683 4.38613 42.0017C4.26613 41.8283 4.1028 41.6883 3.89613 41.5817C3.69613 41.475 3.4628 41.3817 3.19613 41.3017C2.93613 41.2217 2.6628 41.1317 2.37613 41.0317C1.83613 40.845 1.43613 40.615 1.17613 40.3417C0.916131 40.0617 0.786131 39.6983 0.786131 39.2517C0.779464 38.8783 0.866131 38.5483 1.04613 38.2617C1.22613 37.9683 1.47946 37.7417 1.80613 37.5817C2.13946 37.415 2.5328 37.3317 2.98613 37.3317C3.4328 37.3317 3.81946 37.415 4.14613 37.5817C4.47946 37.7483 4.73613 37.9783 4.91613 38.2717C5.1028 38.565 5.19946 38.8983 5.20613 39.2717H4.32613C4.32613 39.0783 4.27613 38.8883 4.17613 38.7017C4.07613 38.5083 3.9228 38.3517 3.71613 38.2317C3.51613 38.1117 3.2628 38.0517 2.95613 38.0517C2.57613 38.045 2.2628 38.1417 2.01613 38.3417C1.77613 38.5417 1.65613 38.8183 1.65613 39.1717C1.65613 39.4717 1.73946 39.7017 1.90613 39.8617C2.07946 40.0217 2.31946 40.155 2.62613 40.2617C2.9328 40.3617 3.28613 40.4783 3.68613 40.6117C4.01946 40.7317 4.31946 40.8717 4.58613 41.0317C4.8528 41.1917 5.05946 41.3983 5.20613 41.6517C5.35946 41.905 5.43613 42.2283 5.43613 42.6217C5.43613 42.955 5.34946 43.2717 5.17613 43.5717C5.0028 43.865 4.73946 44.105 4.38613 44.2917C4.03946 44.4783 3.6028 44.5717 3.07613 44.5717ZM6.67738 44.4517V37.2517H7.51738V40.3417C7.68405 40.035 7.92071 39.7983 8.22738 39.6317C8.53405 39.4583 8.86738 39.3717 9.22738 39.3717C9.80071 39.3717 10.2607 39.5517 10.6074 39.9117C10.954 40.265 11.1274 40.8117 11.1274 41.5517V44.4517H10.2974V41.6417C10.2974 40.6083 9.88071 40.0917 9.04738 40.0917C8.61405 40.0917 8.25071 40.2483 7.95738 40.5617C7.66405 40.8683 7.51738 41.3083 7.51738 41.8817V44.4517H6.67738ZM13.01 38.3917C12.8434 38.3917 12.7034 38.3383 12.59 38.2317C12.4834 38.1183 12.43 37.9783 12.43 37.8117C12.43 37.6517 12.4834 37.5183 12.59 37.4117C12.7034 37.305 12.8434 37.2517 13.01 37.2517C13.17 37.2517 13.3067 37.305 13.42 37.4117C13.5334 37.5183 13.59 37.6517 13.59 37.8117C13.59 37.9783 13.5334 38.1183 13.42 38.2317C13.3067 38.3383 13.17 38.3917 13.01 38.3917ZM12.59 44.4517V39.4917H13.43V44.4517H12.59ZM14.9926 46.6517V39.4917H15.7526L15.8326 40.3117C15.9926 40.0717 16.2193 39.855 16.5126 39.6617C16.8126 39.4683 17.1926 39.3717 17.6526 39.3717C18.1459 39.3717 18.5759 39.485 18.9426 39.7117C19.3093 39.9383 19.5926 40.2483 19.7926 40.6417C19.9993 41.035 20.1026 41.4817 20.1026 41.9817C20.1026 42.4817 19.9993 42.9283 19.7926 43.3217C19.5926 43.7083 19.3059 44.015 18.9326 44.2417C18.5659 44.4617 18.1359 44.5717 17.6426 44.5717C17.2359 44.5717 16.8726 44.4883 16.5526 44.3217C16.2393 44.155 15.9993 43.9217 15.8326 43.6217V46.6517H14.9926ZM17.5526 43.8417C17.8859 43.8417 18.1793 43.765 18.4326 43.6117C18.6859 43.4517 18.8859 43.2317 19.0326 42.9517C19.1793 42.6717 19.2526 42.345 19.2526 41.9717C19.2526 41.5983 19.1793 41.2717 19.0326 40.9917C18.8859 40.7117 18.6859 40.495 18.4326 40.3417C18.1793 40.1817 17.8859 40.1017 17.5526 40.1017C17.2193 40.1017 16.9259 40.1817 16.6726 40.3417C16.4193 40.495 16.2193 40.7117 16.0726 40.9917C15.9259 41.2717 15.8526 41.5983 15.8526 41.9717C15.8526 42.345 15.9259 42.6717 16.0726 42.9517C16.2193 43.2317 16.4193 43.4517 16.6726 43.6117C16.9259 43.765 17.2193 43.8417 17.5526 43.8417ZM21.3719 46.6517V39.4917H22.1319L22.2119 40.3117C22.3719 40.0717 22.5986 39.855 22.8919 39.6617C23.1919 39.4683 23.5719 39.3717 24.0319 39.3717C24.5252 39.3717 24.9552 39.485 25.3219 39.7117C25.6886 39.9383 25.9719 40.2483 26.1719 40.6417C26.3786 41.035 26.4819 41.4817 26.4819 41.9817C26.4819 42.4817 26.3786 42.9283 26.1719 43.3217C25.9719 43.7083 25.6852 44.015 25.3119 44.2417C24.9452 44.4617 24.5152 44.5717 24.0219 44.5717C23.6152 44.5717 23.2519 44.4883 22.9319 44.3217C22.6186 44.155 22.3786 43.9217 22.2119 43.6217V46.6517H21.3719ZM23.9319 43.8417C24.2652 43.8417 24.5586 43.765 24.8119 43.6117C25.0652 43.4517 25.2652 43.2317 25.4119 42.9517C25.5586 42.6717 25.6319 42.345 25.6319 41.9717C25.6319 41.5983 25.5586 41.2717 25.4119 40.9917C25.2652 40.7117 25.0652 40.495 24.8119 40.3417C24.5586 40.1817 24.2652 40.1017 23.9319 40.1017C23.5986 40.1017 23.3052 40.1817 23.0519 40.3417C22.7986 40.495 22.5986 40.7117 22.4519 40.9917C22.3052 41.2717 22.2319 41.5983 22.2319 41.9717C22.2319 42.345 22.3052 42.6717 22.4519 42.9517C22.5986 43.2317 22.7986 43.4517 23.0519 43.6117C23.3052 43.765 23.5986 43.8417 23.9319 43.8417ZM28.2612 38.3917C28.0945 38.3917 27.9545 38.3383 27.8412 38.2317C27.7345 38.1183 27.6812 37.9783 27.6812 37.8117C27.6812 37.6517 27.7345 37.5183 27.8412 37.4117C27.9545 37.305 28.0945 37.2517 28.2612 37.2517C28.4212 37.2517 28.5579 37.305 28.6712 37.4117C28.7845 37.5183 28.8412 37.6517 28.8412 37.8117C28.8412 37.9783 28.7845 38.1183 28.6712 38.2317C28.5579 38.3383 28.4212 38.3917 28.2612 38.3917ZM27.8412 44.4517V39.4917H28.6812V44.4517H27.8412ZM30.2438 44.4517V39.4917H31.0038L31.0538 40.3817C31.2138 40.0683 31.4438 39.8217 31.7438 39.6417C32.0438 39.4617 32.3838 39.3717 32.7638 39.3717C33.3505 39.3717 33.8171 39.5517 34.1638 39.9117C34.5171 40.265 34.6938 40.8117 34.6938 41.5517V44.4517H33.8538V41.6417C33.8538 40.6083 33.4271 40.0917 32.5738 40.0917C32.1471 40.0917 31.7905 40.2483 31.5038 40.5617C31.2238 40.8683 31.0838 41.3083 31.0838 41.8817V44.4517H30.2438ZM38.0264 42.8917C37.7464 42.8917 37.4898 42.855 37.2564 42.7817L36.7564 43.2517C36.8298 43.305 36.9198 43.3517 37.0264 43.3917C37.1398 43.425 37.2998 43.4583 37.5064 43.4917C37.7131 43.5183 38.0031 43.5483 38.3764 43.5817C39.0431 43.6283 39.5198 43.7817 39.8064 44.0417C40.0931 44.3017 40.2364 44.6417 40.2364 45.0617C40.2364 45.3483 40.1564 45.6217 39.9964 45.8817C39.8431 46.1417 39.6031 46.355 39.2764 46.5217C38.9564 46.6883 38.5431 46.7717 38.0364 46.7717C37.5898 46.7717 37.1931 46.7117 36.8464 46.5917C36.4998 46.4783 36.2298 46.3017 36.0364 46.0617C35.8431 45.8283 35.7464 45.5317 35.7464 45.1717C35.7464 44.985 35.7964 44.7817 35.8964 44.5617C35.9964 44.3483 36.1831 44.145 36.4564 43.9517C36.3098 43.8917 36.1831 43.8283 36.0764 43.7617C35.9764 43.6883 35.8831 43.6083 35.7964 43.5217V43.2917L36.6464 42.4517C36.2531 42.1183 36.0564 41.6783 36.0564 41.1317C36.0564 40.805 36.1331 40.5083 36.2864 40.2417C36.4398 39.975 36.6631 39.765 36.9564 39.6117C37.2498 39.4517 37.6064 39.3717 38.0264 39.3717C38.3131 39.3717 38.5731 39.4117 38.8064 39.4917H40.6364V40.1217L39.7064 40.1617C39.8998 40.4417 39.9964 40.765 39.9964 41.1317C39.9964 41.4583 39.9164 41.755 39.7564 42.0217C39.6031 42.2883 39.3798 42.5017 39.0864 42.6617C38.7998 42.815 38.4464 42.8917 38.0264 42.8917ZM38.0264 42.2017C38.3798 42.2017 38.6598 42.1117 38.8664 41.9317C39.0798 41.745 39.1864 41.4783 39.1864 41.1317C39.1864 40.7917 39.0798 40.5317 38.8664 40.3517C38.6598 40.165 38.3798 40.0717 38.0264 40.0717C37.6664 40.0717 37.3798 40.165 37.1664 40.3517C36.9598 40.5317 36.8564 40.7917 36.8564 41.1317C36.8564 41.4783 36.9598 41.745 37.1664 41.9317C37.3798 42.1117 37.6664 42.2017 38.0264 42.2017ZM36.5664 45.0917C36.5664 45.425 36.7064 45.6717 36.9864 45.8317C37.2664 45.9983 37.6164 46.0817 38.0364 46.0817C38.4498 46.0817 38.7798 45.9917 39.0264 45.8117C39.2798 45.6317 39.4064 45.3917 39.4064 45.0917C39.4064 44.8783 39.3198 44.6917 39.1464 44.5317C38.9731 44.3783 38.6531 44.2883 38.1864 44.2617C37.8198 44.235 37.5031 44.2017 37.2364 44.1617C36.9631 44.3083 36.7831 44.465 36.6964 44.6317C36.6098 44.805 36.5664 44.9583 36.5664 45.0917Z" fill="#E93A7D"/>
<ellipse cx="21.2833" cy="14.1696" rx="14.2887" ry="14.1696" fill="#E93A7D"/>
<path d="M20.9019 19.3352V11.8849L19.3554 12.248V10.9301L21.6281 9.92148H22.6905V19.3352H20.9019Z" fill="white"/>
<path d="M98.4433 44.4517V37.4517H100.593C101.827 37.4517 102.733 37.765 103.313 38.3917C103.9 39.0183 104.193 39.8783 104.193 40.9717C104.193 42.045 103.9 42.895 103.313 43.5217C102.733 44.1417 101.827 44.4517 100.593 44.4517H98.4433ZM99.2833 43.7517H100.573C101.253 43.7517 101.793 43.6417 102.193 43.4217C102.6 43.195 102.89 42.875 103.063 42.4617C103.237 42.0417 103.323 41.545 103.323 40.9717C103.323 40.385 103.237 39.8817 103.063 39.4617C102.89 39.0417 102.6 38.7183 102.193 38.4917C101.793 38.265 101.253 38.1517 100.573 38.1517H99.2833V43.7517ZM107.686 44.5717C107.213 44.5717 106.793 44.465 106.426 44.2517C106.06 44.0317 105.77 43.7283 105.556 43.3417C105.35 42.955 105.246 42.4983 105.246 41.9717C105.246 41.4517 105.35 40.9983 105.556 40.6117C105.763 40.2183 106.05 39.915 106.416 39.7017C106.79 39.4817 107.22 39.3717 107.706 39.3717C108.186 39.3717 108.6 39.4817 108.946 39.7017C109.3 39.915 109.57 40.1983 109.756 40.5517C109.943 40.905 110.036 41.285 110.036 41.6917C110.036 41.765 110.033 41.8383 110.026 41.9117C110.026 41.985 110.026 42.0683 110.026 42.1617H106.076C106.096 42.5417 106.183 42.8583 106.336 43.1117C106.496 43.3583 106.693 43.545 106.926 43.6717C107.166 43.7983 107.42 43.8617 107.686 43.8617C108.033 43.8617 108.323 43.7817 108.556 43.6217C108.79 43.4617 108.96 43.245 109.066 42.9717H109.896C109.763 43.4317 109.506 43.815 109.126 44.1217C108.753 44.4217 108.273 44.5717 107.686 44.5717ZM107.686 40.0817C107.286 40.0817 106.93 40.205 106.616 40.4517C106.31 40.6917 106.133 41.045 106.086 41.5117H109.206C109.186 41.065 109.033 40.715 108.746 40.4617C108.46 40.2083 108.106 40.0817 107.686 40.0817ZM111.25 44.4517V37.2517H112.09V44.4517H111.25ZM114.076 38.3917C113.91 38.3917 113.77 38.3383 113.656 38.2317C113.55 38.1183 113.496 37.9783 113.496 37.8117C113.496 37.6517 113.55 37.5183 113.656 37.4117C113.77 37.305 113.91 37.2517 114.076 37.2517C114.236 37.2517 114.373 37.305 114.486 37.4117C114.6 37.5183 114.656 37.6517 114.656 37.8117C114.656 37.9783 114.6 38.1183 114.486 38.2317C114.373 38.3383 114.236 38.3917 114.076 38.3917ZM113.656 44.4517V39.4917H114.496V44.4517H113.656ZM117.489 44.4517L115.609 39.4917H116.489L117.979 43.6417L119.479 39.4917H120.339L118.459 44.4517H117.489ZM123.35 44.5717C122.877 44.5717 122.457 44.465 122.09 44.2517C121.723 44.0317 121.433 43.7283 121.22 43.3417C121.013 42.955 120.91 42.4983 120.91 41.9717C120.91 41.4517 121.013 40.9983 121.22 40.6117C121.427 40.2183 121.713 39.915 122.08 39.7017C122.453 39.4817 122.883 39.3717 123.37 39.3717C123.85 39.3717 124.263 39.4817 124.61 39.7017C124.963 39.915 125.233 40.1983 125.42 40.5517C125.607 40.905 125.7 41.285 125.7 41.6917C125.7 41.765 125.697 41.8383 125.69 41.9117C125.69 41.985 125.69 42.0683 125.69 42.1617H121.74C121.76 42.5417 121.847 42.8583 122 43.1117C122.16 43.3583 122.357 43.545 122.59 43.6717C122.83 43.7983 123.083 43.8617 123.35 43.8617C123.697 43.8617 123.987 43.7817 124.22 43.6217C124.453 43.4617 124.623 43.245 124.73 42.9717H125.56C125.427 43.4317 125.17 43.815 124.79 44.1217C124.417 44.4217 123.937 44.5717 123.35 44.5717ZM123.35 40.0817C122.95 40.0817 122.593 40.205 122.28 40.4517C121.973 40.6917 121.797 41.045 121.75 41.5117H124.87C124.85 41.065 124.697 40.715 124.41 40.4617C124.123 40.2083 123.77 40.0817 123.35 40.0817ZM126.913 44.4517V39.4917H127.673L127.743 40.4417C127.897 40.115 128.13 39.855 128.443 39.6617C128.757 39.4683 129.143 39.3717 129.603 39.3717V40.2517H129.373C129.08 40.2517 128.81 40.305 128.563 40.4117C128.317 40.5117 128.12 40.685 127.973 40.9317C127.827 41.1783 127.753 41.5183 127.753 41.9517V44.4517H126.913ZM131.186 46.6517L132.416 43.9717H132.126L130.156 39.4917H131.066L132.706 43.3517L134.446 39.4917H135.316L132.066 46.6517H131.186Z" fill="#E93A7D"/>
<ellipse cx="116.897" cy="14.1696" rx="14.2887" ry="14.1696" fill="#E93A7D"/>
<path d="M113.741 19.3352V18.0845C114.315 17.6094 114.871 17.1387 115.409 16.6725C115.956 16.2063 116.44 15.7445 116.861 15.2873C117.292 14.8301 117.632 14.3863 117.883 13.9559C118.143 13.5166 118.273 13.0908 118.273 12.6784C118.273 12.2928 118.166 11.9522 117.951 11.6563C117.744 11.3604 117.399 11.2125 116.915 11.2125C116.422 11.2125 116.05 11.3739 115.799 11.6966C115.548 12.0194 115.422 12.4094 115.422 12.8666H113.755C113.773 12.1763 113.925 11.6025 114.212 11.1453C114.499 10.6791 114.88 10.3339 115.355 10.1098C115.83 9.87665 116.364 9.7601 116.955 9.7601C117.915 9.7601 118.659 10.0246 119.188 10.5535C119.726 11.0735 119.995 11.7504 119.995 12.5842C119.995 13.1042 119.874 13.6108 119.632 14.1039C119.398 14.597 119.089 15.0721 118.704 15.5294C118.318 15.9866 117.901 16.417 117.453 16.8204C117.005 17.2149 116.57 17.5825 116.149 17.9231H120.223V19.3352H113.741Z" fill="white"/>
<path d="M192.236 44.4517V37.4517H194.536C195.083 37.4517 195.533 37.5417 195.886 37.7217C196.24 37.9017 196.5 38.145 196.666 38.4517C196.84 38.7583 196.926 39.105 196.926 39.4917C196.926 39.8717 196.843 40.215 196.676 40.5217C196.51 40.8283 196.25 41.075 195.896 41.2617C195.543 41.4417 195.09 41.5317 194.536 41.5317H193.076V44.4517H192.236ZM193.076 40.8217H194.516C195.076 40.8217 195.473 40.705 195.706 40.4717C195.946 40.2317 196.066 39.905 196.066 39.4917C196.066 39.0717 195.946 38.745 195.706 38.5117C195.473 38.2717 195.076 38.1517 194.516 38.1517H193.076V40.8217ZM199.493 44.5717C199.08 44.5717 198.736 44.5017 198.463 44.3617C198.19 44.2217 197.986 44.035 197.853 43.8017C197.72 43.5683 197.653 43.315 197.653 43.0417C197.653 42.535 197.846 42.145 198.233 41.8717C198.62 41.5983 199.146 41.4617 199.813 41.4617H201.153V41.4017C201.153 40.9683 201.04 40.6417 200.813 40.4217C200.586 40.195 200.283 40.0817 199.903 40.0817C199.576 40.0817 199.293 40.165 199.053 40.3317C198.82 40.4917 198.673 40.7283 198.613 41.0417H197.753C197.786 40.6817 197.906 40.3783 198.113 40.1317C198.326 39.885 198.59 39.6983 198.903 39.5717C199.216 39.4383 199.55 39.3717 199.903 39.3717C200.596 39.3717 201.116 39.5583 201.463 39.9317C201.816 40.2983 201.993 40.7883 201.993 41.4017V44.4517H201.243L201.193 43.5617C201.053 43.8417 200.846 44.0817 200.573 44.2817C200.306 44.475 199.946 44.5717 199.493 44.5717ZM199.623 43.8617C199.943 43.8617 200.216 43.7783 200.443 43.6117C200.676 43.445 200.853 43.2283 200.973 42.9617C201.093 42.695 201.153 42.415 201.153 42.1217V42.1117H199.883C199.39 42.1117 199.04 42.1983 198.833 42.3717C198.633 42.5383 198.533 42.7483 198.533 43.0017C198.533 43.2617 198.626 43.4717 198.813 43.6317C199.006 43.785 199.276 43.8617 199.623 43.8617ZM203.747 46.6517L204.977 43.9717H204.687L202.717 39.4917H203.627L205.267 43.3517L207.007 39.4917H207.877L204.627 46.6517H203.747ZM208.863 44.4517V39.4917H209.623L209.683 40.2117C209.843 39.945 210.057 39.7383 210.323 39.5917C210.59 39.445 210.89 39.3717 211.223 39.3717C211.617 39.3717 211.953 39.4517 212.233 39.6117C212.52 39.7717 212.74 40.015 212.893 40.3417C213.067 40.0417 213.303 39.805 213.603 39.6317C213.91 39.4583 214.24 39.3717 214.593 39.3717C215.187 39.3717 215.66 39.5517 216.013 39.9117C216.367 40.265 216.543 40.8117 216.543 41.5517V44.4517H215.713V41.6417C215.713 41.1283 215.61 40.7417 215.403 40.4817C215.197 40.2217 214.9 40.0917 214.513 40.0917C214.113 40.0917 213.78 40.2483 213.513 40.5617C213.253 40.8683 213.123 41.3083 213.123 41.8817V44.4517H212.283V41.6417C212.283 41.1283 212.18 40.7417 211.973 40.4817C211.767 40.2217 211.47 40.0917 211.083 40.0917C210.69 40.0917 210.36 40.2483 210.093 40.5617C209.833 40.8683 209.703 41.3083 209.703 41.8817V44.4517H208.863ZM220.138 44.5717C219.665 44.5717 219.245 44.465 218.878 44.2517C218.512 44.0317 218.222 43.7283 218.008 43.3417C217.802 42.955 217.698 42.4983 217.698 41.9717C217.698 41.4517 217.802 40.9983 218.008 40.6117C218.215 40.2183 218.502 39.915 218.868 39.7017C219.242 39.4817 219.672 39.3717 220.158 39.3717C220.638 39.3717 221.052 39.4817 221.398 39.7017C221.752 39.915 222.022 40.1983 222.208 40.5517C222.395 40.905 222.488 41.285 222.488 41.6917C222.488 41.765 222.485 41.8383 222.478 41.9117C222.478 41.985 222.478 42.0683 222.478 42.1617H218.528C218.548 42.5417 218.635 42.8583 218.788 43.1117C218.948 43.3583 219.145 43.545 219.378 43.6717C219.618 43.7983 219.872 43.8617 220.138 43.8617C220.485 43.8617 220.775 43.7817 221.008 43.6217C221.242 43.4617 221.412 43.245 221.518 42.9717H222.348C222.215 43.4317 221.958 43.815 221.578 44.1217C221.205 44.4217 220.725 44.5717 220.138 44.5717ZM220.138 40.0817C219.738 40.0817 219.382 40.205 219.068 40.4517C218.762 40.6917 218.585 41.045 218.538 41.5117H221.658C221.638 41.065 221.485 40.715 221.198 40.4617C220.912 40.2083 220.558 40.0817 220.138 40.0817ZM223.702 44.4517V39.4917H224.462L224.512 40.3817C224.672 40.0683 224.902 39.8217 225.202 39.6417C225.502 39.4617 225.842 39.3717 226.222 39.3717C226.809 39.3717 227.275 39.5517 227.622 39.9117C227.975 40.265 228.152 40.8117 228.152 41.5517V44.4517H227.312V41.6417C227.312 40.6083 226.885 40.0917 226.032 40.0917C225.605 40.0917 225.249 40.2483 224.962 40.5617C224.682 40.8683 224.542 41.3083 224.542 41.8817V44.4517H223.702ZM231.484 44.4517C231.031 44.4517 230.674 44.3417 230.414 44.1217C230.154 43.9017 230.024 43.505 230.024 42.9317V40.2017H229.164V39.4917H230.024L230.134 38.3017H230.864V39.4917H232.324V40.2017H230.864V42.9317C230.864 43.245 230.928 43.4583 231.054 43.5717C231.181 43.6783 231.404 43.7317 231.724 43.7317H232.244V44.4517H231.484Z" fill="black"/>
<ellipse cx="213.136" cy="14.1696" rx="14.2887" ry="14.1696" fill="#374151"/>
<path d="M213.125 19.4966C212.506 19.4966 211.946 19.389 211.444 19.1738C210.942 18.9497 210.538 18.609 210.233 18.1518C209.928 17.6945 209.767 17.1207 209.749 16.4304H211.444C211.453 16.8876 211.6 17.2732 211.887 17.5869C212.183 17.8918 212.596 18.0442 213.125 18.0442C213.627 18.0442 214.012 17.9052 214.281 17.6273C214.55 17.3494 214.685 16.9997 214.685 16.5783C214.685 16.0852 214.505 15.7132 214.147 15.4621C213.797 15.2021 213.344 15.0721 212.788 15.0721H212.089V13.6601H212.802C213.259 13.6601 213.64 13.5525 213.945 13.3373C214.25 13.1221 214.402 12.8039 214.402 12.3825C214.402 12.0328 214.286 11.7549 214.053 11.5487C213.828 11.3335 213.515 11.226 213.111 11.226C212.672 11.226 212.327 11.356 212.076 11.616C211.834 11.8759 211.699 12.1942 211.672 12.5708H209.991C210.027 11.7011 210.327 11.0153 210.892 10.5132C211.466 10.0111 212.206 9.7601 213.111 9.7601C213.757 9.7601 214.299 9.87665 214.738 10.1098C215.187 10.3339 215.523 10.6342 215.747 11.0108C215.98 11.3873 216.097 11.8042 216.097 12.2615C216.097 12.7904 215.949 13.2387 215.653 13.6063C215.366 13.9649 215.007 14.207 214.577 14.3325C215.106 14.4401 215.536 14.7001 215.868 15.1125C216.2 15.5159 216.366 16.027 216.366 16.6456C216.366 17.1656 216.24 17.6407 215.989 18.0711C215.738 18.5014 215.37 18.8466 214.886 19.1066C214.411 19.3666 213.824 19.4966 213.125 19.4966Z" fill="white"/>
</svg>
