<svg width="214" height="48" viewBox="0 0 214 48" fill="none" xmlns="http://www.w3.org/2000/svg">
<line x1="34.6079" y1="14.6771" x2="93.6079" y2="14.6771" stroke="#18A0FB" stroke-width="0.645816"/>
<path d="M3.07612 44.5716C2.56278 44.5716 2.11612 44.4783 1.73612 44.2916C1.35612 44.1049 1.06278 43.8449 0.856115 43.5116C0.649449 43.1783 0.546115 42.7916 0.546115 42.3516H1.42612C1.42612 42.6249 1.48945 42.8783 1.61612 43.1116C1.74278 43.3383 1.92612 43.5216 2.16612 43.6616C2.41278 43.7949 2.71612 43.8616 3.07612 43.8616C3.54945 43.8616 3.91612 43.7483 4.17612 43.5216C4.43612 43.2949 4.56612 43.0116 4.56612 42.6716C4.56612 42.3916 4.50612 42.1683 4.38612 42.0016C4.26612 41.8283 4.10278 41.6883 3.89612 41.5816C3.69612 41.4749 3.46278 41.3816 3.19612 41.3016C2.93612 41.2216 2.66278 41.1316 2.37612 41.0316C1.83612 40.8449 1.43612 40.6149 1.17612 40.3416C0.916115 40.0616 0.786115 39.6983 0.786115 39.2516C0.779449 38.8783 0.866115 38.5483 1.04612 38.2616C1.22612 37.9683 1.47945 37.7416 1.80612 37.5816C2.13945 37.4149 2.53278 37.3316 2.98612 37.3316C3.43278 37.3316 3.81945 37.4149 4.14612 37.5816C4.47945 37.7483 4.73612 37.9783 4.91612 38.2716C5.10278 38.5649 5.19945 38.8983 5.20612 39.2716H4.32612C4.32612 39.0783 4.27612 38.8883 4.17612 38.7016C4.07612 38.5083 3.92278 38.3516 3.71612 38.2316C3.51612 38.1116 3.26278 38.0516 2.95612 38.0516C2.57612 38.0449 2.26278 38.1416 2.01612 38.3416C1.77612 38.5416 1.65612 38.8183 1.65612 39.1716C1.65612 39.4716 1.73945 39.7016 1.90612 39.8616C2.07945 40.0216 2.31945 40.1549 2.62612 40.2616C2.93278 40.3616 3.28612 40.4783 3.68612 40.6116C4.01945 40.7316 4.31945 40.8716 4.58612 41.0316C4.85278 41.1916 5.05945 41.3983 5.20612 41.6516C5.35945 41.9049 5.43612 42.2283 5.43612 42.6216C5.43612 42.9549 5.34945 43.2716 5.17612 43.5716C5.00278 43.8649 4.73945 44.1049 4.38612 44.2916C4.03945 44.4783 3.60278 44.5716 3.07612 44.5716ZM6.67737 44.4516V37.2516H7.51737V40.3416C7.68403 40.0349 7.9207 39.7983 8.22737 39.6316C8.53403 39.4583 8.86737 39.3716 9.22737 39.3716C9.8007 39.3716 10.2607 39.5516 10.6074 39.9116C10.954 40.2649 11.1274 40.8116 11.1274 41.5516V44.4516H10.2974V41.6416C10.2974 40.6083 9.8807 40.0916 9.04737 40.0916C8.61403 40.0916 8.2507 40.2483 7.95737 40.5616C7.66403 40.8683 7.51737 41.3083 7.51737 41.8816V44.4516H6.67737ZM13.01 38.3916C12.8434 38.3916 12.7034 38.3383 12.59 38.2316C12.4834 38.1183 12.43 37.9783 12.43 37.8116C12.43 37.6516 12.4834 37.5183 12.59 37.4116C12.7034 37.3049 12.8434 37.2516 13.01 37.2516C13.17 37.2516 13.3067 37.3049 13.42 37.4116C13.5334 37.5183 13.59 37.6516 13.59 37.8116C13.59 37.9783 13.5334 38.1183 13.42 38.2316C13.3067 38.3383 13.17 38.3916 13.01 38.3916ZM12.59 44.4516V39.4916H13.43V44.4516H12.59ZM14.9926 46.6516V39.4916H15.7526L15.8326 40.3116C15.9926 40.0716 16.2193 39.8549 16.5126 39.6616C16.8126 39.4683 17.1926 39.3716 17.6526 39.3716C18.1459 39.3716 18.5759 39.4849 18.9426 39.7116C19.3093 39.9383 19.5926 40.2483 19.7926 40.6416C19.9993 41.0349 20.1026 41.4816 20.1026 41.9816C20.1026 42.4816 19.9993 42.9283 19.7926 43.3216C19.5926 43.7083 19.3059 44.0149 18.9326 44.2416C18.5659 44.4616 18.1359 44.5716 17.6426 44.5716C17.2359 44.5716 16.8726 44.4883 16.5526 44.3216C16.2393 44.1549 15.9993 43.9216 15.8326 43.6216V46.6516H14.9926ZM17.5526 43.8416C17.8859 43.8416 18.1793 43.7649 18.4326 43.6116C18.6859 43.4516 18.8859 43.2316 19.0326 42.9516C19.1793 42.6716 19.2526 42.3449 19.2526 41.9716C19.2526 41.5983 19.1793 41.2716 19.0326 40.9916C18.8859 40.7116 18.6859 40.4949 18.4326 40.3416C18.1793 40.1816 17.8859 40.1016 17.5526 40.1016C17.2193 40.1016 16.9259 40.1816 16.6726 40.3416C16.4193 40.4949 16.2193 40.7116 16.0726 40.9916C15.9259 41.2716 15.8526 41.5983 15.8526 41.9716C15.8526 42.3449 15.9259 42.6716 16.0726 42.9516C16.2193 43.2316 16.4193 43.4516 16.6726 43.6116C16.9259 43.7649 17.2193 43.8416 17.5526 43.8416ZM21.3719 46.6516V39.4916H22.1319L22.2119 40.3116C22.3719 40.0716 22.5986 39.8549 22.8919 39.6616C23.1919 39.4683 23.5719 39.3716 24.0319 39.3716C24.5252 39.3716 24.9552 39.4849 25.3219 39.7116C25.6886 39.9383 25.9719 40.2483 26.1719 40.6416C26.3786 41.0349 26.4819 41.4816 26.4819 41.9816C26.4819 42.4816 26.3786 42.9283 26.1719 43.3216C25.9719 43.7083 25.6852 44.0149 25.3119 44.2416C24.9452 44.4616 24.5152 44.5716 24.0219 44.5716C23.6152 44.5716 23.2519 44.4883 22.9319 44.3216C22.6186 44.1549 22.3786 43.9216 22.2119 43.6216V46.6516H21.3719ZM23.9319 43.8416C24.2652 43.8416 24.5586 43.7649 24.8119 43.6116C25.0652 43.4516 25.2652 43.2316 25.4119 42.9516C25.5586 42.6716 25.6319 42.3449 25.6319 41.9716C25.6319 41.5983 25.5586 41.2716 25.4119 40.9916C25.2652 40.7116 25.0652 40.4949 24.8119 40.3416C24.5586 40.1816 24.2652 40.1016 23.9319 40.1016C23.5986 40.1016 23.3052 40.1816 23.0519 40.3416C22.7986 40.4949 22.5986 40.7116 22.4519 40.9916C22.3052 41.2716 22.2319 41.5983 22.2319 41.9716C22.2319 42.3449 22.3052 42.6716 22.4519 42.9516C22.5986 43.2316 22.7986 43.4516 23.0519 43.6116C23.3052 43.7649 23.5986 43.8416 23.9319 43.8416ZM28.2612 38.3916C28.0945 38.3916 27.9545 38.3383 27.8412 38.2316C27.7345 38.1183 27.6812 37.9783 27.6812 37.8116C27.6812 37.6516 27.7345 37.5183 27.8412 37.4116C27.9545 37.3049 28.0945 37.2516 28.2612 37.2516C28.4212 37.2516 28.5579 37.3049 28.6712 37.4116C28.7845 37.5183 28.8412 37.6516 28.8412 37.8116C28.8412 37.9783 28.7845 38.1183 28.6712 38.2316C28.5579 38.3383 28.4212 38.3916 28.2612 38.3916ZM27.8412 44.4516V39.4916H28.6812V44.4516H27.8412ZM30.2438 44.4516V39.4916H31.0038L31.0538 40.3816C31.2138 40.0683 31.4438 39.8216 31.7438 39.6416C32.0438 39.4616 32.3838 39.3716 32.7638 39.3716C33.3504 39.3716 33.8171 39.5516 34.1638 39.9116C34.5171 40.2649 34.6938 40.8116 34.6938 41.5516V44.4516H33.8538V41.6416C33.8538 40.6083 33.4271 40.0916 32.5738 40.0916C32.1471 40.0916 31.7904 40.2483 31.5038 40.5616C31.2238 40.8683 31.0838 41.3083 31.0838 41.8816V44.4516H30.2438ZM38.0264 42.8916C37.7464 42.8916 37.4898 42.8549 37.2564 42.7816L36.7564 43.2516C36.8298 43.3049 36.9198 43.3516 37.0264 43.3916C37.1398 43.4249 37.2998 43.4583 37.5064 43.4916C37.7131 43.5183 38.0031 43.5483 38.3764 43.5816C39.0431 43.6283 39.5198 43.7816 39.8064 44.0416C40.0931 44.3016 40.2364 44.6416 40.2364 45.0616C40.2364 45.3483 40.1564 45.6216 39.9964 45.8816C39.8431 46.1416 39.6031 46.3549 39.2764 46.5216C38.9564 46.6883 38.5431 46.7716 38.0364 46.7716C37.5898 46.7716 37.1931 46.7116 36.8464 46.5916C36.4998 46.4783 36.2298 46.3016 36.0364 46.0616C35.8431 45.8283 35.7464 45.5316 35.7464 45.1716C35.7464 44.9849 35.7964 44.7816 35.8964 44.5616C35.9964 44.3483 36.1831 44.1449 36.4564 43.9516C36.3098 43.8916 36.1831 43.8283 36.0764 43.7616C35.9764 43.6883 35.8831 43.6083 35.7964 43.5216V43.2916L36.6464 42.4516C36.2531 42.1183 36.0564 41.6783 36.0564 41.1316C36.0564 40.8049 36.1331 40.5083 36.2864 40.2416C36.4398 39.9749 36.6631 39.7649 36.9564 39.6116C37.2498 39.4516 37.6064 39.3716 38.0264 39.3716C38.3131 39.3716 38.5731 39.4116 38.8064 39.4916H40.6364V40.1216L39.7064 40.1616C39.8998 40.4416 39.9964 40.7649 39.9964 41.1316C39.9964 41.4583 39.9164 41.7549 39.7564 42.0216C39.6031 42.2883 39.3798 42.5016 39.0864 42.6616C38.7998 42.8149 38.4464 42.8916 38.0264 42.8916ZM38.0264 42.2016C38.3798 42.2016 38.6598 42.1116 38.8664 41.9316C39.0798 41.7449 39.1864 41.4783 39.1864 41.1316C39.1864 40.7916 39.0798 40.5316 38.8664 40.3516C38.6598 40.1649 38.3798 40.0716 38.0264 40.0716C37.6664 40.0716 37.3798 40.1649 37.1664 40.3516C36.9598 40.5316 36.8564 40.7916 36.8564 41.1316C36.8564 41.4783 36.9598 41.7449 37.1664 41.9316C37.3798 42.1116 37.6664 42.2016 38.0264 42.2016ZM36.5664 45.0916C36.5664 45.4249 36.7064 45.6716 36.9864 45.8316C37.2664 45.9983 37.6164 46.0816 38.0364 46.0816C38.4498 46.0816 38.7798 45.9916 39.0264 45.8116C39.2798 45.6316 39.4064 45.3916 39.4064 45.0916C39.4064 44.8783 39.3198 44.6916 39.1464 44.5316C38.9731 44.3783 38.6531 44.2883 38.1864 44.2616C37.8198 44.2349 37.5031 44.2016 37.2364 44.1616C36.9631 44.3083 36.7831 44.4649 36.6964 44.6316C36.6098 44.8049 36.5664 44.9583 36.5664 45.0916Z" fill="#18A0FB"/>
<ellipse cx="21.2833" cy="14.1696" rx="14.2887" ry="14.1696" fill="#18A0FB"/>
<path d="M20.9019 19.3351V11.8849L19.3554 12.248V10.93L21.6281 9.92142H22.6905V19.3351H20.9019Z" fill="white"/>
<path d="M88.4433 44.4517V37.4517H90.5933C91.8267 37.4517 92.7333 37.765 93.3133 38.3917C93.9 39.0183 94.1933 39.8783 94.1933 40.9717C94.1933 42.045 93.9 42.895 93.3133 43.5217C92.7333 44.1417 91.8267 44.4517 90.5933 44.4517H88.4433ZM89.2833 43.7517H90.5733C91.2533 43.7517 91.7933 43.6417 92.1933 43.4217C92.6 43.195 92.89 42.875 93.0633 42.4617C93.2367 42.0417 93.3233 41.545 93.3233 40.9717C93.3233 40.385 93.2367 39.8817 93.0633 39.4617C92.89 39.0417 92.6 38.7183 92.1933 38.4917C91.7933 38.265 91.2533 38.1517 90.5733 38.1517H89.2833V43.7517ZM97.6862 44.5717C97.2129 44.5717 96.7929 44.465 96.4262 44.2517C96.0596 44.0317 95.7696 43.7283 95.5562 43.3417C95.3496 42.955 95.2462 42.4983 95.2462 41.9717C95.2462 41.4517 95.3496 40.9983 95.5562 40.6117C95.7629 40.2183 96.0496 39.915 96.4162 39.7017C96.7896 39.4817 97.2196 39.3717 97.7062 39.3717C98.1862 39.3717 98.5996 39.4817 98.9462 39.7017C99.2996 39.915 99.5696 40.1983 99.7562 40.5517C99.9429 40.905 100.036 41.285 100.036 41.6917C100.036 41.765 100.033 41.8383 100.026 41.9117C100.026 41.985 100.026 42.0683 100.026 42.1617H96.0762C96.0962 42.5417 96.1829 42.8583 96.3362 43.1117C96.4962 43.3583 96.6929 43.545 96.9262 43.6717C97.1662 43.7983 97.4196 43.8617 97.6862 43.8617C98.0329 43.8617 98.3229 43.7817 98.5562 43.6217C98.7896 43.4617 98.9596 43.245 99.0662 42.9717H99.8962C99.7629 43.4317 99.5062 43.815 99.1262 44.1217C98.7529 44.4217 98.2729 44.5717 97.6862 44.5717ZM97.6862 40.0817C97.2862 40.0817 96.9296 40.205 96.6162 40.4517C96.3096 40.6917 96.1329 41.045 96.0862 41.5117H99.2062C99.1862 41.065 99.0329 40.715 98.7462 40.4617C98.4596 40.2083 98.1062 40.0817 97.6862 40.0817ZM101.25 44.4517V37.2517H102.09V44.4517H101.25ZM104.076 38.3917C103.91 38.3917 103.77 38.3383 103.656 38.2317C103.55 38.1183 103.496 37.9783 103.496 37.8117C103.496 37.6517 103.55 37.5183 103.656 37.4117C103.77 37.305 103.91 37.2517 104.076 37.2517C104.236 37.2517 104.373 37.305 104.486 37.4117C104.6 37.5183 104.656 37.6517 104.656 37.8117C104.656 37.9783 104.6 38.1183 104.486 38.2317C104.373 38.3383 104.236 38.3917 104.076 38.3917ZM103.656 44.4517V39.4917H104.496V44.4517H103.656ZM107.489 44.4517L105.609 39.4917H106.489L107.979 43.6417L109.479 39.4917H110.339L108.459 44.4517H107.489ZM113.35 44.5717C112.877 44.5717 112.457 44.465 112.09 44.2517C111.723 44.0317 111.433 43.7283 111.22 43.3417C111.013 42.955 110.91 42.4983 110.91 41.9717C110.91 41.4517 111.013 40.9983 111.22 40.6117C111.427 40.2183 111.713 39.915 112.08 39.7017C112.453 39.4817 112.883 39.3717 113.37 39.3717C113.85 39.3717 114.263 39.4817 114.61 39.7017C114.963 39.915 115.233 40.1983 115.42 40.5517C115.607 40.905 115.7 41.285 115.7 41.6917C115.7 41.765 115.697 41.8383 115.69 41.9117C115.69 41.985 115.69 42.0683 115.69 42.1617H111.74C111.76 42.5417 111.847 42.8583 112 43.1117C112.16 43.3583 112.357 43.545 112.59 43.6717C112.83 43.7983 113.083 43.8617 113.35 43.8617C113.697 43.8617 113.987 43.7817 114.22 43.6217C114.453 43.4617 114.623 43.245 114.73 42.9717H115.56C115.427 43.4317 115.17 43.815 114.79 44.1217C114.417 44.4217 113.937 44.5717 113.35 44.5717ZM113.35 40.0817C112.95 40.0817 112.593 40.205 112.28 40.4517C111.973 40.6917 111.797 41.045 111.75 41.5117H114.87C114.85 41.065 114.697 40.715 114.41 40.4617C114.123 40.2083 113.77 40.0817 113.35 40.0817ZM116.913 44.4517V39.4917H117.673L117.743 40.4417C117.897 40.115 118.13 39.855 118.443 39.6617C118.757 39.4683 119.143 39.3717 119.603 39.3717V40.2517H119.373C119.08 40.2517 118.81 40.305 118.563 40.4117C118.317 40.5117 118.12 40.685 117.973 40.9317C117.827 41.1783 117.753 41.5183 117.753 41.9517V44.4517H116.913ZM121.186 46.6517L122.416 43.9717H122.126L120.156 39.4917H121.066L122.706 43.3517L124.446 39.4917H125.316L122.066 46.6517H121.186Z" fill="#374151"/>
<ellipse cx="106.897" cy="14.1697" rx="14.2887" ry="14.1696" fill="#374151"/>
<path d="M103.741 19.3351V18.0845C104.315 17.6093 104.871 17.1386 105.409 16.6724C105.956 16.2062 106.44 15.7445 106.861 15.2872C107.292 14.83 107.632 14.3862 107.883 13.9559C108.143 13.5166 108.273 13.0907 108.273 12.6783C108.273 12.2928 108.166 11.9521 107.951 11.6562C107.744 11.3604 107.399 11.2124 106.915 11.2124C106.422 11.2124 106.05 11.3738 105.799 11.6966C105.548 12.0193 105.422 12.4093 105.422 12.8666H103.755C103.773 12.1762 103.925 11.6024 104.212 11.1452C104.499 10.679 104.88 10.3338 105.355 10.1097C105.83 9.87659 106.364 9.76004 106.955 9.76004C107.915 9.76004 108.659 10.0245 109.188 10.5535C109.726 11.0735 109.995 11.7504 109.995 12.5842C109.995 13.1042 109.874 13.6107 109.632 14.1038C109.398 14.5969 109.089 15.0721 108.704 15.5293C108.318 15.9865 107.901 16.4169 107.453 16.8203C107.005 17.2148 106.57 17.5824 106.149 17.9231H110.223V19.3351H103.741Z" fill="white"/>
<line x1="116.608" y1="14.6771" x2="180.608" y2="14.6771" stroke="#374151" stroke-width="0.645816"/>
<path d="M172.236 44.4517V37.4517H174.536C175.083 37.4517 175.533 37.5417 175.886 37.7217C176.24 37.9017 176.5 38.145 176.666 38.4517C176.84 38.7583 176.926 39.105 176.926 39.4917C176.926 39.8717 176.843 40.215 176.676 40.5217C176.51 40.8283 176.25 41.075 175.896 41.2617C175.543 41.4417 175.09 41.5317 174.536 41.5317H173.076V44.4517H172.236ZM173.076 40.8217H174.516C175.076 40.8217 175.473 40.705 175.706 40.4717C175.946 40.2317 176.066 39.905 176.066 39.4917C176.066 39.0717 175.946 38.745 175.706 38.5117C175.473 38.2717 175.076 38.1517 174.516 38.1517H173.076V40.8217ZM179.493 44.5717C179.08 44.5717 178.736 44.5017 178.463 44.3617C178.19 44.2217 177.986 44.035 177.853 43.8017C177.72 43.5683 177.653 43.315 177.653 43.0417C177.653 42.535 177.846 42.145 178.233 41.8717C178.62 41.5983 179.146 41.4617 179.813 41.4617H181.153V41.4017C181.153 40.9683 181.04 40.6417 180.813 40.4217C180.586 40.195 180.283 40.0817 179.903 40.0817C179.576 40.0817 179.293 40.165 179.053 40.3317C178.82 40.4917 178.673 40.7283 178.613 41.0417H177.753C177.786 40.6817 177.906 40.3783 178.113 40.1317C178.326 39.885 178.59 39.6983 178.903 39.5717C179.216 39.4383 179.55 39.3717 179.903 39.3717C180.596 39.3717 181.116 39.5583 181.463 39.9317C181.816 40.2983 181.993 40.7883 181.993 41.4017V44.4517H181.243L181.193 43.5617C181.053 43.8417 180.846 44.0817 180.573 44.2817C180.306 44.475 179.946 44.5717 179.493 44.5717ZM179.623 43.8617C179.943 43.8617 180.216 43.7783 180.443 43.6117C180.676 43.445 180.853 43.2283 180.973 42.9617C181.093 42.695 181.153 42.415 181.153 42.1217V42.1117H179.883C179.39 42.1117 179.04 42.1983 178.833 42.3717C178.633 42.5383 178.533 42.7483 178.533 43.0017C178.533 43.2617 178.626 43.4717 178.813 43.6317C179.006 43.785 179.276 43.8617 179.623 43.8617ZM183.747 46.6517L184.977 43.9717H184.687L182.717 39.4917H183.627L185.267 43.3517L187.007 39.4917H187.877L184.627 46.6517H183.747ZM188.863 44.4517V39.4917H189.623L189.683 40.2117C189.843 39.945 190.056 39.7383 190.323 39.5917C190.59 39.445 190.89 39.3717 191.223 39.3717C191.616 39.3717 191.953 39.4517 192.233 39.6117C192.52 39.7717 192.74 40.015 192.893 40.3417C193.066 40.0417 193.303 39.805 193.603 39.6317C193.91 39.4583 194.24 39.3717 194.593 39.3717C195.186 39.3717 195.66 39.5517 196.013 39.9117C196.366 40.265 196.543 40.8117 196.543 41.5517V44.4517H195.713V41.6417C195.713 41.1283 195.61 40.7417 195.403 40.4817C195.196 40.2217 194.9 40.0917 194.513 40.0917C194.113 40.0917 193.78 40.2483 193.513 40.5617C193.253 40.8683 193.123 41.3083 193.123 41.8817V44.4517H192.283V41.6417C192.283 41.1283 192.18 40.7417 191.973 40.4817C191.766 40.2217 191.47 40.0917 191.083 40.0917C190.69 40.0917 190.36 40.2483 190.093 40.5617C189.833 40.8683 189.703 41.3083 189.703 41.8817V44.4517H188.863ZM200.138 44.5717C199.665 44.5717 199.245 44.465 198.878 44.2517C198.512 44.0317 198.222 43.7283 198.008 43.3417C197.802 42.955 197.698 42.4983 197.698 41.9717C197.698 41.4517 197.802 40.9983 198.008 40.6117C198.215 40.2183 198.502 39.915 198.868 39.7017C199.242 39.4817 199.672 39.3717 200.158 39.3717C200.638 39.3717 201.052 39.4817 201.398 39.7017C201.752 39.915 202.022 40.1983 202.208 40.5517C202.395 40.905 202.488 41.285 202.488 41.6917C202.488 41.765 202.485 41.8383 202.478 41.9117C202.478 41.985 202.478 42.0683 202.478 42.1617H198.528C198.548 42.5417 198.635 42.8583 198.788 43.1117C198.948 43.3583 199.145 43.545 199.378 43.6717C199.618 43.7983 199.872 43.8617 200.138 43.8617C200.485 43.8617 200.775 43.7817 201.008 43.6217C201.242 43.4617 201.412 43.245 201.518 42.9717H202.348C202.215 43.4317 201.958 43.815 201.578 44.1217C201.205 44.4217 200.725 44.5717 200.138 44.5717ZM200.138 40.0817C199.738 40.0817 199.382 40.205 199.068 40.4517C198.762 40.6917 198.585 41.045 198.538 41.5117H201.658C201.638 41.065 201.485 40.715 201.198 40.4617C200.912 40.2083 200.558 40.0817 200.138 40.0817ZM203.702 44.4517V39.4917H204.462L204.512 40.3817C204.672 40.0683 204.902 39.8217 205.202 39.6417C205.502 39.4617 205.842 39.3717 206.222 39.3717C206.808 39.3717 207.275 39.5517 207.622 39.9117C207.975 40.265 208.152 40.8117 208.152 41.5517V44.4517H207.312V41.6417C207.312 40.6083 206.885 40.0917 206.032 40.0917C205.605 40.0917 205.248 40.2483 204.962 40.5617C204.682 40.8683 204.542 41.3083 204.542 41.8817V44.4517H203.702ZM211.484 44.4517C211.031 44.4517 210.674 44.3417 210.414 44.1217C210.154 43.9017 210.024 43.505 210.024 42.9317V40.2017H209.164V39.4917H210.024L210.134 38.3017H210.864V39.4917H212.324V40.2017H210.864V42.9317C210.864 43.245 210.928 43.4583 211.054 43.5717C211.181 43.6783 211.404 43.7317 211.724 43.7317H212.244V44.4517H211.484Z" fill="black"/>
<ellipse cx="193.136" cy="14.1696" rx="14.2887" ry="14.1696" fill="#374151"/>
<path d="M193.125 19.4965C192.506 19.4965 191.946 19.3889 191.444 19.1738C190.941 18.9496 190.538 18.6089 190.233 18.1517C189.928 17.6945 189.767 17.1207 189.749 16.4303H191.444C191.453 16.8876 191.6 17.2731 191.887 17.5869C192.183 17.8917 192.596 18.0441 193.125 18.0441C193.627 18.0441 194.012 17.9052 194.281 17.6272C194.55 17.3493 194.685 16.9996 194.685 16.5783C194.685 16.0852 194.505 15.7131 194.147 15.4621C193.797 15.2021 193.344 15.0721 192.788 15.0721H192.089V13.66H192.802C193.259 13.66 193.64 13.5524 193.945 13.3373C194.25 13.1221 194.402 12.8038 194.402 12.3824C194.402 12.0328 194.286 11.7549 194.053 11.5486C193.828 11.3335 193.515 11.2259 193.111 11.2259C192.672 11.2259 192.327 11.3559 192.076 11.6159C191.834 11.8759 191.699 12.1942 191.672 12.5707H189.991C190.027 11.7011 190.327 11.0152 190.892 10.5131C191.466 10.0111 192.206 9.76004 193.111 9.76004C193.757 9.76004 194.299 9.87659 194.738 10.1097C195.187 10.3338 195.523 10.6342 195.747 11.0107C195.98 11.3873 196.097 11.8042 196.097 12.2614C196.097 12.7904 195.949 13.2386 195.653 13.6062C195.366 13.9648 195.007 14.2069 194.577 14.3324C195.106 14.44 195.536 14.7 195.868 15.1124C196.2 15.5159 196.366 16.0269 196.366 16.6455C196.366 17.1655 196.24 17.6407 195.989 18.071C195.738 18.5014 195.37 18.8465 194.886 19.1065C194.411 19.3665 193.824 19.4965 193.125 19.4965Z" fill="white"/>
</svg>
