<svg width="313" height="80" viewBox="0 0 313 80" fill="none" xmlns="http://www.w3.org/2000/svg">
<path d="M4.60648 74.2816C3.88781 74.2816 3.26248 74.1509 2.73048 73.8896C2.19848 73.6283 1.78781 73.2643 1.49848 72.7976C1.20914 72.3309 1.06448 71.7896 1.06448 71.1736H2.29648C2.29648 71.5563 2.38514 71.9109 2.56248 72.2376C2.73981 72.5549 2.99648 72.8116 3.33248 73.0076C3.67781 73.1943 4.10248 73.2876 4.60648 73.2876C5.26914 73.2876 5.78248 73.1289 6.14648 72.8116C6.51048 72.4943 6.69248 72.0976 6.69248 71.6216C6.69248 71.2296 6.60848 70.9169 6.44048 70.6836C6.27248 70.4409 6.04381 70.2449 5.75448 70.0956C5.47448 69.9463 5.14781 69.8156 4.77448 69.7036C4.41048 69.5916 4.02781 69.4656 3.62648 69.3256C2.87048 69.0643 2.31048 68.7423 1.94648 68.3596C1.58248 67.9676 1.40048 67.4589 1.40048 66.8336C1.39114 66.3109 1.51248 65.8489 1.76448 65.4476C2.01648 65.0369 2.37114 64.7196 2.82848 64.4956C3.29514 64.2623 3.84581 64.1456 4.48048 64.1456C5.10581 64.1456 5.64714 64.2623 6.10448 64.4956C6.57114 64.7289 6.93048 65.0509 7.18248 65.4616C7.44381 65.8723 7.57914 66.3389 7.58848 66.8616H6.35648C6.35648 66.5909 6.28648 66.3249 6.14648 66.0636C6.00648 65.7929 5.79181 65.5736 5.50248 65.4056C5.22248 65.2376 4.86781 65.1536 4.43848 65.1536C3.90648 65.1443 3.46781 65.2796 3.12248 65.5596C2.78648 65.8396 2.61848 66.2269 2.61848 66.7216C2.61848 67.1416 2.73514 67.4636 2.96848 67.6876C3.21114 67.9116 3.54714 68.0983 3.97648 68.2476C4.40581 68.3876 4.90048 68.5509 5.46048 68.7376C5.92714 68.9056 6.34714 69.1016 6.72048 69.3256C7.09381 69.5496 7.38314 69.8389 7.58848 70.1936C7.80314 70.5483 7.91048 71.0009 7.91048 71.5516C7.91048 72.0183 7.78914 72.4616 7.54648 72.8816C7.30381 73.2923 6.93514 73.6283 6.44048 73.8896C5.95514 74.1509 5.34381 74.2816 4.60648 74.2816ZM9.64823 74.1136V64.0336H10.8242V68.3596C11.0576 67.9303 11.3889 67.5989 11.8182 67.3656C12.2476 67.1229 12.7142 67.0016 13.2182 67.0016C14.0209 67.0016 14.6649 67.2536 15.1502 67.7576C15.6356 68.2523 15.8782 69.0176 15.8782 70.0536V74.1136H14.7162V70.1796C14.7162 68.7329 14.1329 68.0096 12.9662 68.0096C12.3596 68.0096 11.8509 68.2289 11.4402 68.6676C11.0296 69.0969 10.8242 69.7129 10.8242 70.5156V74.1136H9.64823ZM18.5139 65.6296C18.2806 65.6296 18.0846 65.5549 17.9259 65.4056C17.7766 65.2469 17.7019 65.0509 17.7019 64.8176C17.7019 64.5936 17.7766 64.4069 17.9259 64.2576C18.0846 64.1083 18.2806 64.0336 18.5139 64.0336C18.7379 64.0336 18.9293 64.1083 19.0879 64.2576C19.2466 64.4069 19.3259 64.5936 19.3259 64.8176C19.3259 65.0509 19.2466 65.2469 19.0879 65.4056C18.9293 65.5549 18.7379 65.6296 18.5139 65.6296ZM17.9259 74.1136V67.1696H19.1019V74.1136H17.9259ZM21.2896 77.1936V67.1696H22.3536L22.4656 68.3176C22.6896 67.9816 23.0069 67.6783 23.4176 67.4076C23.8376 67.1369 24.3696 67.0016 25.0136 67.0016C25.7042 67.0016 26.3062 67.1603 26.8196 67.4776C27.3329 67.7949 27.7296 68.2289 28.0096 68.7796C28.2989 69.3303 28.4436 69.9556 28.4436 70.6556C28.4436 71.3556 28.2989 71.9809 28.0096 72.5316C27.7296 73.0729 27.3282 73.5023 26.8056 73.8196C26.2922 74.1276 25.6902 74.2816 24.9996 74.2816C24.4302 74.2816 23.9216 74.1649 23.4736 73.9316C23.0349 73.6983 22.6989 73.3716 22.4656 72.9516V77.1936H21.2896ZM24.8736 73.2596C25.3402 73.2596 25.7509 73.1523 26.1056 72.9376C26.4602 72.7136 26.7402 72.4056 26.9456 72.0136C27.1509 71.6216 27.2536 71.1643 27.2536 70.6416C27.2536 70.1189 27.1509 69.6616 26.9456 69.2696C26.7402 68.8776 26.4602 68.5743 26.1056 68.3596C25.7509 68.1356 25.3402 68.0236 24.8736 68.0236C24.4069 68.0236 23.9962 68.1356 23.6416 68.3596C23.2869 68.5743 23.0069 68.8776 22.8016 69.2696C22.5962 69.6616 22.4936 70.1189 22.4936 70.6416C22.4936 71.1643 22.5962 71.6216 22.8016 72.0136C23.0069 72.4056 23.2869 72.7136 23.6416 72.9376C23.9962 73.1523 24.4069 73.2596 24.8736 73.2596ZM30.2206 77.1936V67.1696H31.2846L31.3966 68.3176C31.6206 67.9816 31.9379 67.6783 32.3486 67.4076C32.7686 67.1369 33.3006 67.0016 33.9446 67.0016C34.6352 67.0016 35.2372 67.1603 35.7506 67.4776C36.2639 67.7949 36.6606 68.2289 36.9406 68.7796C37.2299 69.3303 37.3746 69.9556 37.3746 70.6556C37.3746 71.3556 37.2299 71.9809 36.9406 72.5316C36.6606 73.0729 36.2592 73.5023 35.7366 73.8196C35.2232 74.1276 34.6212 74.2816 33.9306 74.2816C33.3612 74.2816 32.8526 74.1649 32.4046 73.9316C31.9659 73.6983 31.6299 73.3716 31.3966 72.9516V77.1936H30.2206ZM33.8046 73.2596C34.2712 73.2596 34.6819 73.1523 35.0366 72.9376C35.3912 72.7136 35.6712 72.4056 35.8766 72.0136C36.0819 71.6216 36.1846 71.1643 36.1846 70.6416C36.1846 70.1189 36.0819 69.6616 35.8766 69.2696C35.6712 68.8776 35.3912 68.5743 35.0366 68.3596C34.6819 68.1356 34.2712 68.0236 33.8046 68.0236C33.3379 68.0236 32.9272 68.1356 32.5726 68.3596C32.2179 68.5743 31.9379 68.8776 31.7326 69.2696C31.5272 69.6616 31.4246 70.1189 31.4246 70.6416C31.4246 71.1643 31.5272 71.6216 31.7326 72.0136C31.9379 72.4056 32.2179 72.7136 32.5726 72.9376C32.9272 73.1523 33.3379 73.2596 33.8046 73.2596ZM39.8656 65.6296C39.6323 65.6296 39.4363 65.5549 39.2776 65.4056C39.1283 65.2469 39.0536 65.0509 39.0536 64.8176C39.0536 64.5936 39.1283 64.4069 39.2776 64.2576C39.4363 64.1083 39.6323 64.0336 39.8656 64.0336C40.0896 64.0336 40.2809 64.1083 40.4396 64.2576C40.5983 64.4069 40.6776 64.5936 40.6776 64.8176C40.6776 65.0509 40.5983 65.2469 40.4396 65.4056C40.2809 65.5549 40.0896 65.6296 39.8656 65.6296ZM39.2776 74.1136V67.1696H40.4536V74.1136H39.2776ZM42.6412 74.1136V67.1696H43.7052L43.7752 68.4156C43.9992 67.9769 44.3212 67.6316 44.7412 67.3796C45.1612 67.1276 45.6372 67.0016 46.1692 67.0016C46.9905 67.0016 47.6439 67.2536 48.1292 67.7576C48.6239 68.2523 48.8712 69.0176 48.8712 70.0536V74.1136H47.6952V70.1796C47.6952 68.7329 47.0979 68.0096 45.9032 68.0096C45.3059 68.0096 44.8065 68.2289 44.4052 68.6676C44.0132 69.0969 43.8172 69.7129 43.8172 70.5156V74.1136H42.6412ZM53.5369 71.9296C53.1449 71.9296 52.7856 71.8783 52.4589 71.7756L51.7589 72.4336C51.8616 72.5083 51.9876 72.5736 52.1369 72.6296C52.2956 72.6763 52.5196 72.7229 52.8089 72.7696C53.0982 72.8069 53.5042 72.8489 54.0269 72.8956C54.9602 72.9609 55.6276 73.1756 56.0289 73.5396C56.4302 73.9036 56.6309 74.3796 56.6309 74.9676C56.6309 75.3689 56.5189 75.7516 56.2949 76.1156C56.0802 76.4796 55.7442 76.7783 55.2869 77.0116C54.8389 77.2449 54.2602 77.3616 53.5509 77.3616C52.9256 77.3616 52.3702 77.2776 51.8849 77.1096C51.3996 76.9509 51.0216 76.7036 50.7509 76.3676C50.4802 76.0409 50.3449 75.6256 50.3449 75.1216C50.3449 74.8603 50.4149 74.5756 50.5549 74.2676C50.6949 73.9689 50.9562 73.6843 51.3389 73.4136C51.1336 73.3296 50.9562 73.2409 50.8069 73.1476C50.6669 73.0449 50.5362 72.9329 50.4149 72.8116V72.4896L51.6049 71.3136C51.0542 70.8469 50.7789 70.2309 50.7789 69.4656C50.7789 69.0083 50.8862 68.5929 51.1009 68.2196C51.3156 67.8463 51.6282 67.5523 52.0389 67.3376C52.4496 67.1136 52.9489 67.0016 53.5369 67.0016C53.9382 67.0016 54.3022 67.0576 54.6289 67.1696H57.1909V68.0516L55.8889 68.1076C56.1596 68.4996 56.2949 68.9523 56.2949 69.4656C56.2949 69.9229 56.1829 70.3383 55.9589 70.7116C55.7442 71.0849 55.4316 71.3836 55.0209 71.6076C54.6196 71.8223 54.1249 71.9296 53.5369 71.9296ZM53.5369 70.9636C54.0316 70.9636 54.4236 70.8376 54.7129 70.5856C55.0116 70.3243 55.1609 69.9509 55.1609 69.4656C55.1609 68.9896 55.0116 68.6256 54.7129 68.3736C54.4236 68.1123 54.0316 67.9816 53.5369 67.9816C53.0329 67.9816 52.6316 68.1123 52.3329 68.3736C52.0436 68.6256 51.8989 68.9896 51.8989 69.4656C51.8989 69.9509 52.0436 70.3243 52.3329 70.5856C52.6316 70.8376 53.0329 70.9636 53.5369 70.9636ZM51.4929 75.0096C51.4929 75.4763 51.6889 75.8216 52.0809 76.0456C52.4729 76.2789 52.9629 76.3956 53.5509 76.3956C54.1296 76.3956 54.5916 76.2696 54.9369 76.0176C55.2916 75.7656 55.4689 75.4296 55.4689 75.0096C55.4689 74.7109 55.3476 74.4496 55.1049 74.2256C54.8622 74.0109 54.4142 73.8849 53.7609 73.8476C53.2476 73.8103 52.8042 73.7636 52.4309 73.7076C52.0482 73.9129 51.7962 74.1323 51.6749 74.3656C51.5536 74.6083 51.4929 74.8229 51.4929 75.0096Z" fill="#18A0FB"/>
<circle cx="29" cy="25" r="25" fill="#18A0FB"/>
<path d="M28.3596 32.7059V20.1945L25.7624 20.8042V18.591L29.5791 16.8972H31.3632V32.7059H28.3596Z" fill="white"/>
<line x1="55" y1="23.8408" x2="283" y2="25.8408" stroke="#374151"/>
<line x1="52" y1="23.8408" x2="150" y2="25.8408" stroke="#18A0FB"/>
<path d="M131.069 74.1136V64.3136H134.079C135.806 64.3136 137.075 64.7523 137.887 65.6296C138.709 66.5069 139.119 67.7109 139.119 69.2416C139.119 70.7443 138.709 71.9343 137.887 72.8116C137.075 73.6796 135.806 74.1136 134.079 74.1136H131.069ZM132.245 73.1336H134.051C135.003 73.1336 135.759 72.9796 136.319 72.6716C136.889 72.3543 137.295 71.9063 137.537 71.3276C137.78 70.7396 137.901 70.0443 137.901 69.2416C137.901 68.4203 137.78 67.7156 137.537 67.1276C137.295 66.5396 136.889 66.0869 136.319 65.7696C135.759 65.4523 135.003 65.2936 134.051 65.2936H132.245V73.1336ZM144.009 74.2816C143.347 74.2816 142.759 74.1323 142.245 73.8336C141.732 73.5256 141.326 73.1009 141.027 72.5596C140.738 72.0183 140.593 71.3789 140.593 70.6416C140.593 69.9136 140.738 69.2789 141.027 68.7376C141.317 68.1869 141.718 67.7623 142.231 67.4636C142.754 67.1556 143.356 67.0016 144.037 67.0016C144.709 67.0016 145.288 67.1556 145.773 67.4636C146.268 67.7623 146.646 68.1589 146.907 68.6536C147.169 69.1483 147.299 69.6803 147.299 70.2496C147.299 70.3523 147.295 70.4549 147.285 70.5576C147.285 70.6603 147.285 70.7769 147.285 70.9076H141.755C141.783 71.4396 141.905 71.8829 142.119 72.2376C142.343 72.5829 142.619 72.8443 142.945 73.0216C143.281 73.1989 143.636 73.2876 144.009 73.2876C144.495 73.2876 144.901 73.1756 145.227 72.9516C145.554 72.7276 145.792 72.4243 145.941 72.0416H147.103C146.917 72.6856 146.557 73.2223 146.025 73.6516C145.503 74.0716 144.831 74.2816 144.009 74.2816ZM144.009 67.9956C143.449 67.9956 142.95 68.1683 142.511 68.5136C142.082 68.8496 141.835 69.3443 141.769 69.9976H146.137C146.109 69.3723 145.895 68.8823 145.493 68.5276C145.092 68.1729 144.597 67.9956 144.009 67.9956ZM148.998 74.1136V64.0336H150.174V74.1136H148.998ZM152.956 65.6296C152.722 65.6296 152.526 65.5549 152.368 65.4056C152.218 65.2469 152.144 65.0509 152.144 64.8176C152.144 64.5936 152.218 64.4069 152.368 64.2576C152.526 64.1083 152.722 64.0336 152.956 64.0336C153.18 64.0336 153.371 64.1083 153.53 64.2576C153.688 64.4069 153.768 64.5936 153.768 64.8176C153.768 65.0509 153.688 65.2469 153.53 65.4056C153.371 65.5549 153.18 65.6296 152.956 65.6296ZM152.368 74.1136V67.1696H153.544V74.1136H152.368ZM157.733 74.1136L155.101 67.1696H156.333L158.419 72.9796L160.519 67.1696H161.723L159.091 74.1136H157.733ZM165.939 74.2816C165.276 74.2816 164.688 74.1323 164.175 73.8336C163.661 73.5256 163.255 73.1009 162.957 72.5596C162.667 72.0183 162.523 71.3789 162.523 70.6416C162.523 69.9136 162.667 69.2789 162.957 68.7376C163.246 68.1869 163.647 67.7623 164.161 67.4636C164.683 67.1556 165.285 67.0016 165.967 67.0016C166.639 67.0016 167.217 67.1556 167.703 67.4636C168.197 67.7623 168.575 68.1589 168.837 68.6536C169.098 69.1483 169.229 69.6803 169.229 70.2496C169.229 70.3523 169.224 70.4549 169.215 70.5576C169.215 70.6603 169.215 70.7769 169.215 70.9076H163.685C163.713 71.4396 163.834 71.8829 164.049 72.2376C164.273 72.5829 164.548 72.8443 164.875 73.0216C165.211 73.1989 165.565 73.2876 165.939 73.2876C166.424 73.2876 166.83 73.1756 167.157 72.9516C167.483 72.7276 167.721 72.4243 167.871 72.0416H169.033C168.846 72.6856 168.487 73.2223 167.955 73.6516C167.432 74.0716 166.76 74.2816 165.939 74.2816ZM165.939 67.9956C165.379 67.9956 164.879 68.1683 164.441 68.5136C164.011 68.8496 163.764 69.3443 163.699 69.9976H168.067C168.039 69.3723 167.824 68.8823 167.423 68.5276C167.021 68.1729 166.527 67.9956 165.939 67.9956ZM170.927 74.1136V67.1696H171.991L172.089 68.4996C172.304 68.0423 172.631 67.6783 173.069 67.4076C173.508 67.1369 174.049 67.0016 174.693 67.0016V68.2336H174.371C173.961 68.2336 173.583 68.3083 173.237 68.4576C172.892 68.5976 172.617 68.8403 172.411 69.1856C172.206 69.5309 172.103 70.0069 172.103 70.6136V74.1136H170.927ZM176.909 77.1936L178.631 73.4416H178.225L175.467 67.1696H176.741L179.037 72.5736L181.473 67.1696H182.691L178.141 77.1936H176.909Z" fill="#18A0FB"/>
<circle cx="156.034" cy="25" r="25" fill="#18A0FB"/>
<path d="M150.735 32.7059V30.6056C151.698 29.8077 152.632 29.0172 153.535 28.2343C154.454 27.4514 155.267 26.676 155.974 25.9082C156.697 25.1403 157.269 24.3951 157.691 23.6724C158.127 22.9347 158.346 22.2195 158.346 21.5269C158.346 20.8795 158.165 20.3074 157.804 19.8106C157.457 19.3137 156.878 19.0653 156.065 19.0653C155.237 19.0653 154.612 19.3363 154.19 19.8783C153.769 20.4203 153.558 21.0752 153.558 21.8431H150.757C150.788 20.6838 151.044 19.7202 151.525 18.9524C152.007 18.1695 152.647 17.5898 153.445 17.2134C154.243 16.822 155.139 16.6262 156.132 16.6262C157.743 16.6262 158.993 17.0704 159.881 17.9587C160.785 18.8319 161.236 19.9686 161.236 21.3688C161.236 22.2421 161.033 23.0927 160.627 23.9208C160.235 24.7489 159.716 25.5469 159.068 26.3147C158.421 27.0826 157.721 27.8052 156.968 28.4828C156.215 29.1452 155.485 29.7625 154.777 30.3346H161.62V32.7059H150.735Z" fill="white"/>
<path d="M256.192 74.1136V64.3136H259.412C260.178 64.3136 260.808 64.4396 261.302 64.6916C261.797 64.9436 262.161 65.2843 262.394 65.7136C262.637 66.1429 262.758 66.6283 262.758 67.1696C262.758 67.7016 262.642 68.1823 262.408 68.6116C262.175 69.0409 261.811 69.3863 261.316 69.6476C260.822 69.8996 260.187 70.0256 259.412 70.0256H257.368V74.1136H256.192ZM257.368 69.0316H259.384C260.168 69.0316 260.724 68.8683 261.05 68.5416C261.386 68.2056 261.554 67.7483 261.554 67.1696C261.554 66.5816 261.386 66.1243 261.05 65.7976C260.724 65.4616 260.168 65.2936 259.384 65.2936H257.368V69.0316ZM266.351 74.2816C265.773 74.2816 265.292 74.1836 264.909 73.9876C264.527 73.7916 264.242 73.5303 264.055 73.2036C263.869 72.8769 263.775 72.5223 263.775 72.1396C263.775 71.4303 264.046 70.8843 264.587 70.5016C265.129 70.1189 265.866 69.9276 266.799 69.9276H268.675V69.8436C268.675 69.2369 268.517 68.7796 268.199 68.4716C267.882 68.1543 267.457 67.9956 266.925 67.9956C266.468 67.9956 266.071 68.1123 265.735 68.3456C265.409 68.5696 265.203 68.9009 265.119 69.3396H263.915C263.962 68.8356 264.13 68.4109 264.419 68.0656C264.718 67.7203 265.087 67.4589 265.525 67.2816C265.964 67.0949 266.431 67.0016 266.925 67.0016C267.896 67.0016 268.624 67.2629 269.109 67.7856C269.604 68.2989 269.851 68.9849 269.851 69.8436V74.1136H268.801L268.731 72.8676C268.535 73.2596 268.246 73.5956 267.863 73.8756C267.49 74.1463 266.986 74.2816 266.351 74.2816ZM266.533 73.2876C266.981 73.2876 267.364 73.1709 267.681 72.9376C268.008 72.7043 268.255 72.4009 268.423 72.0276C268.591 71.6543 268.675 71.2623 268.675 70.8516V70.8376H266.897C266.207 70.8376 265.717 70.9589 265.427 71.2016C265.147 71.4349 265.007 71.7289 265.007 72.0836C265.007 72.4476 265.138 72.7416 265.399 72.9656C265.67 73.1803 266.048 73.2876 266.533 73.2876ZM272.307 77.1936L274.029 73.4416H273.623L270.865 67.1696H272.139L274.435 72.5736L276.871 67.1696H278.089L273.539 77.1936H272.307ZM279.47 74.1136V67.1696H280.534L280.618 68.1776C280.842 67.8043 281.141 67.5149 281.514 67.3096C281.887 67.1043 282.307 67.0016 282.774 67.0016C283.325 67.0016 283.796 67.1136 284.188 67.3376C284.589 67.5616 284.897 67.9023 285.112 68.3596C285.355 67.9396 285.686 67.6083 286.106 67.3656C286.535 67.1229 286.997 67.0016 287.492 67.0016C288.323 67.0016 288.985 67.2536 289.48 67.7576C289.975 68.2523 290.222 69.0176 290.222 70.0536V74.1136H289.06V70.1796C289.06 69.4609 288.915 68.9196 288.626 68.5556C288.337 68.1916 287.921 68.0096 287.38 68.0096C286.82 68.0096 286.353 68.2289 285.98 68.6676C285.616 69.0969 285.434 69.7129 285.434 70.5156V74.1136H284.258V70.1796C284.258 69.4609 284.113 68.9196 283.824 68.5556C283.535 68.1916 283.119 68.0096 282.578 68.0096C282.027 68.0096 281.565 68.2289 281.192 68.6676C280.828 69.0969 280.646 69.7129 280.646 70.5156V74.1136H279.47ZM295.255 74.2816C294.593 74.2816 294.005 74.1323 293.491 73.8336C292.978 73.5256 292.572 73.1009 292.273 72.5596C291.984 72.0183 291.839 71.3789 291.839 70.6416C291.839 69.9136 291.984 69.2789 292.273 68.7376C292.563 68.1869 292.964 67.7623 293.477 67.4636C294 67.1556 294.602 67.0016 295.283 67.0016C295.955 67.0016 296.534 67.1556 297.019 67.4636C297.514 67.7623 297.892 68.1589 298.153 68.6536C298.415 69.1483 298.545 69.6803 298.545 70.2496C298.545 70.3523 298.541 70.4549 298.531 70.5576C298.531 70.6603 298.531 70.7769 298.531 70.9076H293.001C293.029 71.4396 293.151 71.8829 293.365 72.2376C293.589 72.5829 293.865 72.8443 294.191 73.0216C294.527 73.1989 294.882 73.2876 295.255 73.2876C295.741 73.2876 296.147 73.1756 296.473 72.9516C296.8 72.7276 297.038 72.4243 297.187 72.0416H298.349C298.163 72.6856 297.803 73.2223 297.271 73.6516C296.749 74.0716 296.077 74.2816 295.255 74.2816ZM295.255 67.9956C294.695 67.9956 294.196 68.1683 293.757 68.5136C293.328 68.8496 293.081 69.3443 293.015 69.9976H297.383C297.355 69.3723 297.141 68.8823 296.739 68.5276C296.338 68.1729 295.843 67.9956 295.255 67.9956ZM300.244 74.1136V67.1696H301.308L301.378 68.4156C301.602 67.9769 301.924 67.6316 302.344 67.3796C302.764 67.1276 303.24 67.0016 303.772 67.0016C304.593 67.0016 305.247 67.2536 305.732 67.7576C306.227 68.2523 306.474 69.0176 306.474 70.0536V74.1136H305.298V70.1796C305.298 68.7329 304.701 68.0096 303.506 68.0096C302.909 68.0096 302.409 68.2289 302.008 68.6676C301.616 69.0969 301.42 69.7129 301.42 70.5156V74.1136H300.244ZM311.14 74.1136C310.505 74.1136 310.006 73.9596 309.642 73.6516C309.278 73.3436 309.096 72.7883 309.096 71.9856V68.1636H307.892V67.1696H309.096L309.25 65.5036H310.272V67.1696H312.316V68.1636H310.272V71.9856C310.272 72.4243 310.36 72.7229 310.538 72.8816C310.715 73.0309 311.028 73.1056 311.476 73.1056H312.204V74.1136H311.14Z" fill="black"/>
<circle cx="284.009" cy="25" r="25" fill="#374151"/>
<path d="M283.99 32.9769C282.951 32.9769 282.01 32.7963 281.167 32.4349C280.324 32.0585 279.647 31.4864 279.135 30.7186C278.623 29.9507 278.352 28.9871 278.322 27.8278H281.167C281.182 28.5957 281.431 29.2431 281.912 29.77C282.409 30.2819 283.102 30.5379 283.99 30.5379C284.833 30.5379 285.481 30.3045 285.932 29.8378C286.384 29.3711 286.61 28.7839 286.61 28.0762C286.61 27.2482 286.309 26.6233 285.707 26.2018C285.119 25.7652 284.359 25.5469 283.426 25.5469H282.251V23.1755H283.448C284.216 23.1755 284.856 22.9949 285.368 22.6335C285.88 22.2722 286.136 21.7377 286.136 21.0301C286.136 20.4429 285.94 19.9762 285.548 19.6299C285.172 19.2685 284.645 19.0879 283.968 19.0879C283.23 19.0879 282.65 19.3062 282.229 19.7428C281.822 20.1794 281.596 20.7139 281.551 21.3463H278.728C278.788 19.8858 279.293 18.7341 280.241 17.8909C281.205 17.0478 282.447 16.6262 283.968 16.6262C285.052 16.6262 285.963 16.822 286.7 17.2134C287.453 17.5898 288.018 18.0942 288.394 18.7265C288.785 19.3589 288.981 20.059 288.981 20.8268C288.981 21.7151 288.733 22.4679 288.236 23.0852C287.754 23.6874 287.152 24.094 286.429 24.3047C287.318 24.4854 288.04 24.922 288.597 25.6146C289.154 26.2921 289.433 27.1503 289.433 28.1892C289.433 29.0624 289.222 29.8604 288.801 30.5831C288.379 31.3057 287.762 31.8854 286.949 32.322C286.151 32.7586 285.165 32.9769 283.99 32.9769Z" fill="white"/>
</svg>
