<svg width="233" height="47" viewBox="0 0 233 47" fill="none" xmlns="http://www.w3.org/2000/svg">
<line x1="30.6166" y1="14.6771" x2="107.717" y2="14.6771" stroke="#E93A7D" stroke-width="0.645816"/>
<path d="M3.0448 44.5717C2.53147 44.5717 2.0848 44.4783 1.7048 44.2917C1.3248 44.105 1.03147 43.845 0.824804 43.5117C0.618138 43.1783 0.514804 42.7917 0.514804 42.3517H1.3948C1.3948 42.625 1.45814 42.8783 1.5848 43.1117C1.71147 43.3383 1.8948 43.5217 2.1348 43.6617C2.38147 43.795 2.6848 43.8617 3.0448 43.8617C3.51814 43.8617 3.8848 43.7483 4.1448 43.5217C4.4048 43.295 4.5348 43.0117 4.5348 42.6717C4.5348 42.3917 4.4748 42.1683 4.3548 42.0017C4.2348 41.8283 4.07147 41.6883 3.8648 41.5817C3.6648 41.475 3.43147 41.3817 3.1648 41.3017C2.9048 41.2217 2.63147 41.1317 2.3448 41.0317C1.8048 40.845 1.4048 40.615 1.1448 40.3417C0.884804 40.0617 0.754804 39.6983 0.754804 39.2517C0.748138 38.8783 0.834804 38.5483 1.0148 38.2617C1.1948 37.9683 1.44814 37.7417 1.7748 37.5817C2.10814 37.415 2.50147 37.3317 2.9548 37.3317C3.40147 37.3317 3.78814 37.415 4.1148 37.5817C4.44814 37.7483 4.7048 37.9783 4.8848 38.2717C5.07147 38.565 5.16814 38.8983 5.1748 39.2717H4.2948C4.2948 39.0783 4.2448 38.8883 4.1448 38.7017C4.0448 38.5083 3.89147 38.3517 3.6848 38.2317C3.4848 38.1117 3.23147 38.0517 2.9248 38.0517C2.5448 38.045 2.23147 38.1417 1.9848 38.3417C1.7448 38.5417 1.6248 38.8183 1.6248 39.1717C1.6248 39.4717 1.70814 39.7017 1.8748 39.8617C2.04814 40.0217 2.28814 40.155 2.5948 40.2617C2.90147 40.3617 3.2548 40.4783 3.6548 40.6117C3.98814 40.7317 4.28814 40.8717 4.5548 41.0317C4.82147 41.1917 5.02814 41.3983 5.1748 41.6517C5.32814 41.905 5.4048 42.2283 5.4048 42.6217C5.4048 42.955 5.31814 43.2717 5.1448 43.5717C4.97147 43.865 4.70814 44.105 4.3548 44.2917C4.00814 44.4783 3.57147 44.5717 3.0448 44.5717ZM6.64605 44.4517V37.2517H7.48605V40.3417C7.65272 40.035 7.88939 39.7983 8.19605 39.6317C8.50272 39.4583 8.83605 39.3717 9.19605 39.3717C9.76939 39.3717 10.2294 39.5517 10.5761 39.9117C10.9227 40.265 11.0961 40.8117 11.0961 41.5517V44.4517H10.2661V41.6417C10.2661 40.6083 9.84939 40.0917 9.01605 40.0917C8.58272 40.0917 8.21939 40.2483 7.92605 40.5617C7.63272 40.8683 7.48605 41.3083 7.48605 41.8817V44.4517H6.64605ZM12.9787 38.3917C12.812 38.3917 12.672 38.3383 12.5587 38.2317C12.452 38.1183 12.3987 37.9783 12.3987 37.8117C12.3987 37.6517 12.452 37.5183 12.5587 37.4117C12.672 37.305 12.812 37.2517 12.9787 37.2517C13.1387 37.2517 13.2754 37.305 13.3887 37.4117C13.502 37.5183 13.5587 37.6517 13.5587 37.8117C13.5587 37.9783 13.502 38.1183 13.3887 38.2317C13.2754 38.3383 13.1387 38.3917 12.9787 38.3917ZM12.5587 44.4517V39.4917H13.3987V44.4517H12.5587ZM14.9613 46.6517V39.4917H15.7213L15.8013 40.3117C15.9613 40.0717 16.188 39.855 16.4813 39.6617C16.7813 39.4683 17.1613 39.3717 17.6213 39.3717C18.1146 39.3717 18.5446 39.485 18.9113 39.7117C19.278 39.9383 19.5613 40.2483 19.7613 40.6417C19.968 41.035 20.0713 41.4817 20.0713 41.9817C20.0713 42.4817 19.968 42.9283 19.7613 43.3217C19.5613 43.7083 19.2746 44.015 18.9013 44.2417C18.5346 44.4617 18.1046 44.5717 17.6113 44.5717C17.2046 44.5717 16.8413 44.4883 16.5213 44.3217C16.208 44.155 15.968 43.9217 15.8013 43.6217V46.6517H14.9613ZM17.5213 43.8417C17.8546 43.8417 18.148 43.765 18.4013 43.6117C18.6546 43.4517 18.8546 43.2317 19.0013 42.9517C19.148 42.6717 19.2213 42.345 19.2213 41.9717C19.2213 41.5983 19.148 41.2717 19.0013 40.9917C18.8546 40.7117 18.6546 40.495 18.4013 40.3417C18.148 40.1817 17.8546 40.1017 17.5213 40.1017C17.188 40.1017 16.8946 40.1817 16.6413 40.3417C16.388 40.495 16.188 40.7117 16.0413 40.9917C15.8946 41.2717 15.8213 41.5983 15.8213 41.9717C15.8213 42.345 15.8946 42.6717 16.0413 42.9517C16.188 43.2317 16.388 43.4517 16.6413 43.6117C16.8946 43.765 17.188 43.8417 17.5213 43.8417ZM21.3406 46.6517V39.4917H22.1006L22.1806 40.3117C22.3406 40.0717 22.5673 39.855 22.8606 39.6617C23.1606 39.4683 23.5406 39.3717 24.0006 39.3717C24.4939 39.3717 24.9239 39.485 25.2906 39.7117C25.6573 39.9383 25.9406 40.2483 26.1406 40.6417C26.3473 41.035 26.4506 41.4817 26.4506 41.9817C26.4506 42.4817 26.3473 42.9283 26.1406 43.3217C25.9406 43.7083 25.6539 44.015 25.2806 44.2417C24.9139 44.4617 24.4839 44.5717 23.9906 44.5717C23.5839 44.5717 23.2206 44.4883 22.9006 44.3217C22.5873 44.155 22.3473 43.9217 22.1806 43.6217V46.6517H21.3406ZM23.9006 43.8417C24.2339 43.8417 24.5273 43.765 24.7806 43.6117C25.0339 43.4517 25.2339 43.2317 25.3806 42.9517C25.5273 42.6717 25.6006 42.345 25.6006 41.9717C25.6006 41.5983 25.5273 41.2717 25.3806 40.9917C25.2339 40.7117 25.0339 40.495 24.7806 40.3417C24.5273 40.1817 24.2339 40.1017 23.9006 40.1017C23.5673 40.1017 23.2739 40.1817 23.0206 40.3417C22.7673 40.495 22.5673 40.7117 22.4206 40.9917C22.2739 41.2717 22.2006 41.5983 22.2006 41.9717C22.2006 42.345 22.2739 42.6717 22.4206 42.9517C22.5673 43.2317 22.7673 43.4517 23.0206 43.6117C23.2739 43.765 23.5673 43.8417 23.9006 43.8417ZM28.2299 38.3917C28.0632 38.3917 27.9232 38.3383 27.8099 38.2317C27.7032 38.1183 27.6499 37.9783 27.6499 37.8117C27.6499 37.6517 27.7032 37.5183 27.8099 37.4117C27.9232 37.305 28.0632 37.2517 28.2299 37.2517C28.3899 37.2517 28.5265 37.305 28.6399 37.4117C28.7532 37.5183 28.8099 37.6517 28.8099 37.8117C28.8099 37.9783 28.7532 38.1183 28.6399 38.2317C28.5265 38.3383 28.3899 38.3917 28.2299 38.3917ZM27.8099 44.4517V39.4917H28.6499V44.4517H27.8099ZM30.2125 44.4517V39.4917H30.9725L31.0225 40.3817C31.1825 40.0683 31.4125 39.8217 31.7125 39.6417C32.0125 39.4617 32.3525 39.3717 32.7325 39.3717C33.3191 39.3717 33.7858 39.5517 34.1325 39.9117C34.4858 40.265 34.6625 40.8117 34.6625 41.5517V44.4517H33.8225V41.6417C33.8225 40.6083 33.3958 40.0917 32.5425 40.0917C32.1158 40.0917 31.7591 40.2483 31.4725 40.5617C31.1925 40.8683 31.0525 41.3083 31.0525 41.8817V44.4517H30.2125ZM37.9951 42.8917C37.7151 42.8917 37.4584 42.855 37.2251 42.7817L36.7251 43.2517C36.7984 43.305 36.8884 43.3517 36.9951 43.3917C37.1084 43.425 37.2684 43.4583 37.4751 43.4917C37.6818 43.5183 37.9718 43.5483 38.3451 43.5817C39.0118 43.6283 39.4884 43.7817 39.7751 44.0417C40.0618 44.3017 40.2051 44.6417 40.2051 45.0617C40.2051 45.3483 40.1251 45.6217 39.9651 45.8817C39.8118 46.1417 39.5718 46.355 39.2451 46.5217C38.9251 46.6883 38.5118 46.7717 38.0051 46.7717C37.5584 46.7717 37.1618 46.7117 36.8151 46.5917C36.4684 46.4783 36.1984 46.3017 36.0051 46.0617C35.8118 45.8283 35.7151 45.5317 35.7151 45.1717C35.7151 44.985 35.7651 44.7817 35.8651 44.5617C35.9651 44.3483 36.1518 44.145 36.4251 43.9517C36.2784 43.8917 36.1518 43.8283 36.0451 43.7617C35.9451 43.6883 35.8518 43.6083 35.7651 43.5217V43.2917L36.6151 42.4517C36.2218 42.1183 36.0251 41.6783 36.0251 41.1317C36.0251 40.805 36.1018 40.5083 36.2551 40.2417C36.4084 39.975 36.6318 39.765 36.9251 39.6117C37.2184 39.4517 37.5751 39.3717 37.9951 39.3717C38.2818 39.3717 38.5418 39.4117 38.7751 39.4917H40.6051V40.1217L39.6751 40.1617C39.8684 40.4417 39.9651 40.765 39.9651 41.1317C39.9651 41.4583 39.8851 41.755 39.7251 42.0217C39.5718 42.2883 39.3484 42.5017 39.0551 42.6617C38.7684 42.815 38.4151 42.8917 37.9951 42.8917ZM37.9951 42.2017C38.3484 42.2017 38.6284 42.1117 38.8351 41.9317C39.0484 41.745 39.1551 41.4783 39.1551 41.1317C39.1551 40.7917 39.0484 40.5317 38.8351 40.3517C38.6284 40.165 38.3484 40.0717 37.9951 40.0717C37.6351 40.0717 37.3484 40.165 37.1351 40.3517C36.9284 40.5317 36.8251 40.7917 36.8251 41.1317C36.8251 41.4783 36.9284 41.745 37.1351 41.9317C37.3484 42.1117 37.6351 42.2017 37.9951 42.2017ZM36.5351 45.0917C36.5351 45.425 36.6751 45.6717 36.9551 45.8317C37.2351 45.9983 37.5851 46.0817 38.0051 46.0817C38.4184 46.0817 38.7484 45.9917 38.9951 45.8117C39.2484 45.6317 39.3751 45.3917 39.3751 45.0917C39.3751 44.8783 39.2884 44.6917 39.1151 44.5317C38.9418 44.3783 38.6218 44.2883 38.1551 44.2617C37.7884 44.235 37.4718 44.2017 37.2051 44.1617C36.9318 44.3083 36.7518 44.465 36.6651 44.6317C36.5784 44.805 36.5351 44.9583 36.5351 45.0917Z" fill="#E93A7D"/>
<ellipse cx="21.2797" cy="14.1696" rx="14.3073" ry="14.1696" fill="#E93A7D"/>
<path d="M20.8983 19.3352V11.8849L19.3517 12.248V10.9301L21.6245 9.92148H22.6869V19.3352H20.8983Z" fill="white"/>
<path d="M98.5393 44.4517V37.4517H100.689C101.923 37.4517 102.829 37.765 103.409 38.3917C103.996 39.0183 104.289 39.8783 104.289 40.9717C104.289 42.045 103.996 42.895 103.409 43.5217C102.829 44.1417 101.923 44.4517 100.689 44.4517H98.5393ZM99.3793 43.7517H100.669C101.349 43.7517 101.889 43.6417 102.289 43.4217C102.696 43.195 102.986 42.875 103.159 42.4617C103.333 42.0417 103.419 41.545 103.419 40.9717C103.419 40.385 103.333 39.8817 103.159 39.4617C102.986 39.0417 102.696 38.7183 102.289 38.4917C101.889 38.265 101.349 38.1517 100.669 38.1517H99.3793V43.7517ZM107.782 44.5717C107.309 44.5717 106.889 44.465 106.522 44.2517C106.156 44.0317 105.866 43.7283 105.652 43.3417C105.446 42.955 105.342 42.4983 105.342 41.9717C105.342 41.4517 105.446 40.9983 105.652 40.6117C105.859 40.2183 106.146 39.915 106.512 39.7017C106.886 39.4817 107.316 39.3717 107.802 39.3717C108.282 39.3717 108.696 39.4817 109.042 39.7017C109.396 39.915 109.666 40.1983 109.852 40.5517C110.039 40.905 110.132 41.285 110.132 41.6917C110.132 41.765 110.129 41.8383 110.122 41.9117C110.122 41.985 110.122 42.0683 110.122 42.1617H106.172C106.192 42.5417 106.279 42.8583 106.432 43.1117C106.592 43.3583 106.789 43.545 107.022 43.6717C107.262 43.7983 107.516 43.8617 107.782 43.8617C108.129 43.8617 108.419 43.7817 108.652 43.6217C108.886 43.4617 109.056 43.245 109.162 42.9717H109.992C109.859 43.4317 109.602 43.815 109.222 44.1217C108.849 44.4217 108.369 44.5717 107.782 44.5717ZM107.782 40.0817C107.382 40.0817 107.026 40.205 106.712 40.4517C106.406 40.6917 106.229 41.045 106.182 41.5117H109.302C109.282 41.065 109.129 40.715 108.842 40.4617C108.556 40.2083 108.202 40.0817 107.782 40.0817ZM111.346 44.4517V37.2517H112.186V44.4517H111.346ZM114.172 38.3917C114.006 38.3917 113.866 38.3383 113.752 38.2317C113.646 38.1183 113.592 37.9783 113.592 37.8117C113.592 37.6517 113.646 37.5183 113.752 37.4117C113.866 37.305 114.006 37.2517 114.172 37.2517C114.332 37.2517 114.469 37.305 114.582 37.4117C114.696 37.5183 114.752 37.6517 114.752 37.8117C114.752 37.9783 114.696 38.1183 114.582 38.2317C114.469 38.3383 114.332 38.3917 114.172 38.3917ZM113.752 44.4517V39.4917H114.592V44.4517H113.752ZM117.585 44.4517L115.705 39.4917H116.585L118.075 43.6417L119.575 39.4917H120.435L118.555 44.4517H117.585ZM123.446 44.5717C122.973 44.5717 122.553 44.465 122.186 44.2517C121.819 44.0317 121.529 43.7283 121.316 43.3417C121.109 42.955 121.006 42.4983 121.006 41.9717C121.006 41.4517 121.109 40.9983 121.316 40.6117C121.523 40.2183 121.809 39.915 122.176 39.7017C122.549 39.4817 122.979 39.3717 123.466 39.3717C123.946 39.3717 124.359 39.4817 124.706 39.7017C125.059 39.915 125.329 40.1983 125.516 40.5517C125.703 40.905 125.796 41.285 125.796 41.6917C125.796 41.765 125.793 41.8383 125.786 41.9117C125.786 41.985 125.786 42.0683 125.786 42.1617H121.836C121.856 42.5417 121.943 42.8583 122.096 43.1117C122.256 43.3583 122.453 43.545 122.686 43.6717C122.926 43.7983 123.179 43.8617 123.446 43.8617C123.793 43.8617 124.083 43.7817 124.316 43.6217C124.549 43.4617 124.719 43.245 124.826 42.9717H125.656C125.523 43.4317 125.266 43.815 124.886 44.1217C124.513 44.4217 124.033 44.5717 123.446 44.5717ZM123.446 40.0817C123.046 40.0817 122.689 40.205 122.376 40.4517C122.069 40.6917 121.893 41.045 121.846 41.5117H124.966C124.946 41.065 124.793 40.715 124.506 40.4617C124.219 40.2083 123.866 40.0817 123.446 40.0817ZM127.009 44.4517V39.4917H127.769L127.839 40.4417C127.993 40.115 128.226 39.855 128.539 39.6617C128.853 39.4683 129.239 39.3717 129.699 39.3717V40.2517H129.469C129.176 40.2517 128.906 40.305 128.659 40.4117C128.413 40.5117 128.216 40.685 128.069 40.9317C127.923 41.1783 127.849 41.5183 127.849 41.9517V44.4517H127.009ZM131.282 46.6517L132.512 43.9717H132.222L130.252 39.4917H131.162L132.802 43.3517L134.542 39.4917H135.412L132.162 46.6517H131.282Z" fill="#374151"/>
<ellipse cx="117.018" cy="14.1696" rx="14.3073" ry="14.1696" fill="#374151"/>
<path d="M113.862 19.3352V18.0845C114.436 17.6094 114.992 17.1387 115.53 16.6725C116.077 16.2063 116.561 15.7445 116.982 15.2873C117.413 14.8301 117.753 14.3863 118.004 13.9559C118.264 13.5166 118.394 13.0908 118.394 12.6784C118.394 12.2928 118.287 11.9522 118.072 11.6563C117.865 11.3604 117.52 11.2125 117.036 11.2125C116.543 11.2125 116.171 11.3739 115.92 11.6966C115.669 12.0194 115.543 12.4094 115.543 12.8666H113.876C113.894 12.1763 114.046 11.6025 114.333 11.1453C114.62 10.6791 115.001 10.3339 115.476 10.1098C115.951 9.87665 116.485 9.7601 117.076 9.7601C118.036 9.7601 118.78 10.0246 119.309 10.5535C119.847 11.0735 120.116 11.7504 120.116 12.5842C120.116 13.1042 119.995 13.6108 119.753 14.1039C119.52 14.597 119.21 15.0721 118.825 15.5294C118.439 15.9866 118.022 16.417 117.574 16.8204C117.126 17.2149 116.691 17.5825 116.27 17.9231H120.344V19.3352H113.862Z" fill="white"/>
<line x1="126.742" y1="14.6771" x2="200.838" y2="14.6771" stroke="#374151" stroke-width="0.645816"/>
<path d="M192.454 44.4517V37.4517H194.754C195.301 37.4517 195.751 37.5417 196.104 37.7217C196.457 37.9017 196.717 38.145 196.884 38.4517C197.057 38.7583 197.144 39.105 197.144 39.4917C197.144 39.8717 197.061 40.215 196.894 40.5217C196.727 40.8283 196.467 41.075 196.114 41.2617C195.761 41.4417 195.307 41.5317 194.754 41.5317H193.294V44.4517H192.454ZM193.294 40.8217H194.734C195.294 40.8217 195.691 40.705 195.924 40.4717C196.164 40.2317 196.284 39.905 196.284 39.4917C196.284 39.0717 196.164 38.745 195.924 38.5117C195.691 38.2717 195.294 38.1517 194.734 38.1517H193.294V40.8217ZM199.711 44.5717C199.297 44.5717 198.954 44.5017 198.681 44.3617C198.407 44.2217 198.204 44.035 198.071 43.8017C197.937 43.5683 197.871 43.315 197.871 43.0417C197.871 42.535 198.064 42.145 198.451 41.8717C198.837 41.5983 199.364 41.4617 200.031 41.4617H201.371V41.4017C201.371 40.9683 201.257 40.6417 201.031 40.4217C200.804 40.195 200.501 40.0817 200.121 40.0817C199.794 40.0817 199.511 40.165 199.271 40.3317C199.037 40.4917 198.891 40.7283 198.831 41.0417H197.971C198.004 40.6817 198.124 40.3783 198.331 40.1317C198.544 39.885 198.807 39.6983 199.121 39.5717C199.434 39.4383 199.767 39.3717 200.121 39.3717C200.814 39.3717 201.334 39.5583 201.681 39.9317C202.034 40.2983 202.211 40.7883 202.211 41.4017V44.4517H201.461L201.411 43.5617C201.271 43.8417 201.064 44.0817 200.791 44.2817C200.524 44.475 200.164 44.5717 199.711 44.5717ZM199.841 43.8617C200.161 43.8617 200.434 43.7783 200.661 43.6117C200.894 43.445 201.071 43.2283 201.191 42.9617C201.311 42.695 201.371 42.415 201.371 42.1217V42.1117H200.101C199.607 42.1117 199.257 42.1983 199.051 42.3717C198.851 42.5383 198.751 42.7483 198.751 43.0017C198.751 43.2617 198.844 43.4717 199.031 43.6317C199.224 43.785 199.494 43.8617 199.841 43.8617ZM203.964 46.6517L205.194 43.9717H204.904L202.934 39.4917H203.844L205.484 43.3517L207.224 39.4917H208.094L204.844 46.6517H203.964ZM209.081 44.4517V39.4917H209.841L209.901 40.2117C210.061 39.945 210.274 39.7383 210.541 39.5917C210.808 39.445 211.108 39.3717 211.441 39.3717C211.834 39.3717 212.171 39.4517 212.451 39.6117C212.738 39.7717 212.958 40.015 213.111 40.3417C213.284 40.0417 213.521 39.805 213.821 39.6317C214.128 39.4583 214.458 39.3717 214.811 39.3717C215.404 39.3717 215.878 39.5517 216.231 39.9117C216.584 40.265 216.761 40.8117 216.761 41.5517V44.4517H215.931V41.6417C215.931 41.1283 215.828 40.7417 215.621 40.4817C215.414 40.2217 215.118 40.0917 214.731 40.0917C214.331 40.0917 213.998 40.2483 213.731 40.5617C213.471 40.8683 213.341 41.3083 213.341 41.8817V44.4517H212.501V41.6417C212.501 41.1283 212.398 40.7417 212.191 40.4817C211.984 40.2217 211.688 40.0917 211.301 40.0917C210.908 40.0917 210.578 40.2483 210.311 40.5617C210.051 40.8683 209.921 41.3083 209.921 41.8817V44.4517H209.081ZM220.356 44.5717C219.883 44.5717 219.463 44.465 219.096 44.2517C218.73 44.0317 218.44 43.7283 218.226 43.3417C218.02 42.955 217.916 42.4983 217.916 41.9717C217.916 41.4517 218.02 40.9983 218.226 40.6117C218.433 40.2183 218.72 39.915 219.086 39.7017C219.46 39.4817 219.89 39.3717 220.376 39.3717C220.856 39.3717 221.27 39.4817 221.616 39.7017C221.97 39.915 222.24 40.1983 222.426 40.5517C222.613 40.905 222.706 41.285 222.706 41.6917C222.706 41.765 222.703 41.8383 222.696 41.9117C222.696 41.985 222.696 42.0683 222.696 42.1617H218.746C218.766 42.5417 218.853 42.8583 219.006 43.1117C219.166 43.3583 219.363 43.545 219.596 43.6717C219.836 43.7983 220.09 43.8617 220.356 43.8617C220.703 43.8617 220.993 43.7817 221.226 43.6217C221.46 43.4617 221.63 43.245 221.736 42.9717H222.566C222.433 43.4317 222.176 43.815 221.796 44.1217C221.423 44.4217 220.943 44.5717 220.356 44.5717ZM220.356 40.0817C219.956 40.0817 219.6 40.205 219.286 40.4517C218.98 40.6917 218.803 41.045 218.756 41.5117H221.876C221.856 41.065 221.703 40.715 221.416 40.4617C221.13 40.2083 220.776 40.0817 220.356 40.0817ZM223.92 44.4517V39.4917H224.68L224.73 40.3817C224.89 40.0683 225.12 39.8217 225.42 39.6417C225.72 39.4617 226.06 39.3717 226.44 39.3717C227.026 39.3717 227.493 39.5517 227.84 39.9117C228.193 40.265 228.37 40.8117 228.37 41.5517V44.4517H227.53V41.6417C227.53 40.6083 227.103 40.0917 226.25 40.0917C225.823 40.0917 225.466 40.2483 225.18 40.5617C224.9 40.8683 224.76 41.3083 224.76 41.8817V44.4517H223.92ZM231.702 44.4517C231.249 44.4517 230.892 44.3417 230.632 44.1217C230.372 43.9017 230.242 43.505 230.242 42.9317V40.2017H229.382V39.4917H230.242L230.352 38.3017H231.082V39.4917H232.542V40.2017H231.082V42.9317C231.082 43.245 231.146 43.4583 231.272 43.5717C231.399 43.6783 231.622 43.7317 231.942 43.7317H232.462V44.4517H231.702Z" fill="black"/>
<ellipse cx="213.383" cy="14.1696" rx="14.3073" ry="14.1696" fill="#374151"/>
<path d="M213.371 19.4966C212.753 19.4966 212.192 19.389 211.69 19.1738C211.188 18.9497 210.785 18.609 210.48 18.1518C210.175 17.6945 210.014 17.1207 209.996 16.4304H211.69C211.699 16.8876 211.847 17.2732 212.134 17.5869C212.43 17.8918 212.842 18.0442 213.371 18.0442C213.873 18.0442 214.259 17.9052 214.528 17.6273C214.797 17.3494 214.931 16.9997 214.931 16.5783C214.931 16.0852 214.752 15.7132 214.393 15.4621C214.044 15.2021 213.591 15.0721 213.035 15.0721H212.336V13.6601H213.049C213.506 13.6601 213.887 13.5525 214.192 13.3373C214.496 13.1221 214.649 12.8039 214.649 12.3825C214.649 12.0328 214.532 11.7549 214.299 11.5487C214.075 11.3335 213.761 11.226 213.358 11.226C212.919 11.226 212.573 11.356 212.322 11.616C212.08 11.8759 211.946 12.1942 211.919 12.5708H210.238C210.274 11.7011 210.574 11.0153 211.139 10.5132C211.713 10.0111 212.452 9.7601 213.358 9.7601C214.003 9.7601 214.546 9.87665 214.985 10.1098C215.433 10.3339 215.77 10.6342 215.994 11.0108C216.227 11.3873 216.343 11.8042 216.343 12.2615C216.343 12.7904 216.195 13.2387 215.9 13.6063C215.613 13.9649 215.254 14.207 214.824 14.3325C215.353 14.4401 215.783 14.7001 216.115 15.1125C216.446 15.5159 216.612 16.027 216.612 16.6456C216.612 17.1656 216.487 17.6407 216.236 18.0711C215.985 18.5014 215.617 18.8466 215.133 19.1066C214.658 19.3666 214.071 19.4966 213.371 19.4966Z" fill="white"/>
</svg>
