<svg xmlns="http://www.w3.org/2000/svg" width="139" height="30" fill="none" xmlns:v="https://vecta.io/nano"><g fill="#111"><path fill-rule="evenodd" d="M67.394 9.537l-.166-.114c-.09-.059-.174-.114-.244-.184l-.186-.112-.186-.112c-.112-.075-.298-.112-.485-.149s-.41-.037-.671-.037h0c-.41 0-.783.075-1.118.186-.373.112-.671.298-.932.484-.261.224-.485.447-.634.708a1.73 1.73 0 0 0-.224.857c0 .335.037.634.149.857a1.8 1.8 0 0 0 .484.596c.224.186.559.336.932.485l.996.346h0 .001.001l.419.138.382.13.475.168a6.4 6.4 0 0 1 .473.162l.273.098c.224.075.447.186.634.298l.298.168.298.168c.484.335.82.745 1.006 1.23a4.38 4.38 0 0 1 .298 1.603c0 .596-.112 1.118-.373 1.565-.261.485-.596.857-1.044 1.193s-.932.559-1.528.745-1.193.261-1.826.261c-1.267 0-2.348-.335-3.242-1.044a4.5 4.5 0 0 1-.596-.596c-.138-.138-.235-.276-.321-.398l-.089-.123.149-.075c.224-.112.447-.186.634-.186.149 0 .335.037.485.074s.298.112.41.224l.196.149h0 0l.586.41h0l.634.298a1.69 1.69 0 0 0 .596.112c.089 0 .178.008.271.017l.325.02c.41 0 .82-.037 1.23-.112.41-.112.783-.261 1.118-.485s.596-.485.82-.82.298-.708.298-1.193c0-.522-.075-.932-.261-1.23-.149-.298-.41-.559-.671-.745-.298-.186-.633-.335-1.043-.485-.41-.112-.82-.261-1.267-.447l-.71-.263h0 0 0l-.892-.333a6.29 6.29 0 0 1-1.23-.634c-.335-.261-.596-.559-.783-.895-.186-.373-.298-.82-.298-1.416 0-.522.112-1.006.373-1.416a4.48 4.48 0 0 1 .969-1.081c.373-.298.857-.522 1.342-.708.484-.149 1.006-.261 1.528-.261.447 0 .82.037 1.193.149h0c.336.112.671.224.969.41.298.149.559.335.783.522s.447.41.634.596l-.335.186c-.075.075-.186.112-.298.149s-.224.037-.373.037h0c-.224 0-.447-.037-.634-.149zm-19.902 8.798c-.373.335-.745.634-1.193.895l3.354 4.062c.335.485.857.708 1.565.708h.596l-.669-.838h0 0 0 0 0 0 0l-1.194-1.471-.932-1.118-.932-1.118c.373-.335.708-.671 1.006-1.044s.522-.783.745-1.193c.224-.447.373-.895.484-1.342s.149-.932.149-1.416c0-.932-.186-1.826-.596-2.646-.373-.82-.932-1.528-1.603-2.162-.671-.596-1.454-1.081-2.385-1.454-.932-.335-1.901-.522-2.944-.522-1.006 0-2.013.149-2.907.522-.894.335-1.714.82-2.385 1.454-.671.596-1.193 1.342-1.603 2.162s-.596 1.714-.596 2.646.186 1.826.596 2.646c.373.82.932 1.528 1.603 2.162.671.596 1.491 1.081 2.385 1.454a8.22 8.22 0 0 0 2.907.522c.596 0 1.155-.075 1.715-.186s1.081-.261 1.565-.485l-.783-.969c-.373.149-.783.261-1.193.335a7.71 7.71 0 0 1-1.304.112c-.559 0-1.118-.037-1.64-.186-.522-.112-1.044-.298-1.491-.559a6.42 6.42 0 0 1-1.267-.894 5.7 5.7 0 0 1-.969-1.155c-.261-.41-.484-.857-.634-1.342a4.98 4.98 0 0 1-.224-1.491 4.98 4.98 0 0 1 .224-1.491c.149-.484.373-.932.634-1.342.261-.447.596-.82.969-1.155s.82-.634 1.267-.895c.447-.224.969-.41 1.491-.559.522-.112 1.081-.186 1.64-.186a6.51 6.51 0 0 1 2.423.447c.745.298 1.416.708 1.975 1.23.559.485 1.006 1.118 1.342 1.789s.485 1.416.485 2.199a4.57 4.57 0 0 1-.224 1.454c-.112.447-.298.894-.559 1.304a6.55 6.55 0 0 1-.894 1.118zm7.566 2.831h1.267V7.786h-1.267v13.38zM79.006 9.423h0 0l.166.114c.186.112.41.149.634.149h0c.149 0 .261 0 .373-.037s.224-.075.298-.149l.336-.186-.634-.596c-.224-.186-.484-.373-.783-.522-.298-.186-.634-.298-.969-.41h0c-.373-.112-.745-.149-1.193-.149-.522 0-1.043.112-1.528.261-.485.186-.932.41-1.342.708a4.48 4.48 0 0 0-.969 1.081c-.261.41-.373.895-.373 1.416 0 .596.112 1.043.298 1.416.186.336.447.634.783.895.336.224.745.447 1.23.634l.891.333h.001.001 0 0 0 0l.71.263a10.39 10.39 0 0 0 1.267.447c.41.149.746.298 1.044.485.261.186.522.447.671.745.186.298.261.708.261 1.23 0 .485-.075.857-.298 1.193s-.484.596-.82.82-.708.373-1.118.485a6.86 6.86 0 0 1-1.23.112 3.31 3.31 0 0 1-.325-.02l-.271-.017a1.69 1.69 0 0 1-.596-.112c-.186-.075-.41-.186-.633-.298h0 0 0 0 0c-.201-.115-.379-.251-.586-.41h0 0 0l-.196-.149c-.112-.112-.261-.186-.41-.224s-.335-.074-.484-.074c-.186 0-.41.074-.634.186l-.149.075.41.522a4.5 4.5 0 0 0 .596.596c.894.708 1.975 1.044 3.243 1.044.634 0 1.23-.075 1.826-.261s1.081-.41 1.528-.745.783-.708 1.044-1.193c.261-.447.373-.969.373-1.565a4.38 4.38 0 0 0-.298-1.603c-.186-.484-.522-.894-1.006-1.23l-.298-.168-.298-.168a3.31 3.31 0 0 0-.634-.298l-.273-.098-.473-.162a5.43 5.43 0 0 0-.475-.168l-.382-.13-.421-.139-.996-.346c-.373-.149-.708-.298-.932-.485s-.373-.373-.484-.596-.149-.522-.149-.857a1.73 1.73 0 0 1 .224-.857c.149-.261.373-.485.634-.708.261-.186.559-.373.932-.484.335-.112.708-.186 1.118-.186h0c.261 0 .484 0 .671.037s.335.075.484.149l.186.112h0l.186.112c.07.07.154.125.244.184zm4.862-.482V7.748h10.957V8.94h-4.845v12.187h-1.267V8.94h-4.845zm17.592-1.155l-3.093 13.38v.037h2.795l1.096-4.696h3.041c1.156 0 2.162-.224 2.982-.634s1.491-.969 1.938-1.715a4.73 4.73 0 0 0 .671-2.497c-.038-1.193-.448-2.124-1.305-2.832s-2.012-1.044-3.54-1.044h-4.585zm1.311 6.522h2.603c.596 0 1.118-.112 1.528-.335s.708-.522.894-.932c.187-.373.298-.783.261-1.23 0-.522-.223-.969-.559-1.304-.373-.335-.932-.485-1.714-.485h-2.013l-1 4.286zm7 6.858l7.902-13.38h3.391l1.677 13.38h-2.683l-.356-3.392h-5.033l-1.916 3.392h-2.982zm9.355-8.87l.36 3.429h-3.659l1.957-3.466 1.118-2.124h.038l.186 2.162zm9.764 3.802l-1.192 5.069h2.869l1.119-4.882 6.596-8.498h-3.093l-2.982 3.988-1.453 2.199-.559-2.162-1.23-4.025h-2.758l2.683 8.311z"/><circle cx="15" cy="15" r="15"/></g><g fill="#e72e80"><path d="M11.827 21.383v.037s.018 0 .018.018v-.037c0-.018-.018-.018-.018-.018z"/><path d="M15.019 9.832A5.18 5.18 0 0 0 9.851 15v.345 7.489c.018.018.054.036.073.054a10.01 10.01 0 0 0 1.451.762c.163.073.326.127.49.181h.018v-.036l-.018-2.394s-.018 0-.018-.018v-.036s.018 0 .018.018l-.018-2.321a5.09 5.09 0 0 0 3.173 1.088 5.18 5.18 0 0 0 5.168-5.168c0-2.847-2.321-5.132-5.168-5.132zm0 8.36c-1.759 0-3.191-1.433-3.191-3.192s1.433-3.191 3.191-3.191S18.21 13.241 18.21 15c-.018 1.759-1.433 3.192-3.192 3.192z"/></g><path d="M21.111 22.126h3.282v2.249h-9.375c-.236 0-.453 0-.689-.018a1.6 1.6 0 0 1-.308-.036h-.018a8.58 8.58 0 0 1-2.122-.49v-.036l-.018-2.394v-.036a7.15 7.15 0 0 0 3.155.744 7.13 7.13 0 0 0 7.127-7.126c0-3.935-3.21-7.108-7.126-7.108S7.874 11.065 7.874 15c0 1.904.743 3.627 1.958 4.914v2.919a9.22 9.22 0 0 1-1.469-1.197c-.87-.852-1.541-1.868-2.013-2.974A9.7 9.7 0 0 1 5.625 15c0-1.269.254-2.502.743-3.645.471-1.124 1.142-2.122 2.013-2.974.852-.87 1.868-1.541 2.974-2.013 1.161-.49 2.394-.743 3.645-.743 1.269 0 2.502.254 3.645.743 1.124.471 2.122 1.142 2.974 2.013a9.18 9.18 0 0 1 2.013 2.974c.49 1.161.744 2.394.744 3.645s-.254 2.502-.744 3.645a8.99 8.99 0 0 1-2.013 2.974c-.145.181-.326.345-.508.508z" fill="#fcebf3"/></svg>