<svg id="Layer_1" data-name="Layer 1" xmlns="http://www.w3.org/2000/svg" viewBox="0 0 227 31"><defs><style>.cls-1,.cls-5{fill:#111;}.cls-2{fill:#e72e80;}.cls-3{fill:#fcebf3;}.cls-4{fill:#fff;stroke:#111;stroke-width:0.5px;}.cls-5{font-size:14.31px;font-family:Roboto-Bold, Roboto;font-weight:700;letter-spacing:-0.05em;}</style></defs><path class="cls-1" d="M42.6,17.91a5.72,5.72,0,0,0,.88-.65,5.21,5.21,0,0,0,.65-.82,3.24,3.24,0,0,0,.41-1,3.32,3.32,0,0,0,.17-1.06,3.49,3.49,0,0,0-.36-1.61,4.14,4.14,0,0,0-1-1.32,4.67,4.67,0,0,0-1.45-.9,4.72,4.72,0,0,0-1.77-.32,6.06,6.06,0,0,0-1.21.13,7,7,0,0,0-1.09.41,5.58,5.58,0,0,0-.93.66,3.86,3.86,0,0,0-.71.84,4.08,4.08,0,0,0-.46,1,3.79,3.79,0,0,0,0,2.18,4,4,0,0,0,.46,1,4.45,4.45,0,0,0,.71.85,4.86,4.86,0,0,0,.93.66,4.09,4.09,0,0,0,1.09.41,4.45,4.45,0,0,0,1.21.13,5.15,5.15,0,0,0,1-.08,4.43,4.43,0,0,0,.88-.25l.57.71a4.82,4.82,0,0,1-1.15.36,6.47,6.47,0,0,1-1.25.14A5.89,5.89,0,0,1,38,19a6,6,0,0,1-1.75-1.06,5.31,5.31,0,0,1-1.18-1.58,4.33,4.33,0,0,1-.43-1.94,4.27,4.27,0,0,1,.43-1.94,5.32,5.32,0,0,1,1.18-1.59A5.1,5.1,0,0,1,38,9.83a5.59,5.59,0,0,1,2.13-.38,6.16,6.16,0,0,1,2.15.38,5.84,5.84,0,0,1,1.75,1.06,5.36,5.36,0,0,1,1.18,1.59,4.27,4.27,0,0,1,.43,1.94,3.88,3.88,0,0,1-.11,1,4.89,4.89,0,0,1-.35,1,6.07,6.07,0,0,1-.55.87,6.66,6.66,0,0,1-.74.77c.47.54.91,1.09,1.37,1.63s.9,1.12,1.37,1.7h-.44a1.31,1.31,0,0,1-1.15-.52Z"/><path class="cls-1" d="M50,19.33H49V9.53H50Z"/><path class="cls-1" d="M58.06,10.81a2.6,2.6,0,0,1-.3-.22l-.27-.16a1.09,1.09,0,0,0-.36-.11,2.38,2.38,0,0,0-.49,0,2.66,2.66,0,0,0-.82.14,2.41,2.41,0,0,0-.68.35,2.26,2.26,0,0,0-.47.52,1.26,1.26,0,0,0-.16.63,1.48,1.48,0,0,0,.11.63A1.42,1.42,0,0,0,55,13a2.94,2.94,0,0,0,.69.35c.27.11.63.22,1,.36.22.08.44.13.63.21l.55.19a2.8,2.8,0,0,1,.46.22c.14.09.3.17.44.25a1.93,1.93,0,0,1,.74.9,3.38,3.38,0,0,1,.22,1.17,2.25,2.25,0,0,1-.28,1.15,2.57,2.57,0,0,1-.76.88,3.76,3.76,0,0,1-1.12.54,4.34,4.34,0,0,1-1.34.19,3.71,3.71,0,0,1-2.38-.76,3.53,3.53,0,0,1-.43-.44,2.72,2.72,0,0,1-.3-.38l.11-.06a1.07,1.07,0,0,1,.46-.13,1.49,1.49,0,0,1,.36.05.65.65,0,0,1,.3.17,5.68,5.68,0,0,0,.57.41l.46.21a1.15,1.15,0,0,0,.44.09l.44,0a4.56,4.56,0,0,0,.9-.08,2.86,2.86,0,0,0,.82-.35,2.28,2.28,0,0,0,.6-.6,1.54,1.54,0,0,0,.22-.88,1.77,1.77,0,0,0-.19-.9,1.62,1.62,0,0,0-.49-.55,4.64,4.64,0,0,0-.77-.35,7,7,0,0,1-.93-.33l-1.17-.44a4.18,4.18,0,0,1-.9-.46,2.21,2.21,0,0,1-.58-.65,2.39,2.39,0,0,1-.22-1,1.93,1.93,0,0,1,.28-1,3.15,3.15,0,0,1,.71-.79,3.81,3.81,0,0,1,1-.52,3.87,3.87,0,0,1,1.12-.19,3,3,0,0,1,.87.11,2.81,2.81,0,0,1,.71.3,3.06,3.06,0,0,1,.58.38c.16.14.33.3.46.44l-.24.13a.46.46,0,0,1-.22.11.8.8,0,0,1-.28,0A.92.92,0,0,1,58.06,10.81Z"/><path class="cls-1" d="M66.69,10.81a2.6,2.6,0,0,1-.3-.22l-.27-.16a1.27,1.27,0,0,0-.36-.11,2.43,2.43,0,0,0-.49,0,2.66,2.66,0,0,0-.82.14,2.41,2.41,0,0,0-.68.35,2.26,2.26,0,0,0-.47.52,1.26,1.26,0,0,0-.16.63,1.48,1.48,0,0,0,.11.63,1.42,1.42,0,0,0,.35.44,2.94,2.94,0,0,0,.69.35c.27.11.62.22,1,.36.22.08.44.13.63.21l.55.19a2.8,2.8,0,0,1,.46.22c.14.09.3.17.44.25a2,2,0,0,1,.74.9,3.38,3.38,0,0,1,.22,1.17,2.25,2.25,0,0,1-.28,1.15,2.57,2.57,0,0,1-.76.88,3.76,3.76,0,0,1-1.12.54,4.34,4.34,0,0,1-1.34.19,3.71,3.71,0,0,1-2.38-.76,3.53,3.53,0,0,1-.43-.44l-.3-.38.11-.06a1.07,1.07,0,0,1,.46-.13,1.49,1.49,0,0,1,.36.05.7.7,0,0,1,.3.17,5.68,5.68,0,0,0,.57.41l.46.21a1.15,1.15,0,0,0,.44.09l.44,0a4.56,4.56,0,0,0,.9-.08,2.86,2.86,0,0,0,.82-.35,2.44,2.44,0,0,0,.6-.6,1.54,1.54,0,0,0,.22-.88,1.77,1.77,0,0,0-.19-.9,1.55,1.55,0,0,0-.5-.55,4.17,4.17,0,0,0-.76-.35,7,7,0,0,1-.93-.33l-1.17-.44a4.18,4.18,0,0,1-.9-.46A2.21,2.21,0,0,1,62.4,13a2.39,2.39,0,0,1-.22-1,1.93,1.93,0,0,1,.28-1,3.15,3.15,0,0,1,.71-.79,4.17,4.17,0,0,1,1-.52,3.81,3.81,0,0,1,1.12-.19,3,3,0,0,1,.87.11,2.81,2.81,0,0,1,.71.3,3.06,3.06,0,0,1,.58.38c.16.14.32.3.46.44l-.24.13a.46.46,0,0,1-.22.11.8.8,0,0,1-.28,0A.92.92,0,0,1,66.69,10.81Z"/><path class="cls-1" d="M70.13,10.37V9.5h8v.87H74.61V19.3h-.93V10.37Z"/><path class="cls-1" d="M80.75,19.33,83,9.53h3.36a3.9,3.9,0,0,1,2.59.76,2.64,2.64,0,0,1,1,2.08,3.55,3.55,0,0,1-.49,1.83A3.39,3.39,0,0,1,88,15.45a4.88,4.88,0,0,1-2.19.47H82.66L83,14.31h2.87A2.41,2.41,0,0,0,87,14.06a1.38,1.38,0,0,0,.65-.68,1.65,1.65,0,0,0,.19-.9,1.33,1.33,0,0,0-.41-1,1.78,1.78,0,0,0-1.25-.35H84.71L82.8,19.36h-2Z"/><path class="cls-1" d="M89.11,19.33l5.79-9.8h2.48l1.23,9.8h-2L96,12.83l-.13-1.58h0L95,12.8l-3.69,6.53Zm2.7-2.48.36-1.51h5.32l-.35,1.51Z"/><path class="cls-1" d="M102.25,19.33l.87-3.71-2-6.09h2l.9,3,.41,1.58,1.07-1.61,2.18-2.92H110l-4.83,6.22-.82,3.58Z"/><circle class="cls-1" cx="15.07" cy="15.07" r="15.07"/><path class="cls-2" d="M11.88,21.48v0a0,0,0,0,1,0,0v0A0,0,0,0,0,11.88,21.48Z"/><path class="cls-2" d="M15.09,9.88A5.2,5.2,0,0,0,9.9,15.07v7.87s0,0,.07,0a10.12,10.12,0,0,0,1.46.77,4.09,4.09,0,0,0,.49.18h0v0l0-2.4a0,0,0,0,1,0,0v0a0,0,0,0,1,0,0l0-2.33a5.11,5.11,0,0,0,3.19,1.09,5.17,5.17,0,1,0,0-10.34Zm0,8.39a3.21,3.21,0,1,1,3.2-3.2A3.21,3.21,0,0,1,15.09,18.27Z"/><path class="cls-3" d="M21.21,22.23H24.5v2.26H15.09c-.24,0-.46,0-.7,0a1.65,1.65,0,0,1-.31,0h0a8.67,8.67,0,0,1-2.13-.49v0l0-2.4v0a7.08,7.08,0,0,0,3.17.75A7.13,7.13,0,1,0,9.88,20v2.94a10,10,0,0,1-1.48-1.2,9.3,9.3,0,0,1-2-3,9.85,9.85,0,0,1-.73-3.68,9.25,9.25,0,0,1,.75-3.66,9.49,9.49,0,0,1,5-5,9.31,9.31,0,0,1,7.32,0,8.93,8.93,0,0,1,3,2,9.3,9.3,0,0,1,2,3,9.31,9.31,0,0,1,0,7.32,9.08,9.08,0,0,1-2,3A6.13,6.13,0,0,1,21.21,22.23Z"/><path class="cls-4" d="M159.5,3.25h55A12.24,12.24,0,0,1,226.75,15.5h0A12.24,12.24,0,0,1,214.5,27.75h-55A12.24,12.24,0,0,1,147.25,15.5h0A12.24,12.24,0,0,1,159.5,3.25Z"/><path class="cls-1" d="M159,16.3V20h-1.73V10.05h3.81a3.89,3.89,0,0,1,2.65.86,2.94,2.94,0,0,1,1,2.3,2.82,2.82,0,0,1-1,2.28,4.06,4.06,0,0,1-2.69.81Zm0-1.39h2.08a2,2,0,0,0,1.41-.43,1.61,1.61,0,0,0,.49-1.25,1.72,1.72,0,0,0-.5-1.29,1.91,1.91,0,0,0-1.35-.5H159Zm11.58,2.77h-3.85L166,20h-1.8l3.76-9.95h1.56l3.76,10h-1.8Zm-3.37-1.39h2.89l-1.44-4.13Zm9.35-1.53,2.29-4.71h1.91l-3.33,6.29V20h-1.74V16.34l-3.34-6.29h1.92ZM187.19,20h-1.72V10.05h1.72Zm10,0h-1.73l-4.44-7.06V20h-1.73V10.05h1.73l4.45,7.09V10.05h1.72Z"/><text class="cls-5" transform="translate(202.09 20) scale(0.95 1)">12</text></svg>