<svg width="455" height="60" viewBox="0 0 455 60" fill="none" xmlns="http://www.w3.org/2000/svg">
<path d="M85.3876 35.6536C86.009 35.2754 86.6103 34.8374 87.1515 34.3597C87.6326 33.862 88.0736 33.3046 88.4544 32.7273C88.8352 32.1102 89.1158 31.4333 89.2762 30.7366C89.4967 30.0597 89.6169 29.3431 89.6169 28.6264C89.637 27.5116 89.3965 26.4167 88.8954 25.4214C88.4143 24.426 87.7328 23.5302 86.8909 22.7936C86.0491 22.0173 85.0469 21.4201 83.9846 21.002C82.8621 20.5641 81.6595 20.3451 80.4368 20.365C79.615 20.365 78.8132 20.4645 78.0114 20.6238C77.2698 20.8427 76.5282 21.1015 75.8266 21.44C75.1652 21.8182 74.5438 22.2562 73.9625 22.7538C73.4013 23.2316 72.9403 23.8089 72.5394 24.426C72.1385 25.0431 71.8379 25.72 71.6174 26.4167C71.1965 27.8301 71.1965 29.3431 71.6174 30.7565C71.8379 31.4532 72.1385 32.1301 72.5394 32.7472C72.9403 33.3643 73.4214 33.9416 73.9625 34.4393C74.5238 34.9569 75.1652 35.3948 75.8266 35.7532C76.5081 36.1314 77.2498 36.4101 78.0114 36.5694C78.8132 36.7684 79.615 36.8481 80.4368 36.8282C81.1183 36.8481 81.7797 36.7883 82.4412 36.6689C83.0425 36.5694 83.6438 36.3902 84.205 36.1712L85.3476 37.5846C84.6059 37.923 83.8443 38.1619 83.0425 38.3013C82.2207 38.4804 81.3788 38.5601 80.537 38.58C79.0537 38.5999 77.5705 38.3411 76.1674 37.8235C74.8846 37.3258 73.702 36.6092 72.6597 35.7134C71.6775 34.8175 70.8758 33.7625 70.2945 32.568C69.7132 31.3736 69.4125 30.0398 69.4326 28.7061C69.4125 27.3723 69.7132 26.0385 70.2945 24.8441C70.8758 23.6496 71.6775 22.5747 72.6597 21.6788C73.6819 20.7432 74.8645 20.0266 76.1674 19.5687C77.5304 19.0511 78.9736 18.7923 80.4368 18.8122C81.9 18.8122 83.3632 19.071 84.7462 19.5687C86.0291 20.0664 87.2117 20.783 88.2539 21.6788C89.2361 22.5747 90.0379 23.6496 90.6191 24.8441C91.2004 26.0385 91.5011 27.3723 91.481 28.7061C91.5011 29.3829 91.4209 30.0398 91.2606 30.6968C91.1002 31.3935 90.8597 32.0504 90.559 32.6875C90.2383 33.3046 89.8775 33.8819 89.4566 34.4194C88.9956 34.9768 88.5145 35.4745 87.9733 35.9522C88.9154 37.0272 89.7973 38.1221 90.7194 39.1971C91.6414 40.2721 92.5233 41.4267 93.4654 42.5813H92.5835C91.6815 42.641 90.8196 42.2628 90.2784 41.5461L85.3876 35.6536Z" fill="#111111"/>
<path d="M100.22 38.4804H98.2158V18.9714H100.22V38.4804Z" fill="#111111"/>
<path d="M116.376 21.5195C116.155 21.3802 115.955 21.2408 115.774 21.0816L115.233 20.7631C115.013 20.6436 114.772 20.5839 114.512 20.5441C114.191 20.5043 113.85 20.5043 113.53 20.5441C112.968 20.5441 112.407 20.6436 111.886 20.8228C111.405 20.9821 110.944 21.2209 110.523 21.5195C110.162 21.8182 109.841 22.1566 109.581 22.5547C109.36 22.933 109.26 23.3709 109.26 23.8089C109.24 24.2468 109.32 24.6649 109.481 25.063C109.681 25.3815 109.942 25.6602 110.242 25.8792C110.663 26.1778 111.144 26.3968 111.625 26.576C112.167 26.7949 112.888 27.0139 113.63 27.2926C114.071 27.4519 114.512 27.5514 114.893 27.7107L115.995 28.0889C116.316 28.2083 116.616 28.3477 116.917 28.5268C117.198 28.706 117.518 28.8653 117.799 29.0245C118.46 29.4625 118.981 30.0796 119.282 30.8162C119.563 31.5527 119.723 32.349 119.723 33.1453C119.743 33.9416 119.543 34.7379 119.162 35.4346C118.801 36.1314 118.28 36.7286 117.639 37.1864C116.957 37.6642 116.195 38.0225 115.394 38.2614C114.532 38.5202 113.61 38.6596 112.708 38.6397C110.984 38.6994 109.3 38.1619 107.937 37.1267C107.617 36.8679 107.336 36.5693 107.075 36.2508C106.855 36.0119 106.654 35.773 106.474 35.4943L106.694 35.3749C106.975 35.2156 107.296 35.136 107.617 35.1161C107.857 35.1161 108.098 35.1559 108.338 35.2156C108.559 35.2754 108.779 35.3948 108.939 35.5541C109.3 35.8527 109.681 36.1314 110.082 36.3702L111.004 36.7883C111.285 36.9077 111.585 36.9675 111.886 36.9675H112.768C113.369 36.9675 113.97 36.9276 114.572 36.8082C115.153 36.6689 115.714 36.43 116.215 36.1115C116.696 35.7929 117.097 35.3948 117.418 34.917C117.739 34.3994 117.899 33.7823 117.859 33.1652C117.899 32.5481 117.759 31.931 117.478 31.3736C117.238 30.9356 116.897 30.5574 116.496 30.2787C115.995 30 115.494 29.7611 114.953 29.5819C114.311 29.4028 113.69 29.1838 113.089 28.925L110.743 28.0491C110.102 27.8102 109.501 27.5116 108.939 27.1334C108.478 26.775 108.078 26.3371 107.777 25.8394C107.496 25.2223 107.336 24.5454 107.336 23.8487C107.336 23.1519 107.536 22.4552 107.897 21.858C108.278 21.2608 108.759 20.7233 109.32 20.2853C109.942 19.8474 110.603 19.489 111.325 19.2501C112.046 19.0113 112.808 18.8918 113.57 18.8719C114.151 18.852 114.752 18.9316 115.313 19.0909C115.815 19.2302 116.296 19.4293 116.737 19.6881C117.157 19.8872 117.538 20.146 117.899 20.4446C118.22 20.7233 118.561 21.0418 118.821 21.3205L118.34 21.5793C118.22 21.6987 118.059 21.7584 117.899 21.7982C117.719 21.8381 117.518 21.8381 117.338 21.7982C116.997 21.7982 116.656 21.6987 116.376 21.5195Z" fill="#111111"/>
<path d="M133.674 21.5195C133.453 21.3802 133.253 21.2408 133.072 21.0816L132.531 20.7631C132.311 20.6635 132.05 20.5839 131.81 20.5441C131.489 20.5043 131.148 20.5043 130.828 20.5441C130.266 20.5441 129.705 20.6436 129.184 20.8228C128.703 20.982 128.242 21.2209 127.821 21.5195C127.46 21.8181 127.139 22.1566 126.879 22.5547C126.658 22.9329 126.558 23.3709 126.558 23.8088C126.538 24.2468 126.618 24.6649 126.779 25.063C126.959 25.4014 127.2 25.7 127.48 25.9389C127.901 26.2375 128.382 26.4565 128.863 26.6357C129.404 26.8546 130.106 27.0736 130.868 27.3523C131.309 27.5116 131.75 27.6111 132.13 27.7704L133.233 28.1486C133.554 28.268 133.854 28.4074 134.155 28.5865C134.435 28.7657 134.756 28.925 135.037 29.0842C135.698 29.5222 136.219 30.1393 136.52 30.8759C136.801 31.6124 136.961 32.4087 136.961 33.205C136.981 34.0013 136.781 34.7976 136.4 35.4943C136.039 36.1911 135.518 36.7883 134.876 37.2461C134.195 37.7239 133.433 38.0822 132.632 38.3211C131.77 38.5799 130.848 38.7193 129.946 38.6994C128.222 38.7591 126.538 38.2216 125.175 37.1864C124.854 36.9276 124.574 36.629 124.313 36.3105L123.712 35.554L123.932 35.4346C124.213 35.2753 124.534 35.1957 124.854 35.1758C125.095 35.1758 125.335 35.2156 125.576 35.2753C125.796 35.3351 126.017 35.4545 126.177 35.6138C126.538 35.9124 126.919 36.1911 127.32 36.4299L128.242 36.848C128.522 36.9674 128.823 37.0272 129.124 37.0272H130.006C130.607 37.0272 131.208 36.9873 131.81 36.8679C132.391 36.7286 132.952 36.4897 133.453 36.1712C133.914 35.8526 134.335 35.4346 134.656 34.9767C134.977 34.4591 135.137 33.842 135.097 33.2249C135.137 32.6078 134.997 31.9907 134.716 31.4333C134.476 30.9953 134.135 30.6171 133.714 30.3384C133.233 30.0597 132.712 29.8208 132.191 29.6416C131.549 29.4625 130.928 29.2435 130.326 28.9847L127.981 28.1088C127.34 27.8699 126.739 27.5713 126.177 27.1931C125.736 26.8347 125.356 26.3769 125.075 25.8792C124.794 25.2621 124.634 24.5852 124.634 23.8885C124.634 23.1917 124.834 22.495 125.195 21.8978C125.576 21.3005 126.057 20.7631 126.618 20.3251C127.24 19.8871 127.901 19.5487 128.623 19.2899C129.344 19.051 130.106 18.9316 130.868 18.9117C131.449 18.8918 132.05 18.9714 132.611 19.1307C133.113 19.27 133.594 19.4691 134.035 19.7279C134.456 19.927 134.836 20.1858 135.197 20.4844C135.518 20.7631 135.839 21.0816 136.119 21.3603L135.638 21.6191C135.518 21.7385 135.358 21.7982 135.197 21.838C135.017 21.8779 134.816 21.8779 134.636 21.838C134.295 21.8181 133.954 21.7186 133.674 21.5195Z" fill="#111111"/>
<path d="M140.569 20.6437V18.9117H156.604V20.6437H149.549V38.4207H147.685V20.6437H140.569V20.6437Z" fill="#111111"/>
<path d="M161.856 38.4804L166.366 18.9714H173.1C174.965 18.852 176.789 19.3895 178.292 20.4844C179.555 21.4797 180.296 23.0126 180.296 24.6251C180.316 25.8991 179.976 27.1732 179.314 28.2681C178.592 29.3629 177.59 30.219 176.388 30.7564C175.025 31.3935 173.521 31.7319 171.998 31.6921H165.684L166.366 28.487H172.118C172.9 28.5069 173.682 28.3278 174.383 27.9894C174.965 27.7107 175.426 27.2329 175.686 26.6357C175.987 26.0783 176.107 25.4612 176.067 24.844C176.087 24.0876 175.786 23.3709 175.245 22.8533C174.524 22.3158 173.642 22.0769 172.74 22.1566H169.793L165.965 38.5401H161.956L161.856 38.4804Z" fill="#111111"/>
<path d="M178.613 38.4804L190.218 18.9714H195.189L197.654 38.4804H193.646L192.423 25.5408L192.162 22.3955L190.418 25.4811L183.022 38.4804H178.613V38.4804ZM184.024 33.5434L184.746 30.5375H195.409L194.708 33.5434H184.024Z" fill="#111111"/>
<path d="M204.95 38.4804L206.694 31.0949L202.685 18.9714H206.694L208.498 24.9436L209.32 28.0889L211.465 24.8838L215.834 19.071H220.485L210.803 31.4532L209.16 38.5799L204.95 38.4804Z" fill="#111111"/>
<path d="M30.2064 60C46.8889 60 60.4128 46.5685 60.4128 30C60.4128 13.4315 46.8889 0 30.2064 0C13.5239 0 0 13.4315 0 30C0 46.5685 13.5239 60 30.2064 60Z" fill="#111111"/>
<path d="M30.2465 19.6682C24.5139 19.6881 19.8637 24.3066 19.8436 30V45.6669C19.8436 45.6669 19.8436 45.6669 19.9839 45.6669C20.906 46.2641 21.8881 46.7618 22.9104 47.1997C23.2311 47.3391 23.5518 47.4585 23.8925 47.5581V42.7804V38.142C25.7165 39.5554 27.9615 40.3318 30.2866 40.3119C36.0192 40.3119 40.6494 35.7133 40.6494 30.0199C40.6494 24.3265 36.0192 19.7279 30.2866 19.7279L30.2465 19.6682ZM30.2465 36.3703C26.6987 36.3902 23.8124 33.5236 23.7923 30C23.7723 26.4764 26.6586 23.6098 30.2064 23.5899C33.7542 23.57 36.6405 26.4366 36.6606 29.9602C36.6606 29.9801 36.6606 29.9801 36.6606 30C36.6405 33.5236 33.7943 36.3504 30.2465 36.3703Z" fill="#E72E80"/>
<path d="M42.5134 44.2535H49.1079V48.7525H30.2465C29.7654 48.7525 29.3245 48.7525 28.8434 48.7525C28.643 48.7724 28.4225 48.7724 28.222 48.7525C26.7588 48.6132 25.3357 48.2748 23.9527 47.7771V42.9994C25.917 43.9748 28.1018 44.4924 30.3066 44.4924C38.204 44.5521 44.6381 38.2416 44.6983 30.3982C44.7584 22.5548 38.4044 16.1646 30.5071 16.1049C22.6097 16.0452 16.1756 22.3557 16.1154 30.1991C16.0954 33.7426 17.3983 37.1865 19.8035 39.8142V45.6669C18.7412 44.9702 17.739 44.1739 16.837 43.2781C15.1132 41.5661 13.7502 39.5355 12.8282 37.306C11.8661 34.9768 11.385 32.4884 11.365 29.9801C11.365 27.4718 11.8661 25.0034 12.8683 22.6941C14.7925 18.215 18.3804 14.6517 22.8903 12.7406C27.5806 10.7499 32.8723 10.7499 37.5626 12.7406C39.8275 13.6563 41.872 15.01 43.5758 16.722C45.2996 18.434 46.6626 20.4645 47.5846 22.6941C49.589 27.3524 49.589 32.6079 47.5846 37.2661C46.6626 39.4957 45.2996 41.5263 43.5758 43.2383C43.235 43.5966 42.8943 43.935 42.5134 44.2535Z" fill="#FCEBF3"/>
<path d="M319.703 6.46975H429.945C443.495 6.44985 454.479 17.3589 454.499 30.8161C454.499 30.836 454.499 30.836 454.499 30.856C454.519 44.3132 443.535 55.2222 429.985 55.2421C429.965 55.2421 429.965 55.2421 429.945 55.2421H319.703C306.153 55.2621 295.169 44.353 295.149 30.8958C295.149 30.8759 295.149 30.8759 295.149 30.856C295.129 17.3988 306.113 6.48966 319.663 6.46975C319.683 6.46975 319.683 6.46975 319.703 6.46975Z" fill="white" stroke="#111111" stroke-width="0.5"/>
<path d="M319.468 33.4486V40.8142H316V21.0066H323.637C325.561 20.9071 327.445 21.5242 328.948 22.7186C330.271 23.8733 331.013 25.5455 330.953 27.2973C331.033 29.0292 330.291 30.7213 328.948 31.8361C327.405 32.9907 325.481 33.568 323.557 33.4486H319.468ZM319.468 30.6815H323.637C324.659 30.7611 325.661 30.4625 326.463 29.8255C327.144 29.1685 327.505 28.2727 327.445 27.3371C327.485 26.3815 327.124 25.4459 326.443 24.7691C325.701 24.0922 324.739 23.7339 323.737 23.7737H319.468V30.6815ZM342.679 36.1957H334.962L333.498 40.8142H329.891L337.427 21.0066H340.554L348.091 40.9137H344.483L342.679 36.1957ZM335.924 33.4287H341.717L338.83 25.207L335.924 33.4287ZM354.665 30.3829L359.255 21.0066H363.083L356.409 33.5282V40.8142H352.921V33.5282L346.226 21.0066H350.075L354.665 30.3829ZM375.972 40.8142H372.524V21.0066H375.972V40.8142ZM396.016 40.8142H392.548L383.649 26.7598V40.8142H380.181V21.0066H383.649L392.568 35.1208V21.0066H396.016V40.8142Z" fill="#111111"/>
<path d="M415.753 19.6133V41H411.871V24.1396L406.729 25.8389V22.7041L415.313 19.6133H415.753ZM435.124 37.9531V41H420.68V38.3926L427.609 30.9072C428.332 30.0869 428.903 29.374 429.323 28.7686C429.743 28.1631 430.041 27.6162 430.216 27.1279C430.402 26.6299 430.495 26.1562 430.495 25.707C430.495 25.0527 430.378 24.4814 430.143 23.9932C429.909 23.4951 429.567 23.1094 429.118 22.8359C428.678 22.5625 428.136 22.4258 427.492 22.4258C426.779 22.4258 426.169 22.5918 425.661 22.9238C425.163 23.2461 424.782 23.6953 424.518 24.2715C424.264 24.8477 424.137 25.5068 424.137 26.249H420.255C420.255 24.9893 420.548 23.8418 421.134 22.8066C421.72 21.7617 422.56 20.9268 423.654 20.3018C424.748 19.6768 426.047 19.3643 427.55 19.3643C429.015 19.3643 430.255 19.6084 431.271 20.0967C432.287 20.5752 433.058 21.2588 433.586 22.1475C434.113 23.0361 434.377 24.0957 434.377 25.3262C434.377 26.0098 434.264 26.6836 434.04 27.3477C433.815 28.0117 433.498 28.6709 433.088 29.3252C432.687 29.9697 432.209 30.624 431.652 31.2881C431.095 31.9521 430.475 32.6309 429.792 33.3242L425.631 37.9531H435.124Z" fill="#111111"/>
</svg>
