<svg width="135" height="21" viewBox="0 0 135 21" fill="none" xmlns="http://www.w3.org/2000/svg">
<path d="M25.228 17.168C24.5093 17.168 23.8793 17.042 23.338 16.79C22.7967 16.538 22.372 16.1787 22.064 15.712C21.7653 15.2453 21.6113 14.69 21.602 14.046H23.17C23.1793 14.5687 23.3613 15.012 23.716 15.376C24.0707 15.74 24.57 15.922 25.214 15.922C25.7833 15.922 26.2267 15.7867 26.544 15.516C26.8707 15.236 27.034 14.8813 27.034 14.452C27.034 14.1067 26.9547 13.8267 26.796 13.612C26.6467 13.3973 26.4367 13.22 26.166 13.08C25.9047 12.94 25.6013 12.814 25.256 12.702C24.9107 12.59 24.5467 12.4687 24.164 12.338C23.408 12.086 22.8387 11.7593 22.456 11.358C22.0827 10.9567 21.896 10.4293 21.896 9.776C21.8867 9.22533 22.0127 8.74467 22.274 8.334C22.5447 7.92333 22.918 7.606 23.394 7.382C23.8793 7.14867 24.444 7.032 25.088 7.032C25.7227 7.032 26.278 7.14867 26.754 7.382C27.2393 7.61533 27.6173 7.942 27.888 8.362C28.1587 8.77267 28.2987 9.25333 28.308 9.804H26.74C26.74 9.552 26.6747 9.314 26.544 9.09C26.4133 8.85667 26.222 8.66533 25.97 8.516C25.718 8.36667 25.41 8.292 25.046 8.292C24.5793 8.28267 24.192 8.39933 23.884 8.642C23.5853 8.88467 23.436 9.22067 23.436 9.65C23.436 10.0327 23.548 10.3267 23.772 10.532C23.996 10.7373 24.304 10.91 24.696 11.05C25.088 11.1807 25.536 11.3347 26.04 11.512C26.5253 11.6707 26.9593 11.862 27.342 12.086C27.7247 12.31 28.028 12.604 28.252 12.968C28.4853 13.332 28.602 13.794 28.602 14.354C28.602 14.8487 28.476 15.3107 28.224 15.74C27.972 16.16 27.594 16.5053 27.09 16.776C26.586 17.0373 25.9653 17.168 25.228 17.168ZM33.4165 17.168C32.7351 17.168 32.1285 17.0187 31.5965 16.72C31.0738 16.412 30.6631 15.9873 30.3645 15.446C30.0658 14.9047 29.9165 14.2747 29.9165 13.556C29.9165 12.828 30.0611 12.1887 30.3505 11.638C30.6491 11.0873 31.0598 10.658 31.5825 10.35C32.1145 10.042 32.7305 9.888 33.4305 9.888C34.1118 9.888 34.7045 10.042 35.2085 10.35C35.7125 10.6487 36.1045 11.05 36.3845 11.554C36.6645 12.058 36.8045 12.6133 36.8045 13.22C36.8045 13.3133 36.7998 13.416 36.7905 13.528C36.7905 13.6307 36.7858 13.7473 36.7765 13.878H31.3725C31.4191 14.55 31.6385 15.0633 32.0305 15.418C32.4318 15.7633 32.8938 15.936 33.4165 15.936C33.8365 15.936 34.1865 15.8427 34.4665 15.656C34.7558 15.46 34.9705 15.1987 35.1105 14.872H36.5945C36.4078 15.5253 36.0345 16.0713 35.4745 16.51C34.9238 16.9487 34.2378 17.168 33.4165 17.168ZM33.4165 11.106C32.9218 11.106 32.4831 11.2553 32.1005 11.554C31.7178 11.8433 31.4845 12.282 31.4005 12.87H35.3205C35.2925 12.3287 35.1011 11.8993 34.7465 11.582C34.3918 11.2647 33.9485 11.106 33.4165 11.106ZM41.6343 17.168C40.9529 17.168 40.3416 17.014 39.8003 16.706C39.2683 16.398 38.8483 15.9733 38.5403 15.432C38.2416 14.8813 38.0923 14.2467 38.0923 13.528C38.0923 12.8093 38.2416 12.1793 38.5403 11.638C38.8483 11.0873 39.2683 10.658 39.8003 10.35C40.3416 10.042 40.9529 9.888 41.6343 9.888C42.4929 9.888 43.2116 10.112 43.7903 10.56C44.3783 11.008 44.7563 11.6147 44.9243 12.38H43.3703C43.2769 11.9973 43.0716 11.6987 42.7543 11.484C42.4369 11.2693 42.0636 11.162 41.6343 11.162C41.2703 11.162 40.9343 11.2553 40.6263 11.442C40.3183 11.6193 40.0709 11.8853 39.8843 12.24C39.6976 12.5853 39.6043 13.0147 39.6043 13.528C39.6043 14.0413 39.6976 14.4753 39.8843 14.83C40.0709 15.1753 40.3183 15.4413 40.6263 15.628C40.9343 15.8147 41.2703 15.908 41.6343 15.908C42.0636 15.908 42.4369 15.8007 42.7543 15.586C43.0716 15.3713 43.2769 15.068 43.3703 14.676H44.9243C44.7656 15.4227 44.3923 16.0247 43.8043 16.482C43.2163 16.9393 42.4929 17.168 41.6343 17.168ZM49.0957 17.168C48.2557 17.168 47.593 16.9067 47.1077 16.384C46.6317 15.8613 46.3937 15.082 46.3937 14.046V10.056H47.8777V13.892C47.8777 15.236 48.4284 15.908 49.5297 15.908C50.0804 15.908 50.533 15.712 50.8877 15.32C51.2424 14.928 51.4197 14.368 51.4197 13.64V10.056H52.9037V17H51.5877L51.4757 15.782C51.261 16.2113 50.9437 16.552 50.5237 16.804C50.113 17.0467 49.637 17.168 49.0957 17.168ZM54.7915 17V10.056H56.1215L56.2475 11.372C56.4902 10.9147 56.8262 10.5553 57.2555 10.294C57.6942 10.0233 58.2215 9.888 58.8375 9.888V11.442H58.4315C58.0208 11.442 57.6522 11.512 57.3255 11.652C57.0082 11.7827 56.7515 12.0113 56.5555 12.338C56.3688 12.6553 56.2755 13.0987 56.2755 13.668V17H54.7915ZM63.1665 17.168C62.4851 17.168 61.8785 17.0187 61.3465 16.72C60.8238 16.412 60.4131 15.9873 60.1145 15.446C59.8158 14.9047 59.6665 14.2747 59.6665 13.556C59.6665 12.828 59.8111 12.1887 60.1005 11.638C60.3991 11.0873 60.8098 10.658 61.3325 10.35C61.8645 10.042 62.4805 9.888 63.1805 9.888C63.8618 9.888 64.4545 10.042 64.9585 10.35C65.4625 10.6487 65.8545 11.05 66.1345 11.554C66.4145 12.058 66.5545 12.6133 66.5545 13.22C66.5545 13.3133 66.5498 13.416 66.5405 13.528C66.5405 13.6307 66.5358 13.7473 66.5265 13.878H61.1225C61.1691 14.55 61.3885 15.0633 61.7805 15.418C62.1818 15.7633 62.6438 15.936 63.1665 15.936C63.5865 15.936 63.9365 15.8427 64.2165 15.656C64.5058 15.46 64.7205 15.1987 64.8605 14.872H66.3445C66.1578 15.5253 65.7845 16.0713 65.2245 16.51C64.6738 16.9487 63.9878 17.168 63.1665 17.168ZM63.1665 11.106C62.6718 11.106 62.2331 11.2553 61.8505 11.554C61.4678 11.8433 61.2345 12.282 61.1505 12.87H65.0705C65.0425 12.3287 64.8511 11.8993 64.4965 11.582C64.1418 11.2647 63.6985 11.106 63.1665 11.106ZM76.0456 17.168C75.0749 17.168 74.2349 16.958 73.5256 16.538C72.8256 16.1087 72.2843 15.516 71.9016 14.76C71.5189 13.9947 71.3276 13.1127 71.3276 12.114C71.3276 11.106 71.5189 10.224 71.9016 9.468C72.2843 8.70267 72.8256 8.10533 73.5256 7.676C74.2349 7.24667 75.0749 7.032 76.0456 7.032C77.1936 7.032 78.1316 7.312 78.8596 7.872C79.5876 8.432 80.0496 9.216 80.2456 10.224H78.5936C78.4629 9.65467 78.1829 9.202 77.7536 8.866C77.3243 8.53 76.7503 8.362 76.0316 8.362C75.0516 8.362 74.2769 8.698 73.7076 9.37C73.1383 10.0327 72.8536 10.9473 72.8536 12.114C72.8536 13.2713 73.1383 14.1813 73.7076 14.844C74.2769 15.5067 75.0516 15.838 76.0316 15.838C76.7503 15.838 77.3243 15.6793 77.7536 15.362C78.1829 15.0447 78.4629 14.6107 78.5936 14.06H80.2456C80.0496 15.0307 79.5876 15.7913 78.8596 16.342C78.1316 16.8927 77.1936 17.168 76.0456 17.168ZM81.8208 17V6.92H83.3048V11.176C83.5381 10.7747 83.8601 10.462 84.2708 10.238C84.6908 10.0047 85.1528 9.888 85.6568 9.888C86.4875 9.888 87.1408 10.1493 87.6168 10.672C88.0928 11.1947 88.3308 11.974 88.3308 13.01V17H86.8608V13.164C86.8608 11.82 86.3241 11.148 85.2508 11.148C84.6908 11.148 84.2241 11.344 83.8508 11.736C83.4868 12.128 83.3048 12.688 83.3048 13.416V17H81.8208ZM93.3266 17.168C92.6453 17.168 92.0386 17.0187 91.5066 16.72C90.984 16.412 90.5733 15.9873 90.2746 15.446C89.976 14.9047 89.8266 14.2747 89.8266 13.556C89.8266 12.828 89.9713 12.1887 90.2606 11.638C90.5593 11.0873 90.97 10.658 91.4926 10.35C92.0246 10.042 92.6406 9.888 93.3406 9.888C94.022 9.888 94.6146 10.042 95.1186 10.35C95.6226 10.6487 96.0146 11.05 96.2946 11.554C96.5746 12.058 96.7146 12.6133 96.7146 13.22C96.7146 13.3133 96.71 13.416 96.7006 13.528C96.7006 13.6307 96.696 13.7473 96.6866 13.878H91.2826C91.3293 14.55 91.5486 15.0633 91.9406 15.418C92.342 15.7633 92.804 15.936 93.3266 15.936C93.7466 15.936 94.0966 15.8427 94.3766 15.656C94.666 15.46 94.8806 15.1987 95.0206 14.872H96.5046C96.318 15.5253 95.9446 16.0713 95.3846 16.51C94.834 16.9487 94.148 17.168 93.3266 17.168ZM93.3266 11.106C92.832 11.106 92.3933 11.2553 92.0106 11.554C91.628 11.8433 91.3946 12.282 91.3106 12.87H95.2306C95.2026 12.3287 95.0113 11.8993 94.6566 11.582C94.302 11.2647 93.8586 11.106 93.3266 11.106ZM101.544 17.168C100.863 17.168 100.252 17.014 99.7104 16.706C99.1784 16.398 98.7584 15.9733 98.4504 15.432C98.1517 14.8813 98.0024 14.2467 98.0024 13.528C98.0024 12.8093 98.1517 12.1793 98.4504 11.638C98.7584 11.0873 99.1784 10.658 99.7104 10.35C100.252 10.042 100.863 9.888 101.544 9.888C102.403 9.888 103.122 10.112 103.7 10.56C104.288 11.008 104.666 11.6147 104.834 12.38H103.28C103.187 11.9973 102.982 11.6987 102.664 11.484C102.347 11.2693 101.974 11.162 101.544 11.162C101.18 11.162 100.844 11.2553 100.536 11.442C100.228 11.6193 99.9811 11.8853 99.7944 12.24C99.6077 12.5853 99.5144 13.0147 99.5144 13.528C99.5144 14.0413 99.6077 14.4753 99.7944 14.83C99.9811 15.1753 100.228 15.4413 100.536 15.628C100.844 15.8147 101.18 15.908 101.544 15.908C101.974 15.908 102.347 15.8007 102.664 15.586C102.982 15.3713 103.187 15.068 103.28 14.676H104.834C104.676 15.4227 104.302 16.0247 103.714 16.482C103.126 16.9393 102.403 17.168 101.544 17.168ZM106.444 17V6.92H107.928V12.926L110.588 10.056H112.366L109.412 13.206L112.8 17H110.924L107.928 13.444V17H106.444ZM116.665 17.168C116.002 17.168 115.405 17.0187 114.873 16.72C114.35 16.412 113.935 15.9873 113.627 15.446C113.319 14.8953 113.165 14.256 113.165 13.528C113.165 12.8 113.319 12.1653 113.627 11.624C113.944 11.0733 114.369 10.6487 114.901 10.35C115.433 10.042 116.025 9.888 116.679 9.888C117.341 9.888 117.934 10.042 118.457 10.35C118.989 10.6487 119.409 11.0733 119.717 11.624C120.034 12.1653 120.193 12.8 120.193 13.528C120.193 14.256 120.034 14.8953 119.717 15.446C119.409 15.9873 118.989 16.412 118.457 16.72C117.925 17.0187 117.327 17.168 116.665 17.168ZM116.665 15.894C117.019 15.894 117.346 15.8053 117.645 15.628C117.953 15.4507 118.2 15.1893 118.387 14.844C118.573 14.4893 118.667 14.0507 118.667 13.528C118.667 13.0053 118.573 12.5713 118.387 12.226C118.209 11.8713 117.967 11.6053 117.659 11.428C117.36 11.2507 117.033 11.162 116.679 11.162C116.324 11.162 115.993 11.2507 115.685 11.428C115.386 11.6053 115.143 11.8713 114.957 12.226C114.77 12.5713 114.677 13.0053 114.677 13.528C114.677 14.0507 114.77 14.4893 114.957 14.844C115.143 15.1893 115.386 15.4507 115.685 15.628C115.983 15.8053 116.31 15.894 116.665 15.894ZM124.359 17.168C123.519 17.168 122.857 16.9067 122.371 16.384C121.895 15.8613 121.657 15.082 121.657 14.046V10.056H123.141V13.892C123.141 15.236 123.692 15.908 124.793 15.908C125.344 15.908 125.797 15.712 126.151 15.32C126.506 14.928 126.683 14.368 126.683 13.64V10.056H128.167V17H126.851L126.739 15.782C126.525 16.2113 126.207 16.552 125.787 16.804C125.377 17.0467 124.901 17.168 124.359 17.168ZM132.967 17C132.286 17 131.745 16.8367 131.343 16.51C130.942 16.174 130.741 15.5813 130.741 14.732V11.302H129.551V10.056H130.741L130.923 8.292H132.225V10.056H134.185V11.302H132.225V14.732C132.225 15.1147 132.305 15.3807 132.463 15.53C132.631 15.67 132.916 15.74 133.317 15.74H134.115V17H132.967Z" fill="#6B7280"/>
<path d="M13.3333 6.66667H12.381V4.7619C12.381 2.13333 10.2476 0 7.61905 0C4.99048 0 2.85714 2.13333 2.85714 4.7619V6.66667H1.90476C0.857143 6.66667 0 7.52381 0 8.57143V18.0952C0 19.1429 0.857143 20 1.90476 20H13.3333C14.381 20 15.2381 19.1429 15.2381 18.0952V8.57143C15.2381 7.52381 14.381 6.66667 13.3333 6.66667ZM7.61905 15.2381C6.57143 15.2381 5.71429 14.381 5.71429 13.3333C5.71429 12.2857 6.57143 11.4286 7.61905 11.4286C8.66667 11.4286 9.52381 12.2857 9.52381 13.3333C9.52381 14.381 8.66667 15.2381 7.61905 15.2381ZM4.7619 6.66667V4.7619C4.7619 3.18095 6.0381 1.90476 7.61905 1.90476C9.2 1.90476 10.4762 3.18095 10.4762 4.7619V6.66667H4.7619Z" fill="#6B7280"/>
</svg>
