<svg width="12" height="15" viewBox="0 0 12 15" fill="none" xmlns="http://www.w3.org/2000/svg">
<path d="M10.6667 4.00002H9.33333C9.33333 2.16002 7.84 0.666687 6 0.666687C4.16 0.666687 2.66667 2.16002 2.66667 4.00002H1.33333C0.6 4.00002 0 4.60002 0 5.33335V13.3334C0 14.0667 0.6 14.6667 1.33333 14.6667H10.6667C11.4 14.6667 12 14.0667 12 13.3334V5.33335C12 4.60002 11.4 4.00002 10.6667 4.00002ZM6 2.00002C7.10667 2.00002 8 2.89335 8 4.00002H4C4 2.89335 4.89333 2.00002 6 2.00002ZM6 8.66669C4.44667 8.66669 3.14 7.60669 2.77333 6.16669C2.66 5.74669 2.98667 5.33335 3.42 5.33335C3.73333 5.33335 3.98667 5.56002 4.07333 5.86669C4.30667 6.71335 5.08 7.33335 6 7.33335C6.92 7.33335 7.69333 6.71335 7.92667 5.86669C8.01333 5.56002 8.26667 5.33335 8.58 5.33335C9.01333 5.33335 9.33333 5.74669 9.22667 6.16669C8.86 7.60669 7.55333 8.66669 6 8.66669Z" fill="#888888"/>
</svg>
