<svg width="227" height="31" viewBox="0 0 227 31" fill="none" xmlns="http://www.w3.org/2000/svg">
<path d="M42.6041 17.9117C42.9318 17.7206 43.2048 17.5021 43.4779 17.2563C43.7237 17.0106 43.9422 16.7375 44.1333 16.4371C44.3245 16.1367 44.461 15.809 44.5429 15.4813C44.6522 15.1536 44.7068 14.7986 44.7068 14.4163C44.7068 13.8429 44.5975 13.2967 44.3518 12.8052C44.106 12.3136 43.7783 11.8494 43.3687 11.4944C42.9591 11.1121 42.4675 10.8117 41.9214 10.5932C41.3752 10.3748 40.7744 10.2655 40.1464 10.2655C39.7367 10.2655 39.3271 10.3201 38.9448 10.4021C38.5625 10.5113 38.1802 10.6478 37.8525 10.8117C37.5248 11.0028 37.1971 11.2213 36.924 11.4671C36.6509 11.7128 36.4052 11.9859 36.214 12.3136C36.0229 12.614 35.859 12.9417 35.7498 13.2967C35.6406 13.6517 35.5859 14.0067 35.5859 14.389C35.5859 14.7713 35.6406 15.1263 35.7498 15.4813C35.859 15.8363 36.0229 16.164 36.214 16.4644C36.4052 16.7648 36.6509 17.0652 36.924 17.311C37.1971 17.5567 37.4975 17.7752 37.8525 17.9663C38.1802 18.1575 38.5625 18.294 38.9448 18.376C39.3271 18.4852 39.7367 18.5125 40.1464 18.5125C40.4741 18.5125 40.7744 18.4852 41.1021 18.4306C41.4025 18.376 41.7029 18.294 41.976 18.1848L42.5495 18.8948C42.1944 19.0587 41.8121 19.1679 41.4025 19.2498C40.9929 19.3317 40.5833 19.3864 40.1464 19.3864C39.3817 19.3864 38.6717 19.2498 38.0163 19.004C37.361 18.731 36.7602 18.376 36.2686 17.939C35.7771 17.4748 35.3675 16.956 35.0944 16.3552C34.794 15.7544 34.6575 15.099 34.6575 14.4163C34.6575 13.7336 34.794 13.0782 35.0944 12.4775C35.3948 11.8767 35.7771 11.3305 36.2686 10.8936C36.7602 10.4294 37.361 10.0744 38.0163 9.8286C38.6717 9.55552 39.409 9.44629 40.1464 9.44629C40.911 9.44629 41.621 9.58283 42.3037 9.8286C42.9864 10.1017 43.5598 10.4567 44.0514 10.8936C44.5429 11.3578 44.9525 11.8767 45.2256 12.4775C45.526 13.0782 45.6626 13.7336 45.6626 14.4163C45.6626 14.7713 45.6352 15.1263 45.5533 15.454C45.4714 15.7817 45.3622 16.1094 45.1983 16.4371C45.0345 16.7375 44.8706 17.0379 44.6522 17.311C44.4337 17.584 44.1879 17.8298 43.9148 18.0756C44.3791 18.6217 44.816 19.1679 45.2802 19.7141C45.7445 20.2602 46.1814 20.8337 46.6456 21.4071H46.2087C45.6899 21.4071 45.3075 21.2433 45.0618 20.8883L42.6041 17.9117Z" fill="#111111"/>
<path d="M49.95 19.3309H49.0215V9.52734H49.95V19.3309Z" fill="#111111"/>
<path d="M58.0604 10.8106C57.9512 10.7287 57.8419 10.6741 57.76 10.5921C57.6781 10.5375 57.5689 10.4829 57.4869 10.4283C57.405 10.3737 57.2685 10.3464 57.1319 10.3191C56.9954 10.2918 56.8315 10.2918 56.6404 10.2918C56.34 10.2918 56.0669 10.3464 55.8212 10.4283C55.5481 10.5102 55.3296 10.6468 55.1385 10.7833C54.9473 10.9471 54.7835 11.111 54.6742 11.3022C54.565 11.4933 54.5104 11.7118 54.5104 11.9302C54.5104 12.176 54.5377 12.3945 54.6196 12.5583C54.7015 12.7222 54.8108 12.8587 54.9746 12.9952C55.1385 13.1318 55.3842 13.241 55.6573 13.3502C55.9304 13.4595 56.2854 13.5687 56.695 13.7052C56.9135 13.7872 57.1319 13.8418 57.3231 13.9237C57.5142 13.9783 57.7054 14.0603 57.8692 14.1149C58.0331 14.1695 58.1969 14.2514 58.3335 14.3333C58.47 14.4153 58.6339 14.4972 58.7704 14.5791C59.1254 14.8249 59.3712 15.1253 59.5077 15.4803C59.6443 15.8353 59.7262 16.2176 59.7262 16.6545C59.7262 17.0914 59.6443 17.4737 59.4531 17.8014C59.262 18.1564 59.0162 18.4295 58.6885 18.6753C58.3608 18.9211 58.0058 19.0849 57.5689 19.2214C57.1319 19.358 56.695 19.4126 56.2308 19.4126C55.3023 19.4126 54.5104 19.1668 53.855 18.648C53.6911 18.5114 53.5273 18.3476 53.4181 18.211C53.2815 18.0745 53.1996 17.938 53.1177 17.8287L53.2269 17.7741C53.3908 17.6922 53.5546 17.6376 53.6911 17.6376C53.8004 17.6376 53.9369 17.6649 54.0461 17.6922C54.1554 17.7195 54.2646 17.7741 54.3465 17.856C54.565 18.0199 54.7288 18.1564 54.92 18.2657C55.0838 18.3476 55.2477 18.4295 55.3842 18.4841C55.5208 18.5387 55.6846 18.566 55.8212 18.566C55.9577 18.566 56.0942 18.5934 56.2581 18.5934C56.5585 18.5934 56.8589 18.566 57.1592 18.5114C57.4596 18.4295 57.7327 18.3203 57.9785 18.1564C58.2242 17.9926 58.4154 17.8014 58.5793 17.5557C58.7431 17.3099 58.7977 17.0368 58.7977 16.6818C58.7977 16.2995 58.7431 15.9991 58.6066 15.7806C58.4973 15.5622 58.3062 15.371 58.115 15.2345C57.8966 15.0979 57.6508 14.9887 57.3504 14.8795C57.05 14.7976 56.7496 14.6883 56.4219 14.5518C55.985 14.3879 55.6027 14.2514 55.2477 14.1149C54.8927 13.9783 54.5923 13.8145 54.3465 13.6506C54.1008 13.4595 53.9096 13.241 53.7731 12.9952C53.6365 12.7222 53.5546 12.3945 53.5546 11.9575C53.5546 11.5752 53.6365 11.2202 53.8277 10.9198C54.0188 10.6195 54.2646 10.3464 54.5377 10.1279C54.8108 9.90945 55.1658 9.74561 55.5208 9.60907C55.8758 9.49983 56.2581 9.41791 56.6404 9.41791C56.9681 9.41791 57.2412 9.44522 57.5142 9.52714C57.76 9.60907 58.0058 9.69099 58.2243 9.82753C58.4427 9.93676 58.6339 10.0733 58.7977 10.2098C58.9616 10.3464 59.1254 10.5102 59.262 10.6468L59.0162 10.7833C58.9616 10.8379 58.8796 10.8652 58.7977 10.8925C58.7158 10.9198 58.6339 10.9198 58.5246 10.9198C58.3608 10.9198 58.1969 10.8925 58.0604 10.8106Z" fill="#111111"/>
<path d="M66.6897 10.8106C66.5804 10.7287 66.4712 10.6741 66.3893 10.5921C66.3074 10.5375 66.1981 10.4829 66.1162 10.4283C66.007 10.3737 65.8977 10.3464 65.7612 10.3191C65.6247 10.2918 65.4608 10.2918 65.2697 10.2918C64.9693 10.2918 64.6962 10.3464 64.4504 10.4283C64.1774 10.5102 63.9589 10.6468 63.7677 10.7833C63.5766 10.9471 63.4127 11.111 63.3035 11.3022C63.1943 11.4933 63.1397 11.7118 63.1397 11.9302C63.1397 12.176 63.167 12.3945 63.2489 12.5583C63.3308 12.7222 63.44 12.8587 63.6039 12.9952C63.7677 13.1318 64.0135 13.241 64.2866 13.3502C64.5597 13.4595 64.9147 13.5687 65.3243 13.7052C65.5427 13.7872 65.7612 13.8418 65.9524 13.9237C66.1435 13.9783 66.3347 14.0603 66.4985 14.1149C66.6624 14.1695 66.8262 14.2514 66.9628 14.3333C67.0993 14.4153 67.2631 14.4972 67.3997 14.5791C67.7547 14.8249 68.0005 15.1253 68.137 15.4803C68.2735 15.8353 68.3555 16.2176 68.3555 16.6545C68.3555 17.0914 68.2735 17.4737 68.0824 17.8014C67.8912 18.1564 67.6455 18.4295 67.3178 18.6753C66.9901 18.9211 66.6351 19.0849 66.1981 19.2214C65.7612 19.358 65.3243 19.4126 64.86 19.4126C63.9316 19.4126 63.1396 19.1668 62.4843 18.648C62.3204 18.5114 62.1566 18.3476 62.0473 18.211C61.9381 18.0745 61.8289 17.938 61.7469 17.8287L61.8562 17.7741C62.02 17.6922 62.1839 17.6376 62.3204 17.6376C62.4296 17.6376 62.5662 17.6649 62.6754 17.6922C62.7846 17.7195 62.8939 17.7741 62.9758 17.856C63.1943 18.0199 63.3581 18.1564 63.5493 18.2657C63.7131 18.3476 63.877 18.4295 64.0135 18.4841C64.15 18.5387 64.3139 18.566 64.4504 18.566C64.587 18.566 64.7235 18.5934 64.8874 18.5934C65.1877 18.5934 65.4881 18.566 65.7885 18.5114C66.0889 18.4295 66.362 18.3203 66.6078 18.1564C66.8535 17.9926 67.0447 17.8014 67.2085 17.5557C67.3724 17.3099 67.427 17.0368 67.427 16.6818C67.427 16.2995 67.3724 15.9991 67.2358 15.7806C67.1266 15.5622 66.9354 15.371 66.7443 15.2345C66.5258 15.0979 66.2801 14.9887 65.9797 14.8795C65.6793 14.7976 65.3789 14.6883 65.0512 14.5518C64.6143 14.3879 64.232 14.2514 63.877 14.1149C63.522 13.9783 63.2216 13.8145 62.9758 13.6506C62.73 13.4595 62.5389 13.241 62.4023 12.9952C62.2658 12.7222 62.1839 12.3945 62.1839 11.9575C62.1839 11.5752 62.2658 11.2202 62.457 10.9198C62.6481 10.6195 62.8939 10.3464 63.167 10.1279C63.4673 9.90945 63.795 9.74561 64.15 9.60907C64.505 9.49983 64.8874 9.41791 65.2697 9.41791C65.5974 9.41791 65.8704 9.44522 66.1435 9.52714C66.3893 9.60907 66.6351 9.69099 66.8535 9.82753C67.072 9.93676 67.2631 10.0733 67.427 10.2098C67.5908 10.3464 67.7547 10.5102 67.8912 10.6468L67.6455 10.7833C67.5908 10.8379 67.5089 10.8652 67.427 10.8925C67.3451 10.9198 67.2631 10.9198 67.1539 10.9198C66.9901 10.9198 66.8262 10.8925 66.6897 10.8106Z" fill="#111111"/>
<path d="M70.1306 10.3739V9.5H78.1591V10.3739H74.6091V19.3035H73.6806V10.3739H70.1306Z" fill="#111111"/>
<path d="M80.7533 19.3309L83.0199 9.52734H86.3787C87.4983 9.52734 88.3449 9.77312 88.973 10.292C89.6011 10.8108 89.9014 11.4935 89.9287 12.3674C89.9287 13.0501 89.7649 13.6508 89.4372 14.197C89.1095 14.7431 88.618 15.1528 88.0172 15.4532C87.4164 15.7535 86.6791 15.9174 85.8326 15.9174H82.6648L83.0199 14.3062H85.8872C86.3241 14.3062 86.7064 14.2243 87.0068 14.0605C87.3072 13.8966 87.5257 13.6781 87.6622 13.3778C87.7987 13.1047 87.8807 12.8043 87.8533 12.4766C87.8533 12.0943 87.6895 11.7666 87.4437 11.5208C87.1707 11.275 86.761 11.1658 86.1876 11.1658H84.7129L82.8014 19.3582H80.7533V19.3309Z" fill="#111111"/>
<path d="M89.1095 19.3309L94.8988 9.52734H97.3838L98.6126 19.3309H96.6465L95.9638 12.8316L95.8272 11.2477H95.7999L94.9807 12.8043L91.2941 19.3309H89.1095ZM91.813 16.8459L92.168 15.3439H97.493L97.138 16.8459H91.813Z" fill="#111111"/>
<path d="M102.245 19.3309L103.118 15.617L101.152 9.52734H103.173L104.074 12.4766L104.484 14.0605L105.549 12.4493L107.733 9.52734H110L105.166 15.7535L104.347 19.3309H102.245Z" fill="#111111"/>
<circle cx="15.0685" cy="15.0685" r="15.0685" fill="#111111"/>
<path d="M11.8806 21.4805V21.5171C11.8806 21.5171 11.8989 21.5171 11.8989 21.5354V21.4988C11.8989 21.4805 11.8806 21.4805 11.8806 21.4805Z" fill="#E72E80"/>
<path d="M15.0867 9.87695C12.2267 9.87695 9.89502 12.2086 9.89502 15.0686C9.89502 15.1779 9.89502 15.4147 9.89502 15.4147V22.938C9.91324 22.9562 9.94967 22.9744 9.96788 22.9927C10.4233 23.2841 10.9151 23.5392 11.4252 23.7577C11.5891 23.8306 11.7531 23.8853 11.917 23.9399H11.9352V23.9035L11.917 21.4989C11.917 21.4989 11.8988 21.4989 11.8988 21.4807V21.4443C11.8988 21.4443 11.917 21.4443 11.917 21.4625L11.8988 19.1308C12.7732 19.823 13.8844 20.2238 15.0867 20.2238C17.9466 20.2238 20.2783 17.8921 20.2783 15.0322C20.2783 12.1722 17.9466 9.87695 15.0867 9.87695ZM15.0867 18.2747C13.3197 18.2747 11.8806 16.8356 11.8806 15.0686C11.8806 13.3016 13.3197 11.8625 15.0867 11.8625C16.8536 11.8625 18.2927 13.3016 18.2927 15.0686C18.2745 16.8356 16.8536 18.2747 15.0867 18.2747Z" fill="#E72E80"/>
<path d="M21.2073 22.2272H24.5045V24.486H15.0867C14.8498 24.486 14.6313 24.486 14.3944 24.4678C14.2851 24.4678 14.1758 24.4496 14.0848 24.4314H14.0665C13.3379 24.3585 12.6275 24.1945 11.9352 23.9395V23.9031L11.917 21.4985V21.4621C12.8825 21.9357 13.9573 22.209 15.0867 22.209C19.0396 22.209 22.2457 19.0029 22.2457 15.05C22.2457 11.0971 19.0214 7.90921 15.0867 7.90921C11.1519 7.90921 7.90945 11.1153 7.90945 15.0682C7.90945 16.9809 8.65632 18.7115 9.87681 20.0048V22.9376C9.34854 22.5915 8.8567 22.1908 8.40129 21.7354C7.52691 20.8792 6.85291 19.8591 6.37929 18.7479C5.90566 17.582 5.65063 16.3433 5.65063 15.0682C5.65063 13.7931 5.90566 12.5544 6.3975 11.4067C6.87113 10.2773 7.54513 9.27543 8.41951 8.41926C9.27567 7.54488 10.2958 6.87088 11.407 6.39726C12.5728 5.90542 13.8115 5.65039 15.0684 5.65039C16.3436 5.65039 17.5823 5.90542 18.7299 6.39726C19.8593 6.87088 20.8612 7.54488 21.7174 8.41926C22.5918 9.27543 23.2658 10.2955 23.7394 11.4067C24.2312 12.5726 24.4863 13.8113 24.4863 15.0682C24.4863 16.3251 24.2312 17.582 23.7394 18.7297C23.2658 19.8591 22.5918 20.861 21.7174 21.7171C21.5716 21.8993 21.3895 22.0632 21.2073 22.2272Z" fill="#FCEBF3"/>
<rect x="147.25" y="2.25" width="79.5" height="24.5" rx="12.25" fill="white" stroke="#111111" stroke-width="0.5"/>
<path d="M163.047 15.3018V19H161.317V9.04688H165.125C166.237 9.04688 167.119 9.33626 167.771 9.91504C168.427 10.4938 168.755 11.2594 168.755 12.2119C168.755 13.1872 168.434 13.946 167.791 14.4883C167.153 15.0306 166.257 15.3018 165.104 15.3018H163.047ZM163.047 13.9141H165.125C165.74 13.9141 166.21 13.7705 166.533 13.4834C166.857 13.1917 167.019 12.7725 167.019 12.2256C167.019 11.6878 166.854 11.2594 166.526 10.9404C166.198 10.6169 165.747 10.4505 165.173 10.4414H163.047V13.9141ZM174.627 16.6826H170.771L169.965 19H168.167L171.927 9.04688H173.479L177.245 19H175.44L174.627 16.6826ZM171.257 15.2881H174.142L172.699 11.1592L171.257 15.2881ZM180.602 13.7637L182.892 9.04688H184.806L181.47 15.3359V19H179.733V15.3359L176.391 9.04688H178.312L180.602 13.7637ZM191.197 19H189.475V9.04688H191.197V19ZM201.219 19H199.489L195.053 11.9385V19H193.323V9.04688H195.053L199.503 16.1357V9.04688H201.219V19ZM211.65 8.99902V10.373H211.445C210.516 10.3867 209.773 10.6419 209.217 11.1387C208.661 11.6354 208.33 12.3395 208.226 13.251C208.759 12.6904 209.44 12.4102 210.27 12.4102C211.149 12.4102 211.842 12.7201 212.348 13.3398C212.858 13.9596 213.113 14.7594 213.113 15.7393C213.113 16.751 212.815 17.5713 212.218 18.2002C211.625 18.8245 210.846 19.1367 209.88 19.1367C208.886 19.1367 208.08 18.7699 207.46 18.0361C206.845 17.3024 206.537 16.3408 206.537 15.1514V14.584C206.537 12.8385 206.961 11.4714 207.809 10.4824C208.661 9.49349 209.884 8.99902 211.479 8.99902H211.65ZM209.866 13.75C209.502 13.75 209.167 13.8525 208.861 14.0576C208.561 14.2627 208.34 14.5361 208.198 14.8779V15.3838C208.198 16.1221 208.353 16.71 208.663 17.1475C208.973 17.5804 209.374 17.7969 209.866 17.7969C210.358 17.7969 210.748 17.6123 211.035 17.2432C211.322 16.874 211.466 16.3887 211.466 15.7871C211.466 15.1855 211.32 14.6956 211.028 14.3174C210.737 13.9391 210.349 13.75 209.866 13.75Z" fill="#111111"/>
</svg>
