<svg width="78" height="20" viewBox="0 0 78 20" fill="none" xmlns="http://www.w3.org/2000/svg">
<g clip-path="url(#clip0_453_3657)">
<path d="M16.2399 2.71189e-05H3.25316C2.39058 0.000731 1.56352 0.35238 0.953587 0.977764C0.34365 1.60315 0.000686496 2.45115 0 3.33557V16.6379C0.000686496 17.5223 0.34365 18.3703 0.953587 18.9957C1.56352 19.6211 2.39058 19.9727 3.25316 19.9734H16.2269C17.0895 19.9727 17.9166 19.6211 18.5265 18.9957C19.1364 18.3703 19.4794 17.5223 19.4801 16.6379V3.33557C19.4835 2.89768 19.4021 2.46345 19.2407 2.05804C19.0792 1.65263 18.8409 1.28411 18.5395 0.97385C18.2381 0.663586 17.8796 0.417746 17.4849 0.250582C17.0902 0.0834173 16.667 -0.0017457 16.2399 2.71189e-05V2.71189e-05ZM15.9547 15.2957C15.9541 15.5739 15.846 15.8405 15.6541 16.0373C15.4622 16.234 15.2022 16.3448 14.9308 16.3455H4.57516C4.30382 16.3448 4.04378 16.234 3.85191 16.0373C3.66004 15.8405 3.55194 15.5739 3.55126 15.2957V4.69106C3.55194 4.41284 3.66004 4.14622 3.85191 3.94949C4.04378 3.75276 4.30382 3.64193 4.57516 3.64122H14.9179C15.1892 3.64193 15.4493 3.75276 15.6411 3.94949C15.833 4.14622 15.9411 4.41284 15.9418 4.69106V15.2957H15.9547ZM7.67279 12.7043C7.59445 12.7045 7.51685 12.6888 7.44444 12.6582C7.37203 12.6275 7.30623 12.5825 7.25084 12.5257C7.19544 12.4689 7.15153 12.4014 7.12163 12.3272C7.09173 12.2529 7.07643 12.1734 7.0766 12.093V7.86714C7.07643 7.78681 7.09173 7.70724 7.12163 7.633C7.15153 7.55875 7.19544 7.49129 7.25084 7.43449C7.30623 7.37769 7.37203 7.33267 7.44444 7.30202C7.51685 7.27136 7.59445 7.25566 7.67279 7.25584H11.8073C11.8856 7.25566 11.9632 7.27136 12.0356 7.30202C12.1081 7.33267 12.1739 7.37769 12.2292 7.43449C12.2846 7.49129 12.3286 7.55875 12.3585 7.633C12.3884 7.70724 12.4037 7.78681 12.4035 7.86714V12.1063C12.4037 12.1867 12.3884 12.2662 12.3585 12.3405C12.3286 12.4147 12.2846 12.4822 12.2292 12.539C12.1739 12.5958 12.1081 12.6408 12.0356 12.6715C11.9632 12.7021 11.8856 12.7178 11.8073 12.7176L7.67279 12.7043V12.7043ZM24.6644 12.412H26.79C26.8937 13.6479 27.7102 14.618 29.3562 14.618C30.8337 14.618 31.728 13.8738 31.728 12.7442C31.728 11.6944 31.0152 11.216 29.745 10.9103L28.099 10.5515C26.3104 10.1529 24.9625 8.97013 24.9625 7.04321C24.9625 4.91697 26.8029 3.45517 29.2007 3.45517C31.741 3.45517 33.3741 4.82395 33.5166 6.84388H31.4559C31.2096 5.90036 30.4449 5.34222 29.2007 5.34222C27.8916 5.34222 26.9844 6.07312 26.9844 7.00335C26.9844 7.93358 27.762 8.49172 29.11 8.79737L30.743 9.15618C32.5316 9.55485 33.7629 10.6711 33.7629 12.6113C33.7629 15.0831 31.9484 16.5582 29.3692 16.5582C26.453 16.5449 24.8459 14.9236 24.6644 12.412ZM41.3709 19.9867V16.3721L41.5134 14.7907H41.3709C40.8784 15.9336 39.8545 16.5582 38.4677 16.5582C36.2254 16.5582 34.5535 14.6844 34.5535 11.814C34.5535 8.94355 36.2254 7.06979 38.4677 7.06979C39.8415 7.06979 40.8136 7.73425 41.3709 8.7575H41.5134V7.24255H43.3539V20H41.3709V19.9867ZM41.4486 11.8007C41.4486 9.96681 40.347 8.89039 39.012 8.89039C37.6771 8.89039 36.5754 9.96681 36.5754 11.8007C36.5754 13.6346 37.6771 14.711 39.012 14.711C40.347 14.711 41.4486 13.6346 41.4486 11.8007V11.8007ZM44.8314 12.7442V7.22926H46.8144V12.5582C46.8144 14.0067 47.4884 14.6977 48.6289 14.6977C50.0157 14.6977 50.923 13.6744 50.923 12.093V7.22926H52.906V16.3588H51.0656V14.4718H50.923C50.4823 15.6811 49.5362 16.5449 48.0587 16.5449C45.9331 16.5449 44.8314 15.1495 44.8314 12.7442V12.7442ZM54.1113 13.8206C54.1113 12.1063 55.2778 11.1097 57.3515 10.9901L59.8011 10.8306V10.113C59.8011 9.26249 59.192 8.74421 58.1162 8.74421C57.1183 8.74421 56.535 9.26249 56.3795 9.99338H54.3965C54.6039 8.13292 56.1073 7.06979 58.1162 7.06979C60.3973 7.06979 61.7841 8.06647 61.7841 9.99338V16.3721H59.9437V14.6844H59.8011C59.3864 15.814 58.518 16.5582 56.8461 16.5582C55.2389 16.5449 54.1113 15.4419 54.1113 13.8206V13.8206ZM59.8011 12.6911V12.2127L57.8052 12.3588C56.7294 12.4253 56.2369 12.8372 56.2369 13.6612C56.2369 14.3522 56.7942 14.8572 57.5719 14.8572C58.9846 14.8439 59.8011 13.9269 59.8011 12.6911V12.6911ZM63.2617 16.3721V7.24255H65.1021V8.99671H65.2447C65.5039 7.80069 66.3982 7.24255 67.7202 7.24255H68.6274V9.06315H67.4999C66.2167 9.06315 65.2576 9.91365 65.2576 11.5482V16.3588L63.2617 16.3721V16.3721ZM77.7 12.1728H70.9345C71.0382 13.8472 72.1917 14.7907 73.4618 14.7907C74.5376 14.7907 75.2115 14.3389 75.6004 13.5947H77.5704C77.026 15.4552 75.4448 16.5316 73.4489 16.5316C70.8178 16.5316 68.9774 14.5117 68.9774 11.7874C68.9774 9.06315 70.8697 7.04321 73.4618 7.04321C76.054 7.04321 77.7778 8.8771 77.7778 11.1628C77.7648 11.6279 77.7259 11.8538 77.7 12.1728ZM75.7948 10.7641C75.73 9.50169 74.6931 8.6379 73.4489 8.6379C72.2694 8.6379 71.2715 9.40866 71.0252 10.7641H75.7948Z" fill="black"/>
</g>
<defs>
<clipPath id="clip0_453_3657">
<rect width="77.7778" height="20" fill="white"/>
</clipPath>
</defs>
</svg>
