<svg width="110" height="31" viewBox="0 0 110 31" fill="none" xmlns="http://www.w3.org/2000/svg">
<path d="M42.6041 17.9122C42.9318 17.7211 43.2049 17.5026 43.478 17.2568C43.7238 17.0111 43.9422 16.738 44.1334 16.4376C44.3245 16.1372 44.4611 15.8095 44.543 15.4818C44.6522 15.1541 44.7068 14.7991 44.7068 14.4168C44.7068 13.8433 44.5976 13.2972 44.3518 12.8056C44.1061 12.3141 43.7784 11.8499 43.3688 11.4949C42.9591 11.1126 42.4676 10.8122 41.9214 10.5937C41.3753 10.3752 40.7745 10.266 40.1464 10.266C39.7368 10.266 39.3272 10.3206 38.9449 10.4026C38.5626 10.5118 38.1803 10.6483 37.8526 10.8122C37.5249 11.0033 37.1972 11.2218 36.9241 11.4676C36.651 11.7133 36.4052 11.9864 36.2141 12.3141C36.0229 12.6145 35.8591 12.9422 35.7499 13.2972C35.6406 13.6522 35.586 14.0072 35.586 14.3895C35.586 14.7718 35.6406 15.1268 35.7499 15.4818C35.8591 15.8368 36.0229 16.1645 36.2141 16.4649C36.4052 16.7653 36.651 17.0657 36.9241 17.3114C37.1972 17.5572 37.4976 17.7757 37.8526 17.9668C38.1803 18.158 38.5626 18.2945 38.9449 18.3765C39.3272 18.4857 39.7368 18.513 40.1464 18.513C40.4741 18.513 40.7745 18.4857 41.1022 18.4311C41.4026 18.3765 41.703 18.2945 41.9761 18.1853L42.5495 18.8953C42.1945 19.0592 41.8122 19.1684 41.4026 19.2503C40.993 19.3322 40.5833 19.3868 40.1464 19.3868C39.3818 19.3868 38.6718 19.2503 38.0164 19.0045C37.361 18.7315 36.7602 18.3765 36.2687 17.9395C35.7772 17.4753 35.3675 16.9564 35.0945 16.3557C34.7941 15.7549 34.6575 15.0995 34.6575 14.4168C34.6575 13.7341 34.7941 13.0787 35.0945 12.478C35.3948 11.8772 35.7772 11.331 36.2687 10.8941C36.7602 10.4299 37.361 10.0749 38.0164 9.82909C38.6718 9.55601 39.4091 9.44678 40.1464 9.44678C40.911 9.44678 41.621 9.58332 42.3037 9.82909C42.9864 10.1022 43.5599 10.4572 44.0514 10.8941C44.543 11.3583 44.9526 11.8772 45.2257 12.478C45.5261 13.0787 45.6626 13.7341 45.6626 14.4168C45.6626 14.7718 45.6353 15.1268 45.5534 15.4545C45.4715 15.7822 45.3622 16.1099 45.1984 16.4376C45.0345 16.738 44.8707 17.0384 44.6522 17.3114C44.4338 17.5845 44.188 17.8303 43.9149 18.0761C44.3791 18.6222 44.8161 19.1684 45.2803 19.7145C45.7445 20.2607 46.1815 20.8342 46.6457 21.4076H46.2088C45.6899 21.4076 45.3076 21.2438 45.0618 20.8888L42.6041 17.9122Z" fill="#111111"/>
<path d="M49.95 19.3309H49.0215V9.52734H49.95V19.3309Z" fill="#111111"/>
<path d="M58.0604 10.8107C57.9511 10.7287 57.8419 10.6741 57.76 10.5922C57.6781 10.5376 57.5688 10.483 57.4869 10.4284C57.405 10.3737 57.2684 10.3464 57.1319 10.3191C56.9954 10.2918 56.8315 10.2918 56.6404 10.2918C56.34 10.2918 56.0669 10.3464 55.8211 10.4284C55.548 10.5103 55.3296 10.6468 55.1384 10.7834C54.9473 10.9472 54.7834 11.1111 54.6742 11.3022C54.565 11.4934 54.5104 11.7118 54.5104 11.9303C54.5104 12.1761 54.5377 12.3945 54.6196 12.5584C54.7015 12.7222 54.8107 12.8588 54.9746 12.9953C55.1384 13.1318 55.3842 13.2411 55.6573 13.3503C55.9304 13.4595 56.2854 13.5688 56.695 13.7053C56.9134 13.7872 57.1319 13.8418 57.3231 13.9238C57.5142 13.9784 57.7054 14.0603 57.8692 14.1149C58.0331 14.1695 58.1969 14.2515 58.3335 14.3334C58.47 14.4153 58.6338 14.4972 58.7704 14.5792C59.1254 14.8249 59.3712 15.1253 59.5077 15.4803C59.6442 15.8353 59.7262 16.2176 59.7262 16.6546C59.7262 17.0915 59.6442 17.4738 59.4531 17.8015C59.2619 18.1565 59.0162 18.4296 58.6885 18.6753C58.3608 18.9211 58.0058 19.085 57.5688 19.2215C57.1319 19.358 56.695 19.4127 56.2307 19.4127C55.3023 19.4127 54.5104 19.1669 53.855 18.648C53.6911 18.5115 53.5273 18.3476 53.418 18.2111C53.2815 18.0746 53.1996 17.938 53.1176 17.8288L53.2269 17.7742C53.3907 17.6923 53.5546 17.6376 53.6911 17.6376C53.8003 17.6376 53.9369 17.665 54.0461 17.6923C54.1553 17.7196 54.2646 17.7742 54.3465 17.8561C54.565 18.02 54.7288 18.1565 54.92 18.2657C55.0838 18.3476 55.2477 18.4296 55.3842 18.4842C55.5207 18.5388 55.6846 18.5661 55.8211 18.5661C55.9577 18.5661 56.0942 18.5934 56.2581 18.5934C56.5584 18.5934 56.8588 18.5661 57.1592 18.5115C57.4596 18.4296 57.7327 18.3203 57.9785 18.1565C58.2242 17.9926 58.4154 17.8015 58.5792 17.5557C58.7431 17.3099 58.7977 17.0369 58.7977 16.6819C58.7977 16.2996 58.7431 15.9992 58.6065 15.7807C58.4973 15.5622 58.3061 15.3711 58.115 15.2345C57.8965 15.098 57.6508 14.9888 57.3504 14.8795C57.05 14.7976 56.7496 14.6884 56.4219 14.5519C55.985 14.388 55.6027 14.2515 55.2477 14.1149C54.8927 13.9784 54.5923 13.8145 54.3465 13.6507C54.1007 13.4595 53.9096 13.2411 53.773 12.9953C53.6365 12.7222 53.5546 12.3945 53.5546 11.9576C53.5546 11.5753 53.6365 11.2203 53.8277 10.9199C54.0188 10.6195 54.2646 10.3464 54.5377 10.128C54.8107 9.90951 55.1657 9.74567 55.5207 9.60913C55.8757 9.4999 56.2581 9.41797 56.6404 9.41797C56.9681 9.41797 57.2411 9.44528 57.5142 9.5272C57.76 9.60913 58.0058 9.69105 58.2242 9.82759C58.4427 9.93682 58.6338 10.0734 58.7977 10.2099C58.9615 10.3464 59.1254 10.5103 59.2619 10.6468L59.0162 10.7834C58.9615 10.838 58.8796 10.8653 58.7977 10.8926C58.7158 10.9199 58.6338 10.9199 58.5246 10.9199C58.3608 10.9199 58.1969 10.8926 58.0604 10.8107Z" fill="#111111"/>
<path d="M66.6897 10.8107C66.5804 10.7287 66.4712 10.6741 66.3893 10.5922C66.3074 10.5376 66.1981 10.483 66.1162 10.4284C66.007 10.3737 65.8977 10.3464 65.7612 10.3191C65.6247 10.2918 65.4608 10.2918 65.2697 10.2918C64.9693 10.2918 64.6962 10.3464 64.4504 10.4284C64.1774 10.5103 63.9589 10.6468 63.7677 10.7834C63.5766 10.9472 63.4127 11.1111 63.3035 11.3022C63.1943 11.4934 63.1397 11.7118 63.1397 11.9303C63.1397 12.1761 63.167 12.3945 63.2489 12.5584C63.3308 12.7222 63.44 12.8588 63.6039 12.9953C63.7677 13.1318 64.0135 13.2411 64.2866 13.3503C64.5597 13.4595 64.9147 13.5688 65.3243 13.7053C65.5427 13.7872 65.7612 13.8418 65.9524 13.9238C66.1435 13.9784 66.3347 14.0603 66.4985 14.1149C66.6624 14.1695 66.8262 14.2515 66.9628 14.3334C67.0993 14.4153 67.2631 14.4972 67.3997 14.5792C67.7547 14.8249 68.0005 15.1253 68.137 15.4803C68.2735 15.8353 68.3555 16.2176 68.3555 16.6546C68.3555 17.0915 68.2735 17.4738 68.0824 17.8015C67.8912 18.1565 67.6455 18.4296 67.3178 18.6753C66.9901 18.9211 66.6351 19.085 66.1981 19.2215C65.7612 19.358 65.3243 19.4127 64.86 19.4127C63.9316 19.4127 63.1396 19.1669 62.4843 18.648C62.3204 18.5115 62.1566 18.3476 62.0473 18.2111C61.9381 18.0746 61.8289 17.938 61.7469 17.8288L61.8562 17.7742C62.02 17.6923 62.1839 17.6376 62.3204 17.6376C62.4296 17.6376 62.5662 17.665 62.6754 17.6923C62.7846 17.7196 62.8939 17.7742 62.9758 17.8561C63.1943 18.02 63.3581 18.1565 63.5493 18.2657C63.7131 18.3476 63.877 18.4296 64.0135 18.4842C64.15 18.5388 64.3139 18.5661 64.4504 18.5661C64.587 18.5661 64.7235 18.5934 64.8874 18.5934C65.1877 18.5934 65.4881 18.5661 65.7885 18.5115C66.0889 18.4296 66.362 18.3203 66.6078 18.1565C66.8535 17.9926 67.0447 17.8015 67.2085 17.5557C67.3724 17.3099 67.427 17.0369 67.427 16.6819C67.427 16.2996 67.3724 15.9992 67.2358 15.7807C67.1266 15.5622 66.9354 15.3711 66.7443 15.2345C66.5258 15.098 66.2801 14.9888 65.9797 14.8795C65.6793 14.7976 65.3789 14.6884 65.0512 14.5519C64.6143 14.388 64.232 14.2515 63.877 14.1149C63.522 13.9784 63.2216 13.8145 62.9758 13.6507C62.73 13.4595 62.5389 13.2411 62.4023 12.9953C62.2658 12.7222 62.1839 12.3945 62.1839 11.9576C62.1839 11.5753 62.2658 11.2203 62.457 10.9199C62.6481 10.6195 62.8939 10.3464 63.167 10.128C63.4673 9.90951 63.795 9.74567 64.15 9.60913C64.505 9.4999 64.8874 9.41797 65.2697 9.41797C65.5974 9.41797 65.8704 9.44528 66.1435 9.5272C66.3893 9.60913 66.6351 9.69105 66.8535 9.82759C67.072 9.93682 67.2631 10.0734 67.427 10.2099C67.5908 10.3464 67.7547 10.5103 67.8912 10.6468L67.6455 10.7834C67.5908 10.838 67.5089 10.8653 67.427 10.8926C67.3451 10.9199 67.2631 10.9199 67.1539 10.9199C66.9901 10.9199 66.8262 10.8926 66.6897 10.8107Z" fill="#111111"/>
<path d="M70.1306 10.3739V9.5H78.1591V10.3739H74.6091V19.3035H73.6806V10.3739H70.1306Z" fill="#111111"/>
<path d="M80.7533 19.3309L83.0198 9.52734H86.3787C87.4983 9.52734 88.3449 9.77312 88.9729 10.292C89.601 10.8108 89.9014 11.4935 89.9287 12.3674C89.9287 13.0501 89.7649 13.6508 89.4372 14.197C89.1095 14.7431 88.6179 15.1528 88.0172 15.4532C87.4164 15.7535 86.6791 15.9174 85.8325 15.9174H82.6648L83.0198 14.3062H85.8872C86.3241 14.3062 86.7064 14.2243 87.0068 14.0605C87.3072 13.8966 87.5256 13.6781 87.6622 13.3778C87.7987 13.1047 87.8806 12.8043 87.8533 12.4766C87.8533 12.0943 87.6895 11.7666 87.4437 11.5208C87.1706 11.275 86.761 11.1658 86.1875 11.1658H84.7129L82.8014 19.3582H80.7533V19.3309Z" fill="#111111"/>
<path d="M89.1095 19.3309L94.8988 9.52734H97.3838L98.6127 19.3309H96.6465L95.9638 12.8316L95.8273 11.2477H95.7999L94.9807 12.8043L91.2941 19.3309H89.1095ZM91.813 16.8459L92.168 15.3439H97.493L97.138 16.8459H91.813Z" fill="#111111"/>
<path d="M102.245 19.3309L103.118 15.617L101.152 9.52734H103.173L104.074 12.4766L104.484 14.0605L105.549 12.4493L107.733 9.52734H110L105.167 15.7535L104.347 19.3309H102.245Z" fill="#111111"/>
<circle cx="15.0685" cy="15.0685" r="15.0685" fill="#111111"/>
<path d="M11.8806 21.48V21.5166C11.8806 21.5166 11.8989 21.5166 11.8989 21.5349V21.4983C11.8989 21.48 11.8806 21.48 11.8806 21.48Z" fill="#E72E80"/>
<path d="M15.0867 9.87646C12.2267 9.87646 9.89506 12.2081 9.89506 15.0681C9.89506 15.1774 9.89506 15.4142 9.89506 15.4142V22.9375C9.91327 22.9557 9.94971 22.974 9.96792 22.9922C10.4233 23.2836 10.9152 23.5387 11.4252 23.7573C11.5892 23.8301 11.7531 23.8848 11.9171 23.9394H11.9353V23.903L11.9171 21.4984C11.9171 21.4984 11.8988 21.4984 11.8988 21.4802V21.4438C11.8988 21.4438 11.9171 21.4438 11.9171 21.462L11.8988 19.1303C12.7732 19.8225 13.8844 20.2233 15.0867 20.2233C17.9466 20.2233 20.2783 17.8916 20.2783 15.0317C20.2783 12.1717 17.9466 9.87646 15.0867 9.87646ZM15.0867 18.2742C13.3197 18.2742 11.8806 16.8351 11.8806 15.0681C11.8806 13.3011 13.3197 11.862 15.0867 11.862C16.8537 11.862 18.2928 13.3011 18.2928 15.0681C18.2745 16.8351 16.8537 18.2742 15.0867 18.2742Z" fill="#E72E80"/>
<path d="M21.2073 22.2272H24.5045V24.486H15.0867C14.8498 24.486 14.6312 24.486 14.3944 24.4678C14.2851 24.4678 14.1758 24.4496 14.0848 24.4314H14.0665C13.3379 24.3585 12.6275 24.1945 11.9352 23.9395V23.9031L11.917 21.4985V21.4621C12.8825 21.9357 13.9572 22.209 15.0867 22.209C19.0396 22.209 22.2456 19.0029 22.2456 15.05C22.2456 11.0971 19.0214 7.90921 15.0867 7.90921C11.1519 7.90921 7.90944 11.1153 7.90944 15.0682C7.90944 16.9809 8.65631 18.7115 9.8768 20.0048V22.9376C9.34853 22.5915 8.85669 22.1908 8.40128 21.7354C7.5269 20.8792 6.8529 19.8591 6.37928 18.7479C5.90565 17.582 5.65063 16.3433 5.65063 15.0682C5.65063 13.7931 5.90566 12.5544 6.3975 11.4067C6.87112 10.2773 7.54512 9.27543 8.4195 8.41926C9.27566 7.54488 10.2958 6.87088 11.407 6.39726C12.5728 5.90542 13.8115 5.65039 15.0684 5.65039C16.3436 5.65039 17.5823 5.90542 18.7299 6.39726C19.8593 6.87088 20.8612 7.54488 21.7174 8.41926C22.5918 9.27543 23.2658 10.2955 23.7394 11.4067C24.2312 12.5726 24.4862 13.8113 24.4862 15.0682C24.4862 16.3251 24.2312 17.582 23.7394 18.7297C23.2658 19.8591 22.5918 20.861 21.7174 21.7171C21.5716 21.8993 21.3895 22.0632 21.2073 22.2272Z" fill="#FCEBF3"/>
</svg>
