<svg width="140" height="22" viewBox="0 0 140 22" fill="none" xmlns="http://www.w3.org/2000/svg">
<path d="M23.7139 18.5272C23.7139 18.8613 23.4885 19.1017 23.1641 19.1017C22.83 19.1017 22.6143 18.8463 22.6143 18.5272C22.6143 18.2081 22.83 17.9527 23.1641 17.9527C23.4885 17.9527 23.7139 18.2081 23.7139 18.5272ZM8.45175 17.9527C8.10261 17.9527 7.90197 18.2081 7.90197 18.5272C7.90197 18.8463 8.10349 19.1017 8.45175 19.1017C8.77083 19.1017 8.9865 18.8613 8.9865 18.5272C8.9812 18.2081 8.77083 17.9527 8.45175 17.9527ZM14.2218 17.9385C13.9566 17.9385 13.794 18.11 13.7551 18.3654H14.6929C14.6487 18.0853 14.4772 17.9385 14.2218 17.9385ZM19.5154 17.9527C19.1813 17.9527 18.9806 18.2081 18.9806 18.5272C18.9806 18.8463 19.1822 19.1017 19.5154 19.1017C19.8495 19.1017 20.0652 18.8613 20.0652 18.5272C20.0652 18.2081 19.8486 17.9527 19.5154 17.9527ZM24.7153 19.2343C24.7153 19.2493 24.7303 19.2591 24.7303 19.2882C24.7303 19.3033 24.7153 19.313 24.7153 19.3421C24.7003 19.3572 24.7003 19.3669 24.6906 19.381C24.6755 19.3961 24.6658 19.4058 24.6366 19.4058C24.6216 19.4208 24.6119 19.4208 24.5827 19.4208C24.5677 19.4208 24.558 19.4208 24.5288 19.4058C24.5138 19.4058 24.5041 19.3908 24.4899 19.381C24.4749 19.366 24.4652 19.3563 24.4652 19.3421C24.4501 19.3174 24.4501 19.3033 24.4501 19.2882C24.4501 19.2635 24.4501 19.2493 24.4652 19.2343C24.4652 19.2096 24.4802 19.1954 24.4899 19.1804C24.5049 19.1654 24.5147 19.1654 24.5288 19.1556C24.5536 19.1406 24.5677 19.1406 24.5827 19.1406C24.6075 19.1406 24.6216 19.1406 24.6366 19.1556C24.6614 19.1698 24.6755 19.1698 24.6906 19.1804C24.7056 19.191 24.7003 19.2096 24.7153 19.2343ZM24.6075 19.3033C24.6322 19.3033 24.6322 19.2882 24.6464 19.2882C24.6614 19.2732 24.6614 19.2635 24.6614 19.2493C24.6614 19.2352 24.6614 19.2246 24.6464 19.2104C24.6322 19.2104 24.6216 19.1954 24.5924 19.1954H24.5138V19.3669H24.5527V19.298H24.5677L24.6216 19.3669H24.6605L24.6075 19.3033ZM28.2853 2.35733V19.6427C28.2851 20.2678 28.0367 20.8673 27.5946 21.3093C27.1526 21.7513 26.5531 21.9998 25.928 22H2.35733C1.7322 21.9998 1.13274 21.7513 0.690705 21.3093C0.24867 20.8673 0.000234263 20.2678 0 19.6427V2.35733C0.000234263 1.7322 0.24867 1.13274 0.690705 0.690705C1.13274 0.24867 1.7322 0.000234263 2.35733 0H25.928C26.5531 0.000234263 27.1526 0.24867 27.5946 0.690705C28.0367 1.13274 28.2851 1.7322 28.2853 2.35733ZM3.14399 9.21189C3.14399 12.9684 6.19341 16.0125 9.94464 16.0125C11.2806 16.0087 12.5863 15.6146 13.7012 14.8785C10.1214 11.967 10.1462 6.47184 13.7012 3.55942C12.5874 2.82105 11.281 2.42667 9.94464 2.42539C6.19341 2.42097 3.14399 5.46951 3.14399 9.21189ZM14.1431 14.555C17.6053 11.8538 17.5903 6.59028 14.1431 3.87497C10.6959 6.59028 10.6809 11.8591 14.1431 14.555ZM7.15508 18.3018C7.15508 17.8749 6.87489 17.5947 6.43294 17.5797C6.20667 17.5797 5.96625 17.6486 5.8045 17.8988C5.68694 17.6972 5.48541 17.5797 5.20522 17.5797C5.10341 17.5781 5.00275 17.6015 4.91202 17.6477C4.82129 17.6939 4.74322 17.7616 4.68461 17.8448V17.6292H4.28244V19.4314H4.68461C4.68461 18.5033 4.56175 17.9483 5.12656 17.9483C5.62772 17.9483 5.52961 18.4494 5.52961 19.4314H5.91764C5.91764 18.5325 5.79478 17.9483 6.35958 17.9483C6.86075 17.9483 6.76175 18.4397 6.76175 19.4314H7.1648V18.3018H7.15508ZM9.36038 17.6292H8.97236V17.8448C8.90367 17.7592 8.81602 17.6906 8.71632 17.6446C8.61662 17.5986 8.50759 17.5764 8.39783 17.5797C7.89225 17.5797 7.50422 17.9827 7.50422 18.5272C7.50422 19.077 7.89225 19.4747 8.39783 19.4747C8.65327 19.4747 8.83977 19.381 8.97236 19.2096V19.4358H9.36038V17.6292ZM11.3491 18.8861C11.3491 18.1498 10.2248 18.483 10.2248 18.1392C10.2248 17.859 10.8091 17.9041 11.1335 18.0853L11.2952 17.7662C10.8338 17.4665 9.81205 17.4718 9.81205 18.1692C9.81205 18.871 10.9364 18.5767 10.9364 18.9055C10.9364 19.2149 10.2734 19.1901 9.91989 18.9444L9.74841 19.2538C10.2982 19.6268 11.3491 19.5481 11.3491 18.8852V18.8861ZM13.0877 19.3421L12.9799 19.008C12.7934 19.1106 12.3806 19.2237 12.3806 18.8065V17.9916H13.0241V17.6283H12.3806V17.0785H11.9776V17.6283H11.6046V17.9871H11.9776V18.8074C11.9776 19.6718 12.827 19.5145 13.0877 19.3421ZM13.7401 18.6845H15.0906C15.0906 17.889 14.7274 17.5744 14.2359 17.5744C13.7153 17.5744 13.3423 17.9624 13.3423 18.5219C13.3423 19.5286 14.4525 19.6957 15.0022 19.2193L14.8157 18.9249C14.433 19.2396 13.8532 19.2096 13.7401 18.6845ZM16.6427 17.6292C16.4174 17.5311 16.0735 17.5408 15.8967 17.8448V17.6292H15.4937V19.4314H15.8967V18.4149C15.8967 17.8448 16.3634 17.9191 16.5252 18.0022L16.6427 17.6292ZM17.1634 18.5272C17.1634 17.9668 17.7335 17.7856 18.1798 18.1144L18.3663 17.7953C17.7962 17.349 16.7603 17.5938 16.7603 18.5316C16.7603 19.5039 17.8599 19.7001 18.3663 19.2679L18.1798 18.9488C17.7282 19.2679 17.1634 19.077 17.1634 18.5263V18.5272ZM20.4382 17.6292H20.0351V17.8448C19.6276 17.3048 18.567 17.6097 18.567 18.5272C18.567 19.4703 19.6665 19.7399 20.0351 19.2096V19.4358H20.4382V17.6292ZM22.0928 17.6292C21.9752 17.5699 21.5527 17.4869 21.3468 17.8448V17.6292H20.9588V19.4314H21.3468V18.4149C21.3468 17.8749 21.7887 17.9094 21.9752 18.0022L22.0928 17.6292ZM24.0718 16.8973H23.6838V17.8448C23.2808 17.3101 22.2157 17.5947 22.2157 18.5272C22.2157 19.48 23.3205 19.7346 23.6838 19.2096V19.4358H24.0718V16.8973ZM24.4457 13.2097V13.436H24.4846V13.2097H24.5774V13.1708H24.3511V13.2097H24.4457ZM24.7692 19.2882C24.7692 19.2635 24.7692 19.2343 24.7551 19.2096C24.7401 19.1945 24.7303 19.1707 24.7162 19.1556C24.702 19.1406 24.6773 19.1309 24.6623 19.1168C24.6375 19.1168 24.6084 19.1017 24.5836 19.1017C24.5686 19.1017 24.5447 19.1168 24.5147 19.1168C24.4953 19.1276 24.4772 19.1407 24.4607 19.1556C24.436 19.1698 24.4219 19.1945 24.4219 19.2096C24.4068 19.2343 24.4068 19.2635 24.4068 19.2882C24.4068 19.3033 24.4068 19.3271 24.4219 19.3572C24.4219 19.3722 24.4369 19.3961 24.4607 19.4111C24.4757 19.4278 24.4941 19.4411 24.5147 19.45C24.5394 19.4641 24.5686 19.4641 24.5836 19.4641C24.6084 19.4641 24.6375 19.4641 24.6623 19.45C24.6773 19.435 24.7012 19.4252 24.7162 19.4111C24.7312 19.3969 24.7409 19.3722 24.7551 19.3572C24.7692 19.328 24.7692 19.3033 24.7692 19.2882ZM24.9266 13.1655H24.8576L24.7789 13.337L24.7003 13.1655H24.6313V13.4307H24.6702V13.2292L24.7489 13.4006H24.8028L24.8718 13.2292V13.4307H24.9257L24.9266 13.1655ZM25.1422 9.21189C25.1422 5.46951 22.0928 2.42097 18.3416 2.42097C17.0056 2.42432 15.6997 2.81853 14.5851 3.555C18.1259 6.46742 18.1798 11.9767 14.5851 14.8741C15.6995 15.6112 17.0055 16.0054 18.3416 16.0081C22.0928 16.0134 25.1422 12.9684 25.1422 9.21189Z" fill="black"/>
<path d="M136.801 21.9991H108.2C107.617 21.9991 107.057 21.7673 106.644 21.3547C106.232 20.9421 106 20.3825 106 19.799V10.5439H107.585L107.942 9.67857H108.743L109.099 10.5403H112.218V9.88483L112.497 10.5449H114.116L114.394 9.87383V10.543H122.143V9.12763H122.29C122.394 9.1313 122.425 9.14046 122.425 9.31464V10.5449H126.433V10.2158C126.843 10.4239 127.326 10.5458 127.839 10.5458L127.926 10.5449H127.921H129.608L129.969 9.68315H130.769L131.122 10.5449H134.373V9.72532L134.864 10.5449H137.464V5.13263H134.891V5.77157L134.531 5.13263H131.885V5.77157L131.554 5.13263H127.982C127.44 5.10528 126.901 5.21667 126.415 5.45623L126.434 5.44798V5.13263H123.97V5.44798C123.672 5.21289 123.295 5.10044 122.917 5.13355H122.922H113.918L113.313 6.53152L112.693 5.13355H109.857V5.77249L109.544 5.13355H107.124L106.003 7.70032V2.20009C106.003 1.61659 106.235 1.05699 106.647 0.644392C107.06 0.231795 107.619 0 108.203 0H136.804C137.388 0 137.947 0.231795 138.36 0.644392C138.772 1.05699 139.004 1.61659 139.004 2.20009V11.8072H137.287C137.26 11.8053 137.227 11.8053 137.195 11.8053C136.797 11.8053 136.427 11.9245 136.119 12.1289L136.127 12.1243V11.8072H133.587C133.191 11.7852 132.798 11.898 132.474 12.1271L132.479 12.1234V11.8062H127.945V12.1234C127.574 11.9141 127.155 11.8048 126.729 11.8062H126.693H126.695H123.703V12.1234C123.313 11.8731 122.849 11.7617 122.387 11.8072L122.395 11.8062H119.048L118.282 12.6349L117.565 11.8062H112.565V17.2221H117.472L118.261 16.3806L119.004 17.2221H122.029V15.9543H122.45C122.856 15.9702 123.26 15.9025 123.638 15.7554L123.618 15.7627V17.224H126.112V15.8132H126.232C126.384 15.8132 126.399 15.8187 126.399 15.9727V17.2249H133.977L134.07 17.2267C134.504 17.2267 134.909 17.0965 135.247 16.8738L135.238 16.8784V17.2249H137.642L137.756 17.2267C138.207 17.2267 138.635 17.1341 139.023 16.9664L139.002 16.9746V19.7999C139.002 20.3834 138.77 20.943 138.358 21.3556C137.945 21.7682 137.386 22 136.802 22L136.801 21.9991ZM125.347 16.4631H124.414V12.5809H126.555C126.942 12.545 127.331 12.6101 127.686 12.7697L127.671 12.7642C127.958 12.9219 128.149 13.2226 128.149 13.5672L128.148 13.6287V13.6259L128.149 13.6607C128.149 14.1063 127.88 14.4894 127.495 14.6563L127.488 14.659C127.672 14.725 127.826 14.8378 127.94 14.9835L127.942 14.9854C128.072 15.1996 128.126 15.4509 128.096 15.6995L128.097 15.694V16.4622H127.166V15.9763C127.21 15.7118 127.157 15.4403 127.016 15.2118L127.019 15.2164C126.922 15.1429 126.812 15.0899 126.694 15.0604C126.576 15.0309 126.453 15.0257 126.333 15.045L126.339 15.044H125.347V16.4622V16.4631ZM125.347 13.383V14.2548H126.475C126.634 14.2695 126.794 14.241 126.938 14.1723L126.933 14.175C126.992 14.1369 127.04 14.0847 127.074 14.023C127.108 13.9614 127.125 13.8923 127.125 13.8221L127.125 13.801V13.8019C127.129 13.7318 127.114 13.6619 127.08 13.6003C127.047 13.5386 126.996 13.4877 126.935 13.4536L126.933 13.4526C126.794 13.3904 126.641 13.3652 126.489 13.3793H126.493L125.347 13.383ZM117.074 16.4622H113.401V12.5809H117.132L118.273 13.8532L119.453 12.5809H122.416C123.469 12.5809 123.98 12.9998 123.98 13.8597C123.98 14.7351 123.451 15.1605 122.367 15.1605H121.207V16.4613H119.404L118.262 15.1788L117.075 16.4622H117.074ZM120.283 12.997L118.859 14.5279L120.283 16.1083V12.997ZM114.326 14.8809V15.6527H116.606L117.66 14.5142L116.647 13.383H114.325V14.0888H116.362V14.88L114.326 14.8809ZM121.207 13.3839V14.3721H122.405C122.772 14.3721 122.983 14.1851 122.983 13.8587C122.983 13.5471 122.787 13.383 122.415 13.383L121.207 13.3839ZM137.743 16.464H135.951V15.6298H137.735C137.869 15.6482 138.004 15.6133 138.112 15.5326L138.111 15.5336C138.146 15.5016 138.173 15.4629 138.192 15.4198C138.211 15.3768 138.22 15.3303 138.22 15.2833V15.2806V15.2686C138.22 15.2222 138.21 15.1764 138.191 15.1343C138.171 15.0922 138.143 15.0548 138.108 15.0248C138.013 14.9562 137.896 14.9255 137.779 14.9386H137.781L137.61 14.9331C136.772 14.9111 135.823 14.8855 135.823 13.7368C135.823 13.1776 136.173 12.5809 137.153 12.5809H139.002V13.4077H137.311C137.18 13.3931 137.048 13.4194 136.933 13.4829L136.937 13.4811C136.892 13.5108 136.855 13.5523 136.832 13.601C136.808 13.6497 136.798 13.7039 136.802 13.7579V13.757V13.7671C136.802 13.8288 136.822 13.889 136.858 13.9391C136.894 13.9891 136.945 14.0265 137.004 14.0458L137.006 14.0467C137.122 14.0825 137.244 14.0974 137.365 14.0907H137.362L137.866 14.1035C138.245 14.0656 138.624 14.1786 138.921 14.4179L138.918 14.4161C138.945 14.4381 138.969 14.4619 138.99 14.4885L138.991 14.4894L139.002 15.9672C138.848 16.1473 138.652 16.2868 138.431 16.3733C138.21 16.4597 137.972 16.4906 137.736 16.4631L137.743 16.464ZM134.123 16.464H132.315V15.6298H134.114C134.248 15.6474 134.384 15.6126 134.494 15.5326L134.492 15.5336C134.526 15.5015 134.554 15.4627 134.572 15.4197C134.591 15.3766 134.6 15.3302 134.6 15.2833V15.2806V15.2741C134.6 15.227 134.59 15.1803 134.571 15.1373C134.551 15.0943 134.523 15.056 134.488 15.0248C134.391 14.9562 134.272 14.9255 134.155 14.9386H134.157L133.986 14.9331C133.151 14.9111 132.203 14.8855 132.203 13.7368C132.203 13.1776 132.551 12.5809 133.53 12.5809H135.389V13.4077H133.687C133.557 13.3933 133.426 13.4195 133.312 13.4829L133.316 13.4811C133.268 13.5142 133.23 13.5597 133.205 13.6128C133.181 13.666 133.171 13.7247 133.177 13.7828C133.183 13.8409 133.205 13.8963 133.24 13.9431C133.275 13.9898 133.322 14.0263 133.376 14.0485L133.378 14.0494C133.496 14.0855 133.619 14.1004 133.742 14.0934H133.739L134.239 14.1063C134.62 14.0695 135.001 14.1826 135.301 14.4216L135.298 14.4189C135.399 14.5299 135.475 14.6606 135.523 14.8028C135.571 14.945 135.588 15.0955 135.575 15.2448V15.2402C135.577 16.0497 135.087 16.4622 134.12 16.4622L134.123 16.464ZM131.759 16.464H128.661V12.5799H131.757V13.3821H129.587V14.0879H131.706V14.879H129.587V15.6509L131.759 15.6546V16.4613V16.464ZM133.565 9.78491H131.676L131.315 8.91954H129.388L129.038 9.78491H127.952C127.465 9.81061 126.985 9.65703 126.603 9.35314L126.608 9.35589C126.426 9.1556 126.288 8.9197 126.203 8.66322C126.118 8.40674 126.087 8.13531 126.113 7.86624L126.112 7.87358C126.088 7.59956 126.12 7.3236 126.207 7.06248C126.293 6.80135 126.432 6.56051 126.614 6.3546L126.612 6.35643C126.805 6.18811 127.03 6.0612 127.273 5.98361C127.517 5.90602 127.774 5.8794 128.028 5.90541L128.021 5.9045H128.919V6.73228H128.039C127.911 6.71569 127.78 6.72771 127.656 6.76748C127.533 6.80726 127.419 6.8738 127.324 6.96237L127.325 6.96146C127.129 7.21246 127.034 7.52764 127.059 7.84516V7.84058C127.029 8.1668 127.121 8.49239 127.316 8.75545L127.313 8.75178C127.496 8.90072 127.729 8.97244 127.963 8.95162H127.96H128.376L129.688 5.899H131.081L132.651 9.56582V5.899H134.064L135.694 8.60144V5.899H136.647V9.77849H135.324L133.563 6.8652V9.77849L133.565 9.78491ZM130.358 6.55994L129.719 8.10734H130.999L130.358 6.55994ZM121.375 9.78307H120.447V5.90175H122.581C122.971 5.86132 123.364 5.92755 123.719 6.09334L123.705 6.08784C123.848 6.16674 123.967 6.2824 124.05 6.42281C124.133 6.56322 124.176 6.72325 124.176 6.88629L124.175 6.95046V6.94771V6.97612C124.175 7.18784 124.114 7.39508 123.999 7.57297C123.884 7.75086 123.72 7.89184 123.527 7.979L123.52 7.98175C123.704 8.05142 123.859 8.16326 123.977 8.30626L123.979 8.3081C124.11 8.52314 124.164 8.77619 124.132 9.02588L124.133 9.02038V9.78216H123.197L123.194 9.29264V9.2193C123.227 8.97995 123.174 8.73656 123.044 8.53269L123.047 8.53727C122.95 8.46594 122.84 8.41456 122.723 8.38608C122.606 8.3576 122.484 8.35259 122.365 8.37135L122.371 8.37043H121.376V9.78216L121.375 9.78307ZM121.375 6.70936V7.57107H122.501C122.66 7.58832 122.82 7.55969 122.964 7.48856L122.959 7.4904C123.018 7.4547 123.066 7.4045 123.1 7.34461C123.134 7.28473 123.151 7.21719 123.152 7.14847L123.151 7.1228V7.12371C123.155 7.05406 123.139 6.98456 123.105 6.9238C123.071 6.86304 123.019 6.81367 122.957 6.78178L122.955 6.78087C122.816 6.72101 122.664 6.69585 122.513 6.70753H122.515L121.375 6.70936ZM111.552 9.78307H109.667L109.31 8.9177H107.378L107.018 9.78307H106.01L107.672 5.90175H109.05L110.628 9.57498V5.90175H112.141L113.355 8.53361L114.47 5.90175H116.015V9.78124H115.062L115.06 6.74511L113.715 9.78216H112.901L111.552 6.74053V9.78216L111.552 9.78307ZM108.339 6.55994L107.708 8.10734H108.975L108.339 6.55994ZM125.654 9.78216H124.708V5.90175H125.655V9.78124L125.654 9.78216ZM119.8 9.78216H116.707V5.90175H119.806V6.70845H117.635V7.40789H119.753V8.20451H117.633V8.98004H119.804V9.78124L119.8 9.78216Z" fill="black"/>
<path d="M55.8855 9.7873C55.8855 9.7873 56.2585 11.6143 56.3424 11.997H54.7028L55.4886 9.86067C55.4789 9.87569 55.6503 9.41342 55.7485 9.12881L55.8855 9.7873ZM61.0854 2.35733V19.6427C61.0851 20.2678 60.8367 20.8673 60.3947 21.3093C59.9526 21.7513 59.3532 21.9998 58.728 22H35.1574C34.5322 21.9998 33.9328 21.7513 33.4908 21.3093C33.0487 20.8673 32.8003 20.2678 32.8 19.6427V2.35733C32.8003 1.7322 33.0487 1.13274 33.4908 0.690705C33.9328 0.248671 34.5322 0.000234263 35.1574 0H58.728C59.3532 0.000234263 59.9526 0.248671 60.3947 0.690705C60.8367 1.13274 61.0851 1.7322 61.0854 2.35733ZM40.2892 14.6929L43.3926 7.072H41.3057L39.3762 12.2772L39.1649 11.2219L38.4773 7.71547C38.3641 7.22933 38.0159 7.09144 37.5837 7.072H34.407L34.3725 7.22403C35.1 7.4025 35.7978 7.68533 36.4443 8.06372L38.2024 14.6929H40.2892ZM44.9252 14.7026L46.1627 7.072H44.189L42.9568 14.7026H44.9252ZM51.7948 12.2083C51.8045 11.3394 51.2742 10.6765 50.1402 10.1311C49.4481 9.782 49.0256 9.54689 49.0256 9.18803C49.0353 8.86364 49.3845 8.52953 50.1596 8.52953C50.6645 8.51529 51.1662 8.61435 51.6278 8.81945L51.8045 8.90253L52.075 7.25231C51.5107 7.0363 50.9114 6.92632 50.3072 6.92792C48.3574 6.92792 46.9874 7.96914 46.9776 9.45143C46.9626 10.5466 47.9596 11.1556 48.7065 11.5233C49.4675 11.8963 49.7283 12.142 49.7283 12.4708C49.7186 12.9817 49.1096 13.2168 48.5448 13.2168C47.759 13.2168 47.3365 13.0939 46.693 12.8093L46.4332 12.6865L46.1583 14.4003C46.6197 14.6116 47.4744 14.7981 48.3583 14.8078C50.4301 14.8122 51.7807 13.786 51.7957 12.2056L51.7948 12.2083ZM58.728 14.7026L57.137 7.072H55.6097C55.1386 7.072 54.7797 7.20988 54.5782 7.70575L51.6463 14.7035H53.7182C53.7182 14.7035 54.0567 13.7604 54.1309 13.5597H56.6651C56.7243 13.8302 56.9011 14.7035 56.9011 14.7035L58.728 14.7026Z" fill="black"/>
<path d="M67.2301 0C66.3301 0 65.6 0.729153 65.6 1.62898V20.371C65.6 21.271 66.3302 22 67.2301 22H99.0028C99.9028 22 100.632 21.2708 100.632 20.371V1.62898C100.632 0.729048 99.9027 0 99.0028 0H67.2301ZM84.0432 6.19297C84.0669 6.19237 84.0904 6.19297 84.1143 6.19297C85.6441 6.19297 86.884 7.43264 86.884 8.96269C86.884 10.4927 85.6441 11.7335 84.1143 11.7335C82.5845 11.7335 81.3446 10.4927 81.3446 8.96269C81.3446 7.45656 82.5464 6.2309 84.0432 6.19297ZM75.3005 6.31449C75.8496 6.31449 76.3529 6.50296 76.773 6.87062L76.2617 7.54061C76.007 7.25503 75.7661 7.13445 75.4735 7.13445C75.0521 7.13445 74.7455 7.37389 74.7455 7.68949C74.7455 7.96015 74.9177 8.10413 75.5041 8.32115C76.6157 8.72777 76.9448 9.08831 76.9448 9.88445C76.9448 10.8547 76.2329 11.5299 75.2173 11.5299C74.4739 11.5299 73.9323 11.2363 73.4822 10.5752L74.1138 9.96765C74.3387 10.4029 74.714 10.6355 75.1801 10.6355C75.616 10.6355 75.9387 10.3353 75.9387 9.92936C75.9387 9.71889 75.8417 9.53805 75.6464 9.41043C75.5481 9.35003 75.3535 9.25965 74.971 9.12471C74.0532 8.79418 73.7383 8.44124 73.7383 7.7508C73.7383 6.93063 74.4141 6.31449 75.3005 6.31449H75.3005ZM79.8974 6.31449C80.3178 6.31449 80.6714 6.40435 81.1005 6.62102V7.76614C80.694 7.37035 80.3406 7.20451 79.8744 7.20451C78.9579 7.20451 78.2377 7.96102 78.2377 8.9189C78.2377 9.92939 78.9361 10.6398 79.9203 10.6398C80.3634 10.6398 80.7097 10.4829 81.1005 10.0936V11.2387C80.6561 11.447 80.2952 11.5299 79.8744 11.5299C78.3863 11.5299 77.2305 10.392 77.2305 8.92545C77.2305 7.47468 78.4168 6.31449 79.8973 6.31449H79.8974ZM67.5355 6.39661H68.9805C70.5772 6.39661 71.6901 7.41806 71.6901 8.88495C71.6901 9.61638 71.3494 10.3238 70.7738 10.7931C70.2892 11.1892 69.7373 11.3667 68.9729 11.3667H67.5355V6.39661ZM72.1378 6.39661H73.0749V11.3667H72.1378V6.39661ZM86.4768 6.39661H87.542L88.8754 9.75858L90.2263 6.39657H91.2838L89.1239 11.5299H88.5984L86.4768 6.39661ZM91.691 6.39661H94.4607V7.23846H92.6665V8.34196H94.3951V9.18381H92.6665V10.5249H94.4607V11.3667H91.691V6.39661ZM95.1537 6.39661H96.6054C97.735 6.39661 98.3832 6.93301 98.3832 7.86356C98.3832 8.62456 97.977 9.12387 97.2392 9.27251L98.82 11.3667H97.6147L96.2594 9.3699H96.1313V11.3667H95.1537V6.39664V6.39661ZM96.1379 7.17936V8.69228H96.4214C97.0408 8.69228 97.3695 8.42253 97.3695 7.92049C97.3695 7.43446 97.0408 7.17936 96.4368 7.17936H96.1379ZM68.5197 7.23408V10.5293H68.7835C69.4204 10.5293 69.8237 10.4089 70.1333 10.133C70.4744 9.83375 70.6785 9.35575 70.6785 8.87728C70.6785 8.39997 70.4744 7.93633 70.1333 7.63694C69.8079 7.34618 69.4203 7.23408 68.7835 7.23408H68.5197ZM100.205 11.9349C100.205 11.9349 100.215 17.2728 100.193 20.0787C100.191 20.3243 100.101 20.713 99.8217 21.0366C99.5424 21.3602 99.108 21.5116 98.8485 21.5106C98.589 21.5097 73.4821 21.5106 73.4821 21.5106C90.714 18.5379 100.205 11.9349 100.205 11.9349H100.205Z" fill="black"/>
</svg>
