<svg width="136" height="22" viewBox="0 0 136 22" fill="none" xmlns="http://www.w3.org/2000/svg">
<path d="M63.0854 9.7873C63.0854 9.7873 63.4584 11.6143 63.5424 11.997H61.9028L62.6885 9.86067C62.6788 9.87569 62.8503 9.41342 62.9484 9.12881L63.0854 9.7873ZM68.2853 2.35733V19.6427C68.2851 20.2678 68.0367 20.8673 67.5946 21.3093C67.1526 21.7513 66.5531 21.9998 65.928 22H42.3573C41.7322 21.9998 41.1327 21.7513 40.6907 21.3093C40.2487 20.8673 40.0002 20.2678 40 19.6427V2.35733C40.0002 1.7322 40.2487 1.13274 40.6907 0.690705C41.1327 0.248671 41.7322 0.000234263 42.3573 0H65.928C66.5531 0.000234263 67.1526 0.248671 67.5946 0.690705C68.0367 1.13274 68.2851 1.7322 68.2853 2.35733ZM47.4892 14.6929L50.5925 7.072H48.5057L46.5761 12.2772L46.3649 11.2219L45.6772 7.71547C45.5641 7.22933 45.2158 7.09144 44.7836 7.072H41.6069L41.5724 7.22403C42.2999 7.4025 42.9978 7.68533 43.6443 8.06372L45.4023 14.6929H47.4892ZM52.1252 14.7026L53.3626 7.072H51.3889L50.1568 14.7026H52.1252ZM58.9948 12.2083C59.0045 11.3394 58.4742 10.6765 57.3401 10.1311C56.6481 9.782 56.2256 9.54689 56.2256 9.18803C56.2353 8.86364 56.5844 8.52953 57.3596 8.52953C57.8645 8.51529 58.3661 8.61435 58.8277 8.81945L59.0045 8.90253L59.275 7.25231C58.7107 7.0363 58.1114 6.92632 57.5072 6.92792C55.5573 6.92792 54.1873 7.96914 54.1776 9.45143C54.1626 10.5466 55.1596 11.1556 55.9065 11.5233C56.6675 11.8963 56.9282 12.142 56.9282 12.4708C56.9185 12.9817 56.3095 13.2168 55.7447 13.2168C54.9589 13.2168 54.5364 13.0939 53.893 12.8093L53.6331 12.6865L53.3582 14.4003C53.8196 14.6116 54.6743 14.7981 55.5582 14.8078C57.6301 14.8122 58.9806 13.786 58.9957 12.2056L58.9948 12.2083ZM65.928 14.7026L64.337 7.072H62.8096C62.3385 7.072 61.9797 7.20988 61.7781 7.70575L58.8463 14.7035H60.9181C60.9181 14.7035 61.2566 13.7604 61.3309 13.5597H63.865C63.9242 13.8302 64.101 14.7035 64.101 14.7035L65.928 14.7026Z" fill="#0066B3"/>
<path d="M22.4783 2.39133H12.913V19.6087H22.4783V2.39133Z" fill="#FF5F00"/>
<path d="M13.5302 11C13.5302 7.48611 15.172 4.36944 17.6957 2.35278C15.841 0.886111 13.4998 0 10.9458 0C4.89519 0 0 4.91944 0 11C0 17.0806 4.89519 22 10.9458 22C13.4998 22 15.841 21.1139 17.6957 19.6472C15.172 17.6611 13.5302 14.5139 13.5302 11Z" fill="#EB001B"/>
<path d="M35.3913 11C35.3913 17.0806 30.4961 22 24.4455 22C21.8915 22 19.5503 21.1139 17.6956 19.6472C20.2497 17.6306 21.8611 14.5139 21.8611 11C21.8611 7.48611 20.2193 4.36944 17.6956 2.35278C19.5503 0.886111 21.8915 0 24.4455 0C30.4961 0 35.3913 4.95 35.3913 11Z" fill="#F79E1B"/>
<path d="M108.272 0H74V22H108.397V0H108.272ZM108.151 0.248879C108.151 0.494071 108.151 21.505 108.151 21.7502H74.2498C74.2498 21.505 74.2498 0.494993 74.2498 0.249801L108.151 0.248879Z" fill="#1D1D1B"/>
<path d="M108.145 12.2218C108.145 12.2218 98.8169 18.8042 81.73 21.7493H108.145V12.2218Z" fill="#EF7D00"/>
<path d="M92.0133 5.58411C90.6122 5.58411 89.4748 6.67918 89.4748 8.0305C89.4748 9.46754 90.5625 10.5414 92.0133 10.5414C93.4283 10.5414 94.5454 9.4528 94.5454 8.05907C94.5454 6.66535 93.4356 5.58411 92.0133 5.58411Z" fill="url(#paint0_radial_1411_7877)"/>
<path d="M77.6005 5.67352H76.2353V10.4345H77.5931C78.3139 10.4345 78.8347 10.263 79.2919 9.88143C79.5605 9.65797 79.7769 9.3785 79.9261 9.0626C80.0753 8.74669 80.1536 8.40198 80.1556 8.05262C80.1556 6.6506 79.1057 5.67352 77.6005 5.67352ZM78.6863 9.24909C78.3923 9.51364 78.0143 9.62794 77.4143 9.62794H77.1645V6.48008H77.4143C78.0143 6.48008 78.3775 6.587 78.6863 6.86538C78.8493 7.0162 78.9791 7.19935 79.0673 7.40313C79.1556 7.60692 79.2003 7.82687 79.1988 8.04894C79.2006 8.27348 79.156 8.49598 79.0678 8.70249C78.9796 8.909 78.8497 9.09508 78.6863 9.24909Z" fill="#05171D"/>
<path d="M81.5115 5.67352H80.5842V10.4345H81.5115V5.67352Z" fill="#05171D"/>
<path d="M83.7828 7.49957C83.2297 7.29309 83.061 7.15667 83.061 6.90041C83.061 6.60084 83.3533 6.37224 83.7533 6.37224C84.0298 6.37224 84.2603 6.48654 84.5036 6.75754L84.9885 6.12243C84.6037 5.77894 84.105 5.59069 83.5892 5.59426C82.7476 5.59426 82.1052 6.17958 82.1052 6.95664C82.1052 7.61387 82.4047 7.94939 83.2758 8.26464C83.4993 8.33355 83.7154 8.42432 83.9211 8.53564C84.0059 8.58665 84.076 8.65885 84.1245 8.74516C84.173 8.83146 84.1982 8.92888 84.1976 9.02787C84.1976 9.41317 83.8906 9.69892 83.4758 9.69892C83.2636 9.70224 83.0549 9.64403 82.8749 9.53133C82.695 9.41863 82.5516 9.25626 82.4619 9.06382L81.8637 9.64269C82.2904 10.2695 82.8048 10.5488 83.5127 10.5488C84.476 10.5488 85.1535 9.90356 85.1535 8.98178C85.1526 8.22869 84.8392 7.88579 83.7828 7.49957Z" fill="#05171D"/>
<path d="M85.4457 8.05631C85.4457 9.45648 86.5454 10.5451 87.9594 10.5451C88.3635 10.546 88.7621 10.4513 89.1226 10.2686V9.17073C88.7539 9.53944 88.423 9.69154 88.0018 9.69154C87.0662 9.69154 86.4025 9.01311 86.4025 8.04893C86.4025 7.13638 87.0874 6.41463 87.9594 6.41463C88.4009 6.41463 88.7373 6.57225 89.1226 6.95018V5.85787C88.7726 5.66587 88.3798 5.56536 87.9806 5.56567C87.6502 5.56153 87.3224 5.6228 87.0158 5.74596C86.7093 5.86911 86.4302 6.05171 86.1946 6.28323C85.9589 6.51475 85.7714 6.79061 85.6429 7.09492C85.5144 7.39923 85.4473 7.72597 85.4457 8.05631Z" fill="#05171D"/>
<path d="M96.6462 8.87116L95.376 5.67352H94.362L96.3825 10.5562H96.8821L98.9386 5.67352H97.932L96.6462 8.87116Z" fill="#05171D"/>
<path d="M99.3608 10.4345H101.994V9.62794H100.288V8.34206H101.929V7.53643H100.288V6.48008H101.994V5.67352H99.3608V10.4345Z" fill="#05171D"/>
<path d="M105.67 7.07831C105.67 6.18695 105.057 5.67352 103.985 5.67352H102.607V10.4345H103.536V8.52089H103.658L104.942 10.4345H106.085L104.584 8.42871C105.285 8.28583 105.67 7.80743 105.67 7.07831ZM103.807 7.86458H103.536V6.422H103.818C104.398 6.422 104.713 6.66535 104.713 7.12901C104.713 7.59266 104.401 7.86458 103.807 7.86458Z" fill="#05171D"/>
<path d="M106.325 6.0284C106.325 5.94452 106.269 5.89935 106.167 5.89935H106.031V6.31876H106.13V6.15561L106.248 6.31876H106.372L106.233 6.14547C106.259 6.1402 106.283 6.1255 106.3 6.10402C106.317 6.08254 106.326 6.05571 106.325 6.0284ZM106.15 6.08555H106.131V5.97586H106.151C106.2 5.97586 106.225 5.9943 106.225 6.02932C106.225 6.06435 106.199 6.08555 106.15 6.08555Z" fill="#1D1D1B"/>
<path d="M106.187 5.74174C106.114 5.74028 106.042 5.76065 105.981 5.80026C105.919 5.83988 105.871 5.89694 105.842 5.96417C105.813 6.0314 105.804 6.10576 105.818 6.17776C105.831 6.24976 105.865 6.31614 105.917 6.36845C105.968 6.42076 106.034 6.45661 106.105 6.47145C106.177 6.48628 106.252 6.47942 106.319 6.45174C106.387 6.42407 106.445 6.37683 106.486 6.31604C106.527 6.25526 106.549 6.18369 106.549 6.11045C106.549 6.01393 106.511 5.92125 106.443 5.85231C106.376 5.78337 106.284 5.74367 106.187 5.74174ZM106.187 6.40911C106.128 6.4115 106.068 6.39593 106.017 6.36439C105.966 6.33286 105.926 6.28681 105.901 6.23215C105.877 6.1775 105.869 6.11674 105.879 6.05768C105.89 5.99862 105.917 5.94396 105.959 5.90073C106 5.8575 106.054 5.82766 106.112 5.81506C106.171 5.80247 106.232 5.80767 106.288 5.83002C106.343 5.85237 106.391 5.89084 106.424 5.94048C106.458 5.99013 106.476 6.04868 106.476 6.10861C106.477 6.1867 106.447 6.26204 106.393 6.31829C106.339 6.37454 106.265 6.40717 106.187 6.40911H106.187Z" fill="#1D1D1B"/>
<path d="M84.558 11.6853L85.8006 12.9869V11.7535H85.9775V13.4173L84.7378 12.1195V13.3464H84.5599L84.558 11.6853Z" fill="#1D1D1B"/>
<path d="M84.5414 11.6853V13.3611H84.7516V12.1628L85.9941 13.4616V11.737H85.783V12.9454C85.7287 12.8873 84.5414 11.6439 84.5414 11.6439V11.6853ZM84.5746 11.7268L85.8172 13.0284V11.7692H85.961V13.3768L84.7193 12.0771V13.3298H84.5746V11.7268Z" fill="#1D1D1B"/>
<path d="M86.8385 11.7536H87.6681V11.9176H87.0228V12.3914H87.6515V12.5564H87.0228V13.1814H87.6681V13.3464H86.8385V11.7536Z" fill="#1D1D1B"/>
<path d="M87.6635 11.737H86.821V13.3611H87.6801V13.163H87.0348V12.5702H87.6635V12.3739H87.0348V11.9333H87.6801V11.7351L87.6635 11.737ZM87.6469 11.7692V11.901H87.0016V12.408H87.6312V12.5389H87.0016V13.198H87.6469V13.3298H86.8578V11.7692H87.6469Z" fill="#1D1D1B"/>
<path d="M88.9171 13.3464H88.7392V11.9176H88.3548V11.7536H89.3051V11.9176H88.9171V13.3464Z" fill="#1D1D1B"/>
<path d="M89.3052 11.737H88.3373V11.9351H88.7226V13.3611H88.9328V11.9351H89.3217V11.737H89.3052ZM89.2886 11.7692V11.901H88.8996V13.3298H88.7558V11.901H88.3714V11.7692H89.2886Z" fill="#1D1D1B"/>
<path d="M90.4924 12.9472L91.0058 11.6706L91.5211 12.9472L91.9396 11.7536H92.1322L91.5211 13.4284L91.0058 12.1453L90.4906 13.4284L89.8803 11.7536H90.073L90.4924 12.9472Z" fill="#1D1D1B"/>
<path d="M90.9929 11.6641C90.9929 11.6641 90.5237 12.8237 90.4933 12.9002C90.4666 12.8228 90.0859 11.737 90.0859 11.737H89.8582L90.4924 13.4754C90.4924 13.4754 90.9791 12.2633 91.0077 12.1905L91.5239 13.4754L92.158 11.737H91.9276C91.9276 11.737 91.5469 12.8228 91.5202 12.9002C91.4888 12.8237 91.0058 11.6263 91.0058 11.6263L90.9929 11.6641ZM90.5071 12.9546L91.0058 11.7158C91.0353 11.7867 91.522 12.9943 91.522 12.9943C91.522 12.9943 91.9433 11.7913 91.9516 11.7692H92.112C92.0972 11.8116 91.5524 13.3049 91.5239 13.3823L91.0058 12.1011L90.4906 13.3823C90.4638 13.3049 89.92 11.8153 89.9043 11.7692H90.0601C90.0675 11.7913 90.4896 12.9943 90.4896 12.9943L90.5071 12.9546Z" fill="#1D1D1B"/>
<path d="M94.4284 12.5518C94.4284 12.7159 94.3797 12.8763 94.2886 13.0127C94.1974 13.1491 94.0678 13.2555 93.9163 13.3183C93.7647 13.381 93.5979 13.3975 93.4369 13.3655C93.276 13.3335 93.1282 13.2544 93.0122 13.1384C92.8961 13.0224 92.8171 12.8746 92.7851 12.7137C92.7531 12.5527 92.7695 12.3859 92.8323 12.2343C92.8951 12.0827 93.0015 11.9532 93.1379 11.862C93.2743 11.7709 93.4347 11.7222 93.5988 11.7222C93.8188 11.7222 94.0298 11.8096 94.1854 11.9652C94.341 12.1208 94.4284 12.3318 94.4284 12.5518ZM92.9452 12.5518C92.9465 12.6806 92.9859 12.8061 93.0583 12.9126C93.1308 13.0191 93.2332 13.1017 93.3525 13.1501C93.4719 13.1985 93.6029 13.2105 93.7291 13.1846C93.8553 13.1587 93.9709 13.0961 94.0616 13.0046C94.1522 12.913 94.2137 12.7967 94.2384 12.6703C94.263 12.5439 94.2497 12.413 94.2002 12.2941C94.1506 12.1753 94.0669 12.0737 93.9598 12.0023C93.8526 11.9309 93.7267 11.8927 93.5979 11.8927C93.4239 11.8932 93.2573 11.9625 93.1343 12.0855C93.0113 12.2085 92.942 12.3751 92.9416 12.549L92.9452 12.5518Z" fill="#1D1D1B"/>
<path d="M92.7507 12.5518C92.7498 12.7195 92.7987 12.8838 92.8913 13.0237C92.9838 13.1636 93.1158 13.2729 93.2705 13.3377C93.4252 13.4025 93.5956 13.42 93.7603 13.3878C93.9249 13.3556 94.0763 13.2753 94.1952 13.157C94.3141 13.0388 94.3953 12.8878 94.4283 12.7234C94.4614 12.5589 94.4449 12.3884 94.3809 12.2333C94.3169 12.0783 94.2084 11.9457 94.069 11.8524C93.9296 11.7591 93.7656 11.7093 93.5979 11.7093C93.4869 11.7089 93.377 11.7305 93.2743 11.7726C93.1717 11.8148 93.0783 11.8767 92.9997 11.955C92.921 12.0332 92.8585 12.1262 92.8158 12.2286C92.7731 12.331 92.751 12.4409 92.7507 12.5518ZM92.7839 12.5518C92.7819 12.3902 92.828 12.2316 92.9164 12.0963C93.0047 11.9609 93.1313 11.8549 93.2801 11.7917C93.4288 11.7285 93.593 11.711 93.7518 11.7413C93.9105 11.7717 94.0567 11.8486 94.1716 11.9622C94.2865 12.0759 94.3651 12.2211 94.3973 12.3795C94.4294 12.5379 94.4138 12.7023 94.3523 12.8518C94.2908 13.0012 94.1862 13.129 94.0518 13.2189C93.9175 13.3088 93.7595 13.3567 93.5979 13.3565C93.3834 13.357 93.1775 13.2727 93.025 13.1219C92.8725 12.9712 92.7859 12.7662 92.7839 12.5518Z" fill="#1D1D1B"/>
<path d="M92.9277 12.549C92.9288 12.6811 92.969 12.8099 93.0431 12.9192C93.1173 13.0285 93.2221 13.1134 93.3444 13.1633C93.4668 13.2131 93.6011 13.2256 93.7305 13.1992C93.8599 13.1729 93.9787 13.1088 94.0717 13.0151C94.1648 12.9214 94.2281 12.8022 94.2536 12.6726C94.279 12.543 94.2656 12.4088 94.2149 12.2868C94.1643 12.1648 94.0786 12.0606 93.9688 11.9872C93.859 11.9138 93.7299 11.8745 93.5979 11.8743C93.4196 11.875 93.2488 11.9465 93.1232 12.073C92.9975 12.1995 92.9272 12.3707 92.9277 12.549ZM92.9618 12.549C92.9637 12.4237 93.0025 12.3016 93.0735 12.1982C93.1445 12.0949 93.2444 12.0148 93.3608 11.968C93.4771 11.9213 93.6047 11.91 93.7275 11.9356C93.8503 11.9612 93.9627 12.0225 94.0508 12.1118C94.1388 12.2011 94.1984 12.3144 94.2223 12.4375C94.2461 12.5606 94.2329 12.688 94.1845 12.8037C94.1361 12.9194 94.0546 13.0182 93.9502 13.0877C93.8459 13.1572 93.7233 13.1943 93.5979 13.1943C93.5137 13.1939 93.4304 13.1769 93.3528 13.1442C93.2752 13.1116 93.2048 13.0639 93.1457 13.0039C93.0866 12.944 93.0399 12.8729 93.0083 12.7948C92.9768 12.7168 92.961 12.6332 92.9618 12.549Z" fill="#1D1D1B"/>
<path d="M95.375 13.3464H95.1981V11.7536H95.4303C95.7327 11.7536 96.0129 11.8338 96.0129 12.1923C96.0161 12.2475 96.0083 12.3027 95.99 12.3548C95.9716 12.4068 95.9431 12.4548 95.906 12.4957C95.869 12.5366 95.8241 12.5698 95.7741 12.5932C95.7241 12.6166 95.6699 12.6298 95.6147 12.632L96.1207 13.3464H95.9004L95.4193 12.6468H95.375V13.3464ZM95.375 12.4901H95.4303C95.6313 12.4901 95.8341 12.4523 95.8341 12.2052C95.8341 11.9444 95.6414 11.9176 95.4285 11.9176H95.376L95.375 12.4901Z" fill="#1D1D1B"/>
<path d="M95.1981 11.737H95.1815V13.3611H95.3916V12.6615H95.4193C95.4193 12.6735 95.8875 13.3538 95.8875 13.3538L96.118 13.3611H96.1512C96.1512 13.3611 95.6645 12.6772 95.6396 12.6403C95.7496 12.6295 95.8512 12.5768 95.9233 12.493C95.9954 12.4092 96.0325 12.3009 96.0267 12.1905C96.0267 11.8835 95.8313 11.7351 95.4276 11.7351L95.1981 11.737ZM95.4276 11.7692C95.8138 11.7692 95.9935 11.9038 95.9935 12.1923C95.9965 12.2454 95.9889 12.2985 95.9712 12.3486C95.9535 12.3986 95.926 12.4447 95.8903 12.4841C95.8546 12.5234 95.8115 12.5553 95.7634 12.5779C95.7153 12.6004 95.6632 12.6132 95.6101 12.6154H95.5806L96.0866 13.327H95.9023C95.9023 13.3141 95.434 12.6348 95.434 12.6348L95.3769 12.6274H95.3603V13.327H95.2156V11.7692H95.4276Z" fill="#1D1D1B"/>
<path d="M95.375 11.901H95.3584V12.5066H95.4303C95.6267 12.5066 95.8507 12.4725 95.8507 12.2052C95.8507 11.9241 95.6331 11.901 95.4285 11.901H95.375ZM95.4276 11.9351C95.6322 11.9351 95.8166 11.9554 95.8166 12.2052C95.8166 12.4412 95.6212 12.4735 95.4294 12.4735H95.3916V11.9351H95.4276Z" fill="#1D1D1B"/>
<path d="M97.7265 11.7536H97.9652L97.2177 12.4956L97.9901 13.3464H97.7449L97.0895 12.6154L97.0453 12.6587V13.3464H96.8674V11.7536H97.0453V12.4394L97.7265 11.7536Z" fill="#1D1D1B"/>
<path d="M97.9652 11.737H97.72C97.72 11.737 97.1163 12.3426 97.0647 12.396V11.737H96.8545V13.3611H97.0647V12.6597C97.0745 12.6534 97.0834 12.646 97.0914 12.6375L97.7366 13.3556L97.9938 13.3611H98.0316C98.0316 13.3611 97.2647 12.5168 97.2426 12.4937C97.2665 12.4716 98.0085 11.7351 98.0085 11.7351L97.9652 11.737ZM97.9247 11.7692L97.1937 12.4947L97.9532 13.3298H97.7449C97.7449 13.3206 97.1043 12.6044 97.1043 12.6044L97.0932 12.5905L97.0361 12.6477C97.0361 12.6477 97.0315 13.2975 97.0315 13.3298H96.8877V11.7692H97.0315V12.4762L97.7329 11.7692H97.9247Z" fill="#1D1D1B"/>
<path d="M134.918 0H113V22H134.922V14.7392C135.014 14.595 135.06 14.4259 135.052 14.2549C135.052 14.0302 135.009 13.8903 134.922 13.7729" fill="url(#paint1_radial_1411_7877)"/>
<path d="M114.976 9.51985L114.554 8.49215L114.135 9.51985H114.976ZM124.265 9.11095C124.17 9.15621 124.065 9.1745 123.96 9.16381H123.212V8.59166H123.97C124.07 8.58382 124.17 8.59953 124.262 8.63752C124.304 8.6581 124.339 8.69082 124.362 8.73144C124.385 8.77206 124.395 8.81869 124.392 8.8653C124.395 8.91393 124.385 8.96256 124.363 9.00589C124.341 9.04921 124.307 9.08556 124.265 9.11095ZM129.603 9.51985L129.177 8.49215L128.754 9.51985H129.603ZM119.653 10.6323H119.022V8.61109L118.128 10.6323H117.584L116.689 8.61109V10.6323H115.434L115.201 10.057H113.918L113.679 10.6323H113.009L114.112 8.05448H115.028L116.074 10.4947V8.05448H117.079L117.885 9.80282L118.626 8.05448H119.651V10.6323H119.653ZM122.17 10.6323H120.111V8.05448H122.168V8.59166H120.727V9.05809H122.134V9.58671H120.727V10.1013H122.168L122.17 10.6323ZM125.074 8.74869C125.078 8.89354 125.039 9.03642 124.962 9.15891C124.884 9.2814 124.772 9.37788 124.639 9.4359C124.758 9.47951 124.863 9.55443 124.944 9.65279C125.031 9.78106 125.046 9.89533 125.046 10.1254V10.6323H124.424V10.3066C124.424 10.1511 124.439 9.92876 124.327 9.80516C124.237 9.7142 124.1 9.69477 123.879 9.69477H123.217V10.6323H122.601V8.05448H124.018C124.329 8.05448 124.562 8.06304 124.764 8.17809C124.966 8.29314 125.074 8.46106 125.074 8.74869ZM126.059 10.6323H125.43V8.05448H126.059V10.6323ZM133.352 10.6323H132.476L131.31 8.69738V10.6323H130.053L129.813 10.057H128.534L128.3 10.6323H127.58C127.281 10.6323 126.901 10.5654 126.687 10.347C126.472 10.1285 126.357 9.83159 126.357 9.36282C126.357 8.98035 126.425 8.6313 126.689 8.35222C126.889 8.14622 127.2 8.05138 127.622 8.05138H128.218V8.6041H127.639C127.414 8.6041 127.288 8.63752 127.165 8.75957C127.06 8.86841 126.987 9.07053 126.987 9.34339C126.987 9.61625 127.043 9.81837 127.157 9.94897C127.252 10.0508 127.424 10.0819 127.587 10.0819H127.864L128.727 8.05448H129.651L130.697 10.4947V8.05448H131.635L132.718 9.84947V8.05448H133.349V10.6323H133.352ZM113.003 11.1384H114.056L114.293 10.5654H114.825L115.058 11.1384H117.129V10.7007L117.314 11.1399H118.388L118.573 10.6937V11.1384H123.721V10.1985H123.82C123.89 10.1985 123.911 10.2071 123.911 10.3229V11.1384H126.572V10.9191C126.879 11.0715 127.219 11.1467 127.561 11.1384H128.681L128.921 10.5654H129.453L129.686 11.1384H131.844V10.5942L132.171 11.1384H133.9V7.54063H132.19V7.96509L131.946 7.54063H130.19V7.96509L129.971 7.54063H127.599C127.201 7.54063 126.852 7.59583 126.57 7.75053V7.54063H124.933V7.75053C124.754 7.59117 124.509 7.54063 124.237 7.54063H118.257L117.856 8.4735L117.444 7.54063H115.56V7.96509L115.356 7.54063H113.746L113 9.25088V11.1368L113.003 11.1384Z" fill="white"/>
<path d="M134.918 13.0391H133.795C133.709 13.0291 133.623 13.0454 133.546 13.0857C133.516 13.1057 133.491 13.1335 133.476 13.1662C133.46 13.1989 133.453 13.2353 133.456 13.2715C133.455 13.3138 133.467 13.3554 133.491 13.3901C133.515 13.4247 133.55 13.4505 133.591 13.4635C133.668 13.4865 133.748 13.4963 133.828 13.4923L134.162 13.5016C134.499 13.5102 134.724 13.5677 134.862 13.7092C134.883 13.7279 134.903 13.7493 134.919 13.7729L134.918 13.0391ZM134.919 14.7392C134.769 14.9577 134.478 15.0688 134.083 15.0688H132.893V14.5161H134.078C134.195 14.5161 134.278 14.5006 134.328 14.4524C134.351 14.4308 134.369 14.4046 134.381 14.3756C134.394 14.3466 134.4 14.3153 134.4 14.2837C134.401 14.2512 134.394 14.219 134.381 14.1895C134.367 14.16 134.347 14.134 134.322 14.1134C134.259 14.0677 134.182 14.0472 134.104 14.0559C133.526 14.0365 132.805 14.0738 132.805 13.2583C132.805 12.8844 133.038 12.491 133.689 12.491H134.916V11.978H133.78C133.436 11.978 133.186 12.0604 133.009 12.1886V11.978H131.321C131.051 11.978 130.734 12.0448 130.584 12.1886V11.978H127.573V12.1886C127.333 12.0153 126.929 11.978 126.743 11.978H124.756V12.1886C124.567 12.0044 124.145 11.978 123.888 11.978H121.665L121.156 12.5283L120.68 11.978H117.359V15.5749H120.617L121.141 15.016L121.635 15.5749H123.643V14.7307H123.841C124.107 14.7346 124.421 14.7237 124.696 14.604V15.5749H126.352V14.6374H126.43C126.532 14.6374 126.542 14.6374 126.542 14.7439V15.5749H131.58C131.9 15.5749 132.233 15.4933 132.418 15.3417V15.5749H134.013C134.345 15.5749 134.67 15.5283 134.917 15.4093V14.7392H134.919ZM132.459 13.7092C132.578 13.8328 132.643 13.9898 132.643 14.2534C132.643 14.8084 132.296 15.0673 131.675 15.0673H130.477V14.5146H131.672C131.761 14.5251 131.851 14.5024 131.924 14.4508C131.947 14.4293 131.966 14.4032 131.978 14.3741C131.991 14.3451 131.997 14.3138 131.997 14.2821C131.997 14.2498 131.99 14.2178 131.977 14.1884C131.963 14.159 131.944 14.1329 131.919 14.1119C131.855 14.0668 131.778 14.0464 131.7 14.0543C131.124 14.0349 130.403 14.0722 130.403 13.2568C130.403 12.8828 130.636 12.4895 131.283 12.4895H132.518V13.0383H131.391C131.305 13.0281 131.219 13.0441 131.143 13.0842C131.111 13.1064 131.086 13.1369 131.07 13.1724C131.054 13.2079 131.048 13.2471 131.052 13.2858C131.057 13.3245 131.071 13.3613 131.095 13.3924C131.118 13.4234 131.15 13.4474 131.186 13.462C131.264 13.4855 131.345 13.4955 131.426 13.4915L131.758 13.5001C132.092 13.5102 132.321 13.5677 132.459 13.7092ZM126.9 13.5498C126.805 13.5942 126.699 13.6125 126.595 13.6027H125.851V13.0243H126.61C126.71 13.0153 126.811 13.0311 126.904 13.0702C126.945 13.0929 126.979 13.1269 127.001 13.1682C127.024 13.2095 127.034 13.2564 127.031 13.3034C127.033 13.3522 127.022 13.4006 126.999 13.4439C126.977 13.4871 126.943 13.5237 126.902 13.5498H126.9ZM127.271 13.8709C127.39 13.9132 127.495 13.988 127.574 14.087C127.66 14.2129 127.673 14.3303 127.675 14.5573V15.0688H127.054V14.7462C127.054 14.5907 127.068 14.3614 126.954 14.2417C126.864 14.1492 126.727 14.1274 126.502 14.1274H125.851V15.0688H125.229V12.491H126.651C126.962 12.491 127.19 12.5042 127.392 12.6123C127.495 12.6672 127.579 12.7503 127.635 12.8518C127.691 12.9533 127.717 13.0688 127.709 13.1845C127.714 13.3293 127.675 13.4723 127.597 13.5947C127.519 13.7172 127.407 13.8134 127.274 13.8709H127.271ZM128.049 12.491H130.105V13.0235H128.666V13.49H130.073V14.0163H128.666V14.5293H130.108V15.0642H128.052L128.049 12.491ZM123.896 13.682H123.1V13.0259H123.903C124.125 13.0259 124.28 13.116 124.28 13.3415C124.28 13.5669 124.132 13.682 123.896 13.682ZM122.486 14.8356L121.54 13.7854L122.486 12.7693V14.8356ZM120.043 14.5332H118.529V14.0201H119.881V13.4939H118.529V13.0274H120.073L120.747 13.7792L120.043 14.5332ZM124.941 13.3415C124.941 14.0575 124.407 14.2052 123.868 14.2052H123.1V15.0704H121.902L121.144 14.2153L120.355 15.0704H117.915V12.491H120.393L121.151 13.336L121.934 12.491H123.903C124.392 12.491 124.941 12.6263 124.941 13.3399V13.3415Z" fill="white"/>
<defs>
<radialGradient id="paint0_radial_1411_7877" cx="0" cy="0" r="1" gradientUnits="userSpaceOnUse" gradientTransform="translate(92.0106 8.06276) scale(2.50723)">
<stop offset="0.01" stop-color="#FFF3E8"/>
<stop offset="0.1" stop-color="#FEEEDF"/>
<stop offset="0.24" stop-color="#FDE2C7"/>
<stop offset="0.43" stop-color="#FACE9F"/>
<stop offset="0.65" stop-color="#F6B268"/>
<stop offset="0.89" stop-color="#F18E22"/>
<stop offset="1" stop-color="#EF7D00"/>
</radialGradient>
<radialGradient id="paint1_radial_1411_7877" cx="0" cy="0" r="1" gradientUnits="userSpaceOnUse" gradientTransform="translate(116.867 3.84417) scale(20.568 20.5681)">
<stop stop-color="#9DD5F6"/>
<stop offset="0.07" stop-color="#98D3F5"/>
<stop offset="0.16" stop-color="#89CEF3"/>
<stop offset="0.25" stop-color="#70C6EF"/>
<stop offset="0.35" stop-color="#4EBBEA"/>
<stop offset="0.45" stop-color="#23ADE3"/>
<stop offset="0.5" stop-color="#0DA6E0"/>
<stop offset="1" stop-color="#2E77BC"/>
</radialGradient>
</defs>
</svg>
