<svg width="76" height="24" viewBox="0 0 76 24" fill="none" xmlns="http://www.w3.org/2000/svg">
<path d="M50.3876 23.4781V21.9163C50.3876 21.3177 50.0232 20.9273 49.3985 20.9273C49.0861 20.9273 48.7478 21.0314 48.5135 21.3697C48.3313 21.0834 48.071 20.9273 47.6806 20.9273C47.4203 20.9273 47.16 21.0053 46.9518 21.2917V20.9793H46.4052V23.4781H46.9518V22.0985C46.9518 21.6561 47.1861 21.4478 47.5505 21.4478C47.9149 21.4478 48.0971 21.6821 48.0971 22.0985V23.4781H48.6437V22.0985C48.6437 21.6561 48.9039 21.4478 49.2423 21.4478C49.6067 21.4478 49.7889 21.6821 49.7889 22.0985V23.4781H50.3876ZM58.4824 20.9793H57.5975V20.2245H57.0509V20.9793H56.5563V21.4739H57.0509V22.6191C57.0509 23.1917 57.2851 23.5301 57.9098 23.5301C58.1441 23.5301 58.4044 23.452 58.5865 23.3479L58.4304 22.8794C58.2742 22.9835 58.092 23.0095 57.9619 23.0095C57.7016 23.0095 57.5975 22.8534 57.5975 22.5931V21.4739H58.4824V20.9793ZM63.1155 20.9273C62.8032 20.9273 62.5949 21.0834 62.4648 21.2917V20.9793H61.9182V23.4781H62.4648V22.0725C62.4648 21.6561 62.647 21.4218 62.9854 21.4218C63.0895 21.4218 63.2196 21.4478 63.3237 21.4739L63.4799 20.9533C63.3758 20.9273 63.2196 20.9273 63.1155 20.9273ZM56.1138 21.1875C55.8536 21.0053 55.4892 20.9273 55.0987 20.9273C54.474 20.9273 54.0576 21.2396 54.0576 21.7341C54.0576 22.1506 54.3699 22.3849 54.9165 22.4629L55.1768 22.489C55.4631 22.541 55.6193 22.6191 55.6193 22.7493C55.6193 22.9315 55.4111 23.0616 55.0467 23.0616C54.6823 23.0616 54.396 22.9315 54.2138 22.8013L53.9535 23.2178C54.2398 23.426 54.6302 23.5301 55.0206 23.5301C55.7494 23.5301 56.1659 23.1917 56.1659 22.7232C56.1659 22.2807 55.8275 22.0465 55.307 21.9684L55.0467 21.9424C54.8124 21.9163 54.6302 21.8643 54.6302 21.7081C54.6302 21.5259 54.8124 21.4218 55.0987 21.4218C55.4111 21.4218 55.7234 21.5519 55.8796 21.63L56.1138 21.1875ZM70.6377 20.9273C70.3254 20.9273 70.1172 21.0834 69.987 21.2917V20.9793H69.4404V23.4781H69.987V22.0725C69.987 21.6561 70.1692 21.4218 70.5076 21.4218C70.6117 21.4218 70.7419 21.4478 70.846 21.4739L71.0021 20.9533C70.898 20.9273 70.7419 20.9273 70.6377 20.9273ZM63.6621 22.2287C63.6621 22.9835 64.1827 23.5301 64.9896 23.5301C65.354 23.5301 65.6142 23.452 65.8745 23.2438L65.6142 22.8013C65.406 22.9575 65.1978 23.0356 64.9635 23.0356C64.521 23.0356 64.2087 22.7232 64.2087 22.2287C64.2087 21.7602 64.521 21.4478 64.9635 21.4218C65.1978 21.4218 65.406 21.4999 65.6142 21.6561L65.8745 21.2136C65.6142 21.0053 65.354 20.9273 64.9896 20.9273C64.1827 20.9273 63.6621 21.4739 63.6621 22.2287ZM68.7116 22.2287V20.9793H68.165V21.2917C67.9828 21.0574 67.7226 20.9273 67.3842 20.9273C66.6814 20.9273 66.1348 21.4739 66.1348 22.2287C66.1348 22.9835 66.6814 23.5301 67.3842 23.5301C67.7486 23.5301 68.0089 23.4 68.165 23.1657V23.4781H68.7116V22.2287ZM66.7074 22.2287C66.7074 21.7862 66.9938 21.4218 67.4623 21.4218C67.9048 21.4218 68.2171 21.7602 68.2171 22.2287C68.2171 22.6712 67.9048 23.0356 67.4623 23.0356C66.9938 23.0095 66.7074 22.6712 66.7074 22.2287ZM60.1743 20.9273C59.4455 20.9273 58.9249 21.4478 58.9249 22.2287C58.9249 23.0095 59.4455 23.5301 60.2003 23.5301C60.5647 23.5301 60.9291 23.426 61.2154 23.1917L60.9551 22.8013C60.7469 22.9575 60.4866 23.0616 60.2263 23.0616C59.888 23.0616 59.5496 22.9054 59.4715 22.4629H61.3195V22.2547C61.3456 21.4478 60.8771 20.9273 60.1743 20.9273ZM60.1743 21.3958C60.5127 21.3958 60.7469 21.604 60.799 21.9944H59.4975C59.5496 21.6561 59.7839 21.3958 60.1743 21.3958ZM73.7351 22.2287V19.9902H73.1885V21.2917C73.0063 21.0574 72.7461 20.9273 72.4077 20.9273C71.7049 20.9273 71.1583 21.4739 71.1583 22.2287C71.1583 22.9835 71.7049 23.5301 72.4077 23.5301C72.7721 23.5301 73.0324 23.4 73.1885 23.1657V23.4781H73.7351V22.2287ZM71.7309 22.2287C71.7309 21.7862 72.0173 21.4218 72.4858 21.4218C72.9283 21.4218 73.2406 21.7602 73.2406 22.2287C73.2406 22.6712 72.9283 23.0356 72.4858 23.0356C72.0173 23.0095 71.7309 22.6712 71.7309 22.2287ZM53.4589 22.2287V20.9793H52.9123V21.2917C52.7301 21.0574 52.4699 20.9273 52.1315 20.9273C51.4287 20.9273 50.8821 21.4739 50.8821 22.2287C50.8821 22.9835 51.4287 23.5301 52.1315 23.5301C52.4959 23.5301 52.7562 23.4 52.9123 23.1657V23.4781H53.4589V22.2287ZM51.4287 22.2287C51.4287 21.7862 51.715 21.4218 52.1835 21.4218C52.626 21.4218 52.9384 21.7602 52.9384 22.2287C52.9384 22.6712 52.626 23.0356 52.1835 23.0356C51.715 23.0095 51.4287 22.6712 51.4287 22.2287Z" fill="black"/>
<path d="M64.1304 2.00439H55.9315V16.7365H64.1304V2.00439Z" fill="#FF5F00"/>
<path d="M56.4521 9.37026C56.4521 6.37698 57.8576 3.72207 60.018 2.00419C58.4302 0.754826 56.426 0 54.2396 0C49.06 0 44.8694 4.19059 44.8694 9.37026C44.8694 14.5499 49.06 18.7405 54.2396 18.7405C56.426 18.7405 58.4302 17.9857 60.018 16.7363C57.8576 15.0445 56.4521 12.3635 56.4521 9.37026Z" fill="#EB001B"/>
<path d="M75.1927 9.37026C75.1927 14.5499 71.0021 18.7405 65.8225 18.7405C63.6361 18.7405 61.6319 17.9857 60.0441 16.7363C62.2305 15.0184 63.61 12.3635 63.61 9.37026C63.61 6.37698 62.2045 3.72207 60.0441 2.00419C61.6319 0.754826 63.6361 0 65.8225 0C71.0021 0 75.1927 4.21662 75.1927 9.37026Z" fill="#F79E1B"/>
<g clip-path="url(#clip0_1_583)">
<path d="M17.0584 17.5795H13.8578L15.8705 5.30835H19.071L17.0584 17.5795Z" fill="#0066B3"/>
<path d="M11.1523 5.30845L8.08374 13.7408L7.7208 11.9362L6.63197 6.3912C6.63197 6.3912 6.49999 5.27563 5.11421 5.27563H0.0659897L0 5.50531C0 5.50531 1.55076 5.83342 3.36548 6.91616L6.17004 17.5796H9.50252L14.6167 5.30845H11.1523Z" fill="#0066B3"/>
<path d="M36.3933 17.5795H39.3299L36.7563 5.30835H34.1827C32.9949 5.30835 32.6979 6.22705 32.6979 6.22705L27.9467 17.5795H31.2791L31.939 15.7421H36.0304L36.3933 17.5795ZM32.8629 13.2157L34.5456 8.62222L35.5025 13.2157H32.8629Z" fill="#0066B3"/>
<path d="M28.1776 8.26139L28.6395 5.63654C28.6395 5.63654 27.2208 5.11157 25.736 5.11157C24.1522 5.11157 20.3578 5.80059 20.3578 9.18009C20.3578 12.3627 24.8121 12.3955 24.8121 14.0689C24.8121 15.7422 20.8197 15.4469 19.5 14.397L19.038 17.1531C19.038 17.1531 20.4568 17.8421 22.6675 17.8421C24.8451 17.8421 28.1776 16.7265 28.1776 13.6423C28.1776 10.4597 23.6903 10.1644 23.6903 8.75355C23.6903 7.30988 26.7918 7.50675 28.1776 8.26139Z" fill="#0066B3"/>
<path d="M7.7208 11.9034L6.63197 6.3912C6.63197 6.3912 6.49999 5.27563 5.1142 5.27563H0.0659897L0 5.50531C0 5.50531 2.44162 5.99747 4.75126 7.90048C6.99491 9.67226 7.7208 11.9034 7.7208 11.9034Z" fill="#FAA634"/>
</g>
<defs>
<clipPath id="clip0_1_583">
<rect width="39.3629" height="12.6977" fill="white" transform="translate(0 5.07886)"/>
</clipPath>
</defs>
</svg>
