<svg width="76" height="24" viewBox="0 0 76 24" fill="none" xmlns="http://www.w3.org/2000/svg">
<path d="M50.3875 23.4781V21.9163C50.3875 21.3177 50.0231 20.9273 49.3984 20.9273C49.0861 20.9273 48.7477 21.0314 48.5135 21.3697C48.3313 21.0834 48.071 20.9273 47.6805 20.9273C47.4203 20.9273 47.16 21.0053 46.9517 21.2917V20.9793H46.4052V23.4781H46.9517V22.0985C46.9517 21.6561 47.186 21.4478 47.5504 21.4478C47.9148 21.4478 48.097 21.6821 48.097 22.0985V23.4781H48.6436V22.0985C48.6436 21.6561 48.9039 21.4478 49.2423 21.4478C49.6067 21.4478 49.7889 21.6821 49.7889 22.0985V23.4781H50.3875ZM58.4824 20.9793H57.5974V20.2245H57.0508V20.9793H56.5563V21.4739H57.0508V22.6191C57.0508 23.1917 57.2851 23.5301 57.9097 23.5301C58.144 23.5301 58.4043 23.452 58.5865 23.3479L58.4303 22.8794C58.2741 22.9835 58.0919 23.0095 57.9618 23.0095C57.7015 23.0095 57.5974 22.8534 57.5974 22.5931V21.4739H58.4824V20.9793ZM63.1154 20.9273C62.8031 20.9273 62.5949 21.0834 62.4647 21.2917V20.9793H61.9181V23.4781H62.4647V22.0725C62.4647 21.6561 62.6469 21.4218 62.9853 21.4218C63.0894 21.4218 63.2196 21.4478 63.3237 21.4739L63.4798 20.9533C63.3757 20.9273 63.2196 20.9273 63.1154 20.9273ZM56.1138 21.1875C55.8535 21.0053 55.4891 20.9273 55.0987 20.9273C54.474 20.9273 54.0575 21.2396 54.0575 21.7341C54.0575 22.1506 54.3699 22.3849 54.9165 22.4629L55.1768 22.489C55.4631 22.541 55.6192 22.6191 55.6192 22.7493C55.6192 22.9315 55.411 23.0616 55.0466 23.0616C54.6822 23.0616 54.3959 22.9315 54.2137 22.8013L53.9534 23.2178C54.2397 23.426 54.6302 23.5301 55.0206 23.5301C55.7494 23.5301 56.1658 23.1917 56.1658 22.7232C56.1658 22.2807 55.8275 22.0465 55.3069 21.9684L55.0466 21.9424C54.8124 21.9163 54.6302 21.8643 54.6302 21.7081C54.6302 21.5259 54.8124 21.4218 55.0987 21.4218C55.411 21.4218 55.7234 21.5519 55.8795 21.63L56.1138 21.1875ZM70.6377 20.9273C70.3253 20.9273 70.1171 21.0834 69.987 21.2917V20.9793H69.4404V23.4781H69.987V22.0725C69.987 21.6561 70.1692 21.4218 70.5075 21.4218C70.6117 21.4218 70.7418 21.4478 70.8459 21.4739L71.0021 20.9533C70.898 20.9273 70.7418 20.9273 70.6377 20.9273ZM63.662 22.2287C63.662 22.9835 64.1826 23.5301 64.9895 23.5301C65.3539 23.5301 65.6142 23.452 65.8745 23.2438L65.6142 22.8013C65.406 22.9575 65.1977 23.0356 64.9635 23.0356C64.521 23.0356 64.2086 22.7232 64.2086 22.2287C64.2086 21.7602 64.521 21.4478 64.9635 21.4218C65.1977 21.4218 65.406 21.4999 65.6142 21.6561L65.8745 21.2136C65.6142 21.0053 65.3539 20.9273 64.9895 20.9273C64.1826 20.9273 63.662 21.4739 63.662 22.2287ZM68.7116 22.2287V20.9793H68.165V21.2917C67.9828 21.0574 67.7225 20.9273 67.3841 20.9273C66.6814 20.9273 66.1348 21.4739 66.1348 22.2287C66.1348 22.9835 66.6814 23.5301 67.3841 23.5301C67.7485 23.5301 68.0088 23.4 68.165 23.1657V23.4781H68.7116V22.2287ZM66.7074 22.2287C66.7074 21.7862 66.9937 21.4218 67.4622 21.4218C67.9047 21.4218 68.217 21.7602 68.217 22.2287C68.217 22.6712 67.9047 23.0356 67.4622 23.0356C66.9937 23.0095 66.7074 22.6712 66.7074 22.2287ZM60.1742 20.9273C59.4454 20.9273 58.9249 21.4478 58.9249 22.2287C58.9249 23.0095 59.4454 23.5301 60.2003 23.5301C60.5647 23.5301 60.9291 23.426 61.2154 23.1917L60.9551 22.8013C60.7469 22.9575 60.4866 23.0616 60.2263 23.0616C59.8879 23.0616 59.5495 22.9054 59.4715 22.4629H61.3195V22.2547C61.3455 21.4478 60.877 20.9273 60.1742 20.9273ZM60.1742 21.3958C60.5126 21.3958 60.7469 21.604 60.7989 21.9944H59.4975C59.5495 21.6561 59.7838 21.3958 60.1742 21.3958ZM73.7351 22.2287V19.9902H73.1885V21.2917C73.0063 21.0574 72.746 20.9273 72.4076 20.9273C71.7049 20.9273 71.1583 21.4739 71.1583 22.2287C71.1583 22.9835 71.7049 23.5301 72.4076 23.5301C72.772 23.5301 73.0323 23.4 73.1885 23.1657V23.4781H73.7351V22.2287ZM71.7309 22.2287C71.7309 21.7862 72.0172 21.4218 72.4857 21.4218C72.9282 21.4218 73.2405 21.7602 73.2405 22.2287C73.2405 22.6712 72.9282 23.0356 72.4857 23.0356C72.0172 23.0095 71.7309 22.6712 71.7309 22.2287ZM53.4589 22.2287V20.9793H52.9123V21.2917C52.7301 21.0574 52.4698 20.9273 52.1314 20.9273C51.4287 20.9273 50.8821 21.4739 50.8821 22.2287C50.8821 22.9835 51.4287 23.5301 52.1314 23.5301C52.4958 23.5301 52.7561 23.4 52.9123 23.1657V23.4781H53.4589V22.2287ZM51.4287 22.2287C51.4287 21.7862 51.715 21.4218 52.1835 21.4218C52.626 21.4218 52.9383 21.7602 52.9383 22.2287C52.9383 22.6712 52.626 23.0356 52.1835 23.0356C51.715 23.0095 51.4287 22.6712 51.4287 22.2287Z" fill="black"/>
<path d="M64.1304 2.00439H55.9314V16.7365H64.1304V2.00439Z" fill="#FF5F00"/>
<path d="M56.4521 9.37026C56.4521 6.37698 57.8576 3.72207 60.018 2.00419C58.4302 0.754826 56.426 0 54.2396 0C49.06 0 44.8694 4.19059 44.8694 9.37026C44.8694 14.5499 49.06 18.7405 54.2396 18.7405C56.426 18.7405 58.4302 17.9857 60.018 16.7363C57.8576 15.0445 56.4521 12.3635 56.4521 9.37026Z" fill="#EB001B"/>
<path d="M75.1926 9.37026C75.1926 14.5499 71.0021 18.7405 65.8224 18.7405C63.636 18.7405 61.6318 17.9857 60.0441 16.7363C62.2305 15.0184 63.61 12.3635 63.61 9.37026C63.61 6.37698 62.2044 3.72207 60.0441 2.00419C61.6318 0.754826 63.636 0 65.8224 0C71.0021 0 75.1926 4.21662 75.1926 9.37026Z" fill="#F79E1B"/>
<g clip-path="url(#clip0_103_79)">
<path d="M17.0583 17.5798H13.8578L15.8705 5.30859H19.071L17.0583 17.5798Z" fill="#0066B3"/>
<path d="M11.1523 5.30869L8.08374 13.741L7.7208 11.9364L6.63197 6.39144C6.63197 6.39144 6.49999 5.27588 5.11421 5.27588H0.0659897L0 5.50555C0 5.50555 1.55076 5.83366 3.36548 6.91641L6.17004 17.5799H9.50252L14.6167 5.30869H11.1523Z" fill="#0066B3"/>
<path d="M36.3933 17.5798H39.3299L36.7563 5.30859H34.1827C32.9949 5.30859 32.6979 6.22729 32.6979 6.22729L27.9467 17.5798H31.2791L31.939 15.7424H36.0304L36.3933 17.5798ZM32.8629 13.216L34.5456 8.62247L35.5025 13.216H32.8629Z" fill="#0066B3"/>
<path d="M28.1777 8.26164L28.6396 5.63679C28.6396 5.63679 27.2208 5.11182 25.736 5.11182C24.1523 5.11182 20.3579 5.80084 20.3579 9.18033C20.3579 12.363 24.8122 12.3958 24.8122 14.0691C24.8122 15.7425 20.8198 15.4472 19.5 14.3972L19.0381 17.1533C19.0381 17.1533 20.4569 17.8423 22.6675 17.8423C24.8452 17.8423 28.1777 16.7268 28.1777 13.6426C28.1777 10.4599 23.6904 10.1647 23.6904 8.75379C23.6904 7.31013 26.7919 7.50699 28.1777 8.26164Z" fill="#0066B3"/>
<path d="M7.7208 11.9036L6.63197 6.39144C6.63197 6.39144 6.49999 5.27588 5.1142 5.27588H0.0659897L0 5.50555C0 5.50555 2.44162 5.99771 4.75126 7.90073C6.99491 9.6725 7.7208 11.9036 7.7208 11.9036Z" fill="#FAA634"/>
</g>
<defs>
<clipPath id="clip0_103_79">
<rect width="39.3629" height="12.6977" fill="white" transform="translate(0 5.0791)"/>
</clipPath>
</defs>
</svg>
